<svg width="140" height="28" viewBox="0 0 140 28" fill="none" xmlns="http://www.w3.org/2000/svg">
<path fill-rule="evenodd" clip-rule="evenodd" d="M119.036 2.92876C121.56 6.05398 123.909 8.40144 126.904 10.408C127.195 10.6026 127.49 10.7933 127.792 10.9808L0.0307536 9.99852L0 13.9984L130.881 15.0047C129.19 15.8133 127.69 16.6537 126.308 17.5794C123.313 19.586 120.963 21.9335 118.44 25.0587L121.553 27.5714C123.915 24.6458 125.976 22.6163 128.534 20.9026C131.115 19.1739 134.288 17.7072 138.953 16.0178L138.607 15.0641L139.502 15.071L139.525 12.0356L139.549 11.9697C139.541 11.9669 139.534 11.9641 139.526 11.9613L139.533 11.0711L137.109 11.0525C133.731 9.72898 131.234 8.49394 129.131 7.08482C126.573 5.37116 124.511 3.34162 122.149 0.416016L119.036 2.92876Z" fill="black"/>
</svg>
