<svg width="182" height="130" viewBox="0 0 182 130" fill="none" xmlns="http://www.w3.org/2000/svg">
<path d="M148.804 48.8372C150.977 46.5881 154.681 47.2307 157.418 48.7568C166.596 53.8976 163.859 57.2712 164.422 60.4038" stroke="black" stroke-width="0.75" stroke-miterlimit="10"/>
<path d="M137.371 43.7764C135.037 45.6238 133.587 49.9613 133.829 52.9333C133.909 53.7365 134.07 54.5398 134.553 55.1021C134.956 55.584 135.52 55.9053 136.164 56.1463C138.257 56.8692 140.672 56.3872 142.282 54.9414" fill="white"/>
<path d="M137.371 43.7764C135.037 45.6238 133.587 49.9613 133.829 52.9333C133.909 53.7365 134.07 54.5398 134.553 55.1021C134.956 55.584 135.52 55.9053 136.164 56.1463C138.257 56.8692 140.672 56.3872 142.282 54.9414" stroke="black" stroke-miterlimit="10" stroke-linecap="round"/>
<path d="M151.621 44.7403C148.643 41.1257 143.007 37.6718 138.579 39.7602C137.21 40.4028 136.003 43.7764 136.164 45.3829C136.244 46.4271 139.545 42.5716 139.948 42.8929C141.558 44.0977 143.893 42.9732 144.939 44.5797C145.986 46.1862 144.537 48.4352 144.617 49.8007C145.342 49.0778 146.227 48.7565 147.435 48.9975C147.757 49.0778 147.837 49.3991 147.837 49.7204C147.515 51.5679 145.986 52.5317 144.215 52.6924C143.973 53.094 143.812 53.576 143.812 54.1382C144.939 55.0218 146.549 54.2186 147.676 53.4956C148.321 53.094 148.965 52.6121 149.609 52.2105C150.414 51.6482 151.299 51.0859 151.863 50.2024C152.024 49.8811 152.185 49.4794 152.265 49.1581C153.312 48.0336 153.151 46.5878 151.621 44.7403Z" fill="#131313"/>
<path d="M154.6 60.6445C153.795 56.8692 146.468 54.7808 142.685 55.3431C141.799 55.5037 140.833 55.7447 140.189 56.3873C139.464 56.9496 139.062 57.9135 139.223 58.797L140.269 60.7248" fill="white"/>
<path d="M154.6 60.6445C153.795 56.8692 146.468 54.7808 142.685 55.3431C141.799 55.5037 140.833 55.7447 140.189 56.3873C139.464 56.9496 139.062 57.9135 139.223 58.797L140.269 60.7248" stroke="black" stroke-miterlimit="10"/>
<path d="M137.291 56.4678C126.986 60.3233 123.363 57.753 111.045 56.9497" stroke="black" stroke-width="0.75" stroke-miterlimit="10"/>
<path d="M102.753 55.4238C103.639 55.3435 107.342 54.5403 108.227 54.7812C109.113 55.0222 109.757 55.5042 110.321 56.0664C110.804 56.5484 111.206 57.1106 111.609 57.5926C111.85 57.9942 112.092 58.3958 112.253 58.7974C112.494 59.6007 112.575 60.4039 111.77 61.0465" stroke="black" stroke-width="0.75" stroke-miterlimit="10"/>
<path d="M139.867 56.2266C139.867 56.2266 135.922 57.3511 133.104 60.7247" stroke="black" stroke-width="0.75" stroke-miterlimit="10"/>
<path d="M87.9396 33.4147C85.927 30.0411 83.0287 27.1494 79.3253 26.0249C75.622 24.9003 71.0331 26.1855 69.1009 29.4788C68.3763 30.6837 68.1348 32.5311 69.2619 33.4147C70.711 34.4589 72.6432 33.0934 73.6898 31.6476C74.9779 29.8001 76.0245 27.551 75.3 25.3823C74.8169 24.0168 73.7703 22.8923 72.5627 22.089C68.1348 18.8761 62.0162 17.9925 56.7832 19.7596" stroke="black" stroke-width="0.75" stroke-miterlimit="10"/>
<path d="M66.1223 129C68.6986 126.429 70.7918 122.895 72.0799 118.558" stroke="black" stroke-miterlimit="10" stroke-linecap="round"/>
<path d="M63.385 126.67C65.6392 124.1 67.4909 120.887 68.8595 117.112" stroke="black" stroke-miterlimit="10" stroke-linecap="round"/>
<path d="M61.5334 122.413C62.6606 121.047 63.6267 119.361 64.4317 117.513" stroke="black" stroke-miterlimit="10" stroke-linecap="round"/>
<path d="M30.4573 63.456L33.9996 61.8495L33.275 0H30.6183L30.4573 63.456Z" fill="#131313"/>
<path d="M45.2706 124.181C56.831 124.181 66.2026 114.83 66.2026 103.296C66.2026 91.7623 56.831 82.4121 45.2706 82.4121C33.7102 82.4121 24.3386 91.7623 24.3386 103.296C24.3386 114.83 33.7102 124.181 45.2706 124.181Z" stroke="black" stroke-miterlimit="10"/>
<path d="M45.2707 120.406C54.7413 120.406 62.4188 112.746 62.4188 103.297C62.4188 93.8475 54.7413 86.1875 45.2707 86.1875C35.8 86.1875 28.1226 93.8475 28.1226 103.297C28.1226 112.746 35.8 120.406 45.2707 120.406Z" stroke="black" stroke-miterlimit="10"/>
<path d="M69.1816 106.43C69.1816 107.795 70.5503 113.177 70.5503 113.177H189.057L190.426 105.145L69.1816 106.43Z" stroke="black" stroke-miterlimit="10"/>
<path d="M18.4616 113.658C15.8048 114.14 0.508374 110.044 0.991419 108.277C1.47446 106.51 10.0083 109.642 11.7794 106.911C13.5506 104.261 19.8302 70.6048 46.3172 71.5686C72.8042 72.4522 79.5668 106.028 79.5668 106.028L69.2619 106.51C69.2619 106.51 66.6051 79.6011 47.6858 79.6011C35.5292 79.6011 31.5038 83.6173 27.4784 87.6335C23.3725 91.6497 18.4616 113.658 18.4616 113.658Z" stroke="black" stroke-miterlimit="10"/>
<path d="M1.072 107.794C1.072 106.027 -0.457643 76.8696 5.90246 72.8534C12.182 68.8372 32.953 60.7244 47.7664 59.4393C62.6603 58.0737 68.7789 57.4312 68.7789 57.4312C68.7789 57.4312 63.1433 58.0737 64.9145 59.8409C66.6857 61.608 217.637 60.3228 222.146 59.3589C226.654 58.4754 238.328 57.9934 238.328 57.9934" stroke="black" stroke-miterlimit="10"/>
<path d="M17.5759 78.7175C21.1183 76.8701 24.5801 74.7817 27.1564 71.649C28.1224 70.4442 28.9275 68.5164 27.8004 67.3918C27.4784 67.1509 27.1564 66.9902 26.7538 66.8296C23.3725 65.705 19.7497 67.5525 17.0124 69.7212C14.5167 71.649 12.1014 74.1391 11.3769 77.2717C11.2159 77.834 11.2159 78.4766 11.4574 78.9585C11.6989 79.3601 12.1819 79.6814 12.665 79.8421C14.2751 80.324 16.0463 79.5208 17.5759 78.7175Z" stroke="black" stroke-miterlimit="10"/>
<path d="M7.43204 93.4971C7.11001 93.4167 6.78798 93.738 6.54645 93.979C5.82189 95.0232 5.33884 96.3887 5.74138 97.6739C6.14392 98.9591 7.59305 99.8427 8.80066 99.3607C9.92777 98.8788 10.3303 97.5133 10.2498 96.3887C10.2498 95.5052 10.0083 94.6216 9.44473 94.0593C8.88117 93.4167 7.75407 93.2561 7.11001 93.8184" stroke="black" stroke-miterlimit="10"/>
<path d="M105.49 36.7886C105.49 36.7886 69.8255 56.9499 68.5374 57.5122" stroke="black" stroke-miterlimit="10"/>
<path d="M83.1091 60.9659L107.1 35.5835L115.393 36.4671C114.507 37.6719 93.1726 60.9659 93.1726 60.9659H83.1091Z" fill="black"/>
<path d="M174.083 60.3235L173.761 37.0296L164.744 36.4673C164.744 37.9934 164.341 60.7252 164.341 60.7252L174.083 60.3235Z" fill="black"/>
<path d="M164.18 60.9658C164.18 60.9658 168.045 60.0822 168.689 67.7933C169.252 75.5848 159.672 105.385 159.672 105.385" stroke="black" stroke-miterlimit="10"/>
<path d="M87.2955 60.9663C86.7319 62.1712 82.2235 67.5529 81.5794 75.023C81.0159 82.4932 81.0159 105.787 81.0159 105.787" stroke="black" stroke-miterlimit="10"/>
<path d="M155.244 71.3278C157.245 71.3278 158.867 69.6735 158.867 67.6329C158.867 65.5923 157.245 63.938 155.244 63.938C153.243 63.938 151.621 65.5923 151.621 67.6329C151.621 69.6735 153.243 71.3278 155.244 71.3278Z" stroke="black" stroke-miterlimit="10"/>
<path d="M148.964 68.677L160.88 68.436" stroke="black" stroke-miterlimit="10"/>
<path d="M107.02 51.0859C107.02 51.0859 101.063 52.2908 98.9694 53.7366C96.8762 55.1825 93.5754 56.7086 95.3466 59.1183C97.1178 61.5281 105.249 62.7329 106.698 62.7329C108.147 62.7329 107.02 51.0859 107.02 51.0859Z" fill="white" stroke="black" stroke-miterlimit="10"/>
<path d="M45.5122 107.071C47.1574 107.071 48.491 105.741 48.491 104.099C48.491 102.458 47.1574 101.127 45.5122 101.127C43.8671 101.127 42.5334 102.458 42.5334 104.099C42.5334 105.741 43.8671 107.071 45.5122 107.071Z" stroke="black" stroke-miterlimit="10"/>
<path d="M57.5882 101.69L53.4019 104.1L57.4272 106.43C56.6222 104.984 56.6222 103.136 57.5882 101.69Z" stroke="black" stroke-miterlimit="10"/>
<path d="M40.7623 96.8707V92.0513C39.9572 93.6578 38.2665 94.5413 36.4954 94.461L40.7623 96.8707Z" stroke="black" stroke-miterlimit="10"/>
<path d="M49.2153 96.7904L53.3212 94.461C51.6306 94.5413 50.0204 93.5774 49.2153 92.0513V96.7904Z" stroke="black" stroke-miterlimit="10"/>
<path d="M49.2153 111.41V116.229C50.0204 114.623 51.7111 113.739 53.4822 113.819L49.2153 111.41Z" stroke="black" stroke-miterlimit="10"/>
<path d="M40.7624 111.41L36.6565 113.739C38.3472 113.659 39.9573 114.623 40.7624 116.149V111.41Z" stroke="black" stroke-miterlimit="10"/>
<path d="M32.3894 106.59L36.5758 104.18L32.5504 101.851C33.3555 103.297 33.275 105.144 32.3894 106.59Z" stroke="black" stroke-miterlimit="10"/>
<path d="M107.422 37.913C114.91 41.8488 124.087 39.6801 135.197 39.6801C146.307 39.6801 195.659 39.3588 195.659 39.3588C195.659 39.3588 218.12 39.0375 219.569 38.6359C221.099 38.3146 221.099 37.19 221.099 37.19C221.099 37.19 221.985 33.2542 198.074 32.8525C174.163 32.5313 114.587 33.1738 111.931 33.8968C109.274 34.6197 102.914 36.3868 103.236 37.5113L107.422 37.913Z" fill="black"/>
<path d="M42.9359 33.2539H21.9234C19.9107 33.2539 18.3005 31.6474 18.3005 29.6393V4.17659C18.3005 2.16849 19.9107 0.562012 21.9234 0.562012H42.9359C44.9486 0.562012 46.5587 2.16849 46.5587 4.17659V29.6393C46.5587 31.6474 44.9486 33.2539 42.9359 33.2539Z" fill="#C04538"/>
<path d="M41.3257 31.005H23.5335C21.5208 31.005 19.9106 29.3985 19.9106 27.3904V6.50618C19.9106 4.49808 21.5208 2.8916 23.5335 2.8916H41.3257C43.3384 2.8916 44.9485 4.49808 44.9485 6.50618V27.3904C44.9485 29.3182 43.3384 31.005 41.3257 31.005Z" stroke="white" stroke-width="0.75" stroke-miterlimit="10"/>
<path d="M27.0757 8.99586C28.2833 8.75489 29.974 8.59424 32.4697 8.59424C34.8044 8.59424 36.5756 9.07618 37.7027 9.95974C38.8298 10.8433 39.5544 12.3695 39.5544 14.1366C39.5544 15.9037 38.9908 17.3496 37.9442 18.3938C36.6561 19.5986 34.7239 20.1609 32.4697 20.1609C32.0672 20.1609 31.6646 20.0806 31.4231 20.0806V25.9442H27.0757V8.99586ZM31.4231 16.6266C31.6646 16.6266 31.9867 16.707 32.3892 16.707C34.0798 16.707 35.1264 15.8234 35.1264 14.2972C35.1264 13.0121 34.3214 12.1285 32.6307 12.1285C31.9867 12.1285 31.5841 12.2088 31.3426 12.2088V16.6266H31.4231Z" fill="white"/>
</svg>
