<svg width="300" height="332" viewBox="0 0 300 332" fill="none" xmlns="http://www.w3.org/2000/svg">
<rect x="0.5" y="0.5" width="299" height="331" stroke="black"/>
<path d="M81.6915 55.4112C81.6915 55.4112 84.1202 58.7396 88.4148 58.7396C90.8435 58.7396 93.0121 57.5577 93.0121 55.235C93.0121 50.4162 80.7807 51.2923 80.7807 44.1946C80.7807 40.2072 84.1636 38.2358 88.5449 38.2358C90.7568 38.2358 95.1806 39.112 95.1806 42.2232V44.107H92.4049V43.0556C92.4049 41.4347 90.0629 40.8214 88.6316 40.8214C85.5957 40.8214 83.7741 41.8728 83.7741 44.0193C83.7741 48.9705 96.0055 47.8315 96.0055 55.1474C96.0055 58.8272 92.7094 61.3252 88.3714 61.3252C82.689 61.3252 80 57.4692 80 57.4692L81.6915 55.4112ZM101.468 33.5493C101.468 32.936 101.121 32.5856 100.513 32.5856H98.6918V30H101.771C103.636 30 104.418 30.6571 104.418 32.5408V47.1744H106.673C107.497 47.1744 108.538 46.9116 109.145 46.123L114.74 38.7633H118.34L112.05 46.8249C110.966 48.1829 110.402 48.4028 110.402 48.4028V48.4905C110.402 48.4905 111.052 48.7971 111.746 50.1113L115.694 57.2529C116.084 57.9967 116.518 58.2167 117.689 58.2167H118.86V60.8013H116.822C114.653 60.8013 114.046 60.4509 113.048 58.6109L108.71 50.7247C108.233 49.8485 107.192 49.7609 106.412 49.7609H104.417V60.8013H101.467V33.5493H101.468ZM123.934 67.3268C125.843 67.3268 127.144 65.7497 127.968 63.7337L129.269 60.711L121.591 42.3547C121.244 41.5661 120.854 41.3471 120.073 41.3471H119.64V38.7624H120.984C122.936 38.7624 123.543 39.2005 124.324 41.1719L129.919 54.9284C130.352 56.0235 130.699 57.294 130.699 57.294H130.786C130.786 57.294 131.09 56.0235 131.523 54.9284L136.901 41.1719C137.639 39.2005 138.289 38.7624 140.285 38.7624H141.629V41.3471H141.196C140.415 41.3471 139.981 41.5661 139.678 42.3547L130.266 65.3993C129.137 68.203 126.926 70 124.019 70C120.983 70 119.291 67.8525 119.291 67.8525L120.679 65.6621C120.681 65.7069 122.068 67.3268 123.934 67.3268ZM154.944 37.9301C161.276 37.9301 164.747 42.6175 164.747 48.5324C164.747 49.1896 164.616 50.5914 164.616 50.5914H149.349C149.782 54.535 152.645 56.594 155.984 56.594C159.542 56.594 162.187 54.0969 162.187 54.0969L164.486 57.9529C164.486 57.9529 161.103 61.3261 155.594 61.3261C148.263 61.3261 143.709 55.9816 143.709 49.6285C143.709 42.7489 148.308 37.9301 154.944 37.9301ZM159.107 46.7363C159.02 44.0641 157.2 42.2241 154.944 42.2241C152.124 42.2241 150.129 43.9326 149.522 46.7363H159.107ZM170.079 44.1508C170.079 43.4937 169.732 43.187 169.125 43.187H167.389V38.4558H172.464C174.416 38.4558 175.37 39.3757 175.37 40.9528V41.6099C175.37 42.0918 175.283 42.5737 175.283 42.5737H175.37C176.324 40.69 178.709 37.9301 183.178 37.9301C188.079 37.9301 190.898 40.5147 190.898 46.4297V55.1483C190.898 55.7616 191.245 56.113 191.853 56.113H193.588V60.8004H188.34C186.257 60.8004 185.389 59.9243 185.389 57.8206V47.5687C185.389 44.8517 184.695 43.0118 181.92 43.0118C178.97 43.0118 176.758 44.8955 175.977 47.5687C175.674 48.4886 175.544 49.4962 175.544 50.5476V60.7995H170.079V44.1508ZM205.557 37.9301C210.675 37.9301 212.367 41.0842 212.367 41.0842H212.454V40.5147C212.454 39.5072 213.148 38.4558 214.882 38.4558H220V43.187H218.309C217.745 43.187 217.354 43.4937 217.354 44.0632V59.4405C217.354 67.1069 211.456 69.9991 205.687 69.9991C202.911 69.9991 199.961 69.2106 197.836 68.0716L199.528 63.6899C199.528 63.6899 202.26 65.1803 205.644 65.1803C208.984 65.1803 211.89 63.7337 211.89 59.7034V58.652C211.89 58.1263 211.933 57.4692 211.933 57.4692H211.846C210.545 59.3529 208.636 60.3614 205.688 60.3614C199.355 60.3614 195.755 55.1912 195.755 49.0572C195.755 42.9232 199.18 37.9301 205.557 37.9301ZM212.02 49.1019C212.02 44.0193 209.504 42.6613 206.511 42.6613C203.171 42.6613 201.349 45.1145 201.349 48.882C201.349 52.7818 203.301 55.6731 206.858 55.6731C209.504 55.674 212.02 54.1398 212.02 49.1019Z" fill="#333333"/>
<path d="M96.37 180H87.69V146.05C85.59 147.03 83.0233 147.52 79.99 147.52H72.15V139.4H79.29C82.1833 139.4 84.3067 138.98 85.66 138.14C87.0133 137.253 87.69 135.9 87.69 134.08H96.37V180ZM133.999 180.84C129.192 180.84 124.945 179.977 121.259 178.25C117.572 176.523 114.702 174.12 112.649 171.04C110.642 167.913 109.639 164.32 109.639 160.26V153.89C109.639 149.83 110.642 146.237 112.649 143.11C114.702 139.983 117.572 137.557 121.259 135.83C124.945 134.103 129.192 133.24 133.999 133.24C138.759 133.24 142.959 134.103 146.599 135.83C150.285 137.557 153.132 139.983 155.139 143.11C157.145 146.237 158.149 149.83 158.149 153.89V160.26C158.149 164.367 157.145 167.983 155.139 171.11C153.132 174.19 150.309 176.593 146.669 178.32C143.029 180 138.805 180.84 133.999 180.84ZM133.999 172.72C138.899 172.72 142.702 171.647 145.409 169.5C148.115 167.353 149.469 164.32 149.469 160.4V153.82C149.469 149.947 148.092 146.913 145.339 144.72C142.585 142.48 138.782 141.36 133.929 141.36C129.029 141.36 125.202 142.457 122.449 144.65C119.695 146.843 118.319 149.9 118.319 153.82V160.4C118.319 164.273 119.695 167.307 122.449 169.5C125.202 171.647 129.052 172.72 133.999 172.72ZM178.126 156.27C173.879 156.27 170.496 155.267 167.976 153.26C165.456 151.253 164.196 148.593 164.196 145.28V144.65C164.196 141.29 165.456 138.607 167.976 136.6C170.496 134.593 173.879 133.59 178.126 133.59C182.372 133.59 185.732 134.593 188.206 136.6C190.679 138.56 191.916 141.243 191.916 144.65V145.28C191.916 148.593 190.656 151.253 188.136 153.26C185.662 155.267 182.326 156.27 178.126 156.27ZM178.056 150.11C179.969 150.11 181.486 149.69 182.606 148.85C183.726 147.963 184.286 146.797 184.286 145.35V144.58C184.286 143.087 183.726 141.92 182.606 141.08C181.486 140.193 179.969 139.75 178.056 139.75C176.142 139.75 174.626 140.193 173.506 141.08C172.432 141.92 171.896 143.087 171.896 144.58V145.35C171.896 146.797 172.456 147.963 173.576 148.85C174.696 149.69 176.189 150.11 178.056 150.11ZM214.946 180.42C210.699 180.42 207.316 179.417 204.796 177.41C202.276 175.403 201.016 172.743 201.016 169.43V168.8C201.016 165.44 202.276 162.757 204.796 160.75C207.316 158.743 210.699 157.74 214.946 157.74C219.192 157.74 222.552 158.743 225.026 160.75C227.499 162.71 228.736 165.393 228.736 168.8V169.43C228.736 172.743 227.476 175.403 224.956 177.41C222.482 179.417 219.146 180.42 214.946 180.42ZM214.876 174.26C216.789 174.26 218.306 173.84 219.426 173C220.546 172.113 221.106 170.947 221.106 169.5V168.73C221.106 167.237 220.546 166.07 219.426 165.23C218.306 164.343 216.789 163.9 214.876 163.9C212.962 163.9 211.446 164.343 210.326 165.23C209.252 166.07 208.716 167.237 208.716 168.73V169.5C208.716 170.947 209.276 172.113 210.396 173C211.516 173.84 213.009 174.26 214.876 174.26ZM213.126 134.08H221.456V135.41L179.736 180H171.406V178.81L213.126 134.08Z" fill="black"/>
<path d="M57.9984 255.11V259.62H63.0364V255.11H65.0384V266H63.0364V261.424H57.9984V266H56.0184V255.11H57.9984ZM77.9799 264.196V266H76.8139C76.2859 266 75.8239 265.912 75.4279 265.736C75.0466 265.545 74.7532 265.274 74.5479 264.922C73.7412 265.817 72.5972 266.264 71.1159 266.264C69.9426 266.264 69.0112 265.985 68.3219 265.428C67.6326 264.871 67.2879 264.101 67.2879 263.118C67.2879 262.223 67.5812 261.519 68.1679 261.006C68.7546 260.493 69.6566 260.155 70.8739 259.994L74.1519 259.554V258.85C74.1519 258.146 73.9466 257.611 73.5359 257.244C73.1399 256.877 72.5532 256.694 71.7759 256.694C71.0132 256.694 70.4192 256.877 69.9939 257.244C69.5832 257.596 69.3779 258.095 69.3779 258.74V258.894H67.3759V258.74C67.3759 257.537 67.7719 256.584 68.5639 255.88C69.3706 255.176 70.4632 254.824 71.8419 254.824C73.2206 254.824 74.2839 255.183 75.0319 255.902C75.7799 256.606 76.1539 257.603 76.1539 258.894V263.096C76.1539 263.829 76.5059 264.196 77.2099 264.196H77.9799ZM71.2479 264.548C71.8932 264.548 72.4652 264.409 72.9639 264.13C73.4772 263.851 73.8732 263.47 74.1519 262.986V261.116L71.2039 261.556C69.9132 261.761 69.2679 262.275 69.2679 263.096C69.2679 263.551 69.4439 263.91 69.7959 264.174C70.1626 264.423 70.6466 264.548 71.2479 264.548ZM95.1258 265.692V266H92.9698L89.5378 261.424H87.6898V266H85.7098V255.088H87.6898V259.664H89.4938L92.7938 255.088H94.9498V255.396L91.2978 260.522L95.1258 265.692ZM106.905 255.088V255.396L102.351 267.276C102.014 268.156 101.581 268.787 101.053 269.168C100.54 269.549 99.8288 269.74 98.9194 269.74H97.1814V267.936H98.7434C99.1981 267.936 99.5501 267.855 99.7994 267.694C100.063 267.533 100.291 267.195 100.481 266.682L100.679 266.132L96.3894 255.396V255.088H98.4134L101.713 263.558L104.881 255.088H106.905ZM113.949 254.824C115.225 254.824 116.245 255.22 117.007 256.012C117.77 256.789 118.151 257.831 118.151 259.136V261.952C118.151 263.257 117.77 264.306 117.007 265.098C116.245 265.875 115.225 266.264 113.949 266.264C112.732 266.264 111.735 265.897 110.957 265.164V269.74H108.977V255.088H110.759L110.847 256.012C111.639 255.22 112.673 254.824 113.949 254.824ZM116.149 259.224C116.149 258.447 115.915 257.831 115.445 257.376C114.991 256.921 114.367 256.694 113.575 256.694C113.003 256.694 112.483 256.826 112.013 257.09C111.559 257.339 111.207 257.691 110.957 258.146V262.964C111.207 263.404 111.559 263.756 112.013 264.02C112.468 264.269 112.989 264.394 113.575 264.394C114.367 264.394 114.991 264.167 115.445 263.712C115.915 263.257 116.149 262.641 116.149 261.864V259.224ZM124.933 266.264C124.009 266.264 123.195 266.081 122.491 265.714C121.787 265.347 121.244 264.834 120.863 264.174C120.482 263.499 120.291 262.722 120.291 261.842V259.246C120.291 258.366 120.482 257.596 120.863 256.936C121.244 256.261 121.787 255.741 122.491 255.374C123.195 255.007 124.009 254.824 124.933 254.824C125.798 254.824 126.568 255.007 127.243 255.374C127.932 255.726 128.468 256.217 128.849 256.848C129.23 257.479 129.421 258.197 129.421 259.004V259.246H127.441V259.004C127.441 258.329 127.206 257.779 126.737 257.354C126.268 256.914 125.666 256.694 124.933 256.694C124.112 256.694 123.466 256.929 122.997 257.398C122.528 257.853 122.293 258.483 122.293 259.29V261.798C122.293 262.605 122.528 263.243 122.997 263.712C123.466 264.167 124.112 264.394 124.933 264.394C125.666 264.394 126.268 264.189 126.737 263.778C127.206 263.353 127.441 262.81 127.441 262.15V261.908H129.421V262.15C129.421 263.382 129.01 264.379 128.189 265.142C127.368 265.89 126.282 266.264 124.933 266.264ZM137.424 258.872C138.597 258.872 139.521 259.195 140.196 259.84C140.885 260.471 141.23 261.299 141.23 262.326V262.546C141.23 263.573 140.885 264.409 140.196 265.054C139.521 265.685 138.597 266 137.424 266H131.946V255.088H133.926V258.872H137.424ZM144.486 255.088V266H142.484V255.088H144.486ZM139.25 262.348C139.25 261.849 139.088 261.446 138.766 261.138C138.443 260.83 137.966 260.676 137.336 260.676H133.926V264.196H137.336C137.966 264.196 138.443 264.049 138.766 263.756C139.088 263.463 139.25 263.052 139.25 262.524V262.348ZM157.846 266.264C156.453 266.264 155.338 265.861 154.502 265.054C153.666 264.247 153.248 263.177 153.248 261.842V259.268C153.248 257.919 153.666 256.841 154.502 256.034C155.338 255.227 156.453 254.824 157.846 254.824C159.254 254.824 160.376 255.227 161.212 256.034C162.063 256.841 162.488 257.919 162.488 259.268V261.842C162.488 263.177 162.063 264.247 161.212 265.054C160.376 265.861 159.254 266.264 157.846 266.264ZM157.868 264.394C158.675 264.394 159.313 264.159 159.782 263.69C160.266 263.221 160.508 262.59 160.508 261.798V259.334C160.508 258.513 160.273 257.867 159.804 257.398C159.335 256.929 158.689 256.694 157.868 256.694C157.061 256.694 156.416 256.929 155.932 257.398C155.463 257.867 155.228 258.513 155.228 259.334V261.798C155.228 262.605 155.463 263.243 155.932 263.712C156.416 264.167 157.061 264.394 157.868 264.394ZM163.455 256.892V255.088H172.717V256.892H169.087V266H167.085V256.892H163.455ZM181.662 255.088V264.196H186.128V255.088H188.13V264.196H192.552V255.088H194.554V266H179.682V255.088H181.662ZM206.866 265.692V266H204.71L201.278 261.424H199.43V266H197.45V255.088H199.43V259.664H201.234L204.534 255.088H206.69V255.396L203.038 260.522L206.866 265.692ZM212.459 266.264C211.066 266.264 209.951 265.861 209.115 265.054C208.279 264.247 207.861 263.177 207.861 261.842V259.268C207.861 257.919 208.279 256.841 209.115 256.034C209.951 255.227 211.066 254.824 212.459 254.824C213.867 254.824 214.989 255.227 215.825 256.034C216.676 256.841 217.101 257.919 217.101 259.268V261.842C217.101 263.177 216.676 264.247 215.825 265.054C214.989 265.861 213.867 266.264 212.459 266.264ZM212.481 264.394C213.288 264.394 213.926 264.159 214.395 263.69C214.879 263.221 215.121 262.59 215.121 261.798V259.334C215.121 258.513 214.887 257.867 214.417 257.398C213.948 256.929 213.303 256.694 212.481 256.694C211.675 256.694 211.029 256.929 210.545 257.398C210.076 257.867 209.841 258.513 209.841 259.334V261.798C209.841 262.605 210.076 263.243 210.545 263.712C211.029 264.167 211.675 264.394 212.481 264.394ZM228.404 266H226.424V256.892H222.222L222.112 262.062C222.082 263.411 221.804 264.409 221.276 265.054C220.762 265.685 219.97 266 218.9 266H218.306V264.196H218.658C219.2 264.196 219.589 264.013 219.824 263.646C220.073 263.279 220.212 262.685 220.242 261.864L220.396 255.088H228.404V266ZM236.853 258.872C238.027 258.872 238.951 259.195 239.625 259.84C240.315 260.471 240.659 261.299 240.659 262.326V262.546C240.659 263.573 240.315 264.409 239.625 265.054C238.951 265.685 238.027 266 236.853 266H231.375V255.088H233.355V258.872H236.853ZM243.915 255.088V266H241.913V255.088H243.915ZM238.679 262.348C238.679 261.849 238.518 261.446 238.195 261.138C237.873 260.83 237.396 260.676 236.765 260.676H233.355V264.196H236.765C237.396 264.196 237.873 264.049 238.195 263.756C238.518 263.463 238.679 263.052 238.679 262.524V262.348ZM68.0541 296.196V298H66.8881C66.3601 298 65.8981 297.912 65.5021 297.736C65.1208 297.545 64.8275 297.274 64.6221 296.922C63.8155 297.817 62.6715 298.264 61.1901 298.264C60.0168 298.264 59.0855 297.985 58.3961 297.428C57.7068 296.871 57.3621 296.101 57.3621 295.118C57.3621 294.223 57.6555 293.519 58.2421 293.006C58.8288 292.493 59.7308 292.155 60.9481 291.994L64.2261 291.554V290.85C64.2261 290.146 64.0208 289.611 63.6101 289.244C63.2141 288.877 62.6275 288.694 61.8501 288.694C61.0875 288.694 60.4935 288.877 60.0681 289.244C59.6575 289.596 59.4521 290.095 59.4521 290.74V290.894H57.4501V290.74C57.4501 289.537 57.8461 288.584 58.6381 287.88C59.4448 287.176 60.5375 286.824 61.9161 286.824C63.2948 286.824 64.3581 287.183 65.1061 287.902C65.8541 288.606 66.2281 289.603 66.2281 290.894V295.096C66.2281 295.829 66.5801 296.196 67.2841 296.196H68.0541ZM61.3221 296.548C61.9675 296.548 62.5395 296.409 63.0381 296.13C63.5515 295.851 63.9475 295.47 64.2261 294.986V293.116L61.2781 293.556C59.9875 293.761 59.3421 294.275 59.3421 295.096C59.3421 295.551 59.5181 295.91 59.8701 296.174C60.2368 296.423 60.7208 296.548 61.3221 296.548ZM71.598 287.11V291.62H76.636V287.11H78.638V298H76.636V293.424H71.598V298H69.618V287.11H71.598ZM88.2958 287.088V288.892H83.5218V298H81.5418V287.088H88.2958ZM98.3801 298H96.4001V288.892H92.1981L92.0881 294.062C92.0588 295.411 91.7801 296.409 91.2521 297.054C90.7388 297.685 89.9468 298 88.8761 298H88.2821V296.196H88.6341C89.1768 296.196 89.5654 296.013 89.8001 295.646C90.0494 295.279 90.1888 294.685 90.2181 293.864L90.3721 287.088H98.3801V298ZM103.2 287.088V294.854L108.348 287.088H110.174V298H108.238V290.234L103.112 298H101.286V287.088H103.2ZM114.995 287.088V294.854L120.143 287.088H121.969V298H120.033V290.234L114.907 298H113.081V287.088H114.995ZM117.525 285.548C116.425 285.548 115.574 285.321 114.973 284.866C114.386 284.397 114.093 283.729 114.093 282.864V282.71H115.831V282.864C115.831 283.553 116.403 283.898 117.547 283.898C118.662 283.898 119.219 283.553 119.219 282.864V282.71H120.957V282.864C120.957 283.729 120.664 284.397 120.077 284.866C119.49 285.321 118.64 285.548 117.525 285.548ZM129.144 298.264C128.22 298.264 127.406 298.081 126.702 297.714C125.998 297.347 125.455 296.834 125.074 296.174C124.692 295.499 124.502 294.722 124.502 293.842V291.246C124.502 290.366 124.692 289.596 125.074 288.936C125.455 288.261 125.998 287.741 126.702 287.374C127.406 287.007 128.22 286.824 129.144 286.824C130.009 286.824 130.779 287.007 131.454 287.374C132.143 287.726 132.678 288.217 133.06 288.848C133.441 289.479 133.632 290.197 133.632 291.004V291.246H131.652V291.004C131.652 290.329 131.417 289.779 130.948 289.354C130.478 288.914 129.877 288.694 129.144 288.694C128.322 288.694 127.677 288.929 127.208 289.398C126.738 289.853 126.504 290.483 126.504 291.29V293.798C126.504 294.605 126.738 295.243 127.208 295.712C127.677 296.167 128.322 296.394 129.144 296.394C129.877 296.394 130.478 296.189 130.948 295.778C131.417 295.353 131.652 294.81 131.652 294.15V293.908H133.632V294.15C133.632 295.382 133.221 296.379 132.4 297.142C131.578 297.89 130.493 298.264 129.144 298.264ZM145.507 297.692V298H143.351L139.919 293.424H138.071V298H136.091V287.088H138.071V291.664H139.875L143.175 287.088H145.331V287.396L141.679 292.522L145.507 297.692ZM151.1 298.264C149.706 298.264 148.592 297.861 147.756 297.054C146.92 296.247 146.502 295.177 146.502 293.842V291.268C146.502 289.919 146.92 288.841 147.756 288.034C148.592 287.227 149.706 286.824 151.1 286.824C152.508 286.824 153.63 287.227 154.466 288.034C155.316 288.841 155.742 289.919 155.742 291.268V293.842C155.742 295.177 155.316 296.247 154.466 297.054C153.63 297.861 152.508 298.264 151.1 298.264ZM151.122 296.394C151.928 296.394 152.566 296.159 153.036 295.69C153.52 295.221 153.762 294.59 153.762 293.798V291.334C153.762 290.513 153.527 289.867 153.058 289.398C152.588 288.929 151.943 288.694 151.122 288.694C150.315 288.694 149.67 288.929 149.186 289.398C148.716 289.867 148.482 290.513 148.482 291.334V293.798C148.482 294.605 148.716 295.243 149.186 295.712C149.67 296.167 150.315 296.394 151.122 296.394ZM165.017 287.088V288.892H160.243V298H158.263V287.088H165.017ZM170.522 298.264C169.128 298.264 168.014 297.861 167.178 297.054C166.342 296.247 165.924 295.177 165.924 293.842V291.268C165.924 289.919 166.342 288.841 167.178 288.034C168.014 287.227 169.128 286.824 170.522 286.824C171.93 286.824 173.052 287.227 173.888 288.034C174.738 288.841 175.164 289.919 175.164 291.268V293.842C175.164 295.177 174.738 296.247 173.888 297.054C173.052 297.861 171.93 298.264 170.522 298.264ZM170.544 296.394C171.35 296.394 171.988 296.159 172.458 295.69C172.942 295.221 173.184 294.59 173.184 293.798V291.334C173.184 290.513 172.949 289.867 172.48 289.398C172.01 288.929 171.365 288.694 170.544 288.694C169.737 288.694 169.092 288.929 168.608 289.398C168.138 289.867 167.904 290.513 167.904 291.334V293.798C167.904 294.605 168.138 295.243 168.608 295.712C169.092 296.167 169.737 296.394 170.544 296.394ZM192.694 298H190.692V293.93H188.866L185.566 298H183.344V297.736L186.49 293.864C185.522 293.717 184.76 293.373 184.202 292.83C183.66 292.273 183.388 291.576 183.388 290.74V290.432C183.388 289.405 183.755 288.591 184.488 287.99C185.222 287.389 186.197 287.088 187.414 287.088H192.694V298ZM190.692 292.236V288.87H187.436C186.806 288.87 186.307 289.009 185.94 289.288C185.574 289.567 185.39 289.955 185.39 290.454V290.718C185.39 291.202 185.566 291.576 185.918 291.84C186.285 292.104 186.791 292.236 187.436 292.236H190.692ZM202.62 292.478C203.178 292.683 203.603 292.991 203.896 293.402C204.19 293.798 204.336 294.282 204.336 294.854V295.162C204.336 296.145 203.926 296.907 203.104 297.45C202.298 297.993 201.168 298.264 199.716 298.264C198.264 298.264 197.12 297.934 196.284 297.274C195.463 296.614 195.052 295.719 195.052 294.59V294.15H197.032V294.48C197.032 295.14 197.267 295.646 197.736 295.998C198.206 296.335 198.888 296.504 199.782 296.504C200.633 296.504 201.271 296.372 201.696 296.108C202.136 295.844 202.356 295.455 202.356 294.942V294.744C202.356 294.289 202.202 293.945 201.894 293.71C201.586 293.461 201.154 293.336 200.596 293.336H198.33V291.62H200.486C201.058 291.62 201.498 291.503 201.806 291.268C202.114 291.033 202.268 290.703 202.268 290.278V290.08C202.268 289.596 202.056 289.229 201.63 288.98C201.22 288.731 200.604 288.606 199.782 288.606C198.888 288.606 198.206 288.789 197.736 289.156C197.267 289.508 197.032 290.021 197.032 290.696V290.982H195.052V290.652C195.052 289.904 195.243 289.244 195.624 288.672C196.02 288.085 196.57 287.638 197.274 287.33C197.978 287.007 198.792 286.846 199.716 286.846C201.11 286.846 202.21 287.117 203.016 287.66C203.823 288.203 204.226 288.943 204.226 289.882V290.19C204.226 291.261 203.691 292.023 202.62 292.478ZM212.275 290.872C213.449 290.872 214.373 291.195 215.047 291.84C215.737 292.471 216.081 293.299 216.081 294.326V294.546C216.081 295.573 215.737 296.409 215.047 297.054C214.373 297.685 213.449 298 212.275 298H206.797V287.088H208.777V290.872H212.275ZM219.337 287.088V298H217.335V287.088H219.337ZM214.101 294.348C214.101 293.849 213.94 293.446 213.617 293.138C213.295 292.83 212.818 292.676 212.187 292.676H208.777V296.196H212.187C212.818 296.196 213.295 296.049 213.617 295.756C213.94 295.463 214.101 295.052 214.101 294.524V294.348ZM231.723 297.692V298H229.567L226.135 293.424H224.287V298H222.307V287.088H224.287V291.664H226.091L229.391 287.088H231.547V287.396L227.895 292.522L231.723 297.692ZM243.56 296.196V298H242.394C241.866 298 241.404 297.912 241.008 297.736C240.627 297.545 240.333 297.274 240.128 296.922C239.321 297.817 238.177 298.264 236.696 298.264C235.523 298.264 234.591 297.985 233.902 297.428C233.213 296.871 232.868 296.101 232.868 295.118C232.868 294.223 233.161 293.519 233.748 293.006C234.335 292.493 235.237 292.155 236.454 291.994L239.732 291.554V290.85C239.732 290.146 239.527 289.611 239.116 289.244C238.72 288.877 238.133 288.694 237.356 288.694C236.593 288.694 235.999 288.877 235.574 289.244C235.163 289.596 234.958 290.095 234.958 290.74V290.894H232.956V290.74C232.956 289.537 233.352 288.584 234.144 287.88C234.951 287.176 236.043 286.824 237.422 286.824C238.801 286.824 239.864 287.183 240.612 287.902C241.36 288.606 241.734 289.603 241.734 290.894V295.096C241.734 295.829 242.086 296.196 242.79 296.196H243.56ZM236.828 296.548C237.473 296.548 238.045 296.409 238.544 296.13C239.057 295.851 239.453 295.47 239.732 294.986V293.116L236.784 293.556C235.493 293.761 234.848 294.275 234.848 295.096C234.848 295.551 235.024 295.91 235.376 296.174C235.743 296.423 236.227 296.548 236.828 296.548Z" fill="black"/>
</svg>
