<svg width="300" height="332" viewBox="0 0 300 332" fill="none" xmlns="http://www.w3.org/2000/svg">
<rect x="0.5" y="0.5" width="299" height="331" stroke="black"/>
<path d="M138.02 134.08V141.92C131.44 148.733 126.33 155.313 122.69 161.66C119.05 168.007 117.23 173.537 117.23 178.25V180H107.92V178.25C107.92 173.257 109.624 167.61 113.03 161.31C116.437 154.963 121.244 148.5 127.45 141.92H94.0603V134.08H138.02ZM158.659 156.27C154.412 156.27 151.029 155.267 148.509 153.26C145.989 151.253 144.729 148.593 144.729 145.28V144.65C144.729 141.29 145.989 138.607 148.509 136.6C151.029 134.593 154.412 133.59 158.659 133.59C162.905 133.59 166.265 134.593 168.739 136.6C171.212 138.56 172.449 141.243 172.449 144.65V145.28C172.449 148.593 171.189 151.253 168.669 153.26C166.195 155.267 162.859 156.27 158.659 156.27ZM158.589 150.11C160.502 150.11 162.019 149.69 163.139 148.85C164.259 147.963 164.819 146.797 164.819 145.35V144.58C164.819 143.087 164.259 141.92 163.139 141.08C162.019 140.193 160.502 139.75 158.589 139.75C156.675 139.75 155.159 140.193 154.039 141.08C152.965 141.92 152.429 143.087 152.429 144.58V145.35C152.429 146.797 152.989 147.963 154.109 148.85C155.229 149.69 156.722 150.11 158.589 150.11ZM195.479 180.42C191.232 180.42 187.849 179.417 185.329 177.41C182.809 175.403 181.549 172.743 181.549 169.43V168.8C181.549 165.44 182.809 162.757 185.329 160.75C187.849 158.743 191.232 157.74 195.479 157.74C199.725 157.74 203.085 158.743 205.559 160.75C208.032 162.71 209.269 165.393 209.269 168.8V169.43C209.269 172.743 208.009 175.403 205.489 177.41C203.015 179.417 199.679 180.42 195.479 180.42ZM195.409 174.26C197.322 174.26 198.839 173.84 199.959 173C201.079 172.113 201.639 170.947 201.639 169.5V168.73C201.639 167.237 201.079 166.07 199.959 165.23C198.839 164.343 197.322 163.9 195.409 163.9C193.495 163.9 191.979 164.343 190.859 165.23C189.785 166.07 189.249 167.237 189.249 168.73V169.5C189.249 170.947 189.809 172.113 190.929 173C192.049 173.84 193.542 174.26 195.409 174.26ZM193.659 134.08H201.989V135.41L160.269 180H151.939V178.81L193.659 134.08Z" fill="black"/>
<path fill-rule="evenodd" clip-rule="evenodd" d="M92.1575 40.6384C92.0456 43.343 91.9194 45.8051 91.7797 48.0264C91.6392 50.2468 91.4508 52.2478 91.2144 54.0261C90.9763 55.8051 90.6617 57.3785 90.2705 58.7446C89.8793 60.1114 89.3762 61.2924 88.7612 62.289C88.37 62.9446 87.9292 63.4854 87.4404 63.9121C86.9516 64.338 86.4409 64.68 85.9109 64.9371C85.3792 65.1933 84.8551 65.3707 84.3385 65.471C83.8211 65.5704 83.3391 65.6201 82.8924 65.6201C82.2496 65.6201 81.7112 65.5704 81.2779 65.471C80.8447 65.3707 80.4198 65.2216 80 65.0219L80.6284 59.9838C80.7959 60.0412 80.9633 60.0832 81.1315 60.1114C81.299 60.1397 81.4672 60.1543 81.6346 60.1543C82.0814 60.1543 82.5222 60.0412 82.9546 59.8115C83.3879 59.5853 83.758 59.2005 84.0668 58.6589C84.4849 58.0341 84.8484 57.1163 85.1563 55.9054C85.4633 54.6954 85.7359 53.1511 85.9732 51.2717C86.2104 49.3924 86.3997 47.1514 86.5393 44.5462C86.6782 41.941 86.7757 38.903 86.833 35.4297H104.147V65.321H98.4032V40.6384H92.1575Z" fill="black"/>
<path fill-rule="evenodd" clip-rule="evenodd" d="M121.357 52.5522H121.231L119.429 55.669L111.966 65.3203H108.529V43.9688H113.979V54.1316L113.727 57.0359H113.895L115.614 54.0039L123.16 43.9688H126.597V65.3203H121.148V55.5833L121.357 52.5522Z" fill="black"/>
<path fill-rule="evenodd" clip-rule="evenodd" d="M141.392 48.8781V65.3183H135.775V48.8781H129.781V43.9668H147.22V48.8781H141.392Z" fill="black"/>
<path fill-rule="evenodd" clip-rule="evenodd" d="M159.349 40.039C158.79 40.039 158.259 40.0604 157.756 40.1033C157.253 40.1453 156.848 40.1958 156.541 40.2533V49.9465C156.652 49.9748 156.819 50.0039 157.044 50.0314C157.267 50.0605 157.506 50.0819 157.756 50.0956C158.007 50.1102 158.252 50.117 158.49 50.117H159.013C159.769 50.117 160.517 50.0468 161.256 49.9037C161.997 49.7623 162.661 49.4983 163.248 49.1144C163.835 48.7296 164.302 48.1957 164.652 47.5118C165.001 46.8288 165.176 45.9324 165.176 44.8227C165.176 43.8826 165.009 43.107 164.673 42.4943C164.339 41.8832 163.897 41.3913 163.353 41.022C162.808 40.6518 162.185 40.3947 161.487 40.2533C160.789 40.1101 160.075 40.039 159.349 40.039ZM154.675 35.1928C156.085 35.0643 157.49 35 158.888 35C160.341 35 161.802 35.1217 163.268 35.3634C164.736 35.605 166.057 36.0892 167.23 36.8151C168.404 37.5409 169.361 38.5513 170.101 39.8462C170.841 41.1428 171.212 42.8293 171.212 44.9066C171.212 46.786 170.892 48.374 170.248 49.6688C169.605 50.9646 168.754 52.0238 167.691 52.8499C166.629 53.6761 165.42 54.2742 164.066 54.6436C162.71 55.0147 161.305 55.1989 159.854 55.1989H159.181C158.873 55.1989 158.553 55.1912 158.216 55.1775C157.882 55.1629 157.553 55.1424 157.231 55.1141C156.91 55.0858 156.679 55.0567 156.54 55.0284V65.3198H150.797V35.7259C151.97 35.4988 153.264 35.3205 154.675 35.1928Z" fill="#FF4C00"/>
<path fill-rule="evenodd" clip-rule="evenodd" d="M182.144 47.7236C180.441 47.7741 179.645 48.2112 178.933 49.063C178.226 49.9106 177.818 51.0675 177.681 52.5192L185.509 52.5937C185.62 51.0572 185.484 49.8703 184.915 49.045C184.346 48.2189 183.367 47.6867 182.144 47.7236ZM186.493 65.2127C185.055 65.6832 183.524 65.918 181.903 65.918C178.521 65.918 176.048 64.9145 174.483 62.9066C172.918 60.8996 172.136 58.1452 172.136 54.6436C172.136 50.8867 173.016 48.0672 174.776 46.1887C176.537 44.3094 179.01 43.3701 182.196 43.3701C183.258 43.3701 184.293 43.5124 185.299 43.7969C186.305 44.0814 187.199 44.5519 187.982 45.2058C188.765 45.8613 189.394 46.744 189.868 47.8538C190.343 48.9636 190.582 50.3459 190.582 51.9973C190.582 52.5937 190.546 53.2348 190.476 53.9178C190.407 54.6008 190.302 55.3121 190.163 56.0534H177.527C177.611 57.847 178.163 59.1985 178.985 60.1094C179.806 61.0212 181.137 61.4754 182.975 61.4754C184.115 61.4754 185.123 61.2492 186.045 60.9424C187.194 60.5602 188.276 60.0392 188.276 60.0392L189.91 63.4833C189.071 64.1663 187.932 64.7431 186.493 65.2127Z" fill="#FF4C00"/>
<path fill-rule="evenodd" clip-rule="evenodd" d="M208.298 48.0936C208.298 48.0936 206.629 47.7482 205.315 47.7482C201.574 47.7482 199.145 49.9301 199.145 54.7454C199.145 59.2625 200.998 61.4941 204.905 61.4941C206.178 61.4941 208.633 61.147 208.633 61.147L209.385 65.006C208.358 65.3393 206.343 65.8432 203.917 65.8432C196.312 65.8432 193.515 60.1898 193.515 54.4523C193.515 48.6737 196.804 43.4805 204.37 43.4805C205.767 43.4805 207.492 43.6476 209.097 44.0666L208.298 48.0936Z" fill="#FF4C00"/>
<path fill-rule="evenodd" clip-rule="evenodd" d="M216.907 50.0552C215.198 50.0552 213.814 48.6455 213.814 46.905C213.814 45.1645 215.198 43.7539 216.907 43.7539C218.614 43.7539 220 45.1645 220 46.905C220 48.6455 218.614 50.0552 216.907 50.0552Z" fill="#FF4C00"/>
<path fill-rule="evenodd" clip-rule="evenodd" d="M220 62.4859C220 64.2256 218.614 65.6362 216.907 65.6362C215.198 65.6362 213.814 64.2256 213.814 62.4859C213.814 60.7446 215.198 59.334 216.907 59.334C218.614 59.334 220 60.7454 220 62.4859Z" fill="#FF4C00"/>
<path d="M101.912 255.11V259.62H106.95V255.11H108.952V266H106.95V261.424H101.912V266H99.9325V255.11H101.912ZM121.894 264.196V266H120.728C120.2 266 119.738 265.912 119.342 265.736C118.961 265.545 118.667 265.274 118.462 264.922C117.655 265.817 116.511 266.264 115.03 266.264C113.857 266.264 112.925 265.985 112.236 265.428C111.547 264.871 111.202 264.101 111.202 263.118C111.202 262.223 111.495 261.519 112.082 261.006C112.669 260.493 113.571 260.155 114.788 259.994L118.066 259.554V258.85C118.066 258.146 117.861 257.611 117.45 257.244C117.054 256.877 116.467 256.694 115.69 256.694C114.927 256.694 114.333 256.877 113.908 257.244C113.497 257.596 113.292 258.095 113.292 258.74V258.894H111.29V258.74C111.29 257.537 111.686 256.584 112.478 255.88C113.285 255.176 114.377 254.824 115.756 254.824C117.135 254.824 118.198 255.183 118.946 255.902C119.694 256.606 120.068 257.603 120.068 258.894V263.096C120.068 263.829 120.42 264.196 121.124 264.196H121.894ZM115.162 264.548C115.807 264.548 116.379 264.409 116.878 264.13C117.391 263.851 117.787 263.47 118.066 262.986V261.116L115.118 261.556C113.827 261.761 113.182 262.275 113.182 263.096C113.182 263.551 113.358 263.91 113.71 264.174C114.077 264.423 114.561 264.548 115.162 264.548ZM139.04 265.692V266H136.884L133.452 261.424H131.604V266H129.624V255.088H131.604V259.664H133.408L136.708 255.088H138.864V255.396L135.212 260.522L139.04 265.692ZM143.12 255.11V259.62H148.158V255.11H150.16V266H148.158V261.424H143.12V266H141.139V255.11H143.12ZM154.977 255.088V262.854L160.125 255.088H161.951V266H160.015V258.234L154.889 266H153.063V255.088H154.977ZM171.612 255.088V256.892H166.838V266H164.858V255.088H171.612ZM175.216 255.088V262.854L180.364 255.088H182.19V266H180.254V258.234L175.128 266H173.302V255.088H175.216ZM198.743 260.434C199.329 260.654 199.777 260.977 200.085 261.402C200.407 261.827 200.569 262.326 200.569 262.898V263.206C200.569 264.086 200.246 264.775 199.601 265.274C198.955 265.758 198.002 266 196.741 266H191.263V255.088H196.477C197.753 255.088 198.706 255.33 199.337 255.814C199.967 256.283 200.283 256.965 200.283 257.86V258.146C200.283 258.689 200.151 259.158 199.887 259.554C199.623 259.935 199.241 260.229 198.743 260.434ZM193.243 256.694V259.708H196.609C197.137 259.708 197.547 259.583 197.841 259.334C198.149 259.07 198.303 258.725 198.303 258.3V258.058C198.303 257.633 198.149 257.303 197.841 257.068C197.547 256.819 197.129 256.694 196.587 256.694H193.243ZM198.589 262.7C198.589 262.245 198.435 261.901 198.127 261.666C197.819 261.417 197.386 261.292 196.829 261.292H193.243V264.394H196.851C197.379 264.394 197.797 264.269 198.105 264.02C198.427 263.756 198.589 263.404 198.589 262.964V262.7ZM59.1785 287.088V294.854L64.3265 287.088H66.1525V298H64.2165V290.234L59.0905 298H57.2645V287.088H59.1785ZM71.0394 287.11V291.62H76.0774V287.11H78.0794V298H76.0774V293.424H71.0394V298H69.0594V287.11H71.0394ZM79.2361 288.892V287.088H88.4981V288.892H84.8681V298H82.8661V288.892H79.2361ZM91.4623 293.27V293.798C91.4623 294.619 91.697 295.265 92.1663 295.734C92.6503 296.189 93.3103 296.416 94.1463 296.416C94.8503 296.416 95.437 296.24 95.9063 295.888C96.3903 295.536 96.6396 295.103 96.6543 294.59H98.6343C98.5756 295.675 98.1356 296.563 97.3143 297.252C96.493 297.927 95.437 298.264 94.1463 298.264C92.7383 298.264 91.609 297.868 90.7583 297.076C89.9076 296.269 89.4823 295.199 89.4823 293.864V291.246C89.4823 290.366 89.673 289.596 90.0543 288.936C90.4356 288.261 90.9783 287.741 91.6823 287.374C92.3863 287.007 93.193 286.824 94.1023 286.824C95.481 286.824 96.581 287.227 97.4023 288.034C98.2236 288.841 98.6343 289.904 98.6343 291.224V293.27H91.4623ZM94.1023 288.672C93.2956 288.672 92.6503 288.914 92.1663 289.398C91.697 289.867 91.4623 290.505 91.4623 291.312V291.62H96.6543V291.312C96.6543 290.505 96.4196 289.867 95.9503 289.398C95.4956 288.914 94.8796 288.672 94.1023 288.672ZM106.129 286.824C107.405 286.824 108.424 287.22 109.187 288.012C109.95 288.789 110.331 289.831 110.331 291.136V293.952C110.331 295.257 109.95 296.306 109.187 297.098C108.424 297.875 107.405 298.264 106.129 298.264C104.912 298.264 103.914 297.897 103.137 297.164V301.74H101.157V287.088H102.939L103.027 288.012C103.819 287.22 104.853 286.824 106.129 286.824ZM108.329 291.224C108.329 290.447 108.094 289.831 107.625 289.376C107.17 288.921 106.547 288.694 105.755 288.694C105.183 288.694 104.662 288.826 104.193 289.09C103.738 289.339 103.386 289.691 103.137 290.146V294.964C103.386 295.404 103.738 295.756 104.193 296.02C104.648 296.269 105.168 296.394 105.755 296.394C106.547 296.394 107.17 296.167 107.625 295.712C108.094 295.257 108.329 294.641 108.329 293.864V291.224ZM114.825 287.11V291.62H119.863V287.11H121.865V298H119.863V293.424H114.825V298H112.845V287.11H114.825ZM126.374 293.27V293.798C126.374 294.619 126.609 295.265 127.078 295.734C127.562 296.189 128.222 296.416 129.058 296.416C129.762 296.416 130.349 296.24 130.818 295.888C131.302 295.536 131.552 295.103 131.566 294.59H133.546C133.488 295.675 133.048 296.563 132.226 297.252C131.405 297.927 130.349 298.264 129.058 298.264C127.65 298.264 126.521 297.868 125.67 297.076C124.82 296.269 124.394 295.199 124.394 293.864V291.246C124.394 290.366 124.585 289.596 124.966 288.936C125.348 288.261 125.89 287.741 126.594 287.374C127.298 287.007 128.105 286.824 129.014 286.824C130.393 286.824 131.493 287.227 132.314 288.034C133.136 288.841 133.546 289.904 133.546 291.224V293.27H126.374ZM129.014 288.672C128.208 288.672 127.562 288.914 127.078 289.398C126.609 289.867 126.374 290.505 126.374 291.312V291.62H131.566V291.312C131.566 290.505 131.332 289.867 130.862 289.398C130.408 288.914 129.792 288.672 129.014 288.672ZM134.515 288.892V287.088H143.777V288.892H140.147V298H138.145V288.892H134.515ZM150.288 291.004V292.808H144.744V291.004H150.288ZM165.055 287.088V298H163.207V289.772L162.943 290.564L159.819 298H158.257L155.133 290.564L154.847 289.728V298H152.999V287.088H155.617L159.027 295.25L162.437 287.088H165.055ZM177.99 296.196V298H176.824C176.296 298 175.834 297.912 175.438 297.736C175.056 297.545 174.763 297.274 174.558 296.922C173.751 297.817 172.607 298.264 171.126 298.264C169.952 298.264 169.021 297.985 168.332 297.428C167.642 296.871 167.298 296.101 167.298 295.118C167.298 294.223 167.591 293.519 168.178 293.006C168.764 292.493 169.666 292.155 170.884 291.994L174.162 291.554V290.85C174.162 290.146 173.956 289.611 173.546 289.244C173.15 288.877 172.563 288.694 171.786 288.694C171.023 288.694 170.429 288.877 170.004 289.244C169.593 289.596 169.388 290.095 169.388 290.74V290.894H167.386V290.74C167.386 289.537 167.782 288.584 168.574 287.88C169.38 287.176 170.473 286.824 171.852 286.824C173.23 286.824 174.294 287.183 175.042 287.902C175.79 288.606 176.164 289.603 176.164 290.894V295.096C176.164 295.829 176.516 296.196 177.22 296.196H177.99ZM171.258 296.548C171.903 296.548 172.475 296.409 172.974 296.13C173.487 295.851 173.883 295.47 174.162 294.986V293.116L171.214 293.556C169.923 293.761 169.278 294.275 169.278 295.096C169.278 295.551 169.454 295.91 169.806 296.174C170.172 296.423 170.656 296.548 171.258 296.548ZM186.308 287.088V288.892H181.534V298H179.554V287.088H186.308ZM197.927 296.196V298H196.761C196.233 298 195.771 297.912 195.375 297.736C194.994 297.545 194.701 297.274 194.495 296.922C193.689 297.817 192.545 298.264 191.063 298.264C189.89 298.264 188.959 297.985 188.269 297.428C187.58 296.871 187.235 296.101 187.235 295.118C187.235 294.223 187.529 293.519 188.115 293.006C188.702 292.493 189.604 292.155 190.821 291.994L194.099 291.554V290.85C194.099 290.146 193.894 289.611 193.483 289.244C193.087 288.877 192.501 288.694 191.723 288.694C190.961 288.694 190.367 288.877 189.941 289.244C189.531 289.596 189.325 290.095 189.325 290.74V290.894H187.323V290.74C187.323 289.537 187.719 288.584 188.511 287.88C189.318 287.176 190.411 286.824 191.789 286.824C193.168 286.824 194.231 287.183 194.979 287.902C195.727 288.606 196.101 289.603 196.101 290.894V295.096C196.101 295.829 196.453 296.196 197.157 296.196H197.927ZM191.195 296.548C191.841 296.548 192.413 296.409 192.911 296.13C193.425 295.851 193.821 295.47 194.099 294.986V293.116L191.151 293.556C189.861 293.761 189.215 294.275 189.215 295.096C189.215 295.551 189.391 295.91 189.743 296.174C190.11 296.423 190.594 296.548 191.195 296.548ZM206.509 292.478C207.066 292.683 207.492 292.991 207.785 293.402C208.078 293.798 208.225 294.282 208.225 294.854V295.162C208.225 296.145 207.814 296.907 206.993 297.45C206.186 297.993 205.057 298.264 203.605 298.264C202.153 298.264 201.009 297.934 200.173 297.274C199.352 296.614 198.941 295.719 198.941 294.59V294.15H200.921V294.48C200.921 295.14 201.156 295.646 201.625 295.998C202.094 296.335 202.776 296.504 203.671 296.504C204.522 296.504 205.16 296.372 205.585 296.108C206.025 295.844 206.245 295.455 206.245 294.942V294.744C206.245 294.289 206.091 293.945 205.783 293.71C205.475 293.461 205.042 293.336 204.485 293.336H202.219V291.62H204.375C204.947 291.62 205.387 291.503 205.695 291.268C206.003 291.033 206.157 290.703 206.157 290.278V290.08C206.157 289.596 205.944 289.229 205.519 288.98C205.108 288.731 204.492 288.606 203.671 288.606C202.776 288.606 202.094 288.789 201.625 289.156C201.156 289.508 200.921 290.021 200.921 290.696V290.982H198.941V290.652C198.941 289.904 199.132 289.244 199.513 288.672C199.909 288.085 200.459 287.638 201.163 287.33C201.867 287.007 202.681 286.846 203.605 286.846C204.998 286.846 206.098 287.117 206.905 287.66C207.712 288.203 208.115 288.943 208.115 289.882V290.19C208.115 291.261 207.58 292.023 206.509 292.478ZM212.534 287.088V294.854L217.682 287.088H219.508V298H217.572V290.234L212.446 298H210.62V287.088H212.534ZM224.395 287.11V291.62H229.433V287.11H231.435V298H229.433V293.424H224.395V298H222.415V287.11H224.395ZM235.945 293.27V293.798C235.945 294.619 236.179 295.265 236.649 295.734C237.133 296.189 237.793 296.416 238.629 296.416C239.333 296.416 239.919 296.24 240.389 295.888C240.873 295.536 241.122 295.103 241.137 294.59H243.117C243.058 295.675 242.618 296.563 241.797 297.252C240.975 297.927 239.919 298.264 238.629 298.264C237.221 298.264 236.091 297.868 235.241 297.076C234.39 296.269 233.965 295.199 233.965 293.864V291.246C233.965 290.366 234.155 289.596 234.537 288.936C234.918 288.261 235.461 287.741 236.165 287.374C236.869 287.007 237.675 286.824 238.585 286.824C239.963 286.824 241.063 287.227 241.885 288.034C242.706 288.841 243.117 289.904 243.117 291.224V293.27H235.945ZM238.585 288.672C237.778 288.672 237.133 288.914 236.649 289.398C236.179 289.867 235.945 290.505 235.945 291.312V291.62H241.137V291.312C241.137 290.505 240.902 289.867 240.433 289.398C239.978 288.914 239.362 288.672 238.585 288.672Z" fill="black"/>
</svg>
