<svg width="46" height="45" viewBox="0 0 46 45" fill="none" xmlns="http://www.w3.org/2000/svg">
<path d="M41.3715 19.5667L38.1739 28.4718L21.1195 41.7145L4.44173 24.8692L10.4065 16.3077L26.2032 2.85197L41.3715 19.5667Z" stroke="white"/>
<path d="M25.2229 23.7939C25.2229 24.8955 24.3245 25.7939 23.2229 25.7939C22.1213 25.7939 21.2229 24.8955 21.2229 23.7939C21.2229 22.6924 22.1213 21.7939 23.2229 21.7939C24.3245 21.7939 25.2229 22.6924 25.2229 23.7939ZM26.301 23.7939C26.301 22.0908 24.926 20.7158 23.2229 20.7158C21.5198 20.7158 20.1448 22.0908 20.1448 23.7939C20.1448 25.4971 21.5198 26.8721 23.2229 26.8721C24.926 26.8721 26.301 25.4971 26.301 23.7939ZM27.1448 20.5908C27.1448 20.1924 26.8245 19.8721 26.426 19.8721C26.0276 19.8721 25.7073 20.1924 25.7073 20.5908C25.7073 20.9893 26.0276 21.3096 26.426 21.3096C26.8245 21.3096 27.1448 20.9893 27.1448 20.5908ZM23.2229 18.8721C24.0979 18.8721 25.9729 18.8018 26.762 19.1143C27.0354 19.2236 27.2385 19.3564 27.4495 19.5674C27.6604 19.7783 27.7932 19.9814 27.9026 20.2549C28.2151 21.0439 28.1448 22.9189 28.1448 23.7939C28.1448 24.6689 28.2151 26.5439 27.9026 27.333C27.7932 27.6064 27.6604 27.8096 27.4495 28.0205C27.2385 28.2314 27.0354 28.3643 26.762 28.4736C25.9729 28.7861 24.0979 28.7158 23.2229 28.7158C22.3479 28.7158 20.4729 28.7861 19.6838 28.4736C19.4104 28.3643 19.2073 28.2314 18.9963 28.0205C18.7854 27.8096 18.6526 27.6064 18.5432 27.333C18.2307 26.5439 18.301 24.6689 18.301 23.7939C18.301 22.9189 18.2307 21.0439 18.5432 20.2549C18.6526 19.9814 18.7854 19.7783 18.9963 19.5674C19.2073 19.3564 19.4104 19.2236 19.6838 19.1143C20.4729 18.8018 22.3479 18.8721 23.2229 18.8721ZM29.2229 23.7939C29.2229 22.9658 29.2307 22.1455 29.1838 21.3174C29.137 20.3564 28.9182 19.5049 28.2151 18.8018C27.512 18.0986 26.6604 17.8799 25.6995 17.833C24.8713 17.7861 24.051 17.7939 23.2229 17.7939C22.3948 17.7939 21.5745 17.7861 20.7463 17.833C19.7854 17.8799 18.9338 18.0986 18.2307 18.8018C17.5276 19.5049 17.3088 20.3564 17.262 21.3174C17.2151 22.1455 17.2229 22.9658 17.2229 23.7939C17.2229 24.6221 17.2151 25.4424 17.262 26.2705C17.3088 27.2314 17.5276 28.083 18.2307 28.7861C18.9338 29.4893 19.7854 29.708 20.7463 29.7549C21.5745 29.8018 22.3948 29.7939 23.2229 29.7939C24.051 29.7939 24.8713 29.8018 25.6995 29.7549C26.6604 29.708 27.512 29.4893 28.2151 28.7861C28.9182 28.083 29.137 27.2314 29.1838 26.2705C29.2307 25.4424 29.2229 24.6221 29.2229 23.7939Z" fill="white"/>
</svg>
