<svg width="404" height="37" viewBox="0 0 404 37" fill="none" xmlns="http://www.w3.org/2000/svg">
<path d="M0.302002 25.1572C1.20573 33.2022 5.42313 36.7156 13.5065 36.7156C21.2886 36.7156 25.9578 32.9476 25.9578 26.4302C25.9578 20.5237 22.594 17.876 16.8201 16.2467L13.6069 15.3811C9.4899 14.1591 7.13017 12.988 7.13017 9.78015C7.13017 6.87786 9.23887 5.04483 13.1048 5.04483C17.1214 5.04483 19.2803 7.13245 19.7824 11.715L25.4056 10.9513C24.6022 3.7719 20.6359 0.156765 13.155 0.156765C5.72437 0.156765 1.30614 4.12832 1.30614 10.2893C1.30614 16.1448 5.17209 18.9962 10.7451 20.4728L14.109 21.3893C18.0753 22.4586 20.0334 23.7824 20.0334 26.9393C20.0334 29.9944 17.8745 31.8274 13.6069 31.8274C9.08825 31.8274 6.42727 29.3834 5.9252 24.3425L0.302002 25.1572ZM30.6683 36.2574H36.5927V24.699H42.3163C49.8976 24.699 54.4665 20.2691 54.4665 12.7843C54.4665 5.14667 50.0482 0.615023 42.718 0.615023H30.6683V36.2574ZM41.764 5.60492C46.1321 5.60492 48.4918 8.04896 48.4918 12.7843C48.4918 17.3668 46.1321 19.76 41.764 19.76H36.5927V5.60492H41.764ZM58.5687 36.2574H64.4931V22.5604H68.6101L77.1453 36.2574H83.8731L74.7354 21.8476C79.5553 20.7783 82.4171 17.1632 82.4171 11.6132C82.4171 4.58658 78.5511 0.615023 71.5221 0.615023H58.5687V36.2574ZM70.7188 5.55401C74.5848 5.55401 76.5931 7.64162 76.5931 11.6132C76.5931 15.4829 74.3337 17.6214 70.8192 17.6214H64.4931V5.55401H70.7188ZM87.7926 36.2574H93.717V0.615023H87.7926V36.2574ZM100.739 36.2574H106.061V9.57648L120.721 36.2574H126.696V0.615023H121.324V27.2448L106.713 0.615023H100.739V36.2574ZM139.914 36.2574H145.838V5.70676H155.679V0.615023H130.173V5.70676H139.914V36.2574ZM157.481 25.6664C159.288 33.2531 168.024 36.8175 182.283 36.8175C198.801 36.8175 206.332 32.693 206.332 25.3609C206.332 19.3526 201.713 16.2976 190.868 15.5847L175.806 14.8719C168.828 14.3627 166.217 13.3953 166.217 10.5948C166.217 7.43795 170.535 5.65584 181.329 5.65584C191.371 5.65584 196.391 7.79437 197.596 11.8678L205.378 10.5948C203.521 3.72098 195.839 0.0549316 181.379 0.0549316C166.267 0.0549316 158.636 4.0774 158.636 11.104C158.636 17.0104 163.405 20.1164 173.898 20.7783L188.559 21.4912C196.391 21.9494 198.751 22.9678 198.751 26.0228C198.751 29.3834 194.082 31.2164 182.333 31.2164C172.292 31.2164 166.418 28.9251 165.263 24.4444L157.481 25.6664ZM211.896 36.2574H219.327V25.9719H241.669C251.208 25.9719 256.832 21.1857 256.832 13.3444C256.832 5.45217 251.259 0.615023 241.82 0.615023H211.896V36.2574ZM240.564 6.47052C246.338 6.47052 249.25 8.86364 249.25 13.3444C249.25 17.7233 246.338 20.1164 240.564 20.1164H219.327V6.47052H240.564ZM298.506 36.2574H307.091L283.193 0.615023H275.561L251.813 36.2574H260.097L265.52 27.9068H293.033L298.506 36.2574ZM269.135 22.4077L279.226 6.87786L289.418 22.4077H269.135ZM304.838 18.4361C304.838 29.9435 314.378 36.8175 331.247 36.8175C345.305 36.8175 353.84 32.693 356.05 24.4444L348.267 22.9168C346.962 28.3141 341.188 30.9618 331.247 30.9618C318.796 30.9618 312.42 26.532 312.42 18.4361C312.42 10.3912 318.846 5.91043 331.247 5.91043C340.887 5.91043 346.56 8.55814 348.167 13.7517L356.05 12.1733C353.79 4.23015 345.104 0.0549316 331.247 0.0549316C314.578 0.0549316 304.838 6.97969 304.838 18.4361ZM361.305 36.2574H403.88V30.7072H368.534V20.7783H400.215V15.2283H368.534V6.16502H403.479V0.615023H361.305V36.2574Z" fill="black"/>
</svg>
