<svg width="190" height="36" viewBox="0 0 190 36" fill="none" xmlns="http://www.w3.org/2000/svg">
<path fill-rule="evenodd" clip-rule="evenodd" d="M162.252 2.51274C165.65 6.72215 168.79 9.85388 172.781 12.5271C174.284 13.5339 175.895 14.4673 177.668 15.3659L0.0307536 14.0001L0 18L179.458 19.3798C176.614 20.6633 174.176 21.9824 171.971 23.4598C167.981 26.133 164.841 29.2647 161.442 33.4741L164.554 35.9869C167.792 31.9771 170.644 29.1633 174.197 26.783C177.773 24.3877 182.146 22.3721 188.504 20.0692L188.279 19.4476L189.494 19.4569L189.524 15.4571L188.027 15.4456C182.357 13.3352 178.336 11.4341 175.007 9.20385C171.454 6.8236 168.602 4.00979 165.364 0L162.252 2.51274Z" fill="black"/>
</svg>
