<svg width="190" height="134" viewBox="0 0 190 134" fill="none" xmlns="http://www.w3.org/2000/svg">
<g clip-path="url(#clip0)">
<rect width="190" height="134" fill="white"/>
<path d="M156.804 50.8372C158.977 48.5881 162.681 49.2307 165.418 50.7568C174.596 55.8976 171.859 59.2712 172.422 62.4038" stroke="black" stroke-width="0.75" stroke-miterlimit="10"/>
<path d="M145.371 45.7764C143.037 47.6238 141.587 51.9613 141.829 54.9333C141.909 55.7365 142.07 56.5398 142.553 57.1021C142.956 57.584 143.52 57.9053 144.164 58.1463C146.257 58.8692 148.672 58.3872 150.282 56.9414" fill="white"/>
<path d="M145.371 45.7764C143.037 47.6238 141.587 51.9613 141.829 54.9333C141.909 55.7365 142.07 56.5398 142.553 57.1021C142.956 57.584 143.52 57.9053 144.164 58.1463C146.257 58.8692 148.672 58.3872 150.282 56.9414" stroke="black" stroke-miterlimit="10" stroke-linecap="round"/>
<path d="M159.621 46.7403C156.643 43.1257 151.007 39.6718 146.579 41.7602C145.21 42.4028 144.003 45.7764 144.164 47.3829C144.244 48.4271 147.545 44.5716 147.948 44.8929C149.558 46.0977 151.893 44.9732 152.939 46.5797C153.986 48.1862 152.537 50.4352 152.617 51.8007C153.342 51.0778 154.227 50.7565 155.435 50.9975C155.757 51.0778 155.837 51.3991 155.837 51.7204C155.515 53.5679 153.986 54.5317 152.215 54.6924C151.973 55.094 151.812 55.576 151.812 56.1382C152.939 57.0218 154.549 56.2186 155.676 55.4956C156.321 55.094 156.965 54.6121 157.609 54.2105C158.414 53.6482 159.299 53.0859 159.863 52.2024C160.024 51.8811 160.185 51.4794 160.265 51.1581C161.312 50.0336 161.151 48.5878 159.621 46.7403Z" fill="#131313"/>
<path d="M162.6 62.6445C161.795 58.8692 154.468 56.7808 150.685 57.3431C149.799 57.5037 148.833 57.7447 148.189 58.3873C147.464 58.9496 147.062 59.9135 147.223 60.797L148.269 62.7248" fill="white"/>
<path d="M162.6 62.6445C161.795 58.8692 154.468 56.7808 150.685 57.3431C149.799 57.5037 148.833 57.7447 148.189 58.3873C147.464 58.9496 147.062 59.9135 147.223 60.797L148.269 62.7248" stroke="black" stroke-miterlimit="10"/>
<path d="M145.291 58.4678C134.986 62.3233 131.363 59.753 119.045 58.9497" stroke="black" stroke-width="0.75" stroke-miterlimit="10"/>
<path d="M110.753 57.4238C111.639 57.3435 115.342 56.5403 116.227 56.7812C117.113 57.0222 117.757 57.5042 118.321 58.0664C118.804 58.5484 119.206 59.1106 119.609 59.5926C119.85 59.9942 120.092 60.3958 120.253 60.7974C120.494 61.6007 120.575 62.4039 119.77 63.0465" stroke="black" stroke-width="0.75" stroke-miterlimit="10"/>
<path d="M147.867 58.2266C147.867 58.2266 143.922 59.3511 141.104 62.7247" stroke="black" stroke-width="0.75" stroke-miterlimit="10"/>
<path d="M95.9396 35.4147C93.927 32.0411 91.0287 29.1494 87.3253 28.0249C83.622 26.9003 79.0331 28.1855 77.1009 31.4788C76.3763 32.6837 76.1348 34.5311 77.2619 35.4147C78.711 36.4589 80.6432 35.0934 81.6898 33.6476C82.9779 31.8001 84.0245 29.551 83.3 27.3823C82.8169 26.0168 81.7703 24.8923 80.5627 24.089C76.1348 20.8761 70.0162 19.9925 64.7832 21.7596" stroke="black" stroke-width="0.75" stroke-miterlimit="10"/>
<path d="M74.1223 131C76.6986 128.429 78.7918 124.895 80.0799 120.558" stroke="black" stroke-miterlimit="10" stroke-linecap="round"/>
<path d="M71.385 128.67C73.6392 126.1 75.4909 122.887 76.8595 119.112" stroke="black" stroke-miterlimit="10" stroke-linecap="round"/>
<path d="M69.5334 124.413C70.6606 123.047 71.6267 121.361 72.4317 119.513" stroke="black" stroke-miterlimit="10" stroke-linecap="round"/>
<path d="M38.4573 65.456L41.9996 63.8495L41.275 2H38.6183L38.4573 65.456Z" fill="#131313"/>
<path d="M53.2706 126.181C64.831 126.181 74.2026 116.83 74.2026 105.296C74.2026 93.7623 64.831 84.4121 53.2706 84.4121C41.7102 84.4121 32.3386 93.7623 32.3386 105.296C32.3386 116.83 41.7102 126.181 53.2706 126.181Z" stroke="black" stroke-miterlimit="10"/>
<path d="M53.2707 122.406C62.7413 122.406 70.4188 114.746 70.4188 105.297C70.4188 95.8475 62.7413 88.1875 53.2707 88.1875C43.8 88.1875 36.1226 95.8475 36.1226 105.297C36.1226 114.746 43.8 122.406 53.2707 122.406Z" stroke="black" stroke-miterlimit="10"/>
<path d="M77.1816 108.43C77.1816 109.795 78.5503 115.177 78.5503 115.177H197.057L198.426 107.145L77.1816 108.43Z" stroke="black" stroke-miterlimit="10"/>
<path d="M26.4616 115.658C23.8048 116.14 8.50837 112.044 8.99142 110.277C9.47446 108.51 18.0083 111.642 19.7794 108.911C21.5506 106.261 27.8302 72.6048 54.3172 73.5686C80.8042 74.4522 87.5668 108.028 87.5668 108.028L77.2619 108.51C77.2619 108.51 74.6051 81.6011 55.6858 81.6011C43.5292 81.6011 39.5038 85.6173 35.4784 89.6335C31.3725 93.6497 26.4616 115.658 26.4616 115.658Z" stroke="black" stroke-miterlimit="10"/>
<path d="M9.072 109.794C9.072 108.027 7.54236 78.8696 13.9025 74.8534C20.182 70.8372 40.953 62.7244 55.7664 61.4393C70.6603 60.0737 76.7789 59.4312 76.7789 59.4312C76.7789 59.4312 71.1433 60.0737 72.9145 61.8409C74.6857 63.608 225.637 62.3228 230.146 61.3589C234.654 60.4754 246.328 59.9934 246.328 59.9934" stroke="black" stroke-miterlimit="10"/>
<path d="M25.5759 80.7175C29.1183 78.8701 32.5801 76.7817 35.1564 73.649C36.1224 72.4442 36.9275 70.5164 35.8004 69.3918C35.4784 69.1509 35.1564 68.9902 34.7538 68.8296C31.3725 67.705 27.7497 69.5525 25.0124 71.7212C22.5167 73.649 20.1014 76.1391 19.3769 79.2717C19.2159 79.834 19.2159 80.4766 19.4574 80.9585C19.6989 81.3601 20.1819 81.6814 20.665 81.8421C22.2751 82.324 24.0463 81.5208 25.5759 80.7175Z" stroke="black" stroke-miterlimit="10"/>
<path d="M15.432 95.4971C15.11 95.4167 14.788 95.738 14.5465 95.979C13.8219 97.0232 13.3388 98.3887 13.7414 99.6739C14.1439 100.959 15.593 101.843 16.8007 101.361C17.9278 100.879 18.3303 99.5133 18.2498 98.3887C18.2498 97.5052 18.0083 96.6216 17.4447 96.0593C16.8812 95.4167 15.7541 95.2561 15.11 95.8184" stroke="black" stroke-miterlimit="10"/>
<path d="M113.49 38.7886C113.49 38.7886 77.8255 58.9499 76.5374 59.5122" stroke="black" stroke-miterlimit="10"/>
<path d="M91.1091 62.9659L115.1 37.5835L123.393 38.4671C122.507 39.6719 101.173 62.9659 101.173 62.9659H91.1091Z" fill="black"/>
<path d="M182.083 62.3235L181.761 39.0296L172.744 38.4673C172.744 39.9934 172.341 62.7252 172.341 62.7252L182.083 62.3235Z" fill="black"/>
<path d="M172.18 62.9658C172.18 62.9658 176.045 62.0822 176.689 69.7933C177.252 77.5848 167.672 107.385 167.672 107.385" stroke="black" stroke-miterlimit="10"/>
<path d="M95.2955 62.9663C94.7319 64.1712 90.2235 69.5529 89.5794 77.023C89.0159 84.4932 89.0159 107.787 89.0159 107.787" stroke="black" stroke-miterlimit="10"/>
<path d="M163.244 73.3278C165.245 73.3278 166.867 71.6735 166.867 69.6329C166.867 67.5923 165.245 65.938 163.244 65.938C161.243 65.938 159.621 67.5923 159.621 69.6329C159.621 71.6735 161.243 73.3278 163.244 73.3278Z" stroke="black" stroke-miterlimit="10"/>
<path d="M156.964 70.677L168.88 70.436" stroke="black" stroke-miterlimit="10"/>
<path d="M115.02 53.0859C115.02 53.0859 109.063 54.2908 106.969 55.7366C104.876 57.1825 101.575 58.7086 103.347 61.1183C105.118 63.5281 113.249 64.7329 114.698 64.7329C116.147 64.7329 115.02 53.0859 115.02 53.0859Z" fill="white" stroke="black" stroke-miterlimit="10"/>
<path d="M53.5122 109.071C55.1574 109.071 56.491 107.741 56.491 106.099C56.491 104.458 55.1574 103.127 53.5122 103.127C51.8671 103.127 50.5334 104.458 50.5334 106.099C50.5334 107.741 51.8671 109.071 53.5122 109.071Z" stroke="black" stroke-miterlimit="10"/>
<path d="M65.5882 103.69L61.4019 106.1L65.4272 108.43C64.6222 106.984 64.6222 105.136 65.5882 103.69Z" stroke="black" stroke-miterlimit="10"/>
<path d="M48.7623 98.8707V94.0513C47.9572 95.6578 46.2665 96.5413 44.4954 96.461L48.7623 98.8707Z" stroke="black" stroke-miterlimit="10"/>
<path d="M57.2153 98.7904L61.3212 96.461C59.6306 96.5413 58.0204 95.5774 57.2153 94.0513V98.7904Z" stroke="black" stroke-miterlimit="10"/>
<path d="M57.2153 113.41V118.229C58.0204 116.623 59.7111 115.739 61.4822 115.819L57.2153 113.41Z" stroke="black" stroke-miterlimit="10"/>
<path d="M48.7624 113.41L44.6565 115.739C46.3472 115.659 47.9573 116.623 48.7624 118.149V113.41Z" stroke="black" stroke-miterlimit="10"/>
<path d="M40.3894 108.59L44.5758 106.18L40.5504 103.851C41.3555 105.297 41.275 107.144 40.3894 108.59Z" stroke="black" stroke-miterlimit="10"/>
<path d="M115.422 39.913C122.91 43.8488 132.087 41.6801 143.197 41.6801C154.307 41.6801 203.659 41.3588 203.659 41.3588C203.659 41.3588 226.12 41.0375 227.569 40.6359C229.099 40.3146 229.099 39.19 229.099 39.19C229.099 39.19 229.985 35.2542 206.074 34.8525C182.163 34.5313 122.587 35.1738 119.931 35.8968C117.274 36.6197 110.914 38.3868 111.236 39.5113L115.422 39.913Z" fill="black"/>
<path d="M50.9359 35.2539H29.9234C27.9107 35.2539 26.3005 33.6474 26.3005 31.6393V6.17659C26.3005 4.16849 27.9107 2.56201 29.9234 2.56201H50.9359C52.9486 2.56201 54.5587 4.16849 54.5587 6.17659V31.6393C54.5587 33.6474 52.9486 35.2539 50.9359 35.2539Z" fill="#C04538"/>
<path d="M49.3257 33.005H31.5335C29.5208 33.005 27.9106 31.3985 27.9106 29.3904V8.50618C27.9106 6.49808 29.5208 4.8916 31.5335 4.8916H49.3257C51.3384 4.8916 52.9485 6.49808 52.9485 8.50618V29.3904C52.9485 31.3182 51.3384 33.005 49.3257 33.005Z" stroke="white" stroke-width="0.75" stroke-miterlimit="10"/>
<path d="M35.0757 10.9959C36.2833 10.7549 37.974 10.5942 40.4697 10.5942C42.8044 10.5942 44.5756 11.0762 45.7027 11.9597C46.8298 12.8433 47.5544 14.3695 47.5544 16.1366C47.5544 17.9037 46.9908 19.3496 45.9442 20.3938C44.6561 21.5986 42.7239 22.1609 40.4697 22.1609C40.0672 22.1609 39.6646 22.0806 39.4231 22.0806V27.9442H35.0757V10.9959ZM39.4231 18.6266C39.6646 18.6266 39.9867 18.707 40.3892 18.707C42.0798 18.707 43.1264 17.8234 43.1264 16.2972C43.1264 15.0121 42.3214 14.1285 40.6307 14.1285C39.9867 14.1285 39.5841 14.2088 39.3426 14.2088V18.6266H39.4231Z" fill="white"/>
</g>
<defs>
<clipPath id="clip0">
<rect width="190" height="134" fill="white"/>
</clipPath>
</defs>
</svg>
