<svg width="46" height="44" viewBox="0 0 46 44" fill="none" xmlns="http://www.w3.org/2000/svg">
<path d="M23.9015 3.50037L1.26754 14.6829L19.7874 37.8381L26.0821 39.4272L32.6909 36.4428L37.9423 29.871L40.538 20.5968L40.0793 11.8766L36.3518 4.90691L30.5205 2.05424L23.9015 3.50037Z" stroke="white"/>
<path d="M29.7095 19.4434C29.7095 19.4434 29.6001 19.1309 28.9204 19.2168L26.6704 19.2324C26.4985 19.209 26.3735 19.2793 26.3735 19.2793C26.3735 19.2793 26.2407 19.3496 26.1782 19.5215C25.811 20.4668 25.3423 21.2793 25.3423 21.2793C24.3423 22.9824 23.936 23.0762 23.772 22.9668C23.3892 22.7246 23.4907 21.9824 23.4907 21.4512C23.4907 19.7949 23.7407 19.1074 22.9985 18.9277C22.7563 18.873 22.5767 18.834 21.9438 18.8262C21.1392 18.8184 20.4595 18.8262 20.0767 19.0137C19.8188 19.1387 19.6235 19.4199 19.7407 19.4355C19.8892 19.459 20.2251 19.5293 20.4048 19.7715C20.4048 19.7715 20.6001 20.0918 20.6313 20.7949C20.7173 22.7402 20.3188 22.9824 20.3188 22.9824C20.0142 23.1465 19.4829 22.873 18.7017 21.2637C18.7017 21.2637 18.2485 20.4668 17.897 19.5918C17.8345 19.4277 17.7095 19.3418 17.7095 19.3418C17.7095 19.3418 17.5688 19.2324 17.3657 19.2012L15.2251 19.2168C14.897 19.2168 14.7798 19.3652 14.7798 19.3652C14.7798 19.3652 14.6626 19.4902 14.772 19.748C16.4438 23.6777 18.3501 25.6465 18.3501 25.6465C18.3501 25.6465 20.0923 27.4668 22.0688 27.3418H22.9673C23.2407 27.3184 23.3813 27.1699 23.3813 27.1699C23.3813 27.1699 23.5063 27.0293 23.4985 26.7715C23.4829 25.5684 24.0454 25.3887 24.0454 25.3887C24.5923 25.2168 25.2954 26.5527 26.0454 27.0684C26.0454 27.0684 26.6157 27.459 27.0454 27.373L29.0454 27.3418C30.1001 27.334 29.6001 26.459 29.6001 26.459C29.561 26.3887 29.311 25.8496 28.1079 24.7324C26.8579 23.5684 27.022 23.7559 28.5376 21.7402C29.4595 20.5137 29.8267 19.7637 29.7095 19.4434Z" fill="white"/>
</svg>
