<svg width="97" height="36" viewBox="0 0 97 36" fill="none" xmlns="http://www.w3.org/2000/svg">
<path fill-rule="evenodd" clip-rule="evenodd" d="M69.252 2.51274C72.6505 6.72215 75.7904 9.85388 79.7807 12.5271C81.3155 13.5553 82.963 14.5068 84.7815 15.423L0.011635 15.1764L0 19.1764L86.3526 19.4276C83.554 20.696 81.149 22.0007 78.971 23.4598C74.9807 26.133 71.8409 29.2647 68.4423 33.4741L71.5546 35.9869C74.7919 31.9771 77.6443 29.1633 81.1973 26.783C84.7728 24.3877 89.146 22.3721 95.5041 20.0692L95.2811 19.4535L96.4937 19.4571L96.5053 15.4571L95.047 15.4528C89.366 13.3396 85.3399 11.4367 82.0069 9.20385C78.4539 6.8236 75.6016 4.00979 72.3642 0L69.252 2.51274Z" fill="black"/>
</svg>
