<svg width="90" height="40" viewBox="0 0 90 40" fill="none" xmlns="http://www.w3.org/2000/svg">
<path d="M89.5 20C89.5 22.5987 88.3171 25.1121 86.1015 27.4402C83.8834 29.7709 80.6502 31.8926 76.6167 33.6852C68.551 37.27 57.3732 39.5 45 39.5C32.6268 39.5 21.449 37.27 13.3833 33.6852C9.34975 31.8926 6.11656 29.7709 3.89852 27.4402C1.68293 25.1121 0.5 22.5987 0.5 20C0.5 17.4013 1.68293 14.8879 3.89852 12.5598C6.11656 10.2291 9.34975 8.10744 13.3833 6.31477C21.449 2.72999 32.6268 0.5 45 0.5C57.3732 0.5 68.551 2.72999 76.6167 6.31477C80.6502 8.10744 83.8834 10.2291 86.1015 12.5598C88.3171 14.8879 89.5 17.4013 89.5 20Z" stroke="#5390C8"/>
<path d="M30.308 20.5338L37.4846 24.6772C37.7792 24.8472 38.1559 24.7463 38.3261 24.4517C38.4962 24.157 38.3952 23.7804 38.1006 23.6102L32.913 20.6151L59.384 20.6151C59.7242 20.6151 60 20.3393 60 19.9991C60 19.659 59.7242 19.3831 59.384 19.3831L32.9171 19.3831L38.1006 16.3903C38.3953 16.2202 38.4962 15.8435 38.3261 15.5488C38.2119 15.3512 38.0049 15.2407 37.7921 15.2407C37.6876 15.2407 37.5816 15.2674 37.4846 15.3234L30.308 19.4668C30.1174 19.5768 30 19.7803 30 20.0003C30 20.2203 30.1174 20.4237 30.308 20.5338Z" fill="#5390C8"/>
</svg>
