<svg width="40" height="90" viewBox="0 0 40 90" fill="none" xmlns="http://www.w3.org/2000/svg">
<path d="M20 0.5C22.5987 0.5 25.1121 1.68293 27.4402 3.89852C29.7709 6.11656 31.8926 9.34975 33.6852 13.3833C37.27 21.449 39.5 32.6268 39.5 45C39.5 57.3732 37.27 68.551 33.6852 76.6167C31.8926 80.6502 29.7709 83.8834 27.4402 86.1015C25.1121 88.3171 22.5987 89.5 20 89.5C17.4013 89.5 14.8879 88.3171 12.5598 86.1015C10.2291 83.8834 8.10744 80.6502 6.31477 76.6167C2.72999 68.551 0.5 57.3732 0.5 45C0.5 32.6268 2.72999 21.449 6.31477 13.3833C8.10744 9.34975 10.2291 6.11656 12.5598 3.89852C14.8879 1.68293 17.4013 0.5 20 0.5Z" stroke="white"/>
<path d="M20.5333 59.692L24.6767 52.5154C24.8467 52.2208 24.7458 51.8441 24.4512 51.6739C24.1566 51.5038 23.7799 51.6048 23.6097 51.8994L20.6147 57.087V30.616C20.6147 30.2758 20.3388 30 19.9986 30C19.6585 30 19.3826 30.2758 19.3826 30.616V57.0829L16.3898 51.8994C16.2197 51.6047 15.843 51.5038 15.5483 51.6739C15.3507 51.7881 15.2402 51.9951 15.2402 52.2079C15.2402 52.3124 15.267 52.4184 15.3229 52.5154L19.4663 59.692C19.5764 59.8826 19.7798 60 19.9998 60C20.2198 60 20.4233 59.8826 20.5333 59.692Z" fill="white"/>
</svg>
