<svg width="190" height="134" viewBox="0 0 190 134" fill="none" xmlns="http://www.w3.org/2000/svg">
<g clip-path="url(#clip0)">
<rect width="190" height="134" fill="white"/>
<path d="M61.4665 1.63672C48.8595 1.63672 38.6926 11.8616 38.6926 24.3587C38.6926 36.9369 61.4665 68.5853 61.4665 68.5853C61.4665 68.5853 84.2403 36.9369 84.2403 24.3587C84.2403 11.8616 74.0734 1.63672 61.4665 1.63672ZM61.4665 22.9791C57.8877 22.9791 55.041 20.1389 55.041 16.5683C55.041 12.9977 57.8877 10.1574 61.4665 10.1574C65.0452 10.1574 67.892 12.9977 67.892 16.5683C67.892 20.0577 64.9639 22.9791 61.4665 22.9791Z" fill="#C04538"/>
<path d="M29.5018 34.1778C29.5831 33.8532 29.6645 33.5286 29.6645 33.1228C29.6645 30.6883 27.4684 28.6596 24.6217 28.4161C23.727 26.8743 21.8563 25.8193 19.6602 25.8193C16.8135 25.8193 14.4548 27.6858 14.2108 30.1203C11.9334 30.526 10.2253 31.8244 10.2253 33.3663C10.2253 33.6097 10.3067 33.9343 10.388 34.1778H29.5018Z" stroke="black" stroke-width="0.75" stroke-miterlimit="10"/>
<path d="M175.336 43.0229H66.3467V127.581H175.336V43.0229Z" stroke="black" stroke-width="0.75" stroke-miterlimit="10"/>
<path d="M175.58 43.0232L66.3465 42.8609L65.7771 39.0469L175.417 39.2092L175.58 43.0232Z" stroke="black" stroke-width="0.75" stroke-miterlimit="10"/>
<path d="M175.58 37.0183L175.417 33.2043L65.0452 33.042L65.6145 36.856V39.0471H175.417V37.0183H175.58Z" stroke="black" stroke-width="0.75" stroke-miterlimit="10"/>
<path d="M175.01 95.1211H65.9397L65.3704 93.417L174.848 93.4981L175.01 95.1211Z" stroke="black" stroke-width="0.75" stroke-miterlimit="10"/>
<path d="M65.0452 33.0415C65.5332 32.4734 93.5125 23.9527 93.5125 23.9527L181.273 23.0601L175.01 33.2038L65.0452 33.0415Z" stroke="black" stroke-width="0.75" stroke-miterlimit="10" stroke-linejoin="round"/>
<path d="M135.4 18.5156H131.008V30.5258H135.4V18.5156Z" fill="white" stroke="black" stroke-miterlimit="10"/>
<path d="M159.476 30.2826C160.045 29.7145 161.997 25.3325 162.241 26.0628C162.485 26.7932 165.169 30.4449 165.169 30.4449L159.476 30.2826Z" stroke="black" stroke-width="0.75" stroke-miterlimit="10"/>
<path d="M114.66 19.9766H113.358V26.144H114.66V19.9766Z" fill="white" stroke="black" stroke-miterlimit="10"/>
<path d="M85.4604 44.3218H77.5709H75.8629H75.7002V63.7977H77.5709V62.1747H85.4604V63.7977H87.3311V62.1747V44.3218H85.4604Z" stroke="black" stroke-width="0.75" stroke-miterlimit="10"/>
<path d="M85.5417 46.5127H77.4895V59.0909H85.5417V46.5127Z" stroke="black" stroke-width="0.75" stroke-miterlimit="10"/>
<path d="M77.3269 50.9761H85.3791" stroke="black" stroke-width="0.75" stroke-miterlimit="10"/>
<path d="M81.4751 51.0571V59.0909" stroke="black" stroke-width="0.75" stroke-miterlimit="10"/>
<path d="M83.7526 102.344H75.7004V114.922H83.7526V102.344Z" stroke="black" stroke-width="0.75" stroke-miterlimit="10"/>
<path d="M75.4563 106.807H83.5085" stroke="black" stroke-width="0.75" stroke-miterlimit="10"/>
<path d="M79.6858 106.888V114.922" stroke="black" stroke-width="0.75" stroke-miterlimit="10"/>
<path d="M100.426 46.5132H92.374V59.0914H100.426V46.5132Z" stroke="black" stroke-width="0.75" stroke-miterlimit="10"/>
<path d="M100.263 44.3218H92.4552H90.7472H90.5032V63.7977H92.4552V62.1747H100.263V63.7977H102.215V62.1747V44.3218H100.263Z" stroke="black" stroke-width="0.75" stroke-miterlimit="10"/>
<path d="M92.2114 50.9766H100.182" stroke="black" stroke-width="0.75" stroke-miterlimit="10"/>
<path d="M96.3594 51.0571V59.0909" stroke="black" stroke-width="0.75" stroke-miterlimit="10"/>
<path d="M116.693 46.5132H108.641V59.0914H116.693V46.5132Z" stroke="black" stroke-width="0.75" stroke-miterlimit="10"/>
<path d="M116.612 44.3218H108.803H107.014H106.851V63.7977H108.803V62.1747H116.612V63.7977H118.564V62.1747V44.3218H116.612Z" stroke="black" stroke-width="0.75" stroke-miterlimit="10"/>
<path d="M108.478 50.9766H116.53" stroke="black" stroke-width="0.75" stroke-miterlimit="10"/>
<path d="M112.707 51.0571V59.0909" stroke="black" stroke-width="0.75" stroke-miterlimit="10"/>
<path d="M131.577 46.5132H123.525V59.0914H131.577V46.5132Z" stroke="black" stroke-width="0.75" stroke-miterlimit="10"/>
<path d="M131.496 44.3218H123.607H121.899H121.736V63.7977H123.607V62.1747H131.496V63.7977H133.367V62.1747V44.3218H131.496Z" stroke="black" stroke-width="0.75" stroke-miterlimit="10"/>
<path d="M123.363 50.9766H131.415" stroke="black" stroke-width="0.75" stroke-miterlimit="10"/>
<path d="M127.511 51.0571V59.0909" stroke="black" stroke-width="0.75" stroke-miterlimit="10"/>
<path d="M149.553 46.5132H141.5V59.0914H149.553V46.5132Z" stroke="black" stroke-width="0.75" stroke-miterlimit="10"/>
<path d="M149.471 44.3218H141.582H139.874H139.711V63.7977H141.582V62.1747H149.471V63.7977H151.342V62.1747V44.3218H149.471Z" stroke="black" stroke-width="0.75" stroke-miterlimit="10"/>
<path d="M141.338 50.9766H149.309" stroke="black" stroke-width="0.75" stroke-miterlimit="10"/>
<path d="M145.486 51.0571V59.0909" stroke="black" stroke-width="0.75" stroke-miterlimit="10"/>
<path d="M164.437 46.5132H156.385V59.0914H164.437V46.5132Z" stroke="black" stroke-width="0.75" stroke-miterlimit="10"/>
<path d="M164.274 44.3218H156.466H154.758H154.514V63.7977H156.466V62.1747H164.274V63.7977H166.226V62.1747V44.3218H164.274Z" stroke="black" stroke-width="0.75" stroke-miterlimit="10"/>
<path d="M156.141 50.9766H164.193" stroke="black" stroke-width="0.75" stroke-miterlimit="10"/>
<path d="M160.37 51.0571V59.0909" stroke="black" stroke-width="0.75" stroke-miterlimit="10"/>
<path d="M84.9721 72.8862H76.9199V85.4644H84.9721V72.8862Z" stroke="black" stroke-width="0.75" stroke-miterlimit="10"/>
<path d="M84.8908 70.6953H77.0827H75.2933H75.1306V90.1713H77.0827V88.5483H84.8908V90.1713H86.7615V88.5483V70.6953H84.8908Z" stroke="black" stroke-width="0.75" stroke-miterlimit="10"/>
<path d="M76.7573 77.3496H84.8095" stroke="black" stroke-width="0.75" stroke-miterlimit="10"/>
<path d="M80.9868 77.4307V85.4645" stroke="black" stroke-width="0.75" stroke-miterlimit="10"/>
<path d="M99.8566 72.8862H91.8044V85.4644H99.8566V72.8862Z" stroke="black" stroke-width="0.75" stroke-miterlimit="10"/>
<path d="M99.7754 70.6953H91.8859H90.1778H90.0151V90.1713H91.8859V88.5483H99.7754V90.1713H101.646V88.5483V70.6953H99.7754Z" stroke="black" stroke-width="0.75" stroke-miterlimit="10"/>
<path d="M91.6418 77.3496H99.6127" stroke="black" stroke-width="0.75" stroke-miterlimit="10"/>
<path d="M95.79 77.4307V85.4645" stroke="black" stroke-width="0.75" stroke-miterlimit="10"/>
<path d="M116.205 72.8862H108.153V85.4644H116.205V72.8862Z" stroke="black" stroke-width="0.75" stroke-miterlimit="10"/>
<path d="M116.042 70.6953H108.234H106.526H106.282V90.1713H108.234V88.5483H116.042V90.1713H117.995V88.5483V70.6953H116.042Z" stroke="black" stroke-width="0.75" stroke-miterlimit="10"/>
<path d="M107.99 77.3496H115.961" stroke="black" stroke-width="0.75" stroke-miterlimit="10"/>
<path d="M112.138 77.4307V85.4645" stroke="black" stroke-width="0.75" stroke-miterlimit="10"/>
<path d="M131.008 72.8862H122.956V85.4644H131.008V72.8862Z" stroke="black" stroke-width="0.75" stroke-miterlimit="10"/>
<path d="M130.927 70.6953H123.119H121.329H121.167V90.1713H123.119V88.5483H130.927V90.1713H132.797V88.5483V70.6953H130.927Z" stroke="black" stroke-width="0.75" stroke-miterlimit="10"/>
<path d="M122.793 77.3496H130.845" stroke="black" stroke-width="0.75" stroke-miterlimit="10"/>
<path d="M127.023 77.4307V85.4645" stroke="black" stroke-width="0.75" stroke-miterlimit="10"/>
<path d="M148.983 72.8862H140.931V85.4644H148.983V72.8862Z" stroke="black" stroke-width="0.75" stroke-miterlimit="10"/>
<path d="M148.902 70.6953H141.012H139.304H139.142V90.1713H141.012V88.5483H148.902V90.1713H150.773V88.5483V70.6953H148.902Z" stroke="black" stroke-width="0.75" stroke-miterlimit="10"/>
<path d="M140.769 77.3496H148.821" stroke="black" stroke-width="0.75" stroke-miterlimit="10"/>
<path d="M144.998 77.4307V85.4645" stroke="black" stroke-width="0.75" stroke-miterlimit="10"/>
<path d="M163.867 72.8862H155.815V85.4644H163.867V72.8862Z" stroke="black" stroke-width="0.75" stroke-miterlimit="10"/>
<path d="M163.705 70.6953H155.897H154.189H154.026V90.1713H155.897V88.5483H163.705V90.1713H165.657V88.5483V70.6953H163.705Z" stroke="black" stroke-width="0.75" stroke-miterlimit="10"/>
<path d="M155.653 77.3496H163.623" stroke="black" stroke-width="0.75" stroke-miterlimit="10"/>
<path d="M159.801 77.4307V85.4645" stroke="black" stroke-width="0.75" stroke-miterlimit="10"/>
<path d="M136.62 42.7798H134.668V127.581H136.62V42.7798Z" fill="white" stroke="black" stroke-miterlimit="10"/>
<path d="M85.2164 100.883H74.0735V116.707H85.2164V100.883Z" stroke="black" stroke-width="0.75" stroke-miterlimit="10"/>
<path d="M85.2164 100.883H74.0735V116.707H85.2164V100.883Z" stroke="black" stroke-width="0.75" stroke-miterlimit="10"/>
<path d="M21.5308 65.9077H15.512V75.4022H21.5308V65.9077Z" stroke="black" stroke-width="0.75" stroke-miterlimit="10"/>
<path d="M15.3494 69.2349H21.3682" stroke="black" stroke-width="0.75" stroke-miterlimit="10"/>
<path d="M18.5215 66.0703V75.3214" stroke="black" stroke-width="0.75" stroke-miterlimit="10"/>
<path d="M100.101 102.344H92.0486V114.922H100.101V102.344Z" stroke="black" stroke-width="0.75" stroke-miterlimit="10"/>
<path d="M91.886 106.807H99.9382" stroke="black" stroke-width="0.75" stroke-miterlimit="10"/>
<path d="M96.1155 106.888V114.922" stroke="black" stroke-width="0.75" stroke-miterlimit="10"/>
<path d="M101.565 100.883H90.4219V116.707H101.565V100.883Z" stroke="black" stroke-width="0.75" stroke-miterlimit="10"/>
<path d="M149.39 102.344H141.337V114.922H149.39V102.344Z" stroke="black" stroke-width="0.75" stroke-miterlimit="10"/>
<path d="M141.175 106.807H149.146" stroke="black" stroke-width="0.75" stroke-miterlimit="10"/>
<path d="M145.323 106.888V114.922" stroke="black" stroke-width="0.75" stroke-miterlimit="10"/>
<path d="M150.854 100.883H139.711V116.707H150.854V100.883Z" stroke="black" stroke-width="0.75" stroke-miterlimit="10"/>
<path d="M165.82 102.344H157.768V114.922H165.82V102.344Z" stroke="black" stroke-width="0.75" stroke-miterlimit="10"/>
<path d="M157.523 106.807H165.576" stroke="black" stroke-width="0.75" stroke-miterlimit="10"/>
<path d="M161.753 106.888V114.922" stroke="black" stroke-width="0.75" stroke-miterlimit="10"/>
<path d="M167.202 100.883H156.059V116.707H167.202V100.883Z" stroke="black" stroke-width="0.75" stroke-miterlimit="10"/>
<path d="M167.202 100.883H156.059V116.707H167.202V100.883Z" stroke="black" stroke-width="0.75" stroke-miterlimit="10"/>
<path d="M181.192 23.0601L174.929 33.2038L175.336 127.662L181.273 127.743L181.192 23.0601Z" fill="#05111F" stroke="black" stroke-miterlimit="10" stroke-linejoin="round"/>
<path d="M66.4278 55.1144L66.3465 45.133L25.1096 44.5649L8.35449 55.1144H66.4278Z" stroke="black" stroke-width="0.75" stroke-miterlimit="10" stroke-linejoin="round"/>
<path d="M66.5905 55.1143H8.27319V121.251H66.5905V55.1143Z" stroke="black" stroke-width="0.75" stroke-miterlimit="10"/>
<path d="M130.276 127.906H109.698V108.024C109.698 102.506 114.172 98.0425 119.702 98.0425H119.946C125.64 98.0425 130.276 102.668 130.276 108.349V127.906Z" fill="black"/>
<path d="M41.8645 65.9077H35.8457V75.4022H41.8645V65.9077Z" stroke="black" stroke-width="0.75" stroke-miterlimit="10"/>
<path d="M35.6831 69.2349H41.7832" stroke="black" stroke-width="0.75" stroke-miterlimit="10"/>
<path d="M38.8552 66.0703V75.3214" stroke="black" stroke-width="0.75" stroke-miterlimit="10"/>
<path d="M61.385 65.9077H55.3662V75.4022H61.385V65.9077Z" stroke="black" stroke-width="0.75" stroke-miterlimit="10"/>
<path d="M55.2036 69.2349H61.3038" stroke="black" stroke-width="0.75" stroke-miterlimit="10"/>
<path d="M58.3755 66.0703V75.3214" stroke="black" stroke-width="0.75" stroke-miterlimit="10"/>
<path d="M21.5308 87.0063H15.512V96.5009H21.5308V87.0063Z" stroke="black" stroke-width="0.75" stroke-miterlimit="10"/>
<path d="M15.3494 90.3335H21.3682" stroke="black" stroke-width="0.75" stroke-miterlimit="10"/>
<path d="M18.5215 87.1689V96.42" stroke="black" stroke-width="0.75" stroke-miterlimit="10"/>
<path d="M21.5308 106.482H15.512V115.977H21.5308V106.482Z" stroke="black" stroke-width="0.75" stroke-miterlimit="10"/>
<path d="M15.3494 109.81H21.3682" stroke="black" stroke-width="0.75" stroke-miterlimit="10"/>
<path d="M18.5215 106.645V115.896" stroke="black" stroke-width="0.75" stroke-miterlimit="10"/>
<path d="M61.7915 105.671H55.7727V115.165H61.7915V105.671Z" stroke="black" stroke-width="0.75" stroke-miterlimit="10"/>
<path d="M55.6101 108.998H61.6289" stroke="black" stroke-width="0.75" stroke-miterlimit="10"/>
<path d="M58.7822 105.833V115.085" stroke="black" stroke-width="0.75" stroke-miterlimit="10"/>
<path d="M41.8647 104.21H34.9512V121.008H41.8647V104.21Z" stroke="black" stroke-width="0.75" stroke-miterlimit="10"/>
<path d="M51.5437 127.744H48.2903C48.2903 127.744 48.6156 110.459 48.2903 98.2864C48.2903 97.4749 51.5437 97.4749 51.5437 98.2864C50.893 110.134 51.5437 127.744 51.5437 127.744Z" fill="black"/>
<path d="M63.7439 82.8676C63.7439 76.1321 57.2371 72.9673 50.4049 72.9673C42.8408 72.9673 36.4153 77.1059 33.8125 82.8676C29.5018 84.166 29.3391 87.3308 29.3391 91.0637C29.3391 95.9327 31.5352 99.909 37.8793 99.909C38.042 99.909 38.1233 99.909 38.286 99.909C41.4581 102.506 45.7688 104.129 50.4049 104.129C54.065 104.129 57.5624 103.155 60.4091 101.451C60.8158 101.532 61.2225 101.532 61.7105 101.532C67.16 101.532 71.4707 96.7442 71.4707 90.8202C71.4707 86.6005 66.916 84.6529 63.7439 82.8676Z" fill="white" stroke="black" stroke-miterlimit="10"/>
<path d="M54.6345 78.2417C55.8545 77.5925 57.3999 78.404 57.9693 79.7024C58.5386 80.9196 58.376 82.3803 58.132 83.7599C59.1893 83.1107 60.572 83.3541 61.548 84.0845C62.524 84.8148 63.1747 85.8697 63.6627 87.0058C64.4761 88.8723 64.8014 91.3068 63.3374 92.6863" stroke="black" stroke-miterlimit="10" stroke-linecap="round"/>
<path d="M45.5247 77.3491C43.166 77.4303 41.5393 80.5951 42.8406 82.5427C40.5632 83.1107 38.5299 84.6526 37.3912 86.7625C36.2525 88.8724 36.0898 91.388 36.9845 93.5791" stroke="black" stroke-miterlimit="10" stroke-linecap="round"/>
<path d="M44.2236 92.9298C45.1183 94.2282 46.1757 95.4454 47.3144 96.5815C47.8837 97.0684 48.5344 97.6364 49.2664 97.7987C49.9984 97.961 50.9744 97.7987 51.3811 97.2307C52.1131 96.2569 51.4625 94.7962 50.8118 93.7413C52.8452 94.3904 55.1225 92.8486 55.6106 90.8199C56.0986 88.7911 54.8785 86.6001 53.0078 85.5451C51.1371 84.5713 48.8597 84.7336 46.989 85.6263" stroke="black" stroke-miterlimit="10" stroke-linecap="round"/>
</g>
<defs>
<clipPath id="clip0">
<rect width="190" height="134" fill="white"/>
</clipPath>
</defs>
</svg>
