<svg width="190" height="134" viewBox="0 0 190 134" fill="none" xmlns="http://www.w3.org/2000/svg">
<g clip-path="url(#clip0)">
<rect width="190" height="134" fill="white"/>
<path d="M67.1625 97.1743C55.7431 101.487 48.239 116.217 46.6077 127.367C56.3141 127.367 133.313 127.285 133.232 127.285C130.132 115.566 118.713 101.813 106.396 97.744C106.396 97.744 92.1219 103.766 86.9832 103.685C81.8445 103.603 67.1625 97.1743 67.1625 97.1743Z" stroke="black" stroke-miterlimit="10" stroke-linejoin="round"/>
<path d="M123.851 73.7368C118.06 79.8404 109.659 82.7701 101.747 81.3866C97.0159 80.5728 92.5297 78.2942 87.7173 78.1314C83.4758 77.9686 79.3975 79.3521 75.3192 80.5728C66.2653 83.2584 55.8247 84.6419 48.239 78.6197C52.4805 75.1203 54.275 69.0168 54.9275 63.2387C55.58 57.4607 55.3353 51.4385 56.7219 45.8232C58.8427 37.0341 64.7155 29.5471 72.2196 25.8036C79.7238 22.06 88.533 22.06 96.1187 25.3967C105.009 29.3843 112.106 38.0107 114.879 48.1833C115.939 52.0896 116.429 56.24 118.386 59.6579C120.344 63.0759 124.504 65.436 127.685 63.4829C128.582 67.2264 126.38 71.0513 123.851 73.7368Z" fill="black"/>
<path d="M15.6122 68.4468C13.4099 68.4468 11.697 70.1558 11.697 72.353V110.358C11.697 112.555 13.4099 114.264 15.6122 114.264H40.4085C42.6108 114.264 44.3237 112.555 44.3237 110.358V80.8166L30.7836 68.4468H15.6122Z" fill="white" stroke="black" stroke-width="0.75" stroke-miterlimit="10"/>
<path d="M34.6989 80.8162H44.3238L30.7837 68.4463V76.9099C30.7837 79.0258 32.5781 80.8162 34.6989 80.8162Z" fill="white" stroke="black" stroke-width="0.75" stroke-miterlimit="10"/>
<path d="M40.2455 84.6411H17.1621V85.9432H40.2455V84.6411Z" fill="black"/>
<path d="M40.2455 90.8262H17.1621V92.1283H40.2455V90.8262Z" fill="black"/>
<path d="M40.2455 97.0928H17.1621V98.3949H40.2455V97.0928Z" fill="black"/>
<path d="M40.2455 103.359H17.1621V104.661H40.2455V103.359Z" fill="black"/>
<path d="M154.276 5.21387H123.851C120.262 5.21387 117.407 8.14358 117.407 11.643V24.908C117.407 28.4074 120.262 31.2557 123.77 31.3371C123.933 35.8944 124.259 43.8697 124.259 43.8697L133.639 31.3371H154.276C157.865 31.3371 160.719 28.4074 160.719 24.908V11.643C160.719 8.0622 157.783 5.21387 154.276 5.21387Z" fill="#C04538"/>
<path d="M132.334 17.3395C132.334 16.3629 132.987 15.7119 133.884 15.7119C134.781 15.7119 135.434 16.3629 135.434 17.3395C135.434 18.2347 134.863 18.9671 133.884 18.9671C132.987 18.9671 132.334 18.2347 132.334 17.3395Z" fill="white"/>
<path d="M137.718 17.3395C137.718 16.3629 138.37 15.7119 139.268 15.7119C140.165 15.7119 140.817 16.3629 140.817 17.3395C140.817 18.2347 140.246 18.9671 139.268 18.9671C138.289 18.9671 137.718 18.2347 137.718 17.3395Z" fill="white"/>
<path d="M143.02 17.3395C143.02 16.3629 143.672 15.7119 144.569 15.7119C145.467 15.7119 146.119 16.3629 146.119 17.3395C146.119 18.2347 145.548 18.9671 144.569 18.9671C143.672 18.9671 143.02 18.2347 143.02 17.3395Z" fill="white"/>
<path d="M27.6026 4.72559C37.3906 4.72559 45.3841 13.0264 45.3841 23.199C45.3841 24.4197 45.3026 25.5591 45.0579 26.6984C46.5261 28.8957 54.5196 41.0214 53.0514 40.0449C52.0726 39.3938 45.8735 37.0337 41.1427 35.2434C37.88 39.231 33.0676 41.7538 27.6026 41.7538C17.8146 41.7538 9.82104 33.453 9.82104 23.2804C9.90261 13.0264 17.8146 4.72559 27.6026 4.72559Z" fill="white" stroke="black" stroke-miterlimit="10"/>
<path d="M25.8896 25.5592L25.808 24.9081C25.6449 23.5247 26.1343 22.0598 27.3578 20.5949C28.4997 19.2928 29.0707 18.3163 29.0707 17.177C29.0707 15.8749 28.255 15.0611 26.7053 15.0611C25.808 15.0611 24.8292 15.3866 24.1767 15.8749L23.6057 14.3286C24.4214 13.759 25.8896 13.3521 27.1947 13.3521C30.0495 13.3521 31.3546 15.1424 31.3546 17.0142C31.3546 18.7232 30.3758 19.9439 29.2338 21.3274C28.1735 22.6295 27.7656 23.6874 27.8472 24.9895V25.6406H25.8896V25.5592ZM25.3186 29.0586C25.3186 28.1634 25.9712 27.5123 26.7868 27.5123C27.6841 27.5123 28.255 28.1634 28.255 29.0586C28.255 29.9537 27.6841 30.6048 26.7868 30.6048C25.8896 30.6048 25.3186 29.9537 25.3186 29.0586Z" fill="black"/>
<path d="M144.161 79.3519L131.355 85.6182L135.679 71.5394L171.486 29.3027L179.888 37.1967L144.161 79.3519Z" fill="white" stroke="black" stroke-miterlimit="10"/>
<path d="M136.005 70.5622C136.576 70.2367 137.228 69.9111 137.962 69.9111C138.697 69.9111 139.512 70.318 139.757 71.0505C140.165 72.027 139.431 73.3291 140.165 74.1429C140.654 74.7126 141.551 74.5499 142.122 74.2243C142.693 73.8174 143.264 73.3291 143.998 73.3291C144.977 73.3291 145.874 74.4685 145.956 75.5264C146.038 76.5844 145.63 77.5609 145.14 78.4561C145.222 78.2934 145.304 78.0492 145.385 77.8865" stroke="black" stroke-width="0.75" stroke-miterlimit="10"/>
<path d="M167.408 33.5342L176.136 41.5909" stroke="black" stroke-width="0.75" stroke-miterlimit="10"/>
<path d="M139.92 72.109L170.181 36.3828" stroke="black" stroke-width="0.75" stroke-miterlimit="10"/>
<path d="M145.63 73.4109L174.341 39.9634" stroke="black" stroke-width="0.75" stroke-miterlimit="10"/>
<path d="M176.951 100.836C175.32 97.4183 170.589 97.4997 166.103 100.999V96.8486H140.246V119.472C140.246 123.623 142.775 127.041 145.793 127.041H160.556C163.656 127.041 166.103 123.623 166.103 119.472V117.682C167.816 117.194 169.692 116.217 171.486 114.671C176.217 110.683 178.664 104.498 176.951 100.836ZM170.263 113.125C168.876 114.346 167.408 115.159 166.103 115.485V104.092C169.692 100.999 173.526 100.511 174.668 103.034C175.891 105.556 173.852 110.032 170.263 113.125Z" fill="white" stroke="black" stroke-miterlimit="10"/>
<path d="M106.396 98.1509C100.36 95.4653 91.6324 86.0251 94.9767 79.0264" stroke="black" stroke-miterlimit="10"/>
<path d="M80.8655 79.0264C84.2913 86.1879 74.4218 95.3025 68.1411 97.6626" stroke="black" stroke-miterlimit="10"/>
<path d="M67.8966 97.5814C67.8151 97.9883 68.8754 107.998 71.6487 109.3C75.4823 111.091 87.3095 103.115 87.3095 103.115C87.3095 103.115 99.3814 111.253 103.215 109.382C105.988 107.998 106.641 97.5 106.641 97.5C103.623 100.023 96.3634 101.65 87.6358 102.79C79.316 103.929 67.4072 97.2559 67.4072 97.2559L67.8966 97.5814Z" fill="black"/>
<path d="M87.0647 84.2346C100.534 84.2346 111.453 72.0287 111.453 56.972C111.453 41.9153 100.534 29.7095 87.0647 29.7095C73.5953 29.7095 62.6763 41.9153 62.6763 56.972C62.6763 72.0287 73.5953 84.2346 87.0647 84.2346Z" fill="white" stroke="black" stroke-miterlimit="10"/>
<path d="M70.9143 67.4702C76.5454 67.4702 81.1102 62.9158 81.1102 57.2976C81.1102 51.6794 76.5454 47.125 70.9143 47.125C65.2833 47.125 60.7185 51.6794 60.7185 57.2976C60.7185 62.9158 65.2833 67.4702 70.9143 67.4702Z" stroke="black" stroke-width="2" stroke-miterlimit="10"/>
<path d="M98.7288 66.1679C104.36 66.1679 108.925 61.6135 108.925 55.9954C108.925 50.3772 104.36 45.8228 98.7288 45.8228C93.0978 45.8228 88.533 50.3772 88.533 55.9954C88.533 61.6135 93.0978 66.1679 98.7288 66.1679Z" stroke="black" stroke-width="2" stroke-miterlimit="10"/>
<path d="M80.05 53.5537C81.6814 52.4958 82.1708 52.333 84.2915 52.333C85.6782 52.333 87.0648 52.5771 88.2883 53.1468" stroke="black" stroke-width="2" stroke-miterlimit="10"/>
<path d="M88.0436 68.5281C88.0436 68.5281 82.4155 69.1791 82.5787 68.0398C83.8022 62.0176 83.8837 56.1582 83.8837 56.1582" stroke="black" stroke-width="0.75" stroke-miterlimit="10" stroke-linecap="round"/>
</g>
<defs>
<clipPath id="clip0">
<rect width="190" height="134" fill="white"/>
</clipPath>
</defs>
</svg>
