<svg width="220" height="20" viewBox="0 0 220 20" fill="none" xmlns="http://www.w3.org/2000/svg">
<path d="M0.164307 13.5981C0.656436 17.9467 2.95304 19.8459 7.35486 19.8459C11.5926 19.8459 14.1353 17.8091 14.1353 14.2862C14.1353 11.0935 12.3035 9.66232 9.15933 8.78159L7.40954 8.3137C5.16762 7.65315 3.88262 7.02012 3.88262 5.28617C3.88262 3.71737 5.03092 2.72654 7.13614 2.72654C9.32338 2.72654 10.499 3.85498 10.7724 6.33205L13.8346 5.9192C13.3971 2.03847 11.2372 0.084342 7.16348 0.084342C3.11708 0.084342 0.711117 2.23113 0.711117 5.5614C0.711117 8.72654 2.81634 10.2678 5.85113 11.066L7.68295 11.5614C9.84285 12.1394 10.9091 12.855 10.9091 14.5614C10.9091 16.2128 9.73349 17.2036 7.40954 17.2036C4.9489 17.2036 3.49985 15.8825 3.22644 13.1577L0.164307 13.5981ZM16.7004 19.5982H19.9266V13.3504H23.0434C27.1718 13.3504 29.6598 10.9559 29.6598 6.91003C29.6598 2.78159 27.2538 0.332049 23.2621 0.332049H16.7004V19.5982ZM22.7426 3.02929C25.1213 3.02929 26.4063 4.35039 26.4063 6.91003C26.4063 9.38709 25.1213 10.6807 22.7426 10.6807H19.9266V3.02929H22.7426ZM31.8937 19.5982H35.1199V12.1944H37.3618L42.0097 19.5982H45.6733L40.6973 11.8091C43.322 11.2311 44.8804 9.277 44.8804 6.277C44.8804 2.47883 42.7752 0.332049 38.9476 0.332049H31.8937V19.5982ZM38.5101 3.00177C40.6153 3.00177 41.7089 4.13021 41.7089 6.277C41.7089 8.36874 40.4786 9.52471 38.5648 9.52471H35.1199V3.00177H38.5101ZM47.8077 19.5982H51.0339V0.332049H47.8077V19.5982ZM54.8575 19.5982H57.7556V5.17608L65.7391 19.5982H68.9926V0.332049H66.0672V14.7265L58.1111 0.332049H54.8575V19.5982ZM76.1904 19.5982H79.4166V3.08434H84.7753V0.332049H70.8864V3.08434H76.1904V19.5982ZM85.7567 13.8733C86.7409 17.9742 91.4982 19.9009 99.2629 19.9009C108.258 19.9009 112.359 17.6715 112.359 13.7082C112.359 10.4605 109.844 8.80911 103.938 8.42379L95.736 8.03847C91.9356 7.76324 90.5139 7.2403 90.5139 5.72654C90.5139 4.02012 92.8652 3.05682 98.7434 3.05682C104.212 3.05682 106.946 4.21278 107.602 6.41461L111.84 5.72654C110.828 2.01094 106.645 0.0292969 98.7708 0.0292969C90.5413 0.0292969 86.3855 2.2036 86.3855 6.00177C86.3855 9.19443 88.9829 10.8733 94.697 11.2311L102.68 11.6164C106.946 11.8642 108.231 12.4146 108.231 14.066C108.231 15.8825 105.688 16.8733 99.2902 16.8733C93.8221 16.8733 90.6233 15.6348 89.9945 13.2128L85.7567 13.8733ZM115.389 19.5982H119.435V14.0385H131.602C136.796 14.0385 139.859 11.4513 139.859 7.21278C139.859 2.94672 136.824 0.332049 131.684 0.332049H115.389V19.5982ZM131 3.49718C134.144 3.49718 135.73 4.79076 135.73 7.21278C135.73 9.57975 134.144 10.8733 131 10.8733H119.435V3.49718H131ZM162.553 19.5982H167.228L154.214 0.332049H150.058L137.126 19.5982H141.637L144.59 15.0843H159.572L162.553 19.5982ZM146.558 12.1119L152.054 3.71737L157.604 12.1119H146.558ZM166.001 9.96507C166.001 16.1853 171.196 19.9009 180.382 19.9009C188.037 19.9009 192.685 17.6715 193.888 13.2128L189.65 12.3871C188.94 15.3045 185.795 16.7357 180.382 16.7357C173.602 16.7357 170.129 14.3412 170.129 9.96507C170.129 5.61645 173.629 3.19443 180.382 3.19443C185.631 3.19443 188.721 4.62562 189.596 7.43296L193.888 6.57975C192.658 2.28617 187.928 0.0292969 180.382 0.0292969C171.305 0.0292969 166.001 3.77241 166.001 9.96507ZM196.75 19.5982H219.935V16.5981H200.687V11.2311H217.939V8.23113H200.687V3.33205H219.716V0.332049H196.75V19.5982Z" fill="white"/>
</svg>
