<svg width="220" height="20" viewBox="0 0 220 20" fill="none" xmlns="http://www.w3.org/2000/svg">
<path d="M0.164307 13.5985C0.656436 17.9471 2.95304 19.8463 7.35486 19.8463C11.5926 19.8463 14.1353 17.8095 14.1353 14.2865C14.1353 11.0939 12.3035 9.66269 9.15933 8.78195L7.40954 8.31406C5.16762 7.65351 3.88262 7.02048 3.88262 5.28654C3.88262 3.71773 5.03092 2.72691 7.13614 2.72691C9.32338 2.72691 10.499 3.85535 10.7724 6.33241L13.8346 5.91957C13.3971 2.03883 11.2372 0.0847082 7.16348 0.0847082C3.11708 0.0847082 0.711117 2.23149 0.711117 5.56177C0.711117 8.72691 2.81634 10.2682 5.85113 11.0664L7.68295 11.5618C9.84285 12.1398 10.9091 12.8553 10.9091 14.5618C10.9091 16.2131 9.73349 17.204 7.40954 17.204C4.9489 17.204 3.49985 15.8829 3.22644 13.1581L0.164307 13.5985ZM16.7004 19.5986H19.9266V13.3508H23.0434C27.1718 13.3508 29.6598 10.9563 29.6598 6.91039C29.6598 2.78195 27.2538 0.332415 23.2621 0.332415H16.7004V19.5986ZM22.7426 3.02966C25.1213 3.02966 26.4063 4.35076 26.4063 6.91039C26.4063 9.38746 25.1213 10.681 22.7426 10.681H19.9266V3.02966H22.7426ZM31.8937 19.5986H35.1199V12.1948H37.3618L42.0097 19.5986H45.6733L40.6973 11.8095C43.322 11.2315 44.8804 9.27736 44.8804 6.27737C44.8804 2.4792 42.7752 0.332415 38.9476 0.332415H31.8937V19.5986ZM38.5101 3.00214C40.6153 3.00214 41.7089 4.13058 41.7089 6.27737C41.7089 8.36911 40.4786 9.52507 38.5648 9.52507H35.1199V3.00214H38.5101ZM47.8077 19.5986H51.0339V0.332415H47.8077V19.5986ZM54.8575 19.5986H57.7556V5.17645L65.7391 19.5986H68.9926V0.332415H66.0672V14.7269L58.1111 0.332415H54.8575V19.5986ZM76.1904 19.5986H79.4166V3.08471H84.7753V0.332415H70.8864V3.08471H76.1904V19.5986ZM85.7567 13.8737C86.7409 17.9746 91.4982 19.9013 99.2629 19.9013C108.258 19.9013 112.359 17.6719 112.359 13.7086C112.359 10.4609 109.844 8.80947 103.938 8.42415L95.736 8.03883C91.9356 7.7636 90.5139 7.24067 90.5139 5.72691C90.5139 4.02048 92.8652 3.05718 98.7434 3.05718C104.212 3.05718 106.946 4.21315 107.602 6.41498L111.84 5.72691C110.828 2.01131 106.645 0.0296631 98.7708 0.0296631C90.5413 0.0296631 86.3855 2.20397 86.3855 6.00214C86.3855 9.1948 88.9829 10.8737 94.697 11.2315L102.68 11.6168C106.946 11.8645 108.231 12.415 108.231 14.0664C108.231 15.8829 105.688 16.8737 99.2902 16.8737C93.8221 16.8737 90.6233 15.6352 89.9945 13.2131L85.7567 13.8737ZM115.389 19.5986H119.435V14.0388H131.602C136.796 14.0388 139.859 11.4517 139.859 7.21314C139.859 2.94709 136.824 0.332415 131.684 0.332415H115.389V19.5986ZM131 3.49755C134.144 3.49755 135.73 4.79113 135.73 7.21314C135.73 9.58012 134.144 10.8737 131 10.8737H119.435V3.49755H131ZM162.553 19.5986H167.228L154.214 0.332415H150.058L137.126 19.5986H141.637L144.59 15.0847H159.572L162.553 19.5986ZM146.558 12.1122L152.054 3.71773L157.604 12.1122H146.558ZM166.001 9.96544C166.001 16.1856 171.196 19.9013 180.382 19.9013C188.037 19.9013 192.685 17.6719 193.888 13.2131L189.65 12.3875C188.94 15.3049 185.795 16.7361 180.382 16.7361C173.602 16.7361 170.129 14.3416 170.129 9.96544C170.129 5.61681 173.629 3.1948 180.382 3.1948C185.631 3.1948 188.721 4.62599 189.596 7.43333L193.888 6.58012C192.658 2.28654 187.928 0.0296631 180.382 0.0296631C171.305 0.0296631 166.001 3.77278 166.001 9.96544ZM196.75 19.5986H219.935V16.5985H200.687V11.2315H217.939V8.23149H200.687V3.33241H219.716V0.332415H196.75V19.5986Z" fill="white"/>
</svg>
