<svg width="70" height="22" viewBox="0 0 70 22" fill="none" xmlns="http://www.w3.org/2000/svg">
<path d="M29.223 9.144C28.463 9.144 27.855 8.924 27.399 8.484C26.943 8.044 26.715 7.46 26.715 6.732V5.328C26.715 4.592 26.943 4.004 27.399 3.564C27.855 3.124 28.463 2.904 29.223 2.904C29.991 2.904 30.603 3.124 31.059 3.564C31.523 4.004 31.755 4.592 31.755 5.328V6.732C31.755 7.46 31.523 8.044 31.059 8.484C30.603 8.924 29.991 9.144 29.223 9.144ZM29.235 8.124C29.675 8.124 30.023 7.996 30.279 7.74C30.543 7.484 30.675 7.14 30.675 6.708V5.364C30.675 4.916 30.547 4.564 30.291 4.308C30.035 4.052 29.683 3.924 29.235 3.924C28.795 3.924 28.443 4.052 28.179 4.308C27.923 4.564 27.795 4.916 27.795 5.364V6.708C27.795 7.148 27.923 7.496 28.179 7.752C28.443 8 28.795 8.124 29.235 8.124ZM32.2824 4.032V3.048H37.3344V4.032H35.3544V9H34.2624V4.032H32.2824ZM43.3987 8.832V9H42.2227L40.3507 6.504H39.3427V9H38.2627V3.048H39.3427V5.544H40.3267L42.1267 3.048H43.3027V3.216L41.3107 6.012L43.3987 8.832ZM47.256 2.904C47.952 2.904 48.508 3.12 48.924 3.552C49.34 3.976 49.548 4.544 49.548 5.256V6.792C49.548 7.504 49.34 8.076 48.924 8.508C48.508 8.932 47.952 9.144 47.256 9.144C46.592 9.144 46.048 8.944 45.624 8.544V11.04H44.544V3.048H45.516L45.564 3.552C45.996 3.12 46.56 2.904 47.256 2.904ZM48.456 5.304C48.456 4.88 48.328 4.544 48.072 4.296C47.824 4.048 47.484 3.924 47.052 3.924C46.74 3.924 46.456 3.996 46.2 4.14C45.952 4.276 45.76 4.468 45.624 4.716V7.344C45.76 7.584 45.952 7.776 46.2 7.92C46.448 8.056 46.732 8.124 47.052 8.124C47.484 8.124 47.824 8 48.072 7.752C48.328 7.504 48.456 7.168 48.456 6.744V5.304ZM53.943 5.112C54.583 5.112 55.087 5.288 55.455 5.64C55.831 5.984 56.019 6.436 56.019 6.996V7.116C56.019 7.676 55.831 8.132 55.455 8.484C55.087 8.828 54.583 9 53.943 9H50.955V3.048H52.035V5.112H53.943ZM57.795 3.048V9H56.703V3.048H57.795ZM54.939 7.008C54.939 6.736 54.851 6.516 54.675 6.348C54.499 6.18 54.239 6.096 53.895 6.096H52.035V8.016H53.895C54.239 8.016 54.499 7.936 54.675 7.776C54.851 7.616 54.939 7.392 54.939 7.104V7.008ZM58.4621 4.032V3.048H63.5141V4.032H61.5341V9H60.4421V4.032H58.4621ZM67.3944 5.112C68.0264 5.112 68.5304 5.284 68.9064 5.628C69.2824 5.972 69.4704 6.428 69.4704 6.996V7.116C69.4704 7.684 69.2824 8.14 68.9064 8.484C68.5304 8.828 68.0264 9 67.3944 9H64.4424V3.048H65.5224V5.112H67.3944ZM68.3904 7.008C68.3904 6.72 68.2984 6.496 68.1144 6.336C67.9304 6.176 67.6744 6.096 67.3464 6.096H65.5224V8.016H67.3464C67.6744 8.016 67.9304 7.94 68.1144 7.788C68.2984 7.628 68.3904 7.4 68.3904 7.104V7.008Z" fill="white"/>
<path d="M33.7547 15.048V21H32.7467V16.512L32.6027 16.944L30.8987 21H30.0467L28.3427 16.944L28.1867 16.488V21H27.1787V15.048H28.6067L30.4667 19.5L32.3267 15.048H33.7547ZM36.211 18.42V18.708C36.211 19.156 36.339 19.508 36.595 19.764C36.859 20.012 37.219 20.136 37.675 20.136C38.059 20.136 38.379 20.04 38.635 19.848C38.899 19.656 39.035 19.42 39.043 19.14H40.123C40.091 19.732 39.851 20.216 39.403 20.592C38.955 20.96 38.379 21.144 37.675 21.144C36.907 21.144 36.291 20.928 35.827 20.496C35.363 20.056 35.131 19.472 35.131 18.744V17.316C35.131 16.836 35.235 16.416 35.443 16.056C35.651 15.688 35.947 15.404 36.331 15.204C36.715 15.004 37.155 14.904 37.651 14.904C38.403 14.904 39.003 15.124 39.451 15.564C39.899 16.004 40.123 16.584 40.123 17.304V18.42H36.211ZM37.651 15.912C37.211 15.912 36.859 16.044 36.595 16.308C36.339 16.564 36.211 16.912 36.211 17.352V17.52H39.043V17.352C39.043 16.912 38.915 16.564 38.659 16.308C38.411 16.044 38.075 15.912 37.651 15.912ZM42.579 15.06V17.52H45.327V15.06H46.419V21H45.327V18.504H42.579V21H41.499V15.06H42.579ZM52.5749 14.904C53.3109 14.904 53.9029 15.128 54.3509 15.576C54.7989 16.016 55.0229 16.6 55.0229 17.328V18.732C55.0229 19.46 54.7989 20.044 54.3509 20.484C53.9029 20.924 53.3109 21.144 52.5749 21.144C51.8309 21.144 51.2349 20.924 50.7869 20.484C50.3389 20.044 50.1149 19.46 50.1149 18.732V18.516H49.0829V21H48.0029V15.048H49.0829V17.52H50.1149V17.328C50.1149 16.592 50.3389 16.004 50.7869 15.564C51.2349 15.124 51.8309 14.904 52.5749 14.904ZM53.9309 17.364C53.9309 16.916 53.8069 16.564 53.5589 16.308C53.3189 16.052 52.9909 15.924 52.5749 15.924C52.1509 15.924 51.8149 16.052 51.5669 16.308C51.3189 16.564 51.1949 16.916 51.1949 17.364V18.708C51.1949 19.14 51.3189 19.484 51.5669 19.74C51.8149 19.996 52.1509 20.124 52.5749 20.124C52.9909 20.124 53.3189 19.996 53.5589 19.74C53.8069 19.484 53.9309 19.14 53.9309 18.708V17.364Z" fill="white"/>
<path d="M6.79688 10.375H2.57812C1.15652 10.375 0 9.21848 0 7.79688V3.57812C0 2.15652 1.15652 1 2.57812 1H6.79688C8.21848 1 9.375 2.15652 9.375 3.57812V7.79688C9.375 9.21848 8.21848 10.375 6.79688 10.375ZM2.57812 2.25C1.84578 2.25 1.25 2.84578 1.25 3.57812V7.79688C1.25 8.52922 1.84578 9.125 2.57812 9.125H6.79688C7.52922 9.125 8.125 8.52922 8.125 7.79688V3.57812C8.125 2.84578 7.52922 2.25 6.79688 2.25H2.57812Z" fill="white"/>
<path d="M17.4219 10.375H13.2031C11.7815 10.375 10.625 9.21848 10.625 7.79688V3.57812C10.625 2.15652 11.7815 1 13.2031 1H17.4219C18.8435 1 20 2.15652 20 3.57812V7.79688C20 9.21848 18.8435 10.375 17.4219 10.375ZM13.2031 2.25C12.4708 2.25 11.875 2.84578 11.875 3.57812V7.79688C11.875 8.52922 12.4708 9.125 13.2031 9.125H17.4219C18.1542 9.125 18.75 8.52922 18.75 7.79688V3.57812C18.75 2.84578 18.1542 2.25 17.4219 2.25H13.2031Z" fill="white"/>
<path d="M15.3125 21C12.7278 21 10.625 18.8972 10.625 16.3125C10.625 13.7278 12.7278 11.625 15.3125 11.625C17.8972 11.625 20 13.7278 20 16.3125C20 18.8972 17.8972 21 15.3125 21ZM15.3125 12.875C13.4171 12.875 11.875 14.4171 11.875 16.3125C11.875 18.2079 13.4171 19.75 15.3125 19.75C17.2079 19.75 18.75 18.2079 18.75 16.3125C18.75 14.4171 17.2079 12.875 15.3125 12.875Z" fill="white"/>
<path d="M6.79688 21H2.57812C1.15652 21 0 19.8435 0 18.4219V14.2031C0 12.7815 1.15652 11.625 2.57812 11.625H6.79688C8.21848 11.625 9.375 12.7815 9.375 14.2031V18.4219C9.375 19.8435 8.21848 21 6.79688 21ZM2.57812 12.875C1.84578 12.875 1.25 13.4708 1.25 14.2031V18.4219C1.25 19.1542 1.84578 19.75 2.57812 19.75H6.79688C7.52922 19.75 8.125 19.1542 8.125 18.4219V14.2031C8.125 13.4708 7.52922 12.875 6.79688 12.875H2.57812Z" fill="white"/>
</svg>
