<?xml version="1.0" standalone="no"?>
<!DOCTYPE svg PUBLIC "-//W3C//DTD SVG 1.1//EN" "http://www.w3.org/Graphics/SVG/1.1/DTD/svg11.dtd" >
<svg>
<metadata>
Created by FontForge 20090914 at Wed Mar  3 14:21:53 2021
 By www-data
Copyright &#194;&#169; 2019 by Lisa Fischbach, Jakob Runge and Nils Thomsen. All rights reserved.
</metadata>
<defs>
<font id="HalvarBreit-Rg" horiz-adv-x="554" >
  <font-face 
    font-family="Halvar Breit Rg"
    font-weight="400"
    font-stretch="expanded"
    units-per-em="1000"
    panose-1="0 0 5 5 0 0 0 0 0 0"
    ascent="800"
    descent="-200"
    x-height="495"
    cap-height="656"
    bbox="-230 -225.001 1393 951.001"
    underline-thickness="50"
    underline-position="-100"
    unicode-range="U+0020-U+FB02"
  />
<missing-glyph horiz-adv-x="436" 
d="M61 656h95l-156 -156v95zM280 656h95l-375 -375v95zM436 595v-95l-436 -438v95zM436 281l-279 -281h-95l374 376v-95zM436 62l-60 -62h-95l155 157v-95z" />
    <glyph glyph-name=".notdef" horiz-adv-x="436" 
d="M61 656h95l-156 -156v95zM280 656h95l-375 -375v95zM436 595v-95l-436 -438v95zM436 281l-279 -281h-95l374 376v-95zM436 62l-60 -62h-95l155 157v-95z" />
    <glyph glyph-name="space" unicode=" " horiz-adv-x="400" 
 />
    <glyph glyph-name="exclam" unicode="!" horiz-adv-x="352" 
d="M226 656l-5 -474h-90l-5 474h100zM132 4.5c-11.333 11 -17 25.5 -17 43.5s5.66699 32.5 17 43.5s26 16.5 44 16.5s32.667 -5.5 44 -16.5s17 -25.5 17 -43.5s-5.66699 -32.5 -17 -43.5s-26 -16.5 -44 -16.5s-32.667 5.5 -44 16.5z" />
    <glyph glyph-name="quotedbl" unicode="&#x22;" horiz-adv-x="573" 
d="M217 696l-2 -269h-96l-2 269h100zM456 696l-2 -269h-96l-2 269h100z" />
    <glyph glyph-name="numbersign" unicode="#" horiz-adv-x="844" 
d="M631 433l-13 -210h154v-90h-160l-9 -133h-95l10 133h-217l-8 -133h-95l9 133h-157v90h163l13 210h-154v90h160l9 133h95l-9 -133h216l8 133h95l-9 -133h157v-90h-163zM523 223l14 210h-216l-14 -210h216z" />
    <glyph glyph-name="dollar" unicode="$" horiz-adv-x="816" 
d="M735 216l0.00195312 -10.002c0 -54.667 -24 -97.5 -72 -128.5s-117 -49.167 -207 -54.5v-83h-95v83c-91.333 5.33301 -161 23.666 -209 54.999s-72 75 -72 131v9h98v-9c0 -66 80.667 -99 242 -99c144 0 216 28.333 216 85v10c0 16 -4.33301 28.667 -13 38
s-23.334 16.833 -44.001 22.5s-50.334 10.5 -89.001 14.5l-171 17c-77.333 7.33301 -133.833 23.5 -169.5 48.5s-53.5 60.167 -53.5 105.5v10c0 50.667 23.167 90.834 69.5 120.501s111.5 46.834 195.5 51.501v84h95v-85c86 -5.33301 151.667 -23.166 197 -53.499
s68 -71.833 68 -124.5v-8h-98v8c0 29.333 -19.5 52 -58.5 68s-94.833 24 -167.5 24c-65.333 0 -115.5 -6.5 -150.5 -19.5s-52.5 -31.833 -52.5 -56.5v-10c0 -14.667 4.5 -26.667 13.5 -36s24 -17 45 -23s50.5 -11 88.5 -15l169 -18c150 -16 225 -66.667 225 -152z" />
    <glyph glyph-name="percent" unicode="%" horiz-adv-x="970" 
d="M80.5 382c-35.667 28.667 -53.5 66.667 -53.5 114v10c0 48 17.833 86.167 53.5 114.5s83.167 42.5 142.5 42.5s106.5 -14.167 141.5 -42.5s52.5 -66.5 52.5 -114.5v-10c0 -47.333 -17.667 -85.333 -53 -114s-82.333 -43 -141 -43c-59.333 0 -106.833 14.333 -142.5 43z
M301 433c19.333 15.333 29 36 29 62v12c0 26 -9.66699 46.667 -29 62s-45.666 23 -78.999 23s-59.5 -7.5 -78.5 -22.5s-28.5 -35.833 -28.5 -62.5v-12c0 -26 9.66699 -46.667 29 -62s45.333 -23 78 -23c33.333 0 59.666 7.66699 78.999 23zM606.5 37
c-35.667 28.667 -53.5 66.667 -53.5 114v10c0 48 17.833 86.167 53.5 114.5s83.167 42.5 142.5 42.5s106.5 -14.167 141.5 -42.5s52.5 -66.5 52.5 -114.5v-10c0 -47.333 -17.667 -85.333 -53 -114s-82.333 -43 -141 -43c-59.333 0 -106.833 14.333 -142.5 43zM827 88
c19.333 15.333 29 36 29 62v12c0 26 -9.66699 46.667 -29 62s-45.666 23 -78.999 23s-59.5 -7.5 -78.5 -22.5s-28.5 -35.833 -28.5 -62.5v-12c0 -26 9.66699 -46.667 29 -62s45.333 -23 78 -23c33.333 0 59.666 7.66699 78.999 23zM740 656h96v-15l-607 -641h-96v14z" />
    <glyph glyph-name="ampersand" unicode="&#x26;" horiz-adv-x="915" 
d="M892 356l-213.996 -204.997l203 -137v-14h-148l-127 86c-43.333 -35.333 -86.333 -60.5 -129 -75.5s-92.334 -22.5 -149.001 -22.5c-55.333 0 -104 7.16699 -146 21.5s-74.333 34.666 -97 60.999s-34 57.166 -34 92.499v11c0 74 49.333 128.667 148 164l22 8
c-43.333 29.333 -72.5 54.333 -87.5 75s-22.5 45.667 -22.5 75v9c0 32 10.667 60.333 32 85s51.666 43.834 90.999 57.501s84.666 20.5 135.999 20.5c50 0 94.167 -6.83301 132.5 -20.5s68.166 -32.834 89.499 -57.501s32 -53 32 -85v-9
c0 -38.667 -11.667 -70.834 -35 -96.501s-61 -47.5 -113 -65.5l-47 -17l168 -112l170 164h125v-13zM210.004 499.003c0 -13.333 5.00195 -25.665 15.002 -36.998s28.667 -26.333 56 -45l58 -39l76 27c43.333 15.333 72.5 29.166 87.5 41.499s22.5 28.166 22.5 47.499v7
c0 25.333 -13.833 44.833 -41.5 58.5s-66.834 20.5 -117.501 20.5s-89.334 -6.33301 -116.001 -19s-40 -31 -40 -55v-7zM432.506 91.5039c31.667 10.333 62.499 26.5 92.499 48.5l-214 145l-64 -23c-37.333 -13.333 -63 -26 -77 -38s-21 -27.333 -21 -46v-11
c0 -28.667 15.5 -51 46.5 -67s74.833 -24 131.5 -24c38.667 0 73.834 5.16699 105.501 15.5z" />
    <glyph glyph-name="quotesingle" unicode="'" horiz-adv-x="334" 
d="M217 696l-2 -269h-96l-2 269h100z" />
    <glyph glyph-name="parenleft" unicode="(" horiz-adv-x="466" 
d="M234 -25.5c-50 27.667 -88.334 66 -115.001 115s-40 106.5 -40 172.5v132c0 66.667 13.167 124.667 39.5 174s64.333 87.5 114 114.5s108.834 41.167 177.501 42.5v-85c-75.333 -3.33301 -133.5 -26.333 -174.5 -69s-61.5 -102 -61.5 -178v-129
c0 -76 20.5 -135.5 61.5 -178.5s99.167 -65.833 174.5 -68.5v-86c-67.333 1.33301 -126 15.833 -176 43.5z" />
    <glyph glyph-name="parenright" unicode=")" horiz-adv-x="466" 
d="M232 681.5c50 -27.667 88.334 -66 115.001 -115s40 -106.5 40 -172.5v-132c0 -66.667 -13.167 -124.667 -39.5 -174s-64.333 -87.5 -114 -114.5s-108.834 -41.167 -177.501 -42.5v85c75.333 3.33301 133.5 26.333 174.5 69s61.5 102 61.5 178v129
c0 76 -20.5 135.5 -61.5 178.5s-99.167 65.833 -174.5 68.5v86c67.333 -1.33301 126 -15.833 176 -43.5z" />
    <glyph glyph-name="asterisk" unicode="*" horiz-adv-x="640" 
d="M429 502l177 -55l-32 -87l-209 86l4 -125h-98l5 126l-211 -87l-31 87l177 55l-177 55l31 87l211 -86l-5 126h98l-4 -125l209 85l32 -87z" />
    <glyph glyph-name="plus" unicode="+" horiz-adv-x="816" 
d="M715 283h-262v-242h-90v242h-262v90h262v242h90v-242h262v-90z" />
    <glyph glyph-name="comma" unicode="," horiz-adv-x="334" 
d="M250 126v-15l-90 -254h-92l73 269h109z" />
    <glyph glyph-name="hyphen" unicode="-" horiz-adv-x="442" 
d="M392 320v-87h-342v87h342z" />
    <glyph glyph-name="period" unicode="." horiz-adv-x="334" 
d="M123 5c-11.333 11.333 -17 25.666 -17 42.999s5.66699 31.666 17 42.999s26 17 44 17s32.667 -5.66699 44 -17s17 -25.666 17 -42.999s-5.66699 -31.666 -17 -42.999s-26 -17 -44 -17s-32.667 5.66699 -44 17z" />
    <glyph glyph-name="slash" unicode="/" horiz-adv-x="703" 
d="M530 721h99v-16l-456 -770h-99v16z" />
    <glyph glyph-name="zero" unicode="0" horiz-adv-x="817" 
d="M233.5 24c-51 24 -90.667 57.667 -119 101s-42.5 93 -42.5 149v107c0 56.667 14.167 106.667 42.5 150s68 77 119 101s109.833 36 176.5 36c66 0 124.333 -12 175 -36s90 -57.667 118 -101s42 -93.333 42 -150v-107c0 -56.667 -14 -106.5 -42 -149.5
s-67.333 -76.5 -118 -100.5s-109 -36 -175 -36c-66.667 0 -125.5 12 -176.5 36zM583 132c42 34 62.999 81 62.999 141v109c0 59.333 -21.167 106.333 -63.5 141s-100.166 52 -173.499 52c-74 0 -132.167 -17.167 -174.5 -51.5s-63.5 -81.5 -63.5 -141.5v-109
c0 -60 21.167 -107 63.5 -141s100.833 -51 175.5 -51c73.333 0 131 17 173 51z" />
    <glyph glyph-name="one" unicode="1" horiz-adv-x="519" 
d="M379 0h-98v508c-32 -18 -73.667 -27 -125 -27h-113v93h105c45.333 0 78.833 6.66699 100.5 20s32.5 34 32.5 62h98v-656z" />
    <glyph glyph-name="two" unicode="2" horiz-adv-x="755" 
d="M689 89v-89.001h-609v80l289 167c56.667 32.667 98.667 59.167 126 79.5s45.833 39.166 55.5 56.499s14.5 38 14.5 62v10c0 38.667 -16.167 68.334 -48.5 89.001s-78.833 31 -139.5 31c-62.667 0 -110.167 -11 -142.5 -33s-48.5 -54 -48.5 -96v-20h-100v21
c0 71.333 25 126 75 164s121.333 57 214 57c90.667 0 161.667 -18.667 213 -56s77 -88.666 77 -153.999v-10c0 -35.333 -7 -66.333 -21 -93s-38.167 -53.667 -72.5 -81s-84.5 -60 -150.5 -98l-152 -87h420z" />
    <glyph glyph-name="three" unicode="3" horiz-adv-x="790" 
d="M635.5 343.5c47 -32.333 70.5 -77.168 70.5 -134.501v-13c0 -67.333 -27 -118.833 -81 -154.5s-132.667 -53.5 -236 -53.5c-100.667 0.666992 -178.5 18.334 -233.5 53.001s-82.5 83.667 -82.5 147v7h99v-7c0 -33.333 19.333 -59.5 58 -78.5s92 -28.5 160 -28.5
c71.333 0 125.333 9.5 162 28.5s55 47.167 55 84.5v12c0 70 -71.333 105 -214 105h-108v88l247 168h-447v89h605v-89l-258 -171c88.667 -2.66699 156.5 -20.167 203.5 -52.5z" />
    <glyph glyph-name="four" unicode="4" horiz-adv-x="898" 
d="M831 149l-175.999 -0.000976562v-149h-99v149h-478v90c50.667 78.667 92 150.834 124 216.501s58.667 132.5 80 200.5h105v-15c-42.667 -129.333 -107.334 -263.333 -194.001 -402h363v301h99v-301h176v-90z" />
    <glyph glyph-name="five" unicode="5" horiz-adv-x="801" 
d="M632.5 370c56.333 -36.667 84.5 -87.332 84.5 -151.999v-16c0 -68 -27.667 -120.667 -83 -158s-133.333 -56 -234 -56c-101.333 0 -179.5 15.667 -234.5 47s-82.5 76 -82.5 134v8h100v-8c0 -27.333 19 -48.833 57 -64.5s90.333 -23.5 157 -23.5
c68.667 0 122.667 10.667 162 32s59 50.666 59 87.999v16c0 36 -19.833 64.333 -59.5 85s-94.5 31 -164.5 31c-61.333 0 -111.666 -7.83301 -150.999 -23.5s-60 -36.167 -62 -61.5h-98l22 408h570v-89h-482l-10 -193c51.333 34 123.666 51 216.999 51
c98.667 0 176.167 -18.333 232.5 -55z" />
    <glyph glyph-name="six" unicode="6" horiz-adv-x="786" 
d="M646 361.5c53.333 -33.667 79.999 -82.5 79.999 -146.5v-14c0 -66.667 -28.167 -118.834 -84.5 -156.501s-133.5 -56.5 -231.5 -56.5c-69.333 0 -129.5 10 -180.5 30s-90 48.667 -117 86s-40.5 81.333 -40.5 132v166c0 83.333 29.5 148.5 88.5 195.5
s140.833 70.5 245.5 70.5c62.667 0 117.334 -8.33301 164.001 -25s82.5 -40.5 107.5 -71.5s37.5 -67.5 37.5 -109.5v-8h-99v8c0 35.333 -18.667 63 -56 83s-88.666 30 -153.999 30c-76 0 -134.167 -14.667 -174.5 -44s-60.5 -71.666 -60.5 -126.999v-62
c58 46.667 140 70 246 70c99.333 0 175.666 -16.833 228.999 -50.5zM626.999 211c0 72.667 -70.333 109 -211 109c-58 0 -108.333 -6.83301 -151 -20.5s-74 -33.167 -94 -58.5v-6c0 -48 21 -85.667 63 -113s101 -41 177 -41c68 0 121 10 159 30s57 48.667 57 86v14z" />
    <glyph glyph-name="seven" unicode="7" horiz-adv-x="757" 
d="M677 656v-88.999c-95.333 -100 -169.833 -197.833 -223.5 -293.5s-80.5 -178.834 -80.5 -249.501v-24h-105v24c0 74 25.5 159 76.5 255s121.5 192 211.5 288h-493v89h614z" />
    <glyph glyph-name="eight" unicode="8" horiz-adv-x="853" 
d="M739.5 280c21 -24.667 31.5 -54.334 31.5 -89.001v-11c0 -128 -114.667 -192 -344 -192s-344 64 -344 192v11c0 34.667 10.5 64.334 31.5 89.001s52.167 44 93.5 58c-31.333 14 -55 32.167 -71 54.5s-24 47.833 -24 76.5v11c0 37.333 13 70.333 39 99
s62.667 50.667 110 66s102.333 23 165 23s117.667 -7.66699 165 -23s84 -37.333 110 -66s39 -61.667 39 -99v-11c0 -28.667 -8 -54.167 -24 -76.5s-39.667 -40.5 -71 -54.5c41.333 -14 72.5 -33.333 93.5 -58zM211 472c0 -34 17.5 -59 52.5 -75s89.5 -24 163.5 -24
c73.333 0 127.5 8 162.5 24s52.5 41 52.5 75v8c0 65.333 -71.667 98 -215 98c-144 0 -216 -32.667 -216 -98v-8zM672 184c0 35.333 -19.167 60.833 -57.5 76.5s-100.833 23.5 -187.5 23.5s-149.167 -7.83301 -187.5 -23.5s-57.5 -41.167 -57.5 -76.5v-8
c0 -34 19.667 -58.833 59 -74.5s101.333 -23.5 186 -23.5s146.667 7.83301 186 23.5s59 40.5 59 74.5v8z" />
    <glyph glyph-name="nine" unicode="9" horiz-adv-x="786" 
d="M556.5 638c51 -20 90.001 -48.667 117.001 -86s40.5 -81.333 40.5 -132v-166c0 -83.333 -29.5 -148.5 -88.5 -195.5s-140.833 -70.5 -245.5 -70.5c-62.667 0 -117.334 8.33301 -164.001 25s-82.5 40.5 -107.5 71.5s-37.5 67.5 -37.5 109.5v8h99v-8
c0 -35.333 18.667 -63 56 -83s88.666 -30 153.999 -30c76 0 134.167 14.667 174.5 44s60.5 71.666 60.5 126.999v62c-58 -46.667 -140 -70 -246 -70c-99.333 0 -175.666 16.833 -228.999 50.5s-80 82.5 -80 146.5v14c0 66.667 28.167 118.834 84.5 156.501
s133.5 56.5 231.5 56.5c69.333 0 129.5 -10 180.5 -30zM521.001 356.5c42.667 13.667 74 33.167 94 58.5v6c0 48 -21 85.667 -63 113s-101 41 -177 41c-68 0 -121 -10 -159 -30s-57 -48.667 -57 -86v-14c0 -72.667 70.333 -109 211 -109c58 0 108.333 6.83301 151 20.5z" />
    <glyph glyph-name="colon" unicode=":" horiz-adv-x="374" 
d="M143 5c-11.333 11.333 -17 25.666 -17 42.999s5.66699 31.666 17 42.999s26 17 44 17s32.667 -5.66699 44 -17s17 -25.666 17 -42.999s-5.66699 -31.666 -17 -42.999s-26 -17 -44 -17s-32.667 5.66699 -44 17zM143 377c-11.333 11.333 -17 25.666 -17 42.999
s5.66699 31.666 17 42.999s26 17 44 17s32.667 -5.66699 44 -17s17 -25.666 17 -42.999s-5.66699 -31.666 -17 -42.999s-26 -17 -44 -17s-32.667 5.66699 -44 17z" />
    <glyph glyph-name="semicolon" unicode=";" horiz-adv-x="374" 
d="M260 126v-15l-90 -254h-92l73 269h109zM143 377c-11.333 11.333 -17 25.666 -17 42.999s5.66699 31.666 17 42.999s26 17 44 17s32.667 -5.66699 44 -17s17 -25.666 17 -42.999s-5.66699 -31.666 -17 -42.999s-26 -17 -44 -17s-32.667 5.66699 -44 17z" />
    <glyph glyph-name="less" unicode="&#x3c;" horiz-adv-x="816" 
d="M705 495l-491 -167l491 -168v-88h-14l-585 199v114l585 198h14v-88z" />
    <glyph glyph-name="equal" unicode="=" horiz-adv-x="816" 
d="M705 482v-89h-594v89h594zM705 263v-89h-594v89h594z" />
    <glyph glyph-name="greater" unicode="&#x3e;" horiz-adv-x="816" 
d="M710 385v-114l-585 -199h-14v88l491 168l-491 167v88h14z" />
    <glyph glyph-name="question" unicode="?" horiz-adv-x="632" 
d="M286.5 301.5c15.667 22.333 44.1689 44.168 85.502 65.501s69.166 39.166 83.499 53.499s21.5 31.166 21.5 50.499v9c0 31.333 -14.167 55.833 -42.5 73.5s-68.5 26.5 -120.5 26.5c-54.667 0 -97.334 -10.667 -128.001 -32s-46 -51 -46 -89v-21h-96v21
c0 64.667 24 115.667 72 153s113.667 56 197 56c50 0 95 -8 135 -24s71.333 -38.167 94 -66.5s34 -60.166 34 -95.499v-14c0 -30.667 -9.66699 -57.834 -29 -81.501s-51 -46.834 -95 -69.501c-28 -14.667 -49 -27.167 -63 -37.5s-23.667 -20.666 -29 -30.999
s-8 -23.166 -8 -38.499v-28h-89v28c0 38.667 7.83301 69.167 23.5 91.5zM263.502 4.50195c-11.667 11 -17.5 25.5 -17.5 43.5s5.83301 32.5 17.5 43.5s26.5 16.5 44.5 16.5s32.667 -5.5 44 -16.5s17 -25.5 17 -43.5s-5.66699 -32.5 -17 -43.5s-26 -16.5 -44 -16.5
s-32.833 5.5 -44.5 16.5z" />
    <glyph glyph-name="at" unicode="@" horiz-adv-x="1030" 
d="M761.5 622c67.667 -30.667 119.999 -74.001 156.999 -130.001s55.5 -121 55.5 -195v-71c0 -60 -13.667 -106.5 -41 -139.5s-65.666 -49.5 -114.999 -49.5c-29.333 0 -55.333 5.66699 -78 17s-40.334 27.333 -53.001 48c-22.667 -23.333 -50.667 -41.333 -84 -54
s-69 -19 -107 -19c-46 0 -86.667 9 -122 27s-62.833 43.333 -82.5 76s-29.5 70.334 -29.5 113.001v24c0 43.333 9.83301 81.333 29.5 114s47.334 58 83.001 76s76.834 27 123.501 27c33.333 0 64.666 -4.66699 93.999 -14s55 -23 77 -41l2 45h82v-280
c0 -24 5.5 -42.5 16.5 -55.5s26.5 -19.5 46.5 -19.5c46 0 69 36.333 69 109v76c0 55.333 -14.667 103.833 -44 145.5s-71 73.667 -125 96s-117.333 33.5 -190 33.5c-74.667 0 -140 -12.333 -196 -37s-99.333 -59.5 -130 -104.5s-46 -97.5 -46 -157.5v-54
c0 -58 14 -108.333 42 -151s67.833 -75.5 119.5 -98.5s112.834 -34.5 183.501 -34.5h186v-85h-186c-85.333 0 -160.833 15.5 -226.5 46.5s-116.834 74.333 -153.501 130s-55 119.5 -55 191.5v58c0 75.333 19.167 142 57.5 200s92.333 103 162 135s150.167 48 241.5 48
c90 0 168.833 -15.333 236.5 -46zM600.499 131.999c28.333 12.667 50.166 29.999 65.499 51.999v147c-15.333 22 -37.166 39.333 -65.499 52s-59.5 19 -93.5 19c-50 0 -88.5 -11.5 -115.5 -34.5s-40.5 -55.833 -40.5 -98.5v-24c0 -41.333 13.667 -73.666 41 -96.999
s65.333 -35 114 -35c34.667 0 66.167 6.33301 94.5 19z" />
    <glyph glyph-name="A" unicode="A" horiz-adv-x="770" 
d="M750 15v-15h-102l-78 166h-370l-78 -166h-102v15l310 641h110zM527 256l-142 301l-142 -301h284z" />
    <glyph glyph-name="B" unicode="B" horiz-adv-x="785" 
d="M693.5 279.5c18.333 -24.333 27.5 -53.501 27.5 -87.501v-11c0 -55.333 -21.167 -99.333 -63.5 -132s-98.833 -49 -169.5 -49h-396v656h375c73.333 0 130.5 -14.5 171.5 -43.5s61.5 -69.833 61.5 -122.5v-12c0 -31.333 -7.33301 -59 -22 -83s-36 -43.667 -64 -59
c34.667 -13.333 61.167 -32.166 79.5 -56.499zM192 566.999l0.000976562 -191h274c88.667 0 133 30 133 90v12c0 28.667 -11.333 50.667 -34 66s-55.334 23 -98.001 23h-275zM620.001 194.999c0 60.667 -44.667 91 -134 91h-294v-197h294c42 0 74.833 8.5 98.5 25.5
s35.5 40.167 35.5 69.5v11z" />
    <glyph glyph-name="C" unicode="C" horiz-adv-x="874" 
d="M243 28.5c-57.333 27 -101.498 65.501 -132.498 115.501s-46.5 108.333 -46.5 175v17c0 66.667 15.5 125 46.5 175s75.167 88.667 132.5 116s124.333 41 201 41c69.333 0 131.833 -11.667 187.5 -35s99.334 -55.5 131.001 -96.5s47.5 -86.833 47.5 -137.5v-9h-101v9
c0 33.333 -11.333 63.333 -34 90s-54.167 47.667 -94.5 63s-85.833 23 -136.5 23c-89.333 0 -158.166 -20.667 -206.499 -62s-72.5 -100 -72.5 -176v-19c0 -76 24.167 -134.5 72.5 -175.5s117.166 -61.5 206.499 -61.5c51.333 0 97.166 7.5 137.499 22.5
s71.666 35.833 93.999 62.5s33.5 56.667 33.5 90v10h101v-10c0 -50.667 -15.833 -96.334 -47.5 -137.001s-75.334 -72.667 -131.001 -96s-118.167 -35 -187.5 -35c-76.667 0 -143.667 13.5 -201 40.5z" />
    <glyph glyph-name="D" unicode="D" horiz-adv-x="826" 
d="M399 656c118.667 0 208.834 -27.332 270.501 -81.999s92.5 -134.334 92.5 -239.001v-15c0 -104.667 -30.833 -184.167 -92.5 -238.5s-151.834 -81.5 -270.501 -81.5h-307v656h307zM661 319.001v17c0 76 -22.167 133.5 -66.5 172.5s-109.833 58.5 -196.5 58.5h-206v-478
h207c174.667 0 262 76.667 262 230z" />
    <glyph glyph-name="E" unicode="E" horiz-adv-x="723" 
d="M650 656v-89h-458v-194h438v-89h-438v-195h458v-89h-558v656h558z" />
    <glyph glyph-name="F" unicode="F" horiz-adv-x="704" 
d="M656 656v-89h-464v-203h444v-89h-444v-275h-100v656h564z" />
    <glyph glyph-name="G" unicode="G" horiz-adv-x="879" 
d="M711 423l0.000976562 6.00195c0 26.667 -11.5 51.167 -34.5 73.5s-54.5 40 -94.5 53s-84 19.5 -132 19.5c-89.333 0 -159.166 -21 -209.499 -63s-75.5 -100.333 -75.5 -175v-19c0 -76.667 24.667 -135.334 74 -176.001s119.666 -61 210.999 -61
c113.333 0 201 32.667 263 98v76h-347v90h446v-345h-90l-5 80c-65.333 -61.333 -155 -92 -269 -92c-78.667 0 -146.834 13.333 -204.501 40s-102 65 -133 115s-46.5 108.667 -46.5 176v17c0 66 15.833 124.167 47.5 174.5s76.5 89.166 134.5 116.499s125.667 41 203 41
c70.667 0 133.5 -10 188.5 -30s97.833 -48.167 128.5 -84.5s46 -77.833 46 -124.5v-6h-101z" />
    <glyph glyph-name="H" unicode="H" horiz-adv-x="819" 
d="M192 656v-283h435v283h100v-656h-100v283h-435v-283h-100v656h100z" />
    <glyph glyph-name="I" unicode="I" horiz-adv-x="299" 
d="M199 656v-656h-99v656h99z" />
    <glyph glyph-name="J" unicode="J" horiz-adv-x="749" 
d="M198 22.5c-46 23 -81.498 55.668 -106.498 98.001s-37.5 91.833 -37.5 148.5v44h99v-44c0 -58 18.667 -103.833 56 -137.5s87.666 -50.5 150.999 -50.5c65.333 0 116.166 16.333 152.499 49s54.5 78.667 54.5 138v299h-329v89h429v-386
c0 -56.667 -12.5 -106.334 -37.5 -149.001s-60.667 -75.5 -107 -98.5s-100.5 -34.5 -162.5 -34.5s-116 11.5 -162 34.5z" />
    <glyph glyph-name="K" unicode="K" horiz-adv-x="813" 
d="M751 641l-336 -276l326 -350v-15h-121l-283 302l-145 -116v-186h-100v656h100v-346l426 346h133v-15z" />
    <glyph glyph-name="L" unicode="L" horiz-adv-x="687" 
d="M192 656v-567h483v-89h-583v656h100z" />
    <glyph glyph-name="M" unicode="M" horiz-adv-x="1029" 
d="M937 0h-99v528l-272 -528h-103l-272 529v-529h-99v656h140l283 -544l283 544h139v-656z" />
    <glyph glyph-name="N" unicode="N" horiz-adv-x="819" 
d="M727 656v-656h-98l-440 517v-517h-97v656h98l440 -516v516h97z" />
    <glyph glyph-name="O" unicode="O" horiz-adv-x="877" 
d="M241 29c-56.667 27.333 -100.334 66 -131.001 116s-46 108.667 -46 176v13c0 67.333 15.333 126.166 46 176.499s74.334 89.166 131.001 116.499s122.667 41 198 41s141.166 -13.667 197.499 -41s99.833 -66.166 130.5 -116.499s46 -109.166 46 -176.499v-13
c0 -67.333 -15.333 -126 -46 -176s-74.167 -88.667 -130.5 -116s-122.166 -41 -197.499 -41s-141.333 13.667 -198 41zM640 144c48 42 72 100.333 72 175v16c0 75.333 -24 134.166 -72 176.499s-115 63.5 -201 63.5s-153.167 -21.167 -201.5 -63.5
s-72.5 -101.166 -72.5 -176.499v-16c0 -74.667 24.167 -133 72.5 -175s115.5 -63 201.5 -63s153 21 201 63z" />
    <glyph glyph-name="P" unicode="P" horiz-adv-x="787" 
d="M496 656c73.333 0 131.333 -17.5 174 -52.5s64 -82.167 64 -141.5v-12c0 -59.333 -21.333 -106.5 -64 -141.5s-100.667 -52.5 -174 -52.5h-304v-256h-100v656h404zM596.5 372.5c24.333 18.333 36.5 44.168 36.5 77.501v12c0 33.333 -12.167 59.166 -36.5 77.499
s-58.5 27.5 -102.5 27.5h-302v-222h302c44 0 78.167 9.16699 102.5 27.5z" />
    <glyph glyph-name="Q" unicode="Q" horiz-adv-x="877" 
d="M636.5 627c56.333 -27.333 99.833 -66.166 130.5 -116.499s46 -109.166 46 -176.499v-13c0 -87.333 -25.5 -159.833 -76.5 -217.5s-121.167 -93.834 -210.5 -108.501l50 -123v-15h-100l-53 131c-72.667 2 -136 16.833 -190 44.5s-95.667 66.334 -125 116.001
s-44 107.167 -44 172.5v13c0 67.333 15.333 126.166 46 176.499s74.334 89.166 131.001 116.499s122.667 41 198 41s141.166 -13.667 197.499 -41zM712 335c0 75.333 -24 134.166 -72 176.499s-115 63.5 -201 63.5s-153.167 -21.167 -201.5 -63.5
s-72.5 -101.166 -72.5 -176.499v-16c0 -74.667 24.167 -133 72.5 -175s115.5 -63 201.5 -63s153 21 201 63s72 100.333 72 175v16z" />
    <glyph glyph-name="R" unicode="R" horiz-adv-x="806" 
d="M675.5 313c-39 -34 -92.5 -52.667 -160.5 -56l216 -242v-15h-114l-231 257h-194v-257h-100v656h404c74 0 132.167 -17.5 174.5 -52.5s63.5 -83.167 63.5 -144.5v-13c0 -54.667 -19.5 -99 -58.5 -133zM633 462c0 33.333 -12.167 59.168 -36.5 77.501
s-58.5 27.5 -102.5 27.5h-302v-222h302c44 0 78.167 9.16699 102.5 27.5s36.5 44.166 36.5 77.499v12z" />
    <glyph glyph-name="S" unicode="S" horiz-adv-x="771" 
d="M149.5 43.5c-54.333 37 -81.499 91.168 -81.499 162.501v10h100v-10c0 -85.333 75.667 -128 227 -128c67.333 0 118.666 8.33301 153.999 25s53 41.334 53 74.001v8c0 28 -11.167 49 -33.5 63s-61.833 24.667 -118.5 32l-149 20
c-72.667 9.33301 -127.167 28.166 -163.5 56.499s-54.5 66.5 -54.5 114.5v10c0 58.667 26 104.5 78 137.5s125.333 49.5 220 49.5c100.667 0 177.167 -18 229.5 -54s78.5 -88.333 78.5 -157v-10h-99v10c0 80.667 -69.667 121 -209 121c-64 0 -112.833 -8.16699 -146.5 -24.5
s-50.5 -39.833 -50.5 -70.5v-8c0 -24.667 10.667 -43.667 32 -57s57 -23.333 107 -30l150 -19c79.333 -10 137.5 -29.333 174.5 -58s55.5 -69.334 55.5 -122.001v-10c0 -60.667 -27 -107.667 -81 -141s-131.333 -50 -232 -50c-106 0 -186.167 18.5 -240.5 55.5z" />
    <glyph glyph-name="T" unicode="T" horiz-adv-x="691" 
d="M12 567v89h667v-89h-284v-567h-99v567h-284z" />
    <glyph glyph-name="U" unicode="U" horiz-adv-x="793" 
d="M231.5 24.5c-47.667 24.333 -84.501 58.5 -110.501 102.5s-39 95 -39 153v376h100v-378c0 -61.333 19 -109.5 57 -144.5s90.333 -52.5 157 -52.5s119.167 17.5 157.5 52.5s57.5 83.167 57.5 144.5v378h100v-376c0 -58 -13.167 -109 -39.5 -153
s-63.166 -78.167 -110.499 -102.5s-102.333 -36.5 -165 -36.5c-62 0 -116.833 12.167 -164.5 36.5z" />
    <glyph glyph-name="V" unicode="V" horiz-adv-x="770" 
d="M750 656v-15l-308 -641h-114l-308 641v15h102l263 -561l263 561h102z" />
    <glyph glyph-name="W" unicode="W" horiz-adv-x="1175" 
d="M1155 656v-15l-243 -641h-121l-203 535l-203 -535h-121l-244 641v15h102l203 -548l209 548h108l209 -547l202 547h102z" />
    <glyph glyph-name="X" unicode="X" horiz-adv-x="819" 
d="M757 641l-275 -313l275 -313v-15h-118l-229 263l-230 -263h-118v15l275 313l-275 313v15h118l230 -263l230 263h117v-15z" />
    <glyph glyph-name="Y" unicode="Y" horiz-adv-x="726" 
d="M719 641l-306 -375v-266h-99v266l-307 375v15h111l245 -297l245 297h111v-15z" />
    <glyph glyph-name="Z" unicode="Z" horiz-adv-x="696" 
d="M650 567l-471 -478h471v-89h-604v89l471 478h-471v89h604v-89z" />
    <glyph glyph-name="bracketleft" unicode="[" horiz-adv-x="457" 
d="M401 721v-86h-224v-614h224v-86h-309v786h309z" />
    <glyph glyph-name="backslash" unicode="\" horiz-adv-x="703" 
d="M74 721h99l456 -770v-16h-99l-456 770v16z" />
    <glyph glyph-name="bracketright" unicode="]" horiz-adv-x="457" 
d="M56 21h224v614h-224v86h309v-786h-309v86z" />
    <glyph glyph-name="asciicircum" unicode="^" horiz-adv-x="557" 
d="M519 386v-14h-99l-142 198l-141 -198h-99v14l197 270h86z" />
    <glyph glyph-name="underscore" unicode="_" horiz-adv-x="564" 
d="M523 -58v-79h-482v79h482z" />
    <glyph glyph-name="grave" unicode="`" horiz-adv-x="600" 
d="M86 720l427 -75v-83l-427 75v83z" />
    <glyph glyph-name="a" unicode="a" horiz-adv-x="716" 
d="M711 85l-0.000976562 -85h-66c-32.667 -0 -60 6.33301 -82 19s-37.333 30.667 -46 54c-26.667 -28.667 -58.667 -50 -96 -64s-81.333 -21 -132 -21c-71.333 0 -126.333 12.5 -165 37.5s-58 60.833 -58 107.5c0 40 15 72 45 96s74 39 132 45l267 28
c-2 37.333 -17.667 65.666 -47 84.999s-71.333 29 -126 29c-52.667 0 -94.667 -9 -126 -27s-47 -42 -47 -72v-4h-95v4c0 37.333 11.167 70.5 33.5 99.5s53.833 51.333 94.5 67s87.667 23.5 141 23.5c84.667 0 150.334 -18.667 197.001 -56s70 -89.666 70 -156.999v-154
c0 -17.333 5.33301 -30.833 16 -40.5s26 -14.5 46 -14.5h44zM425.999 98.5c38.667 17 66.667 41.168 84 72.501v53l-246 -26c-34.667 -3.33301 -60.5 -10.333 -77.5 -21s-25.5 -25.334 -25.5 -44.001c0 -40 42 -60 126 -60c54 0 100.333 8.5 139 25.5z" />
    <glyph glyph-name="b" unicode="b" horiz-adv-x="710" 
d="M528 476.5c43.333 -20.333 76.666 -49.332 99.999 -86.999s35 -82.167 35 -133.5v-16c0 -51.333 -11.667 -96 -35 -134s-56.666 -67.167 -99.999 -87.5s-94.333 -30.5 -153 -30.5c-39.333 0 -75.833 6 -109.5 18s-63.167 29 -88.5 51l-3 -57h-89v696h96v-255
c25.333 21.333 54.5 37.666 87.5 48.999s68.5 17 106.5 17c58.667 0 109.667 -10.167 153 -30.5zM564 256.001c0 51.333 -17.499 91.333 -52.499 120s-83.5 43 -145.5 43c-39.333 0 -75.333 -7.16699 -108 -21.5s-58.334 -33.5 -77.001 -57.5v-184
c18.667 -24.667 44.334 -44.167 77.001 -58.5s68.667 -21.5 108 -21.5c61.333 0 109.666 14.667 144.999 44s53 69.333 53 120v16z" />
    <glyph glyph-name="c" unicode="c" horiz-adv-x="670" 
d="M186 18.5c-44.667 20.333 -79 49.332 -103 86.999s-36 81.5 -36 131.5v18c0 51.333 12 96 36 134s58.167 67.167 102.5 87.5s96.5 30.5 156.5 30.5c54 0 102.667 -9.16699 146 -27.5s77.166 -43.666 101.499 -75.999s36.5 -68.833 36.5 -109.5v-4h-99v4
c0 24 -7.83301 45.5 -23.5 64.5s-37.667 33.833 -66 44.5s-60.166 16 -95.499 16c-61.333 0 -109.333 -14.5 -144 -43.5s-52 -69.5 -52 -121.5v-16c0 -50.667 17.333 -90.334 52 -119.001s82.667 -43 144 -43c36 0 68 5.33301 96 16s49.833 25.334 65.5 44.001
s23.5 40 23.5 64v4h99v-4c0 -41.333 -12 -78 -36 -110s-57.5 -57 -100.5 -75s-92.167 -27 -147.5 -27c-59.333 0 -111.333 10.167 -156 30.5z" />
    <glyph glyph-name="d" unicode="d" horiz-adv-x="710" 
d="M625 696v-696.001h-89l-3 57c-51.333 -46 -117.333 -69 -198 -69c-58.667 0 -109.667 10.167 -153 30.5s-76.666 49.5 -99.999 87.5s-35 82.667 -35 134v16c0 51.333 11.667 95.833 35 133.5s56.666 66.667 99.999 87s94.333 30.5 153 30.5c38 0 73.5 -5.66699 106.5 -17
s62.167 -27.666 87.5 -48.999v255h96zM452 97.499c32.667 14.333 58.335 33.833 77.002 58.5v184c-18.667 24 -44.334 43.167 -77.001 57.5s-68.667 21.5 -108 21.5c-62 0 -110.5 -14.333 -145.5 -43s-52.5 -68.667 -52.5 -120v-16c0 -50.667 17.667 -90.667 53 -120
s83.666 -44 144.999 -44c39.333 0 75.333 7.16699 108 21.5z" />
    <glyph glyph-name="e" unicode="e" horiz-adv-x="671" 
d="M624 216l-477.002 0.000976562c3.33301 -43.333 22 -77.5 56 -102.5s79.333 -37.5 136 -37.5c52.667 0 95.5 8.83301 128.5 26.5s50.833 41.167 53.5 70.5h103c-5.33301 -58 -33.166 -103.333 -83.499 -136s-117.5 -49 -201.5 -49c-59.333 0 -111 10.167 -155 30.5
s-77.833 49.166 -101.5 86.499s-35.5 81 -35.5 131v21c0 50.667 11.833 94.834 35.5 132.501s57.5 66.667 101.5 87s95.667 30.5 155 30.5c88.667 0 158.334 -21.833 209.001 -65.5s76 -103.834 76 -180.501v-45zM209.498 386.501
c-33 -21.667 -53.167 -51.834 -60.5 -90.501h373c-6 38.667 -25 68.834 -57 90.501s-74 32.5 -126 32.5c-53.333 0 -96.5 -10.833 -129.5 -32.5z" />
    <glyph glyph-name="f" unicode="f" horiz-adv-x="500" 
d="M493 411l-223.999 0.000976562v-411h-96v411h-173v84h173v46c0 48 14.167 85.833 42.5 113.5s67.166 41.5 116.499 41.5h121v-85h-109c-24 0 -42.5 -6.33301 -55.5 -19s-19.5 -31.334 -19.5 -56.001v-41h224v-84z" />
    <glyph glyph-name="g" unicode="g" horiz-adv-x="709" 
d="M624 495l0.00390625 -453.001c0 -73.333 -24.167 -129 -72.5 -167s-118.833 -57 -211.5 -57c-60 0 -111.833 7.5 -155.5 22.5s-77.334 36.667 -101.001 65s-35.5 61.5 -35.5 99.5v8h98v-8c0 -29.333 17.667 -53.166 53 -71.499s81 -27.5 137 -27.5
c61.333 0 108.666 11.5 141.999 34.5s50 55.833 50 98.5v49c-26 -20.667 -55.5 -36.834 -88.5 -48.501s-67.167 -17.5 -102.5 -17.5c-92.667 0 -164.334 20.167 -215.001 60.5s-76 97.5 -76 171.5v16c0 74.667 25.667 132.834 77 174.501s122.666 62.5 213.999 62.5
c78.667 0 143.667 -22.667 195 -68l3 56h89zM449.504 130.499c33.667 14.333 59.833 33.501 78.5 57.501v151c-18.667 24 -45 43.5 -79 58.5s-70.667 22.5 -110 22.5c-62.667 0 -110.667 -12.833 -144 -38.5s-50 -62.834 -50 -111.501v-16c0 -96.667 64.667 -145 194 -145
c40 0 76.833 7.16699 110.5 21.5z" />
    <glyph glyph-name="h" unicode="h" horiz-adv-x="711" 
d="M566 442.5c44.667 -43 66.999 -106.167 66.999 -189.5v-253h-95v253c0 54 -15.167 95.167 -45.5 123.5s-74.166 42.5 -131.499 42.5c-38.667 0 -74.167 -9 -106.5 -27s-56.833 -42.333 -73.5 -73v-319h-96v696h96v-263c24.667 24 53.167 42.333 85.5 55
s66.833 19 103.5 19c86 0 151.333 -21.5 196 -64.5z" />
    <glyph glyph-name="i" unicode="i" horiz-adv-x="286" 
d="M191 495v-495h-96v495h96zM96 591.5c-12 11.667 -18 26.834 -18 45.501c0 18 6 32.667 18 44s27.667 17 47 17s35 -5.66699 47 -17s18 -26 18 -44c0 -18.667 -6 -33.834 -18 -45.501s-27.667 -17.5 -47 -17.5s-35 5.83301 -47 17.5z" />
    <glyph glyph-name="j" unicode="j" horiz-adv-x="286" 
d="M12 -85c55.333 0 83 28.333 83 85v495h96v-498c0 -52 -15.667 -92.833 -47 -122.5s-74.333 -44.5 -129 -44.5h-97v85h94zM96 591.5c-12 11.667 -18 26.834 -18 45.501c0 18 6 32.667 18 44s27.667 17 47 17s35 -5.66699 47 -17s18 -26 18 -44
c0 -18.667 -6 -33.834 -18 -45.501s-27.667 -17.5 -47 -17.5s-35 5.83301 -47 17.5z" />
    <glyph glyph-name="k" unicode="k" horiz-adv-x="681" 
d="M655 14v-14h-119l-221 223l-134 -105v-118h-96v696h96v-461l336 260h125v-14l-253 -200z" />
    <glyph glyph-name="l" unicode="l" horiz-adv-x="319" 
d="M132.5 33.5c-25 22.333 -37.501 55.168 -37.501 98.501v564h96v-548c0 -22.667 5.33301 -38.834 16 -48.501s28.334 -14.5 53.001 -14.5h43v-85h-60c-48.667 0 -85.5 11.167 -110.5 33.5z" />
    <glyph glyph-name="m" unicode="m" horiz-adv-x="1108" 
d="M974 442.5c42.667 -43 64.001 -105.167 64.001 -186.5v-256h-96v256c0 52.667 -13.667 93 -41 121s-66.333 42 -117 42c-38.667 0 -74.5 -9.33301 -107.5 -28s-58.167 -43.334 -75.5 -74.001c3.33301 -21.333 5 -41.666 5 -60.999v-256h-95v256
c0 52 -13.667 92.167 -41 120.5s-66.333 42.5 -117 42.5c-38.667 0 -74 -9.16699 -106 -27.5s-56 -42.833 -72 -73.5v-318h-95v495h89l3 -64c24 24.667 52.167 43.5 84.5 56.5s67.5 19.5 105.5 19.5c49.333 0 91.666 -8.5 126.999 -25.5s62.666 -41.833 81.999 -74.5
c26 32 57.5 56.667 94.5 74s78.167 26 123.5 26c80.667 0 142.334 -21.5 185.001 -64.5z" />
    <glyph glyph-name="n" unicode="n" horiz-adv-x="711" 
d="M566.5 442.5c44.333 -43 66.498 -106.166 66.498 -189.499v-253h-95v253c0 54 -15.167 95.167 -45.5 123.5s-74.166 42.5 -131.499 42.5c-39.333 0 -75.166 -9 -107.499 -27s-56.5 -42 -72.5 -72v-320h-96v495h89l4 -64c49.333 49.333 113.333 74.666 192 75.999
c86.667 0 152.167 -21.5 196.5 -64.5z" />
    <glyph glyph-name="o" unicode="o" horiz-adv-x="685" 
d="M186 18.5c-44.667 20.333 -79 49.333 -103 87s-36 81.834 -36 132.501v17c0 51.333 12 96 36 134s58.333 67.167 103 87.5s97.334 30.5 158.001 30.5c60 0 112.167 -10.167 156.5 -30.5s78.333 -49.5 102 -87.5s35.5 -82.667 35.5 -134v-17
c0 -50.667 -11.833 -94.834 -35.5 -132.501s-57.667 -66.667 -102 -87s-96.5 -30.5 -156.5 -30.5c-60.667 0 -113.334 10.167 -158.001 30.5zM487 119c34.667 28.667 52 68.334 52 119.001v17c0 51.333 -17.333 91.5 -52 120.5s-82.667 43.5 -144 43.5
c-62.667 0 -111.167 -14.333 -145.5 -43s-51.5 -69 -51.5 -121v-17c0 -50.667 17.5 -90.334 52.5 -119.001s83.167 -43 144.5 -43s109.333 14.333 144 43z" />
    <glyph glyph-name="p" unicode="p" horiz-adv-x="710" 
d="M524 476c44.667 -20.667 78.998 -49.8311 102.998 -87.498s36 -81.834 36 -132.501v-16c0 -50.667 -12 -95 -36 -133s-58.333 -67.333 -103 -88s-96.667 -31 -156 -31c-36.667 0 -71 5.66699 -103 17s-60 27.666 -84 48.999v-224h-96v665h89l4 -57
c24.667 22 53.334 39 86.001 51s67.334 18 104.001 18c59.333 0 111.333 -10.333 156 -31zM563.998 256.003c0 50.667 -17.5 90.5 -52.5 119.5s-83.167 43.5 -144.5 43.5c-39.333 0 -75.5 -7 -108.5 -21s-58.833 -33 -77.5 -57v-186c18.667 -24 44.5 -43.167 77.5 -57.5
s69.167 -21.5 108.5 -21.5c61.333 0 109.5 14.667 144.5 44s52.5 69.333 52.5 120v16z" />
    <glyph glyph-name="q" unicode="q" horiz-adv-x="710" 
d="M625 495l-0.000976562 -665.003h-96v224c-24 -21.333 -52 -37.666 -84 -48.999s-66.333 -17 -103 -17c-59.333 0 -111.333 10.333 -156 31s-79 50 -103 88s-36 82.333 -36 133v16c0 50.667 12 94.834 36 132.501s58.333 66.834 103 87.501s96.667 31 156 31
c36.667 0 71.334 -6 104.001 -18s61.667 -29 87 -51l3 57h89zM451.499 97.4971c33 14.333 58.833 33.5 77.5 57.5v186c-18.667 24 -44.5 43 -77.5 57s-69.167 21 -108.5 21c-61.333 0 -109.5 -14.5 -144.5 -43.5s-52.5 -68.833 -52.5 -119.5v-16
c0 -50.667 17.5 -90.667 52.5 -120s83.167 -44 144.5 -44c39.333 0 75.5 7.16699 108.5 21.5z" />
    <glyph glyph-name="r" unicode="r" horiz-adv-x="473" 
d="M461 495v-84.001h-110c-36 0 -67.833 -6 -95.5 -18s-49.167 -29 -64.5 -51v-342h-96v495h90l3 -57c22 18.667 48 32.834 78 42.501s62.667 14.5 98 14.5h97z" />
    <glyph glyph-name="s" unicode="s" horiz-adv-x="688" 
d="M138 31c-51.333 28.667 -77.002 68.001 -77.002 118.001v7h96v-7c0 -49.333 64.667 -74 194 -74c57.333 0 101 5.5 131 16.5s45 26.833 45 47.5v7c0 16.667 -9.33301 29 -28 37s-51.667 14.667 -99 20l-115 12c-71.333 7.33301 -123.333 21.666 -156 42.999
s-49 52 -49 92v10c0 46 23.667 82 71 108s113 39 197 39c86.667 0 154.334 -14.167 203.001 -42.5s73 -67.5 73 -117.5v-7h-95v7c0 24 -15.5 42.333 -46.5 55s-77.167 19 -138.5 19c-52 0 -92.5 -5.16699 -121.5 -15.5s-43.5 -24.833 -43.5 -43.5v-7
c0 -16.667 8.16699 -29.334 24.5 -38.001s43.833 -14.667 82.5 -18l117 -11c78 -7.33301 134.667 -22.166 170 -44.499s53 -54.166 53 -95.499v-10c0 -46.667 -24.667 -83.334 -74 -110.001s-117 -40 -203 -40c-89.333 0 -159.666 14.333 -210.999 43z" />
    <glyph glyph-name="t" unicode="t" horiz-adv-x="520" 
d="M280 411v-250c0 -24.667 7 -43.5 21 -56.5s33.667 -19.5 59 -19.5h118v-85h-126c-52 0 -92.833 14 -122.5 42s-44.5 66.667 -44.5 116v253h-185v84h158c11.333 0 19 2.16699 23 6.5s6 11.833 6 22.5v104h93v-133h228v-84h-228z" />
    <glyph glyph-name="u" unicode="u" horiz-adv-x="711" 
d="M626 495l0.00195312 -495.001h-89l-4 64c-49.333 -49.333 -113.333 -74.666 -192 -75.999c-86.667 0 -152.167 21.5 -196.5 64.5s-66.5 106.167 -66.5 189.5v253h95v-253c0 -53.333 15.167 -94.333 45.5 -123s74.166 -43 131.499 -43c39.333 0 75.166 9 107.499 27
s56.5 42 72.5 72v320h96z" />
    <glyph glyph-name="v" unicode="v" horiz-adv-x="697" 
d="M660 495v-14l-249 -481h-124l-250 481v14h100l212 -411l211 411h100z" />
    <glyph glyph-name="w" unicode="w" horiz-adv-x="1067" 
d="M1030 495v-14l-209 -481h-126l-162 378l-161 -378h-125l-210 481v14h102l170 -408l175 408h98l177 -411l174 411h97z" />
    <glyph glyph-name="x" unicode="x" horiz-adv-x="656" 
d="M623 14v-14h-114l-181 191l-181 -191h-114v14l228 236l-224 231v14h113l178 -186l181 186h108v-14l-223 -231z" />
    <glyph glyph-name="y" unicode="y" horiz-adv-x="697" 
d="M660 495v-14l-282 -536c-22 -41.333 -47.5 -70.833 -76.5 -88.5s-68.5 -26.5 -118.5 -26.5h-100v85h100c28 0 49 4.16699 63 12.5s27.333 24.833 40 49.5l9 16l-258 488v14h102l210 -408l209 408h102z" />
    <glyph glyph-name="z" unicode="z" horiz-adv-x="642" 
d="M580 414l-388 -332h388v-82h-516v82l386 330h-386v83h516v-81z" />
    <glyph glyph-name="braceleft" unicode="{" horiz-adv-x="544" 
d="M192 328c55.333 -12 83 -50 83 -114v-128c0 -20.667 7 -36.667 21 -48s33.667 -17 59 -17h133v-86h-150c-48 0 -86.5 12.667 -115.5 38s-43.5 59.333 -43.5 102v145c0 20.667 -6.83301 36.667 -20.5 48s-33.167 17 -58.5 17h-75v86h75c25.333 0 44.833 5.66699 58.5 17
s20.5 27.333 20.5 48v145c0 42.667 14.5 76.667 43.5 102s67.5 38 115.5 38h150v-86h-133c-25.333 0 -45 -5.66699 -59 -17s-21 -27.333 -21 -48v-128c0 -64 -27.667 -102 -83 -114z" />
    <glyph glyph-name="bar" unicode="|" horiz-adv-x="308" 
d="M196 721v-786h-84v786h84z" />
    <glyph glyph-name="braceright" unicode="}" horiz-adv-x="544" 
d="M519 371v-86h-75c-25.333 0 -44.833 -5.66699 -58.5 -17s-20.5 -27.333 -20.5 -48v-145c0 -42.667 -14.5 -76.667 -43.5 -102s-67.5 -38 -115.5 -38h-150v86h133c25.333 0 45 5.66699 59 17s21 27.333 21 48v128c0 64 27.667 102 83 114c-55.333 12 -83 50 -83 114v128
c0 20.667 -7 36.667 -21 48s-33.667 17 -59 17h-133v86h150c48 0 86.5 -12.667 115.5 -38s43.5 -59.333 43.5 -102v-145c0 -20.667 6.83301 -36.667 20.5 -48s33.167 -17 58.5 -17h75z" />
    <glyph glyph-name="asciitilde" unicode="~" horiz-adv-x="816" 
d="M483 261.5c-23.333 4.33301 -51.6689 10.833 -85.002 19.5c-31.333 8 -57.666 14 -78.999 18s-43.666 6 -66.999 6c-48 0 -98.333 -11.667 -151 -35v90c51.333 23.333 102 35 152 35c23.333 0 45.833 -2.16699 67.5 -6.5s47.5 -10.5 77.5 -18.5
c32 -8.66699 60 -15.167 84 -19.5s49.333 -6.5 76 -6.5c52 0 104.333 10.333 157 31v-89c-54 -20.667 -106.667 -31 -158 -31c-26 0 -50.667 2.16699 -74 6.5z" />
    <glyph glyph-name="uni00A0" unicode="&#xa0;" horiz-adv-x="400" 
 />
    <glyph glyph-name="exclamdown" unicode="&#xa1;" horiz-adv-x="352" 
d="M132 403.5c-11.333 11 -17 25.5 -17 43.5s5.66699 32.5 17 43.5s26 16.5 44 16.5s32.667 -5.5 44 -16.5s17 -25.5 17 -43.5s-5.66699 -32.5 -17 -43.5s-26 -16.5 -44 -16.5s-32.667 5.5 -44 16.5zM221 314l5 -484h-100l5 484h90z" />
    <glyph glyph-name="cent" unicode="&#xa2;" horiz-adv-x="816" 
d="M629 371l-0.000976562 6.00195c0 38 -19.5 67.667 -58.5 89s-92.167 32 -159.5 32c-72.667 0 -128.167 -13.667 -166.5 -41s-57.5 -67 -57.5 -119v-20c0 -52.667 19.167 -92.5 57.5 -119.5s94.833 -40.5 169.5 -40.5c66.667 0 119.167 10.667 157.5 32
s57.5 50.666 57.5 87.999v6h98v-6c0 -58.667 -24.167 -106.5 -72.5 -143.5s-114.166 -58.5 -197.499 -64.5v-80h-96v81c-86.667 7.33301 -153.834 32.5 -201.501 75.5s-71.5 100.167 -71.5 171.5v20c0 71.333 24.333 128.666 73 171.999s116.334 68.333 203.001 75v81h89
v-80c55.333 -4 103.5 -15.167 144.5 -33.5s72.833 -42.5 95.5 -72.5s34 -64.333 34 -103v-6h-98z" />
    <glyph glyph-name="sterling" unicode="&#xa3;" horiz-adv-x="816" 
d="M670 427l-0.00390625 8c0 46.667 -15.667 82.167 -47 106.5s-76.666 36.5 -135.999 36.5c-60.667 0 -107.167 -11.333 -139.5 -34s-48.5 -55.667 -48.5 -99v-106h298v-85h-298v-75c0 -38.667 -10 -69.667 -30 -93h501v-86h-705v86h47c58.667 0 88 29 88 87v81h-135v85
h135v107c0 70 25.333 124.5 76 163.5s121.334 58.5 212.001 58.5s160.334 -20.167 209.001 -60.5s73.334 -97.833 74.001 -172.5v-8h-101z" />
    <glyph glyph-name="currency" unicode="&#xa4;" horiz-adv-x="816" 
d="M628 198l100 -99.999l-72 -66l-102 106c-42 -20 -90.667 -30 -146 -30c-56 0 -105 10 -147 30l-102 -105l-72 65l100 100c-23.333 31.333 -35 69.333 -35 114v14c0 44.667 12 83.667 36 117l-100 101l72 65l101 -106c41.333 20.667 90.333 31 147 31
s105.667 -10.333 147 -31l101 105l72 -65l-100 -101c23.333 -32.667 35 -71.334 35 -116.001v-14c0 -43.333 -11.667 -81.333 -35 -114zM522 226.001c28.667 22 43 51.333 43 88v12c0 37.333 -14.167 67 -42.5 89s-66.5 33 -114.5 33s-86.167 -11 -114.5 -33
s-42.5 -51.667 -42.5 -89v-12c0 -36.667 14.167 -66 42.5 -88s66.5 -33 114.5 -33c47.333 0 85.333 11 114 33z" />
    <glyph glyph-name="yen" unicode="&#xa5;" horiz-adv-x="816" 
d="M764 641l-245 -291h196v-88h-257v-93h257v-88h-257v-81h-99v81h-257v88h257v93h-257v88h196l-246 291v15h110l246 -289l246 289h110v-15z" />
    <glyph glyph-name="brokenbar" unicode="&#xa6;" horiz-adv-x="308" 
d="M196 721v-263h-84v263h84zM196 198v-263h-84v263h84z" />
    <glyph glyph-name="section" unicode="&#xa7;" horiz-adv-x="690" 
d="M635 326v-12.999c0 -22 -6.16699 -41.833 -18.5 -59.5s-29.833 -32.167 -52.5 -43.5c22 -20 33 -43 33 -69v-13c0 -44 -22.667 -78.333 -68 -103s-108.333 -37 -189 -37c-81.333 0 -145.5 12.667 -192.5 38s-70.5 60.333 -70.5 105v10h95v-10
c0 -22 14.667 -38.5 44 -49.5s72 -16.5 128 -16.5c104.667 0 157 18.667 157 56v9c0 12 -5 21.167 -15 27.5s-28.667 11.5 -56 15.5l-215 33c-106.667 16 -160 57.667 -160 125v13c0 22 6 41.667 18 59s29.333 31.666 52 42.999c-21.333 19.333 -32 42.333 -32 69v13
c0 44 22.667 78.333 68 103s108.333 37 189 37c81.333 0 145.5 -12.667 192.5 -38s70.5 -60.333 70.5 -105v-10h-95v10c0 22 -14.667 38.5 -44 49.5s-72 16.5 -128 16.5c-104.667 0 -157 -18.333 -157 -55v-9c0 -12.667 5.16699 -22.167 15.5 -28.5s28.833 -11.5 55.5 -15.5
l215 -33c106.667 -16 160 -57.333 160 -124zM494 247.001c16 6.66699 27.5 14.334 34.5 23.001s10.5 19.334 10.5 32.001v9c0 16.667 -7 29.334 -21 38.001s-38.333 15.667 -73 21l-212 31c-10 1.33301 -22 4 -36 8c-16.667 -6.66699 -28.5 -14.334 -35.5 -23.001
s-10.5 -19.334 -10.5 -32.001v-9c0 -16.667 7.16699 -29.334 21.5 -38.001s38.5 -15.667 72.5 -21l212 -31c8.66699 -1.33301 21 -4 37 -8z" />
    <glyph glyph-name="dieresis" unicode="&#xa8;" horiz-adv-x="600" 
d="M125.5 593.5c-11.667 11 -17.5 25.167 -17.5 42.5s5.83301 31.333 17.5 42s26.834 16 45.501 16c18 0 32.667 -5.33301 44 -16s17 -24.667 17 -42s-5.83301 -31.5 -17.5 -42.5s-26.167 -16.5 -43.5 -16.5c-18.667 0 -33.834 5.5 -45.501 16.5zM384.5 593.5
c-11.667 11 -17.5 25.167 -17.5 42.5s5.66699 31.333 17 42s26.333 16 45 16c18 0 32.833 -5.33301 44.5 -16s17.5 -24.667 17.5 -42s-5.83301 -31.5 -17.5 -42.5s-26.5 -16.5 -44.5 -16.5s-32.833 5.5 -44.5 16.5z" />
    <glyph glyph-name="copyright" unicode="&#xa9;" horiz-adv-x="897" 
d="M243 29c-58.667 27.333 -103.834 65.832 -135.501 115.499s-47.5 107.834 -47.5 174.501v17c0 67.333 15.833 126 47.5 176s76.834 88.5 135.501 115.5s127.334 40.5 206.001 40.5s147.167 -13.5 205.5 -40.5s103.333 -65.5 135 -115.5s47.5 -108.667 47.5 -176v-17
c0 -67.333 -15.833 -125.833 -47.5 -175.5s-76.667 -88 -135 -115s-126.833 -40.5 -205.5 -40.5s-147.334 13.667 -206.001 41zM612.5 87.499c46.333 21.667 82.166 52.5 107.499 92.5s38 86.333 38 139v17c0 52.667 -12.667 99 -38 139s-61.166 71 -107.499 93
s-100.5 33 -162.5 33s-116.667 -11 -164 -33s-83.833 -53 -109.5 -93s-38.5 -86.333 -38.5 -139v-16c0 -52.667 12.833 -99 38.5 -139s62.167 -71 109.5 -93s102 -33 164 -33s116.167 10.833 162.5 32.5zM293 190.499c-39.333 32.333 -59.001 75.5 -59.001 129.5v17
c0 35.333 9 66.5 27 93.5s43.333 47.833 76 62.5s70.334 22 113.001 22c41.333 0 78.166 -6.5 110.499 -19.5s57.5 -31 75.5 -54s27 -49.167 27 -78.5v-5h-80v5c0 24 -12 43.333 -36 58s-55.667 22 -95 22c-44 0 -77.833 -9.16699 -101.5 -27.5s-35.5 -44.5 -35.5 -78.5v-17
c0 -32.667 12.333 -58.5 37 -77.5s58.334 -28.5 101.001 -28.5c39.333 0 70.833 7.33301 94.5 22s35.5 34 35.5 58v5h80v-5c0 -29.333 -8.83301 -55.5 -26.5 -78.5s-42.5 -41 -74.5 -54s-68.667 -19.5 -110 -19.5c-66.667 0 -119.667 16.167 -159 48.5z" />
    <glyph glyph-name="ordfeminine" unicode="&#xaa;" horiz-adv-x="606" 
d="M602 324v-78.002h-61c-26 0 -48 4.83301 -66 14.5s-31.333 23.167 -40 40.5c-44 -43.333 -108.333 -65 -193 -65c-62 0 -110.167 10.5 -144.5 31.5s-51.5 50.167 -51.5 87.5c0 33.333 12.833 60 38.5 80s63.167 32.667 112.5 38l228 24c-2 29.333 -15.333 51.5 -40 66.5
s-59.334 22.5 -104.001 22.5c-44 0 -79 -7.16699 -105 -21.5s-39 -33.166 -39 -56.499v-4h-88v4c0 46.667 21.167 84 63.5 112s98.833 42 169.5 42c72.667 0 129.334 -15.5 170.001 -46.5s61 -74.167 61 -129.5v-120c0 -13.333 4.5 -23.666 13.5 -30.999s21.5 -11 37.5 -11
h38zM351.5 324.998c33.667 13.333 58.167 31 73.5 53v52l-206 -21c-29.333 -3.33301 -50.833 -9.33301 -64.5 -18s-20.5 -20.667 -20.5 -36c0 -33.333 35 -50 105 -50c41.333 0 78.833 6.66699 112.5 20z" />
    <glyph glyph-name="guillemotleft" unicode="&#xab;" horiz-adv-x="809" 
d="M202 277l227 -205v-14h-116l-236 211v15l236 211h116v-14zM496 277l227 -205v-14h-116l-236 211v15l236 211h116v-14z" />
    <glyph glyph-name="logicalnot" unicode="&#xac;" horiz-adv-x="816" 
d="M101 283v90h614v-299h-85v209h-529z" />
    <glyph glyph-name="uni00AD" unicode="&#xad;" horiz-adv-x="442" 
d="M392 320v-87h-342v87h342z" />
    <glyph glyph-name="registered" unicode="&#xae;" horiz-adv-x="581" 
d="M417 682c36 -17.333 63.833 -42 83.5 -74s29.5 -69.333 29.5 -112v-10c0 -42 -9.83301 -78.833 -29.5 -110.5s-47.5 -56.167 -83.5 -73.5s-78 -26 -126 -26s-90.167 8.66699 -126.5 26s-64.333 41.833 -84 73.5s-29.5 68.5 -29.5 110.5v10c0 42.667 9.83301 80 29.5 112
s47.667 56.667 84 74s78.5 26 126.5 26s90 -8.66699 126 -26zM469 498c0 49.333 -15.667 87.668 -47 115.001s-75 41 -131 41s-100 -13.833 -132 -41.5s-48 -65.834 -48 -114.501v-13c0 -48.667 16 -86.667 48 -114s76 -41 132 -41s99.667 13.667 131 41s47 65.333 47 114
v13zM389 577.502c14 -11.667 21 -27.833 21 -48.5v-7c0 -16 -4.5 -29.833 -13.5 -41.5s-21.833 -19.5 -38.5 -23.5l51 -62v-5h-66l-50 63h-50v-63h-61v205h148c25.333 0 45 -5.83301 59 -17.5zM243 497.003l71 0.000976562c10.667 0 18.834 2.33301 24.501 7s8.5 11 8.5 19
v5c0 7.33301 -2.83301 13.166 -8.5 17.499s-13.834 6.5 -24.501 6.5h-71v-55z" />
    <glyph glyph-name="macron" unicode="&#xaf;" horiz-adv-x="600" 
d="M513 677v-82h-427v82h427z" />
    <glyph glyph-name="degree" unicode="&#xb0;" horiz-adv-x="446" 
d="M131.5 361c-27.667 13.333 -49.334 32 -65.001 56s-23.5 51 -23.5 81v12c0 30 7.83301 57 23.5 81s37.334 42.667 65.001 56s58.834 20 93.501 20c52.667 0 95.5 -14.667 128.5 -44s49.5 -67.333 49.5 -114v-11c0 -46.667 -16.5 -84.5 -49.5 -113.5
s-75.833 -43.5 -128.5 -43.5c-34.667 0 -65.834 6.66699 -93.501 20zM296 437.5c18.667 15.667 28 35.834 28 60.501v13c0 24.667 -9.33301 44.834 -28 60.501s-42.667 23.5 -72 23.5c-30 0 -54.333 -7.83301 -73 -23.5s-28 -35.834 -28 -60.501v-13
c0 -24.667 9.5 -44.834 28.5 -60.501s43.167 -23.5 72.5 -23.5s53.333 7.83301 72 23.5z" />
    <glyph glyph-name="plusminus" unicode="&#xb1;" horiz-adv-x="816" 
d="M705 428v-90h-252v-164h-90v164h-252v90h252v170h90v-170h252zM111 104h594v-89h-594v89z" />
    <glyph glyph-name="uni00B2" unicode="&#xb2;" 
d="M287 518c42.667 20 71.834 37.165 87.501 51.498s23.5 30.5 23.5 48.5v6c0 20.667 -10.5 36.834 -31.5 48.501s-50.5 17.5 -88.5 17.5c-40.667 0 -71.834 -6.33301 -93.501 -19s-32.5 -30.667 -32.5 -54v-13h-89v13c0 46.667 18.667 83 56 109s90 39 158 39
c66.667 0 119 -12.167 157 -36.5s57 -57.5 57 -99.5v-8c0 -31.333 -12 -59.166 -36 -83.499s-64.333 -49.833 -121 -76.5l-100 -47h270v-71h-444v71z" />
    <glyph glyph-name="uni00B3" unicode="&#xb3;" 
d="M106 368c-38.667 22 -57.999 54.334 -57.999 97.001v5h90v-5c0 -17.333 12.167 -30.833 36.5 -40.5s58.166 -14.5 101.499 -14.5c44.667 0 78.5 5 101.5 15s34.5 24.667 34.5 44v6c0 34.667 -45 52 -135 52h-81v59l157 95h-297v76h436v-76l-155 -94l21 -1
c49.333 -5.33301 86 -17 110 -35s36 -43.333 36 -76v-8c0 -42.667 -19.667 -75.334 -59 -98.001s-96 -34 -170 -34s-130.333 11 -169 33z" />
    <glyph glyph-name="acute" unicode="&#xb4;" horiz-adv-x="600" 
d="M513 719v-82l-427 -75v82z" />
    <glyph glyph-name="uni00B5" unicode="&#xb5;" horiz-adv-x="740" 
d="M742 85l-0.00195312 -85.001h-69c-33.333 0 -61.166 5.83301 -83.499 17.5s-38.166 28.834 -47.499 51.501c-20 -26 -46 -46 -78 -60s-68 -21 -108 -21c-37.333 0 -71 5.5 -101 16.5s-54.667 26.833 -74 47.5v-222h-96v665h96v-253c0 -53.333 15 -94.333 45 -123
s72.333 -43 127 -43c40 0 75.5 8.5 106.5 25.5s55.167 41.167 72.5 72.5v321h96v-350c0 -40 22.333 -60 67 -60h47z" />
    <glyph glyph-name="paragraph" unicode="&#xb6;" horiz-adv-x="967" 
d="M652 0h-94v262h-267c-74 0 -132.167 16.833 -174.5 50.5s-63.5 80.167 -63.5 139.5v14c0 59.333 21.167 105.833 63.5 139.5s100.5 50.5 174.5 50.5h361v-656zM875 656v-656h-95v656h95z" />
    <glyph glyph-name="periodcentered" unicode="&#xb7;" horiz-adv-x="334" 
d="M123 235c-11.333 11.333 -17 25.666 -17 42.999s5.66699 31.666 17 42.999s26 17 44 17s32.667 -5.66699 44 -17s17 -25.666 17 -42.999s-5.66699 -31.666 -17 -42.999s-26 -17 -44 -17s-32.667 5.66699 -44 17z" />
    <glyph glyph-name="cedilla" unicode="&#xb8;" horiz-adv-x="600" 
d="M377 0l-49 -170h-107l58 200z" />
    <glyph glyph-name="uni00B9" unicode="&#xb9;" 
d="M272 418l-0.000976562 234.001c-19.333 -11.333 -44.666 -17 -75.999 -17h-122v77h122c26 0 45.167 3.66699 57.5 11s18.5 18.666 18.5 33.999h91v-339h176v-74h-465v74h198z" />
    <glyph glyph-name="ordmasculine" unicode="&#xba;" horiz-adv-x="575" 
d="M151.5 261.5c-38.333 17 -67.833 41 -88.5 72s-31 67.167 -31 108.5v13c0 64 22.833 114.5 68.5 151.5s108.167 55.5 187.5 55.5c78.667 0 140.667 -18.5 186 -55.5s68 -87.5 68 -151.5v-13c0 -63.333 -22.5 -113.5 -67.5 -150.5s-107.167 -55.5 -186.5 -55.5
c-52.667 0 -98.167 8.5 -136.5 25.5zM407.5 350.5c29 22.333 43.501 53.166 43.501 92.499v10c0 40.667 -14.333 72.167 -43 94.5s-68.667 33.5 -120 33.5c-52 0 -92.5 -11.167 -121.5 -33.5s-43.5 -53.833 -43.5 -94.5v-10c0 -39.333 14.667 -70.166 44 -92.499
s69.666 -33.5 120.999 -33.5c50.667 0 90.5 11.167 119.5 33.5z" />
    <glyph glyph-name="guillemotright" unicode="&#xbb;" horiz-adv-x="809" 
d="M313 277l-227 204v14h116l236 -211v-15l-236 -211h-116v14zM607 277l-227 204v14h116l236 -211v-15l-236 -211h-116v14z" />
    <glyph glyph-name="onequarter" unicode="&#xbc;" horiz-adv-x="1408" 
d="M272 318l-0.000976562 234.001c-19.333 -11.333 -44.666 -17 -75.999 -17h-122v77h122c26 0 45.167 3.66699 57.5 11s18.5 18.666 18.5 33.999h91v-339h176v-74h-465v74h198zM993.999 656.001h96v-15l-607 -641h-96v14zM882.999 85.001v74.999
c28.667 44.667 52.167 87.334 70.5 128.001s33.833 82.667 46.5 126h96v-14c-25.333 -83.333 -61 -163.333 -107 -240h203v182h92v-182h109v-75h-109v-85h-92v85h-309z" />
    <glyph glyph-name="onehalf" unicode="&#xbd;" horiz-adv-x="1418" 
d="M272 318l-0.000976562 234.001c-19.333 -11.333 -44.666 -17 -75.999 -17h-122v77h122c26 0 45.167 3.66699 57.5 11s18.5 18.666 18.5 33.999h91v-339h176v-74h-465v74h198zM993.999 656.001h96v-15l-607 -641h-96v14zM1151 175.001
c42.667 20 71.834 37.165 87.501 51.498s23.5 30.5 23.5 48.5v6c0 20.667 -10.5 36.834 -31.5 48.501s-50.5 17.5 -88.5 17.5c-40.667 0 -71.834 -6.33301 -93.501 -19s-32.5 -30.667 -32.5 -54v-13h-89v13c0 46.667 18.667 83 56 109s90 39 158 39
c66.667 0 119 -12.167 157 -36.5s57 -57.5 57 -99.5v-8c0 -31.333 -12 -59.166 -36 -83.499s-64.333 -49.833 -121 -76.5l-100 -47h270v-71h-444v71z" />
    <glyph glyph-name="threequarters" unicode="&#xbe;" horiz-adv-x="1359" 
d="M106 268c-38.667 22 -57.999 54.334 -57.999 97.001v5h90v-5c0 -17.333 12.167 -30.833 36.5 -40.5s58.166 -14.5 101.499 -14.5c44.667 0 78.5 5 101.5 15s34.5 24.667 34.5 44v6c0 34.667 -45 52 -135 52h-81v59l157 95h-297v76h436v-76l-155 -94l21 -1
c49.333 -5.33301 86 -17 110 -35s36 -43.333 36 -76v-8c0 -42.667 -19.667 -75.334 -59 -98.001s-96 -34 -170 -34s-130.333 11 -169 33zM945.001 656.001h96v-15l-607 -641h-96v14zM834.001 85.001v74.999c28.667 44.667 52.167 87.334 70.5 128.001
s33.833 82.667 46.5 126h96v-14c-25.333 -83.333 -61 -163.333 -107 -240h203v182h92v-182h109v-75h-109v-85h-92v85h-309z" />
    <glyph glyph-name="questiondown" unicode="&#xbf;" horiz-adv-x="632" 
d="M280 403.5c-11.333 11 -17 25.498 -17 43.498s5.66699 32.5 17 43.5s26 16.5 44 16.5s32.833 -5.66699 44.5 -17s17.5 -25.666 17.5 -42.999s-5.83301 -31.666 -17.5 -42.999s-26.5 -17 -44.5 -17s-32.667 5.5 -44 16.5zM184 -158.002c-40 16 -71.333 38.166 -94 66.499
s-34 60.166 -34 95.499v14c0 32 9.66699 60.333 29 85s51 49.334 95 74.001c27.333 14 48.166 26.333 62.499 37s24.166 21.167 29.499 31.5s8 22.833 8 37.5v31h89v-31c0 -38.667 -7.66699 -69 -23 -91s-44 -43.667 -86 -65
c-41.333 -23.333 -69.166 -42.666 -83.499 -57.999s-21.5 -33.333 -21.5 -54v-9c0 -31.333 14.167 -55.833 42.5 -73.5s68.5 -26.5 120.5 -26.5c54.667 0 97.334 10.667 128.001 32s46 51 46 89v21h96v-21c0 -64.667 -24 -115.667 -72 -153s-113.667 -56 -197 -56
c-50 0 -95 8 -135 24z" />
    <glyph glyph-name="Agrave" unicode="&#xc0;" horiz-adv-x="770" 
d="M750 15v-15h-102l-78 166h-370l-78 -166h-102v15l310 641h110zM527 256l-142 301l-142 -301h284zM172 881l427 -75v-83l-427 75v83z" />
    <glyph glyph-name="Aacute" unicode="&#xc1;" horiz-adv-x="770" 
d="M750 15v-15h-102l-78 166h-370l-78 -166h-102v15l310 641h110zM527 256l-142 301l-142 -301h284zM599 880v-82l-427 -75v82z" />
    <glyph glyph-name="Acircumflex" unicode="&#xc2;" horiz-adv-x="770" 
d="M750 15v-15h-102l-78 166h-370l-78 -166h-102v15l310 641h110zM527 256l-142 301l-142 -301h284zM385 880l214 -73v-84l-214 72l-213 -72v84z" />
    <glyph glyph-name="Atilde" unicode="&#xc3;" horiz-adv-x="770" 
d="M750 15v-15h-102l-78 166h-370l-78 -166h-102v15l310 641h110zM527 256l-142 301l-142 -301h284zM439.5 744c-14.333 2.66699 -34.5029 7 -60.5029 13c-22 5.33301 -40 9.33301 -54 12s-28.667 4 -44 4c-36 0 -72.333 -9 -109 -27v82c38 18 74.667 27 110 27
c26 0 59 -5.66699 99 -17c22.667 -6 41.834 -10.5 57.501 -13.5s32.5 -4.5 50.5 -4.5c33.333 0 70 8 110 24v-81c-35.333 -15.333 -72.666 -23 -111.999 -23c-17.333 0 -33.166 1.33301 -47.499 4z" />
    <glyph glyph-name="Adieresis" unicode="&#xc4;" horiz-adv-x="770" 
d="M750 15v-15h-102l-78 166h-370l-78 -166h-102v15l310 641h110zM527 256l-142 301l-142 -301h284zM210.5 754.5c-11.667 11 -17.5 25.167 -17.5 42.5s5.83301 31.333 17.5 42s26.834 16 45.501 16c18 0 32.667 -5.33301 44 -16s17 -24.667 17 -42
s-5.83301 -31.5 -17.5 -42.5s-26.167 -16.5 -43.5 -16.5c-18.667 0 -33.834 5.5 -45.501 16.5zM469.5 754.5c-11.667 11 -17.5 25.167 -17.5 42.5s5.66699 31.333 17 42s26.333 16 45 16c18 0 32.833 -5.33301 44.5 -16s17.5 -24.667 17.5 -42s-5.83301 -31.5 -17.5 -42.5
s-26.5 -16.5 -44.5 -16.5s-32.833 5.5 -44.5 16.5z" />
    <glyph glyph-name="Aring" unicode="&#xc5;" horiz-adv-x="770" 
d="M750 15v-15h-102l-78 166h-370l-78 -166h-102v15l310 641h110zM527 256l-142 301l-142 -301h284zM269 659.5c-27.333 21 -41 51.501 -41 91.501c0 38 14.167 68 42.5 90s66.5 33 114.5 33s86 -10.833 114 -32.5s42 -51.834 42 -90.501c0 -40 -13.5 -70.5 -40.5 -91.5
s-65.5 -31.5 -115.5 -31.5s-88.667 10.5 -116 31.5zM439 707.501c12.667 10.333 19 24.833 19 43.5s-6.33301 33.167 -19 43.5s-30.667 15.5 -54 15.5s-41.5 -5.16699 -54.5 -15.5s-19.5 -24.833 -19.5 -43.5s6.5 -33.167 19.5 -43.5s31.167 -15.5 54.5 -15.5
s41.333 5.16699 54 15.5z" />
    <glyph glyph-name="AE" unicode="&#xc6;" horiz-adv-x="1072" 
d="M525 567l45 -194h409v-89h-388l46 -195h362v-89h-442l-39 166h-317l-79 -166h-102v15l310 641h669v-89h-474zM424 567h-31l-148 -311h252z" />
    <glyph glyph-name="Ccedilla" unicode="&#xc7;" horiz-adv-x="874" 
d="M243 28.5c-57.333 27 -101.498 65.501 -132.498 115.501s-46.5 108.333 -46.5 175v17c0 66.667 15.5 125 46.5 175s75.167 88.667 132.5 116s124.333 41 201 41c69.333 0 131.833 -11.667 187.5 -35s99.334 -55.5 131.001 -96.5s47.5 -86.833 47.5 -137.5v-9h-101v9
c0 33.333 -11.333 63.333 -34 90s-54.167 47.667 -94.5 63s-85.833 23 -136.5 23c-89.333 0 -158.166 -20.667 -206.499 -62s-72.5 -100 -72.5 -176v-19c0 -76 24.167 -134.5 72.5 -175.5s117.166 -61.5 206.499 -61.5c51.333 0 97.166 7.5 137.499 22.5
s71.666 35.833 93.999 62.5s33.5 56.667 33.5 90v10h101v-10c0 -50.667 -15.833 -96.334 -47.5 -137.001s-75.334 -72.667 -131.001 -96s-118.167 -35 -187.5 -35c-76.667 0 -143.667 13.5 -201 40.5zM499.002 0.000976562l-49 -170h-107l58 200z" />
    <glyph glyph-name="Egrave" unicode="&#xc8;" horiz-adv-x="723" 
d="M650 656v-89h-458v-194h438v-89h-438v-195h458v-89h-558v656h558zM158 881l427 -75v-83l-427 75v83z" />
    <glyph glyph-name="Eacute" unicode="&#xc9;" horiz-adv-x="723" 
d="M650 656v-89h-458v-194h438v-89h-438v-195h458v-89h-558v656h558zM585 880v-82l-427 -75v82z" />
    <glyph glyph-name="Ecircumflex" unicode="&#xca;" horiz-adv-x="723" 
d="M650 656v-89h-458v-194h438v-89h-438v-195h458v-89h-558v656h558zM371 880l214 -73v-84l-214 72l-213 -72v84z" />
    <glyph glyph-name="Edieresis" unicode="&#xcb;" horiz-adv-x="723" 
d="M650 656v-89h-458v-194h438v-89h-438v-195h458v-89h-558v656h558zM196.5 754.5c-11.667 11 -17.5 25.167 -17.5 42.5s5.83301 31.333 17.5 42s26.834 16 45.501 16c18 0 32.667 -5.33301 44 -16s17 -24.667 17 -42s-5.83301 -31.5 -17.5 -42.5s-26.167 -16.5 -43.5 -16.5
c-18.667 0 -33.834 5.5 -45.501 16.5zM455.5 754.5c-11.667 11 -17.5 25.167 -17.5 42.5s5.66699 31.333 17 42s26.333 16 45 16c18 0 32.833 -5.33301 44.5 -16s17.5 -24.667 17.5 -42s-5.83301 -31.5 -17.5 -42.5s-26.5 -16.5 -44.5 -16.5s-32.833 5.5 -44.5 16.5z" />
    <glyph glyph-name="Igrave" unicode="&#xcc;" horiz-adv-x="299" 
d="M199 656v-656h-99v656h99zM8 868l283 -49v-83l-283 49v83z" />
    <glyph glyph-name="Iacute" unicode="&#xcd;" horiz-adv-x="299" 
d="M199 656v-656h-99v656h99zM292 867v-82l-284 -49v82z" />
    <glyph glyph-name="Icircumflex" unicode="&#xce;" horiz-adv-x="299" 
d="M199 656v-656h-99v656h99zM150 871l142 -44v-86l-142 45l-142 -45v86z" />
    <glyph glyph-name="Idieresis" unicode="&#xcf;" horiz-adv-x="299" 
d="M199 656v-656h-99v656h99zM-24.5 754.5c-11.667 11 -17.5 25.167 -17.5 42.5s5.83301 31.333 17.5 42s26.834 16 45.501 16c18 0 32.667 -5.33301 44 -16s17 -24.667 17 -42s-5.83301 -31.5 -17.5 -42.5s-26.167 -16.5 -43.5 -16.5c-18.667 0 -33.834 5.5 -45.501 16.5z
M234.5 754.5c-11.667 11 -17.5 25.167 -17.5 42.5s5.66699 31.333 17 42s26.333 16 45 16c18 0 32.833 -5.33301 44.5 -16s17.5 -24.667 17.5 -42s-5.83301 -31.5 -17.5 -42.5s-26.5 -16.5 -44.5 -16.5s-32.833 5.5 -44.5 16.5z" />
    <glyph glyph-name="Eth" unicode="&#xd0;" horiz-adv-x="859" 
d="M702.5 574c61.667 -54.667 92.5 -134.333 92.5 -239v-15c0 -104.667 -30.833 -184.167 -92.5 -238.5s-151.834 -81.5 -270.501 -81.5h-307v285h-120v86h120v285h307c118.667 0 208.834 -27.333 270.501 -82zM694 336.001c0 76 -22.167 133.5 -66.5 172.5
s-109.833 58.5 -196.5 58.5h-206v-196h205v-86h-205v-196h207c174.667 0 262 76.667 262 230v17z" />
    <glyph glyph-name="Ntilde" unicode="&#xd1;" horiz-adv-x="819" 
d="M727 656v-656h-98l-440 517v-517h-97v656h98l440 -516v516h97zM464.5 744c-14.333 2.66699 -34.5029 7 -60.5029 13c-22 5.33301 -40 9.33301 -54 12s-28.667 4 -44 4c-36 0 -72.333 -9 -109 -27v82c38 18 74.667 27 110 27c26 0 59 -5.66699 99 -17
c22.667 -6 41.834 -10.5 57.501 -13.5s32.5 -4.5 50.5 -4.5c33.333 0 70 8 110 24v-81c-35.333 -15.333 -72.666 -23 -111.999 -23c-17.333 0 -33.166 1.33301 -47.499 4z" />
    <glyph glyph-name="Ograve" unicode="&#xd2;" horiz-adv-x="877" 
d="M241 29c-56.667 27.333 -100.334 66 -131.001 116s-46 108.667 -46 176v13c0 67.333 15.333 126.166 46 176.499s74.334 89.166 131.001 116.499s122.667 41 198 41s141.166 -13.667 197.499 -41s99.833 -66.166 130.5 -116.499s46 -109.166 46 -176.499v-13
c0 -67.333 -15.333 -126 -46 -176s-74.167 -88.667 -130.5 -116s-122.166 -41 -197.499 -41s-141.333 13.667 -198 41zM640 144c48 42 72 100.333 72 175v16c0 75.333 -24 134.166 -72 176.499s-115 63.5 -201 63.5s-153.167 -21.167 -201.5 -63.5
s-72.5 -101.166 -72.5 -176.499v-16c0 -74.667 24.167 -133 72.5 -175s115.5 -63 201.5 -63s153 21 201 63zM227 881l427 -75v-83l-427 75v83z" />
    <glyph glyph-name="Oacute" unicode="&#xd3;" horiz-adv-x="877" 
d="M241 29c-56.667 27.333 -100.334 66 -131.001 116s-46 108.667 -46 176v13c0 67.333 15.333 126.166 46 176.499s74.334 89.166 131.001 116.499s122.667 41 198 41s141.166 -13.667 197.499 -41s99.833 -66.166 130.5 -116.499s46 -109.166 46 -176.499v-13
c0 -67.333 -15.333 -126 -46 -176s-74.167 -88.667 -130.5 -116s-122.166 -41 -197.499 -41s-141.333 13.667 -198 41zM640 144c48 42 72 100.333 72 175v16c0 75.333 -24 134.166 -72 176.499s-115 63.5 -201 63.5s-153.167 -21.167 -201.5 -63.5
s-72.5 -101.166 -72.5 -176.499v-16c0 -74.667 24.167 -133 72.5 -175s115.5 -63 201.5 -63s153 21 201 63zM654 880v-82l-427 -75v82z" />
    <glyph glyph-name="Ocircumflex" unicode="&#xd4;" horiz-adv-x="877" 
d="M241 29c-56.667 27.333 -100.334 66 -131.001 116s-46 108.667 -46 176v13c0 67.333 15.333 126.166 46 176.499s74.334 89.166 131.001 116.499s122.667 41 198 41s141.166 -13.667 197.499 -41s99.833 -66.166 130.5 -116.499s46 -109.166 46 -176.499v-13
c0 -67.333 -15.333 -126 -46 -176s-74.167 -88.667 -130.5 -116s-122.166 -41 -197.499 -41s-141.333 13.667 -198 41zM640 144c48 42 72 100.333 72 175v16c0 75.333 -24 134.166 -72 176.499s-115 63.5 -201 63.5s-153.167 -21.167 -201.5 -63.5
s-72.5 -101.166 -72.5 -176.499v-16c0 -74.667 24.167 -133 72.5 -175s115.5 -63 201.5 -63s153 21 201 63zM440 880l214 -73v-84l-214 72l-213 -72v84z" />
    <glyph glyph-name="Otilde" unicode="&#xd5;" horiz-adv-x="877" 
d="M241 29c-56.667 27.333 -100.334 66 -131.001 116s-46 108.667 -46 176v13c0 67.333 15.333 126.166 46 176.499s74.334 89.166 131.001 116.499s122.667 41 198 41s141.166 -13.667 197.499 -41s99.833 -66.166 130.5 -116.499s46 -109.166 46 -176.499v-13
c0 -67.333 -15.333 -126 -46 -176s-74.167 -88.667 -130.5 -116s-122.166 -41 -197.499 -41s-141.333 13.667 -198 41zM640 144c48 42 72 100.333 72 175v16c0 75.333 -24 134.166 -72 176.499s-115 63.5 -201 63.5s-153.167 -21.167 -201.5 -63.5
s-72.5 -101.166 -72.5 -176.499v-16c0 -74.667 24.167 -133 72.5 -175s115.5 -63 201.5 -63s153 21 201 63zM494.5 744c-14.333 2.66699 -34.5029 7 -60.5029 13c-22 5.33301 -40 9.33301 -54 12s-28.667 4 -44 4c-36 0 -72.333 -9 -109 -27v82c38 18 74.667 27 110 27
c26 0 59 -5.66699 99 -17c22.667 -6 41.834 -10.5 57.501 -13.5s32.5 -4.5 50.5 -4.5c33.333 0 70 8 110 24v-81c-35.333 -15.333 -72.666 -23 -111.999 -23c-17.333 0 -33.166 1.33301 -47.499 4z" />
    <glyph glyph-name="Odieresis" unicode="&#xd6;" horiz-adv-x="877" 
d="M241 29c-56.667 27.333 -100.334 66 -131.001 116s-46 108.667 -46 176v13c0 67.333 15.333 126.166 46 176.499s74.334 89.166 131.001 116.499s122.667 41 198 41s141.166 -13.667 197.499 -41s99.833 -66.166 130.5 -116.499s46 -109.166 46 -176.499v-13
c0 -67.333 -15.333 -126 -46 -176s-74.167 -88.667 -130.5 -116s-122.166 -41 -197.499 -41s-141.333 13.667 -198 41zM640 144c48 42 72 100.333 72 175v16c0 75.333 -24 134.166 -72 176.499s-115 63.5 -201 63.5s-153.167 -21.167 -201.5 -63.5
s-72.5 -101.166 -72.5 -176.499v-16c0 -74.667 24.167 -133 72.5 -175s115.5 -63 201.5 -63s153 21 201 63zM265.5 754.5c-11.667 11 -17.5 25.167 -17.5 42.5s5.83301 31.333 17.5 42s26.834 16 45.501 16c18 0 32.667 -5.33301 44 -16s17 -24.667 17 -42
s-5.83301 -31.5 -17.5 -42.5s-26.167 -16.5 -43.5 -16.5c-18.667 0 -33.834 5.5 -45.501 16.5zM524.5 754.5c-11.667 11 -17.5 25.167 -17.5 42.5s5.66699 31.333 17 42s26.333 16 45 16c18 0 32.833 -5.33301 44.5 -16s17.5 -24.667 17.5 -42s-5.83301 -31.5 -17.5 -42.5
s-26.5 -16.5 -44.5 -16.5s-32.833 5.5 -44.5 16.5z" />
    <glyph glyph-name="multiply" unicode="&#xd7;" horiz-adv-x="816" 
d="M472 328l200 -200l-64 -64l-200 200l-200 -200l-64 64l200 200l-200 200l64 64l200 -200l200 200l64 -64z" />
    <glyph glyph-name="Oslash" unicode="&#xd8;" horiz-adv-x="877" 
d="M777.5 491.5c23.667 -46.333 35.498 -98.832 35.498 -157.499v-13c0 -67.333 -15.333 -126 -46 -176s-74.167 -88.667 -130.5 -116s-122.166 -41 -197.499 -41c-52.667 0 -102.667 7.33301 -150 22l-48 -75h-105v16l64 101c-43.333 29.333 -76.833 67 -100.5 113
s-35.5 98 -35.5 156v13c0 67.333 15.333 126.166 46 176.499s74.334 89.166 131.001 116.499s122.667 41 198 41c53.333 0 103 -7.33301 149 -22l48 75h105v-16l-65 -100c44 -29.333 77.833 -67.166 101.5 -113.499zM164.998 319.001c0 -84 29.667 -147.001 89 -189.001
l283 434c-31.333 7.33301 -64 11 -98 11c-86 0 -153.167 -21.167 -201.5 -63.5s-72.5 -101.166 -72.5 -176.499v-16zM711.998 335c0 41.333 -7.66895 78.167 -23.002 110.5s-37.333 58.833 -66 79.5l-282 -433c30.667 -7.33301 63.334 -11 98.001 -11
c86.667 0 153.834 20.833 201.501 62.5s71.5 100.167 71.5 175.5v16z" />
    <glyph glyph-name="Ugrave" unicode="&#xd9;" horiz-adv-x="793" 
d="M231.5 24.5c-47.667 24.333 -84.501 58.5 -110.501 102.5s-39 95 -39 153v376h100v-378c0 -61.333 19 -109.5 57 -144.5s90.333 -52.5 157 -52.5s119.167 17.5 157.5 52.5s57.5 83.167 57.5 144.5v378h100v-376c0 -58 -13.167 -109 -39.5 -153
s-63.166 -78.167 -110.499 -102.5s-102.333 -36.5 -165 -36.5c-62 0 -116.833 12.167 -164.5 36.5zM183.999 881l427 -75v-83l-427 75v83z" />
    <glyph glyph-name="Uacute" unicode="&#xda;" horiz-adv-x="793" 
d="M231.5 24.5c-47.667 24.333 -84.501 58.5 -110.501 102.5s-39 95 -39 153v376h100v-378c0 -61.333 19 -109.5 57 -144.5s90.333 -52.5 157 -52.5s119.167 17.5 157.5 52.5s57.5 83.167 57.5 144.5v378h100v-376c0 -58 -13.167 -109 -39.5 -153
s-63.166 -78.167 -110.499 -102.5s-102.333 -36.5 -165 -36.5c-62 0 -116.833 12.167 -164.5 36.5zM610.999 880v-82l-427 -75v82z" />
    <glyph glyph-name="Ucircumflex" unicode="&#xdb;" horiz-adv-x="793" 
d="M231.5 24.5c-47.667 24.333 -84.501 58.5 -110.501 102.5s-39 95 -39 153v376h100v-378c0 -61.333 19 -109.5 57 -144.5s90.333 -52.5 157 -52.5s119.167 17.5 157.5 52.5s57.5 83.167 57.5 144.5v378h100v-376c0 -58 -13.167 -109 -39.5 -153
s-63.166 -78.167 -110.499 -102.5s-102.333 -36.5 -165 -36.5c-62 0 -116.833 12.167 -164.5 36.5zM396.999 880l214 -73v-84l-214 72l-213 -72v84z" />
    <glyph glyph-name="Udieresis" unicode="&#xdc;" horiz-adv-x="793" 
d="M231.5 24.5c-47.667 24.333 -84.501 58.5 -110.501 102.5s-39 95 -39 153v376h100v-378c0 -61.333 19 -109.5 57 -144.5s90.333 -52.5 157 -52.5s119.167 17.5 157.5 52.5s57.5 83.167 57.5 144.5v378h100v-376c0 -58 -13.167 -109 -39.5 -153
s-63.166 -78.167 -110.499 -102.5s-102.333 -36.5 -165 -36.5c-62 0 -116.833 12.167 -164.5 36.5zM222.499 754.5c-11.667 11 -17.5 25.167 -17.5 42.5s5.83301 31.333 17.5 42s26.834 16 45.501 16c18 0 32.667 -5.33301 44 -16s17 -24.667 17 -42
s-5.83301 -31.5 -17.5 -42.5s-26.167 -16.5 -43.5 -16.5c-18.667 0 -33.834 5.5 -45.501 16.5zM481.499 754.5c-11.667 11 -17.5 25.167 -17.5 42.5s5.66699 31.333 17 42s26.333 16 45 16c18 0 32.833 -5.33301 44.5 -16s17.5 -24.667 17.5 -42s-5.83301 -31.5 -17.5 -42.5
s-26.5 -16.5 -44.5 -16.5s-32.833 5.5 -44.5 16.5z" />
    <glyph glyph-name="Yacute" unicode="&#xdd;" horiz-adv-x="726" 
d="M719 641l-306 -375v-266h-99v266l-307 375v15h111l245 -297l245 297h111v-15zM577 880v-82l-427 -75v82z" />
    <glyph glyph-name="Thorn" unicode="&#xde;" horiz-adv-x="787" 
d="M670.5 475c42.333 -34.667 63.5 -81.667 63.5 -141v-11c0 -59.333 -21.167 -106.333 -63.5 -141s-100.5 -52 -174.5 -52h-304v-130h-100v656h100v-129h304c74 0 132.167 -17.333 174.5 -52zM633 334c0 33.333 -12.167 59 -36.5 77s-58.5 27 -102.5 27h-302v-219h302
c44 0 78.167 9 102.5 27s36.5 43.667 36.5 77v11z" />
    <glyph glyph-name="germandbls" unicode="&#xdf;" horiz-adv-x="723" 
d="M647.5 285.5c18.333 -25.667 27.5 -57.501 27.5 -95.501v-10c0 -34.667 -9 -65.5 -27 -92.5s-43.667 -48.333 -77 -64s-72.333 -23.5 -117 -23.5h-119v85h103c44.667 0 79.334 9 104.001 27s37 43.667 37 77v8c0 63.333 -49.667 95 -149 95h-89v85h73
c41.333 0 73.833 9.66699 97.5 29s35.5 45.333 35.5 78v14c0 38.667 -15.333 68.667 -46 90s-74 32 -130 32c-60.667 0 -107.5 -12.333 -140.5 -37s-49.5 -59.334 -49.5 -104.001v-479h-96l1 481c0 46.667 11.5 87 34.5 121s56 60.167 99 78.5s93.833 27.5 152.5 27.5
c84 0 150.333 -18.167 199 -54.5s73 -86.166 73 -149.499v-19c0 -30 -6.66699 -57.167 -20 -81.5s-32.333 -44.166 -57 -59.499c35.333 -13.333 62.166 -32.833 80.499 -58.5z" />
    <glyph glyph-name="agrave" unicode="&#xe0;" horiz-adv-x="716" 
d="M711 85l-0.000976562 -85h-66c-32.667 -0 -60 6.33301 -82 19s-37.333 30.667 -46 54c-26.667 -28.667 -58.667 -50 -96 -64s-81.333 -21 -132 -21c-71.333 0 -126.333 12.5 -165 37.5s-58 60.833 -58 107.5c0 40 15 72 45 96s74 39 132 45l267 28
c-2 37.333 -17.667 65.666 -47 84.999s-71.333 29 -126 29c-52.667 0 -94.667 -9 -126 -27s-47 -42 -47 -72v-4h-95v4c0 37.333 11.167 70.5 33.5 99.5s53.833 51.333 94.5 67s87.667 23.5 141 23.5c84.667 0 150.334 -18.667 197.001 -56s70 -89.666 70 -156.999v-154
c0 -17.333 5.33301 -30.833 16 -40.5s26 -14.5 46 -14.5h44zM425.999 98.5c38.667 17 66.667 41.168 84 72.501v53l-246 -26c-34.667 -3.33301 -60.5 -10.333 -77.5 -21s-25.5 -25.334 -25.5 -44.001c0 -40 42 -60 126 -60c54 0 100.333 8.5 139 25.5zM126.999 720.001
l427 -75v-83l-427 75v83z" />
    <glyph glyph-name="aacute" unicode="&#xe1;" horiz-adv-x="716" 
d="M711 85l-0.000976562 -85h-66c-32.667 -0 -60 6.33301 -82 19s-37.333 30.667 -46 54c-26.667 -28.667 -58.667 -50 -96 -64s-81.333 -21 -132 -21c-71.333 0 -126.333 12.5 -165 37.5s-58 60.833 -58 107.5c0 40 15 72 45 96s74 39 132 45l267 28
c-2 37.333 -17.667 65.666 -47 84.999s-71.333 29 -126 29c-52.667 0 -94.667 -9 -126 -27s-47 -42 -47 -72v-4h-95v4c0 37.333 11.167 70.5 33.5 99.5s53.833 51.333 94.5 67s87.667 23.5 141 23.5c84.667 0 150.334 -18.667 197.001 -56s70 -89.666 70 -156.999v-154
c0 -17.333 5.33301 -30.833 16 -40.5s26 -14.5 46 -14.5h44zM425.999 98.5c38.667 17 66.667 41.168 84 72.501v53l-246 -26c-34.667 -3.33301 -60.5 -10.333 -77.5 -21s-25.5 -25.334 -25.5 -44.001c0 -40 42 -60 126 -60c54 0 100.333 8.5 139 25.5zM553.999 719.001v-82
l-427 -75v82z" />
    <glyph glyph-name="acircumflex" unicode="&#xe2;" horiz-adv-x="716" 
d="M711 85l-0.000976562 -85h-66c-32.667 -0 -60 6.33301 -82 19s-37.333 30.667 -46 54c-26.667 -28.667 -58.667 -50 -96 -64s-81.333 -21 -132 -21c-71.333 0 -126.333 12.5 -165 37.5s-58 60.833 -58 107.5c0 40 15 72 45 96s74 39 132 45l267 28
c-2 37.333 -17.667 65.666 -47 84.999s-71.333 29 -126 29c-52.667 0 -94.667 -9 -126 -27s-47 -42 -47 -72v-4h-95v4c0 37.333 11.167 70.5 33.5 99.5s53.833 51.333 94.5 67s87.667 23.5 141 23.5c84.667 0 150.334 -18.667 197.001 -56s70 -89.666 70 -156.999v-154
c0 -17.333 5.33301 -30.833 16 -40.5s26 -14.5 46 -14.5h44zM425.999 98.5c38.667 17 66.667 41.168 84 72.501v53l-246 -26c-34.667 -3.33301 -60.5 -10.333 -77.5 -21s-25.5 -25.334 -25.5 -44.001c0 -40 42 -60 126 -60c54 0 100.333 8.5 139 25.5zM339.999 719.001
l214 -73v-84l-214 72l-213 -72v84z" />
    <glyph glyph-name="atilde" unicode="&#xe3;" horiz-adv-x="716" 
d="M711 85l-0.000976562 -85h-66c-32.667 -0 -60 6.33301 -82 19s-37.333 30.667 -46 54c-26.667 -28.667 -58.667 -50 -96 -64s-81.333 -21 -132 -21c-71.333 0 -126.333 12.5 -165 37.5s-58 60.833 -58 107.5c0 40 15 72 45 96s74 39 132 45l267 28
c-2 37.333 -17.667 65.666 -47 84.999s-71.333 29 -126 29c-52.667 0 -94.667 -9 -126 -27s-47 -42 -47 -72v-4h-95v4c0 37.333 11.167 70.5 33.5 99.5s53.833 51.333 94.5 67s87.667 23.5 141 23.5c84.667 0 150.334 -18.667 197.001 -56s70 -89.666 70 -156.999v-154
c0 -17.333 5.33301 -30.833 16 -40.5s26 -14.5 46 -14.5h44zM425.999 98.5c38.667 17 66.667 41.168 84 72.501v53l-246 -26c-34.667 -3.33301 -60.5 -10.333 -77.5 -21s-25.5 -25.334 -25.5 -44.001c0 -40 42 -60 126 -60c54 0 100.333 8.5 139 25.5zM394.499 583.001
c-14.333 2.66699 -34.5029 7 -60.5029 13c-22 5.33301 -40 9.33301 -54 12s-28.667 4 -44 4c-36 0 -72.333 -9 -109 -27v82c38 18 74.667 27 110 27c26 0 59 -5.66699 99 -17c22.667 -6 41.834 -10.5 57.501 -13.5s32.5 -4.5 50.5 -4.5c33.333 0 70 8 110 24v-81
c-35.333 -15.333 -72.666 -23 -111.999 -23c-17.333 0 -33.166 1.33301 -47.499 4z" />
    <glyph glyph-name="adieresis" unicode="&#xe4;" horiz-adv-x="716" 
d="M711 85l-0.000976562 -85h-66c-32.667 -0 -60 6.33301 -82 19s-37.333 30.667 -46 54c-26.667 -28.667 -58.667 -50 -96 -64s-81.333 -21 -132 -21c-71.333 0 -126.333 12.5 -165 37.5s-58 60.833 -58 107.5c0 40 15 72 45 96s74 39 132 45l267 28
c-2 37.333 -17.667 65.666 -47 84.999s-71.333 29 -126 29c-52.667 0 -94.667 -9 -126 -27s-47 -42 -47 -72v-4h-95v4c0 37.333 11.167 70.5 33.5 99.5s53.833 51.333 94.5 67s87.667 23.5 141 23.5c84.667 0 150.334 -18.667 197.001 -56s70 -89.666 70 -156.999v-154
c0 -17.333 5.33301 -30.833 16 -40.5s26 -14.5 46 -14.5h44zM425.999 98.5c38.667 17 66.667 41.168 84 72.501v53l-246 -26c-34.667 -3.33301 -60.5 -10.333 -77.5 -21s-25.5 -25.334 -25.5 -44.001c0 -40 42 -60 126 -60c54 0 100.333 8.5 139 25.5zM165.499 593.501
c-11.667 11 -17.5 25.167 -17.5 42.5s5.83301 31.333 17.5 42s26.834 16 45.501 16c18 0 32.667 -5.33301 44 -16s17 -24.667 17 -42s-5.83301 -31.5 -17.5 -42.5s-26.167 -16.5 -43.5 -16.5c-18.667 0 -33.834 5.5 -45.501 16.5zM424.499 593.501
c-11.667 11 -17.5 25.167 -17.5 42.5s5.66699 31.333 17 42s26.333 16 45 16c18 0 32.833 -5.33301 44.5 -16s17.5 -24.667 17.5 -42s-5.83301 -31.5 -17.5 -42.5s-26.5 -16.5 -44.5 -16.5s-32.833 5.5 -44.5 16.5z" />
    <glyph glyph-name="aring" unicode="&#xe5;" horiz-adv-x="716" 
d="M711 85l-0.000976562 -85h-66c-32.667 -0 -60 6.33301 -82 19s-37.333 30.667 -46 54c-26.667 -28.667 -58.667 -50 -96 -64s-81.333 -21 -132 -21c-71.333 0 -126.333 12.5 -165 37.5s-58 60.833 -58 107.5c0 40 15 72 45 96s74 39 132 45l267 28
c-2 37.333 -17.667 65.666 -47 84.999s-71.333 29 -126 29c-52.667 0 -94.667 -9 -126 -27s-47 -42 -47 -72v-4h-95v4c0 37.333 11.167 70.5 33.5 99.5s53.833 51.333 94.5 67s87.667 23.5 141 23.5c84.667 0 150.334 -18.667 197.001 -56s70 -89.666 70 -156.999v-154
c0 -17.333 5.33301 -30.833 16 -40.5s26 -14.5 46 -14.5h44zM425.999 98.5c38.667 17 66.667 41.168 84 72.501v53l-246 -26c-34.667 -3.33301 -60.5 -10.333 -77.5 -21s-25.5 -25.334 -25.5 -44.001c0 -40 42 -60 126 -60c54 0 100.333 8.5 139 25.5zM223.999 575.501
c-27.333 21 -41 51.501 -41 91.501c0 38 14.167 68 42.5 90s66.5 33 114.5 33s86 -10.833 114 -32.5s42 -51.834 42 -90.501c0 -40 -13.5 -70.5 -40.5 -91.5s-65.5 -31.5 -115.5 -31.5s-88.667 10.5 -116 31.5zM393.999 623.502c12.667 10.333 19 24.833 19 43.5
s-6.33301 33.167 -19 43.5s-30.667 15.5 -54 15.5s-41.5 -5.16699 -54.5 -15.5s-19.5 -24.833 -19.5 -43.5s6.5 -33.167 19.5 -43.5s31.167 -15.5 54.5 -15.5s41.333 5.16699 54 15.5z" />
    <glyph glyph-name="ae" unicode="&#xe6;" horiz-adv-x="1098" 
d="M1051 217l-458.003 -0.000976562c2.66699 -45.333 19.834 -80.5 51.501 -105.5s75.834 -37.5 132.501 -37.5c48.667 0 89.167 9.16699 121.5 27.5s49.166 42.166 50.499 71.499h102c-5.33301 -56.667 -32 -101.667 -80 -135s-110.667 -50 -188 -50
c-54.667 0 -102.5 8.5 -143.5 25.5s-73.5 41.5 -97.5 73.5c-25.333 -32.667 -59.5 -57.334 -102.5 -74.001s-93.5 -25 -151.5 -25c-71.333 0 -126.166 12.333 -164.499 37s-57.5 59.667 -57.5 105c0 40.667 15 73.334 45 98.001s74 39.667 132 45l254 25
c-1.33301 38.667 -16.333 68 -45 88s-69.667 30 -123 30c-49.333 0 -88.833 -9 -118.5 -27s-44.5 -42 -44.5 -72v-4h-97v4c0 38 11 71.333 33 100s53 50.834 93 66.501s86.333 23.5 139 23.5c107.333 0 180.333 -32 219 -96c23.333 30.667 54.333 54.334 93 71.001
s83.334 25 134.001 25c54.667 0 102.5 -10 143.5 -30s72.5 -48.5 94.5 -85.5s33 -80.5 33 -130.5v-44zM653.497 386.999c-32.333 -22 -51.833 -52.333 -58.5 -91h354c-5.33301 39.333 -23 69.833 -53 91.5s-69.333 32.5 -118 32.5c-50.667 0 -92.167 -11 -124.5 -33z
M418.497 97.499c39 15.667 68.167 38.168 87.5 67.501c-4.66699 17.333 -7.66699 35.333 -9 54l-226 -22c-37.333 -3.33301 -65 -10.333 -83 -21s-27 -25.334 -27 -44.001c0 -38.667 40 -58 120 -58c52.667 0 98.5 7.83301 137.5 23.5z" />
    <glyph glyph-name="ccedilla" unicode="&#xe7;" horiz-adv-x="670" 
d="M186 18.5c-44.667 20.333 -79 49.332 -103 86.999s-36 81.5 -36 131.5v18c0 51.333 12 96 36 134s58.167 67.167 102.5 87.5s96.5 30.5 156.5 30.5c54 0 102.667 -9.16699 146 -27.5s77.166 -43.666 101.499 -75.999s36.5 -68.833 36.5 -109.5v-4h-99v4
c0 24 -7.83301 45.5 -23.5 64.5s-37.667 33.833 -66 44.5s-60.166 16 -95.499 16c-61.333 0 -109.333 -14.5 -144 -43.5s-52 -69.5 -52 -121.5v-16c0 -50.667 17.333 -90.334 52 -119.001s82.667 -43 144 -43c36 0 68 5.33301 96 16s49.833 25.334 65.5 44.001
s23.5 40 23.5 64v4h99v-4c0 -41.333 -12 -78 -36 -110s-57.5 -57 -100.5 -75s-92.167 -27 -147.5 -27c-59.333 0 -111.333 10.167 -156 30.5zM382 -0.000976562l-49 -170h-107l58 200z" />
    <glyph glyph-name="egrave" unicode="&#xe8;" horiz-adv-x="671" 
d="M624 216l-477.002 0.000976562c3.33301 -43.333 22 -77.5 56 -102.5s79.333 -37.5 136 -37.5c52.667 0 95.5 8.83301 128.5 26.5s50.833 41.167 53.5 70.5h103c-5.33301 -58 -33.166 -103.333 -83.499 -136s-117.5 -49 -201.5 -49c-59.333 0 -111 10.167 -155 30.5
s-77.833 49.166 -101.5 86.499s-35.5 81 -35.5 131v21c0 50.667 11.833 94.834 35.5 132.501s57.5 66.667 101.5 87s95.667 30.5 155 30.5c88.667 0 158.334 -21.833 209.001 -65.5s76 -103.834 76 -180.501v-45zM209.498 386.501
c-33 -21.667 -53.167 -51.834 -60.5 -90.501h373c-6 38.667 -25 68.834 -57 90.501s-74 32.5 -126 32.5c-53.333 0 -96.5 -10.833 -129.5 -32.5zM122.998 720.001l427 -75v-83l-427 75v83z" />
    <glyph glyph-name="eacute" unicode="&#xe9;" horiz-adv-x="671" 
d="M624 216l-477.002 0.000976562c3.33301 -43.333 22 -77.5 56 -102.5s79.333 -37.5 136 -37.5c52.667 0 95.5 8.83301 128.5 26.5s50.833 41.167 53.5 70.5h103c-5.33301 -58 -33.166 -103.333 -83.499 -136s-117.5 -49 -201.5 -49c-59.333 0 -111 10.167 -155 30.5
s-77.833 49.166 -101.5 86.499s-35.5 81 -35.5 131v21c0 50.667 11.833 94.834 35.5 132.501s57.5 66.667 101.5 87s95.667 30.5 155 30.5c88.667 0 158.334 -21.833 209.001 -65.5s76 -103.834 76 -180.501v-45zM209.498 386.501
c-33 -21.667 -53.167 -51.834 -60.5 -90.501h373c-6 38.667 -25 68.834 -57 90.501s-74 32.5 -126 32.5c-53.333 0 -96.5 -10.833 -129.5 -32.5zM549.998 719.001v-82l-427 -75v82z" />
    <glyph glyph-name="ecircumflex" unicode="&#xea;" horiz-adv-x="671" 
d="M624 216l-477.002 0.000976562c3.33301 -43.333 22 -77.5 56 -102.5s79.333 -37.5 136 -37.5c52.667 0 95.5 8.83301 128.5 26.5s50.833 41.167 53.5 70.5h103c-5.33301 -58 -33.166 -103.333 -83.499 -136s-117.5 -49 -201.5 -49c-59.333 0 -111 10.167 -155 30.5
s-77.833 49.166 -101.5 86.499s-35.5 81 -35.5 131v21c0 50.667 11.833 94.834 35.5 132.501s57.5 66.667 101.5 87s95.667 30.5 155 30.5c88.667 0 158.334 -21.833 209.001 -65.5s76 -103.834 76 -180.501v-45zM209.498 386.501
c-33 -21.667 -53.167 -51.834 -60.5 -90.501h373c-6 38.667 -25 68.834 -57 90.501s-74 32.5 -126 32.5c-53.333 0 -96.5 -10.833 -129.5 -32.5zM335.998 719.001l214 -73v-84l-214 72l-213 -72v84z" />
    <glyph glyph-name="edieresis" unicode="&#xeb;" horiz-adv-x="671" 
d="M624 216l-477.002 0.000976562c3.33301 -43.333 22 -77.5 56 -102.5s79.333 -37.5 136 -37.5c52.667 0 95.5 8.83301 128.5 26.5s50.833 41.167 53.5 70.5h103c-5.33301 -58 -33.166 -103.333 -83.499 -136s-117.5 -49 -201.5 -49c-59.333 0 -111 10.167 -155 30.5
s-77.833 49.166 -101.5 86.499s-35.5 81 -35.5 131v21c0 50.667 11.833 94.834 35.5 132.501s57.5 66.667 101.5 87s95.667 30.5 155 30.5c88.667 0 158.334 -21.833 209.001 -65.5s76 -103.834 76 -180.501v-45zM209.498 386.501
c-33 -21.667 -53.167 -51.834 -60.5 -90.501h373c-6 38.667 -25 68.834 -57 90.501s-74 32.5 -126 32.5c-53.333 0 -96.5 -10.833 -129.5 -32.5zM161.498 593.501c-11.667 11 -17.5 25.167 -17.5 42.5s5.83301 31.333 17.5 42s26.834 16 45.501 16
c18 0 32.667 -5.33301 44 -16s17 -24.667 17 -42s-5.83301 -31.5 -17.5 -42.5s-26.167 -16.5 -43.5 -16.5c-18.667 0 -33.834 5.5 -45.501 16.5zM420.498 593.501c-11.667 11 -17.5 25.167 -17.5 42.5s5.66699 31.333 17 42s26.333 16 45 16c18 0 32.833 -5.33301 44.5 -16
s17.5 -24.667 17.5 -42s-5.83301 -31.5 -17.5 -42.5s-26.5 -16.5 -44.5 -16.5s-32.833 5.5 -44.5 16.5z" />
    <glyph glyph-name="igrave" unicode="&#xec;" horiz-adv-x="286" 
d="M191 495v-495h-96v495h96zM1 707l283 -49v-83l-283 49v83z" />
    <glyph glyph-name="iacute" unicode="&#xed;" horiz-adv-x="286" 
d="M191 495v-495h-96v495h96zM285 706v-82l-284 -49v82z" />
    <glyph glyph-name="icircumflex" unicode="&#xee;" horiz-adv-x="286" 
d="M191 495v-495h-96v495h96zM143 710l142 -44v-86l-142 45l-142 -45v86z" />
    <glyph glyph-name="idieresis" unicode="&#xef;" horiz-adv-x="286" 
d="M191 495v-495h-96v495h96zM-11.5 594.5c-11.667 11 -17.5 25.167 -17.5 42.5s5.83301 31.333 17.5 42s26.834 16 45.501 16c18 0 32.667 -5.33301 44 -16s17 -24.667 17 -42s-5.83301 -31.5 -17.5 -42.5s-26.167 -16.5 -43.5 -16.5c-18.667 0 -33.834 5.5 -45.501 16.5z
M207.5 594.5c-11.667 11 -17.5 25.167 -17.5 42.5s5.66699 31.333 17 42s26.333 16 45 16s33.667 -5.33301 45 -16s17 -24.667 17 -42s-5.83301 -31.5 -17.5 -42.5s-26.5 -16.5 -44.5 -16.5s-32.833 5.5 -44.5 16.5z" />
    <glyph glyph-name="eth" unicode="&#xf0;" horiz-adv-x="684" 
d="M637 620l-159.996 -27.0039c55.333 -35.333 94.333 -74.166 117 -116.499s34 -96.166 34 -161.499v-80c0 -49.333 -11.833 -92.666 -35.5 -129.999s-57.334 -66.166 -101.001 -86.499s-94.834 -30.5 -153.501 -30.5c-59.333 0 -110.833 9.5 -154.5 28.5
s-77.334 46 -101.001 81s-35.5 75.833 -35.5 122.5v24c0 46 11.667 86.5 35 121.5s56.166 62 98.499 81s91.5 28.5 147.5 28.5c76.667 0 140 -18.333 190 -55c-10.667 29.333 -28.5 55.5 -53.5 78.5s-60.167 45.833 -105.5 68.5l-296 -48v81l178 29l-110 57v14h143l89 -46
l274 47v-81zM479.004 118.496c34.667 28.333 51.999 67.168 51.999 116.501v69c-18 25.333 -44.667 45.666 -80 60.999s-74 23 -116 23c-59.333 0 -105.833 -12.5 -139.5 -37.5s-50.5 -59.833 -50.5 -104.5v-22c0 -46.667 16.833 -83 50.5 -109s80.5 -39 140.5 -39
c60.667 0 108.334 14.167 143.001 42.5z" />
    <glyph glyph-name="ntilde" unicode="&#xf1;" horiz-adv-x="711" 
d="M566.5 442.5c44.333 -43 66.498 -106.166 66.498 -189.499v-253h-95v253c0 54 -15.167 95.167 -45.5 123.5s-74.166 42.5 -131.499 42.5c-39.333 0 -75.166 -9 -107.499 -27s-56.5 -42 -72.5 -72v-320h-96v495h89l4 -64c49.333 49.333 113.333 74.666 192 75.999
c86.667 0 152.167 -21.5 196.5 -64.5zM415.498 583.001c-14.333 2.66699 -34.5029 7 -60.5029 13c-22 5.33301 -40 9.33301 -54 12s-28.667 4 -44 4c-36 0 -72.333 -9 -109 -27v82c38 18 74.667 27 110 27c26 0 59 -5.66699 99 -17c22.667 -6 41.834 -10.5 57.501 -13.5
s32.5 -4.5 50.5 -4.5c33.333 0 70 8 110 24v-81c-35.333 -15.333 -72.666 -23 -111.999 -23c-17.333 0 -33.166 1.33301 -47.499 4z" />
    <glyph glyph-name="ograve" unicode="&#xf2;" horiz-adv-x="685" 
d="M186 18.5c-44.667 20.333 -79 49.333 -103 87s-36 81.834 -36 132.501v17c0 51.333 12 96 36 134s58.333 67.167 103 87.5s97.334 30.5 158.001 30.5c60 0 112.167 -10.167 156.5 -30.5s78.333 -49.5 102 -87.5s35.5 -82.667 35.5 -134v-17
c0 -50.667 -11.833 -94.834 -35.5 -132.501s-57.667 -66.667 -102 -87s-96.5 -30.5 -156.5 -30.5c-60.667 0 -113.334 10.167 -158.001 30.5zM487 119c34.667 28.667 52 68.334 52 119.001v17c0 51.333 -17.333 91.5 -52 120.5s-82.667 43.5 -144 43.5
c-62.667 0 -111.167 -14.333 -145.5 -43s-51.5 -69 -51.5 -121v-17c0 -50.667 17.5 -90.334 52.5 -119.001s83.167 -43 144.5 -43s109.333 14.333 144 43zM130 720l427 -75v-83l-427 75v83z" />
    <glyph glyph-name="oacute" unicode="&#xf3;" horiz-adv-x="685" 
d="M186 18.5c-44.667 20.333 -79 49.333 -103 87s-36 81.834 -36 132.501v17c0 51.333 12 96 36 134s58.333 67.167 103 87.5s97.334 30.5 158.001 30.5c60 0 112.167 -10.167 156.5 -30.5s78.333 -49.5 102 -87.5s35.5 -82.667 35.5 -134v-17
c0 -50.667 -11.833 -94.834 -35.5 -132.501s-57.667 -66.667 -102 -87s-96.5 -30.5 -156.5 -30.5c-60.667 0 -113.334 10.167 -158.001 30.5zM487 119c34.667 28.667 52 68.334 52 119.001v17c0 51.333 -17.333 91.5 -52 120.5s-82.667 43.5 -144 43.5
c-62.667 0 -111.167 -14.333 -145.5 -43s-51.5 -69 -51.5 -121v-17c0 -50.667 17.5 -90.334 52.5 -119.001s83.167 -43 144.5 -43s109.333 14.333 144 43zM557 719v-82l-427 -75v82z" />
    <glyph glyph-name="ocircumflex" unicode="&#xf4;" horiz-adv-x="685" 
d="M186 18.5c-44.667 20.333 -79 49.333 -103 87s-36 81.834 -36 132.501v17c0 51.333 12 96 36 134s58.333 67.167 103 87.5s97.334 30.5 158.001 30.5c60 0 112.167 -10.167 156.5 -30.5s78.333 -49.5 102 -87.5s35.5 -82.667 35.5 -134v-17
c0 -50.667 -11.833 -94.834 -35.5 -132.501s-57.667 -66.667 -102 -87s-96.5 -30.5 -156.5 -30.5c-60.667 0 -113.334 10.167 -158.001 30.5zM487 119c34.667 28.667 52 68.334 52 119.001v17c0 51.333 -17.333 91.5 -52 120.5s-82.667 43.5 -144 43.5
c-62.667 0 -111.167 -14.333 -145.5 -43s-51.5 -69 -51.5 -121v-17c0 -50.667 17.5 -90.334 52.5 -119.001s83.167 -43 144.5 -43s109.333 14.333 144 43zM343 719l214 -73v-84l-214 72l-213 -72v84z" />
    <glyph glyph-name="otilde" unicode="&#xf5;" horiz-adv-x="685" 
d="M186 18.5c-44.667 20.333 -79 49.333 -103 87s-36 81.834 -36 132.501v17c0 51.333 12 96 36 134s58.333 67.167 103 87.5s97.334 30.5 158.001 30.5c60 0 112.167 -10.167 156.5 -30.5s78.333 -49.5 102 -87.5s35.5 -82.667 35.5 -134v-17
c0 -50.667 -11.833 -94.834 -35.5 -132.501s-57.667 -66.667 -102 -87s-96.5 -30.5 -156.5 -30.5c-60.667 0 -113.334 10.167 -158.001 30.5zM487 119c34.667 28.667 52 68.334 52 119.001v17c0 51.333 -17.333 91.5 -52 120.5s-82.667 43.5 -144 43.5
c-62.667 0 -111.167 -14.333 -145.5 -43s-51.5 -69 -51.5 -121v-17c0 -50.667 17.5 -90.334 52.5 -119.001s83.167 -43 144.5 -43s109.333 14.333 144 43zM397.5 583c-14.333 2.66699 -34.5029 7 -60.5029 13c-22 5.33301 -40 9.33301 -54 12s-28.667 4 -44 4
c-36 0 -72.333 -9 -109 -27v82c38 18 74.667 27 110 27c26 0 59 -5.66699 99 -17c22.667 -6 41.834 -10.5 57.501 -13.5s32.5 -4.5 50.5 -4.5c33.333 0 70 8 110 24v-81c-35.333 -15.333 -72.666 -23 -111.999 -23c-17.333 0 -33.166 1.33301 -47.499 4z" />
    <glyph glyph-name="odieresis" unicode="&#xf6;" horiz-adv-x="685" 
d="M186 18.5c-44.667 20.333 -79 49.333 -103 87s-36 81.834 -36 132.501v17c0 51.333 12 96 36 134s58.333 67.167 103 87.5s97.334 30.5 158.001 30.5c60 0 112.167 -10.167 156.5 -30.5s78.333 -49.5 102 -87.5s35.5 -82.667 35.5 -134v-17
c0 -50.667 -11.833 -94.834 -35.5 -132.501s-57.667 -66.667 -102 -87s-96.5 -30.5 -156.5 -30.5c-60.667 0 -113.334 10.167 -158.001 30.5zM487 119c34.667 28.667 52 68.334 52 119.001v17c0 51.333 -17.333 91.5 -52 120.5s-82.667 43.5 -144 43.5
c-62.667 0 -111.167 -14.333 -145.5 -43s-51.5 -69 -51.5 -121v-17c0 -50.667 17.5 -90.334 52.5 -119.001s83.167 -43 144.5 -43s109.333 14.333 144 43zM168.5 593.5c-11.667 11 -17.5 25.167 -17.5 42.5s5.83301 31.333 17.5 42s26.834 16 45.501 16
c18 0 32.667 -5.33301 44 -16s17 -24.667 17 -42s-5.83301 -31.5 -17.5 -42.5s-26.167 -16.5 -43.5 -16.5c-18.667 0 -33.834 5.5 -45.501 16.5zM427.5 593.5c-11.667 11 -17.5 25.167 -17.5 42.5s5.66699 31.333 17 42s26.333 16 45 16c18 0 32.833 -5.33301 44.5 -16
s17.5 -24.667 17.5 -42s-5.83301 -31.5 -17.5 -42.5s-26.5 -16.5 -44.5 -16.5s-32.833 5.5 -44.5 16.5z" />
    <glyph glyph-name="divide" unicode="&#xf7;" horiz-adv-x="816" 
d="M364.5 497c-11.667 11.333 -17.5 25.666 -17.5 42.999c0 18 5.66699 32.5 17 43.5s26 16.5 44 16.5s32.667 -5.5 44 -16.5s17 -25.5 17 -43.5c0 -17.333 -5.66699 -31.666 -17 -42.999s-26 -17 -44 -17c-17.333 0 -31.833 5.66699 -43.5 17zM715 373v-90h-614v90h614z
M364.5 73c-11.667 11.333 -17.5 25.666 -17.5 42.999c0 18 5.66699 32.5 17 43.5s26 16.5 44 16.5s32.667 -5.5 44 -16.5s17 -25.5 17 -43.5c0 -17.333 -5.66699 -31.666 -17 -42.999s-26 -17 -44 -17c-17.333 0 -31.833 5.66699 -43.5 17z" />
    <glyph glyph-name="oslash" unicode="&#xf8;" horiz-adv-x="685" 
d="M612.5 371c17 -34 25.499 -72.666 25.499 -115.999v-17c0 -50.667 -11.833 -94.834 -35.5 -132.501s-57.667 -66.667 -102 -87s-96.5 -30.5 -156.5 -30.5c-40.667 0 -78 4.66699 -112 14l-36 -54h-101v12l52 80c-32 21.333 -56.667 49 -74 83s-26 72.333 -26 115v17
c0 51.333 11.833 96 35.5 134s57.834 67.167 102.501 87.5s97.667 30.5 159 30.5c39.333 0 76 -4.66699 110 -14l35 54h102v-12l-52 -80c32 -22 56.5 -50 73.5 -84zM145.999 239.001c0 -52 18 -92 54 -120l200 295c-20 3.33301 -39 5 -57 5c-62 0 -110.333 -14.5 -145 -43.5
s-52 -69.833 -52 -122.5v-14zM538.999 253.001c0 52 -17.667 93 -53 123l-200 -295c18.667 -3.33301 37.667 -5 57 -5c60.667 0 108.5 14.5 143.5 43.5s52.5 68.833 52.5 119.5v14z" />
    <glyph glyph-name="ugrave" unicode="&#xf9;" horiz-adv-x="711" 
d="M626 495l0.00195312 -495.001h-89l-4 64c-49.333 -49.333 -113.333 -74.666 -192 -75.999c-86.667 0 -152.167 21.5 -196.5 64.5s-66.5 106.167 -66.5 189.5v253h95v-253c0 -53.333 15.167 -94.333 45.5 -123s74.166 -43 131.499 -43c39.333 0 75.166 9 107.499 27
s56.5 42 72.5 72v320h96zM139.002 719.999l427 -75v-83l-427 75v83z" />
    <glyph glyph-name="uacute" unicode="&#xfa;" horiz-adv-x="711" 
d="M626 495l0.00195312 -495.001h-89l-4 64c-49.333 -49.333 -113.333 -74.666 -192 -75.999c-86.667 0 -152.167 21.5 -196.5 64.5s-66.5 106.167 -66.5 189.5v253h95v-253c0 -53.333 15.167 -94.333 45.5 -123s74.166 -43 131.499 -43c39.333 0 75.166 9 107.499 27
s56.5 42 72.5 72v320h96zM566.002 718.999v-82l-427 -75v82z" />
    <glyph glyph-name="ucircumflex" unicode="&#xfb;" horiz-adv-x="711" 
d="M626 495l0.00195312 -495.001h-89l-4 64c-49.333 -49.333 -113.333 -74.666 -192 -75.999c-86.667 0 -152.167 21.5 -196.5 64.5s-66.5 106.167 -66.5 189.5v253h95v-253c0 -53.333 15.167 -94.333 45.5 -123s74.166 -43 131.499 -43c39.333 0 75.166 9 107.499 27
s56.5 42 72.5 72v320h96zM352.002 718.999l214 -73v-84l-214 72l-213 -72v84z" />
    <glyph glyph-name="udieresis" unicode="&#xfc;" horiz-adv-x="711" 
d="M626 495l0.00195312 -495.001h-89l-4 64c-49.333 -49.333 -113.333 -74.666 -192 -75.999c-86.667 0 -152.167 21.5 -196.5 64.5s-66.5 106.167 -66.5 189.5v253h95v-253c0 -53.333 15.167 -94.333 45.5 -123s74.166 -43 131.499 -43c39.333 0 75.166 9 107.499 27
s56.5 42 72.5 72v320h96zM177.502 593.499c-11.667 11 -17.5 25.167 -17.5 42.5s5.83301 31.333 17.5 42s26.834 16 45.501 16c18 0 32.667 -5.33301 44 -16s17 -24.667 17 -42s-5.83301 -31.5 -17.5 -42.5s-26.167 -16.5 -43.5 -16.5c-18.667 0 -33.834 5.5 -45.501 16.5z
M436.502 593.499c-11.667 11 -17.5 25.167 -17.5 42.5s5.66699 31.333 17 42s26.333 16 45 16c18 0 32.833 -5.33301 44.5 -16s17.5 -24.667 17.5 -42s-5.83301 -31.5 -17.5 -42.5s-26.5 -16.5 -44.5 -16.5s-32.833 5.5 -44.5 16.5z" />
    <glyph glyph-name="yacute" unicode="&#xfd;" horiz-adv-x="697" 
d="M660 495v-14l-282 -536c-22 -41.333 -47.5 -70.833 -76.5 -88.5s-68.5 -26.5 -118.5 -26.5h-100v85h100c28 0 49 4.16699 63 12.5s27.333 24.833 40 49.5l9 16l-258 488v14h102l210 -408l209 408h102zM563 719v-82l-427 -75v82z" />
    <glyph glyph-name="thorn" unicode="&#xfe;" horiz-adv-x="710" 
d="M526.5 476c43.667 -20.667 77.333 -50 101 -88s35.5 -82 35.5 -132v-16c0 -50 -12 -94 -36 -132s-58 -67.5 -102 -88.5s-95 -31.5 -153 -31.5c-79.333 0 -143 22.333 -191 67v-225h-96v866h96v-256c47.333 44.667 112 67 194 67c57.333 0 107.833 -10.333 151.5 -31z
M563.999 256c0 50.667 -17.5 90.5 -52.5 119.5s-83.167 43.5 -144.5 43.5c-39.333 0 -75.5 -7 -108.5 -21s-58.833 -33 -77.5 -57v-186c18.667 -24 44.5 -43.167 77.5 -57.5s69.167 -21.5 108.5 -21.5c61.333 0 109.5 14.667 144.5 44s52.5 69.333 52.5 120v16z" />
    <glyph glyph-name="ydieresis" unicode="&#xff;" horiz-adv-x="697" 
d="M660 495v-14l-282 -536c-22 -41.333 -47.5 -70.833 -76.5 -88.5s-68.5 -26.5 -118.5 -26.5h-100v85h100c28 0 49 4.16699 63 12.5s27.333 24.833 40 49.5l9 16l-258 488v14h102l210 -408l209 408h102zM174.5 593.5c-11.667 11 -17.5 25.167 -17.5 42.5
s5.83301 31.333 17.5 42s26.834 16 45.501 16c18 0 32.667 -5.33301 44 -16s17 -24.667 17 -42s-5.83301 -31.5 -17.5 -42.5s-26.167 -16.5 -43.5 -16.5c-18.667 0 -33.834 5.5 -45.501 16.5zM433.5 593.5c-11.667 11 -17.5 25.167 -17.5 42.5s5.66699 31.333 17 42
s26.333 16 45 16c18 0 32.833 -5.33301 44.5 -16s17.5 -24.667 17.5 -42s-5.83301 -31.5 -17.5 -42.5s-26.5 -16.5 -44.5 -16.5s-32.833 5.5 -44.5 16.5z" />
    <glyph glyph-name="Amacron" unicode="&#x100;" horiz-adv-x="770" 
d="M750 15v-15h-102l-78 166h-370l-78 -166h-102v15l310 641h110zM527 256l-142 301l-142 -301h284zM599 838v-82h-427v82h427z" />
    <glyph glyph-name="amacron" unicode="&#x101;" horiz-adv-x="716" 
d="M711 85l-0.000976562 -85h-66c-32.667 -0 -60 6.33301 -82 19s-37.333 30.667 -46 54c-26.667 -28.667 -58.667 -50 -96 -64s-81.333 -21 -132 -21c-71.333 0 -126.333 12.5 -165 37.5s-58 60.833 -58 107.5c0 40 15 72 45 96s74 39 132 45l267 28
c-2 37.333 -17.667 65.666 -47 84.999s-71.333 29 -126 29c-52.667 0 -94.667 -9 -126 -27s-47 -42 -47 -72v-4h-95v4c0 37.333 11.167 70.5 33.5 99.5s53.833 51.333 94.5 67s87.667 23.5 141 23.5c84.667 0 150.334 -18.667 197.001 -56s70 -89.666 70 -156.999v-154
c0 -17.333 5.33301 -30.833 16 -40.5s26 -14.5 46 -14.5h44zM425.999 98.5c38.667 17 66.667 41.168 84 72.501v53l-246 -26c-34.667 -3.33301 -60.5 -10.333 -77.5 -21s-25.5 -25.334 -25.5 -44.001c0 -40 42 -60 126 -60c54 0 100.333 8.5 139 25.5zM553.999 677.001v-82
h-427v82h427z" />
    <glyph glyph-name="Abreve" unicode="&#x102;" horiz-adv-x="770" 
d="M750 15v-15h-102l-78 166h-370l-78 -166h-102v15l310 641h110zM527 256l-142 301l-142 -301h284zM172 784v82c77.333 -37.333 149.333 -56 216 -56s137 18.667 211 56v-82c-72 -38 -142.333 -57 -211 -57c-68 0 -140 19 -216 57z" />
    <glyph glyph-name="abreve" unicode="&#x103;" horiz-adv-x="716" 
d="M711 85l-0.000976562 -85h-66c-32.667 -0 -60 6.33301 -82 19s-37.333 30.667 -46 54c-26.667 -28.667 -58.667 -50 -96 -64s-81.333 -21 -132 -21c-71.333 0 -126.333 12.5 -165 37.5s-58 60.833 -58 107.5c0 40 15 72 45 96s74 39 132 45l267 28
c-2 37.333 -17.667 65.666 -47 84.999s-71.333 29 -126 29c-52.667 0 -94.667 -9 -126 -27s-47 -42 -47 -72v-4h-95v4c0 37.333 11.167 70.5 33.5 99.5s53.833 51.333 94.5 67s87.667 23.5 141 23.5c84.667 0 150.334 -18.667 197.001 -56s70 -89.666 70 -156.999v-154
c0 -17.333 5.33301 -30.833 16 -40.5s26 -14.5 46 -14.5h44zM425.999 98.5c38.667 17 66.667 41.168 84 72.501v53l-246 -26c-34.667 -3.33301 -60.5 -10.333 -77.5 -21s-25.5 -25.334 -25.5 -44.001c0 -40 42 -60 126 -60c54 0 100.333 8.5 139 25.5zM126.999 623.001v82
c77.333 -37.333 149.333 -56 216 -56s137 18.667 211 56v-82c-72 -38 -142.333 -57 -211 -57c-68 0 -140 19 -216 57z" />
    <glyph glyph-name="Aogonek" unicode="&#x104;" horiz-adv-x="770" 
d="M750 15v-15h-102l-78 166h-370l-78 -166h-102v15l310 641h110zM527 256l-142 301l-142 -301h284zM559.5 -150c-18.333 13.333 -27.501 31.332 -27.501 53.999c0 19.333 5.83301 36.333 17.5 51s31.834 30.334 60.501 47.001l104 60l36 -62l-98 -49
c-14.667 -8 -22 -16.333 -22 -25c0 -11.333 8.66699 -17 26 -17h94v-79h-115c-32 0 -57.167 6.66699 -75.5 20z" />
    <glyph glyph-name="aogonek" unicode="&#x105;" horiz-adv-x="716" 
d="M711 85l-0.000976562 -85h-66c-32.667 -0 -60 6.33301 -82 19s-37.333 30.667 -46 54c-26.667 -28.667 -58.667 -50 -96 -64s-81.333 -21 -132 -21c-71.333 0 -126.333 12.5 -165 37.5s-58 60.833 -58 107.5c0 40 15 72 45 96s74 39 132 45l267 28
c-2 37.333 -17.667 65.666 -47 84.999s-71.333 29 -126 29c-52.667 0 -94.667 -9 -126 -27s-47 -42 -47 -72v-4h-95v4c0 37.333 11.167 70.5 33.5 99.5s53.833 51.333 94.5 67s87.667 23.5 141 23.5c84.667 0 150.334 -18.667 197.001 -56s70 -89.666 70 -156.999v-154
c0 -17.333 5.33301 -30.833 16 -40.5s26 -14.5 46 -14.5h44zM425.999 98.5c38.667 17 66.667 41.168 84 72.501v53l-246 -26c-34.667 -3.33301 -60.5 -10.333 -77.5 -21s-25.5 -25.334 -25.5 -44.001c0 -40 42 -60 126 -60c54 0 100.333 8.5 139 25.5zM520.499 -149.999
c-18.333 13.333 -27.501 31.332 -27.501 53.999c0 19.333 5.83301 36.333 17.5 51s31.834 30.334 60.501 47.001l104 60l36 -62l-98 -49c-14.667 -8 -22 -16.333 -22 -25c0 -11.333 8.66699 -17 26 -17h94v-79h-115c-32 0 -57.167 6.66699 -75.5 20z" />
    <glyph glyph-name="Cacute" unicode="&#x106;" horiz-adv-x="874" 
d="M243 28.5c-57.333 27 -101.498 65.501 -132.498 115.501s-46.5 108.333 -46.5 175v17c0 66.667 15.5 125 46.5 175s75.167 88.667 132.5 116s124.333 41 201 41c69.333 0 131.833 -11.667 187.5 -35s99.334 -55.5 131.001 -96.5s47.5 -86.833 47.5 -137.5v-9h-101v9
c0 33.333 -11.333 63.333 -34 90s-54.167 47.667 -94.5 63s-85.833 23 -136.5 23c-89.333 0 -158.166 -20.667 -206.499 -62s-72.5 -100 -72.5 -176v-19c0 -76 24.167 -134.5 72.5 -175.5s117.166 -61.5 206.499 -61.5c51.333 0 97.166 7.5 137.499 22.5
s71.666 35.833 93.999 62.5s33.5 56.667 33.5 90v10h101v-10c0 -50.667 -15.833 -96.334 -47.5 -137.001s-75.334 -72.667 -131.001 -96s-118.167 -35 -187.5 -35c-76.667 0 -143.667 13.5 -201 40.5zM664.002 880.001v-82l-427 -75v82z" />
    <glyph glyph-name="cacute" unicode="&#x107;" horiz-adv-x="670" 
d="M186 18.5c-44.667 20.333 -79 49.332 -103 86.999s-36 81.5 -36 131.5v18c0 51.333 12 96 36 134s58.167 67.167 102.5 87.5s96.5 30.5 156.5 30.5c54 0 102.667 -9.16699 146 -27.5s77.166 -43.666 101.499 -75.999s36.5 -68.833 36.5 -109.5v-4h-99v4
c0 24 -7.83301 45.5 -23.5 64.5s-37.667 33.833 -66 44.5s-60.166 16 -95.499 16c-61.333 0 -109.333 -14.5 -144 -43.5s-52 -69.5 -52 -121.5v-16c0 -50.667 17.333 -90.334 52 -119.001s82.667 -43 144 -43c36 0 68 5.33301 96 16s49.833 25.334 65.5 44.001
s23.5 40 23.5 64v4h99v-4c0 -41.333 -12 -78 -36 -110s-57.5 -57 -100.5 -75s-92.167 -27 -147.5 -27c-59.333 0 -111.333 10.167 -156 30.5zM547 718.999v-82l-427 -75v82z" />
    <glyph glyph-name="Ccircumflex" unicode="&#x108;" horiz-adv-x="874" 
d="M243 28.5c-57.333 27 -101.498 65.501 -132.498 115.501s-46.5 108.333 -46.5 175v17c0 66.667 15.5 125 46.5 175s75.167 88.667 132.5 116s124.333 41 201 41c69.333 0 131.833 -11.667 187.5 -35s99.334 -55.5 131.001 -96.5s47.5 -86.833 47.5 -137.5v-9h-101v9
c0 33.333 -11.333 63.333 -34 90s-54.167 47.667 -94.5 63s-85.833 23 -136.5 23c-89.333 0 -158.166 -20.667 -206.499 -62s-72.5 -100 -72.5 -176v-19c0 -76 24.167 -134.5 72.5 -175.5s117.166 -61.5 206.499 -61.5c51.333 0 97.166 7.5 137.499 22.5
s71.666 35.833 93.999 62.5s33.5 56.667 33.5 90v10h101v-10c0 -50.667 -15.833 -96.334 -47.5 -137.001s-75.334 -72.667 -131.001 -96s-118.167 -35 -187.5 -35c-76.667 0 -143.667 13.5 -201 40.5zM450.002 880.001l214 -73v-84l-214 72l-213 -72v84z" />
    <glyph glyph-name="ccircumflex" unicode="&#x109;" horiz-adv-x="670" 
d="M186 18.5c-44.667 20.333 -79 49.332 -103 86.999s-36 81.5 -36 131.5v18c0 51.333 12 96 36 134s58.167 67.167 102.5 87.5s96.5 30.5 156.5 30.5c54 0 102.667 -9.16699 146 -27.5s77.166 -43.666 101.499 -75.999s36.5 -68.833 36.5 -109.5v-4h-99v4
c0 24 -7.83301 45.5 -23.5 64.5s-37.667 33.833 -66 44.5s-60.166 16 -95.499 16c-61.333 0 -109.333 -14.5 -144 -43.5s-52 -69.5 -52 -121.5v-16c0 -50.667 17.333 -90.334 52 -119.001s82.667 -43 144 -43c36 0 68 5.33301 96 16s49.833 25.334 65.5 44.001
s23.5 40 23.5 64v4h99v-4c0 -41.333 -12 -78 -36 -110s-57.5 -57 -100.5 -75s-92.167 -27 -147.5 -27c-59.333 0 -111.333 10.167 -156 30.5zM333 718.999l214 -73v-84l-214 72l-213 -72v84z" />
    <glyph glyph-name="Cdotaccent" unicode="&#x10a;" horiz-adv-x="874" 
d="M243 28.5c-57.333 27 -101.498 65.501 -132.498 115.501s-46.5 108.333 -46.5 175v17c0 66.667 15.5 125 46.5 175s75.167 88.667 132.5 116s124.333 41 201 41c69.333 0 131.833 -11.667 187.5 -35s99.334 -55.5 131.001 -96.5s47.5 -86.833 47.5 -137.5v-9h-101v9
c0 33.333 -11.333 63.333 -34 90s-54.167 47.667 -94.5 63s-85.833 23 -136.5 23c-89.333 0 -158.166 -20.667 -206.499 -62s-72.5 -100 -72.5 -176v-19c0 -76 24.167 -134.5 72.5 -175.5s117.166 -61.5 206.499 -61.5c51.333 0 97.166 7.5 137.499 22.5
s71.666 35.833 93.999 62.5s33.5 56.667 33.5 90v10h101v-10c0 -50.667 -15.833 -96.334 -47.5 -137.001s-75.334 -72.667 -131.001 -96s-118.167 -35 -187.5 -35c-76.667 0 -143.667 13.5 -201 40.5zM403.002 752.501c-12 11.667 -18 26.834 -18 45.501
c0 18 6 32.667 18 44s27.667 17 47 17s35 -5.66699 47 -17s18 -26 18 -44c0 -18.667 -6 -33.834 -18 -45.501s-27.667 -17.5 -47 -17.5s-35 5.83301 -47 17.5z" />
    <glyph glyph-name="cdotaccent" unicode="&#x10b;" horiz-adv-x="670" 
d="M186 18.5c-44.667 20.333 -79 49.332 -103 86.999s-36 81.5 -36 131.5v18c0 51.333 12 96 36 134s58.167 67.167 102.5 87.5s96.5 30.5 156.5 30.5c54 0 102.667 -9.16699 146 -27.5s77.166 -43.666 101.499 -75.999s36.5 -68.833 36.5 -109.5v-4h-99v4
c0 24 -7.83301 45.5 -23.5 64.5s-37.667 33.833 -66 44.5s-60.166 16 -95.499 16c-61.333 0 -109.333 -14.5 -144 -43.5s-52 -69.5 -52 -121.5v-16c0 -50.667 17.333 -90.334 52 -119.001s82.667 -43 144 -43c36 0 68 5.33301 96 16s49.833 25.334 65.5 44.001
s23.5 40 23.5 64v4h99v-4c0 -41.333 -12 -78 -36 -110s-57.5 -57 -100.5 -75s-92.167 -27 -147.5 -27c-59.333 0 -111.333 10.167 -156 30.5zM286 591.499c-12 11.667 -18 26.834 -18 45.501c0 18 6 32.667 18 44s27.667 17 47 17s35 -5.66699 47 -17s18 -26 18 -44
c0 -18.667 -6 -33.834 -18 -45.501s-27.667 -17.5 -47 -17.5s-35 5.83301 -47 17.5z" />
    <glyph glyph-name="Ccaron" unicode="&#x10c;" horiz-adv-x="874" 
d="M243 28.5c-57.333 27 -101.498 65.501 -132.498 115.501s-46.5 108.333 -46.5 175v17c0 66.667 15.5 125 46.5 175s75.167 88.667 132.5 116s124.333 41 201 41c69.333 0 131.833 -11.667 187.5 -35s99.334 -55.5 131.001 -96.5s47.5 -86.833 47.5 -137.5v-9h-101v9
c0 33.333 -11.333 63.333 -34 90s-54.167 47.667 -94.5 63s-85.833 23 -136.5 23c-89.333 0 -158.166 -20.667 -206.499 -62s-72.5 -100 -72.5 -176v-19c0 -76 24.167 -134.5 72.5 -175.5s117.166 -61.5 206.499 -61.5c51.333 0 97.166 7.5 137.499 22.5
s71.666 35.833 93.999 62.5s33.5 56.667 33.5 90v10h101v-10c0 -50.667 -15.833 -96.334 -47.5 -137.001s-75.334 -72.667 -131.001 -96s-118.167 -35 -187.5 -35c-76.667 0 -143.667 13.5 -201 40.5zM237.002 880.001l213 -73l214 73v-85l-214 -72l-213 72v85z" />
    <glyph glyph-name="ccaron" unicode="&#x10d;" horiz-adv-x="670" 
d="M186 18.5c-44.667 20.333 -79 49.332 -103 86.999s-36 81.5 -36 131.5v18c0 51.333 12 96 36 134s58.167 67.167 102.5 87.5s96.5 30.5 156.5 30.5c54 0 102.667 -9.16699 146 -27.5s77.166 -43.666 101.499 -75.999s36.5 -68.833 36.5 -109.5v-4h-99v4
c0 24 -7.83301 45.5 -23.5 64.5s-37.667 33.833 -66 44.5s-60.166 16 -95.499 16c-61.333 0 -109.333 -14.5 -144 -43.5s-52 -69.5 -52 -121.5v-16c0 -50.667 17.333 -90.334 52 -119.001s82.667 -43 144 -43c36 0 68 5.33301 96 16s49.833 25.334 65.5 44.001
s23.5 40 23.5 64v4h99v-4c0 -41.333 -12 -78 -36 -110s-57.5 -57 -100.5 -75s-92.167 -27 -147.5 -27c-59.333 0 -111.333 10.167 -156 30.5zM120 718.999l213 -73l214 73v-85l-214 -72l-213 72v85z" />
    <glyph glyph-name="Dcaron" unicode="&#x10e;" horiz-adv-x="826" 
d="M399 656c118.667 0 208.834 -27.332 270.501 -81.999s92.5 -134.334 92.5 -239.001v-15c0 -104.667 -30.833 -184.167 -92.5 -238.5s-151.834 -81.5 -270.501 -81.5h-307v656h307zM661 319.001v17c0 76 -22.167 133.5 -66.5 172.5s-109.833 58.5 -196.5 58.5h-206v-478
h207c174.667 0 262 76.667 262 230zM175 880.001l213 -73l214 73v-85l-214 -72l-213 72v85z" />
    <glyph glyph-name="dcaron" unicode="&#x10f;" horiz-adv-x="920" 
d="M625 696v-696.001h-89l-3 57c-51.333 -46 -117.333 -69 -198 -69c-58.667 0 -109.667 10.167 -153 30.5s-76.666 49.5 -99.999 87.5s-35 82.667 -35 134v16c0 51.333 11.667 95.833 35 133.5s56.666 66.667 99.999 87s94.333 30.5 153 30.5c38 0 73.5 -5.66699 106.5 -17
s62.167 -27.666 87.5 -48.999v255h96zM452 97.499c32.667 14.333 58.335 33.833 77.002 58.5v184c-18.667 24 -44.334 43.167 -77.001 57.5s-68.667 21.5 -108 21.5c-62 0 -110.5 -14.333 -145.5 -43s-52.5 -68.667 -52.5 -120v-16c0 -50.667 17.667 -90.667 53 -120
s83.666 -44 144.999 -44c39.333 0 75.333 7.16699 108 21.5zM892.001 695.999l-53 -183h-94l29 183h118z" />
    <glyph glyph-name="Dcroat" unicode="&#x110;" horiz-adv-x="859" 
d="M702.5 574c61.667 -54.667 92.5 -134.333 92.5 -239v-15c0 -104.667 -30.833 -184.167 -92.5 -238.5s-151.834 -81.5 -270.501 -81.5h-307v285h-120v86h120v285h307c118.667 0 208.834 -27.333 270.501 -82zM694 336.001c0 76 -22.167 133.5 -66.5 172.5
s-109.833 58.5 -196.5 58.5h-206v-196h205v-86h-205v-196h207c174.667 0 262 76.667 262 230v17z" />
    <glyph glyph-name="dcroat" unicode="&#x111;" horiz-adv-x="736" 
d="M745 560l-120 -0.000976562v-560h-89l-4 57c-24 -22 -52.167 -39 -84.5 -51s-67.166 -18 -104.499 -18c-92 0 -164.333 21.667 -217 65s-79 103 -79 179v15c0 48.667 11.833 90.834 35.5 126.501s57.167 63.167 100.5 82.5s93.666 29 150.999 29
c80 0 145 -21.333 195 -64v139h-232v83h232v53h96v-53h120v-83zM451 96.999c33.333 14 59.332 33.667 77.999 59v166c-19.333 24 -45.666 42.833 -78.999 56.5s-69.666 20.5 -108.999 20.5c-60.667 0 -108.334 -13.5 -143.001 -40.5s-52 -64.5 -52 -112.5v-16
c0 -48.667 17.167 -86.5 51.5 -113.5s81.833 -40.5 142.5 -40.5c40.667 0 77.667 7 111 21z" />
    <glyph glyph-name="Emacron" unicode="&#x112;" horiz-adv-x="723" 
d="M650 656v-89h-458v-194h438v-89h-438v-195h458v-89h-558v656h558zM585 838v-82h-427v82h427z" />
    <glyph glyph-name="emacron" unicode="&#x113;" horiz-adv-x="671" 
d="M624 216l-477.002 0.000976562c3.33301 -43.333 22 -77.5 56 -102.5s79.333 -37.5 136 -37.5c52.667 0 95.5 8.83301 128.5 26.5s50.833 41.167 53.5 70.5h103c-5.33301 -58 -33.166 -103.333 -83.499 -136s-117.5 -49 -201.5 -49c-59.333 0 -111 10.167 -155 30.5
s-77.833 49.166 -101.5 86.499s-35.5 81 -35.5 131v21c0 50.667 11.833 94.834 35.5 132.501s57.5 66.667 101.5 87s95.667 30.5 155 30.5c88.667 0 158.334 -21.833 209.001 -65.5s76 -103.834 76 -180.501v-45zM209.498 386.501
c-33 -21.667 -53.167 -51.834 -60.5 -90.501h373c-6 38.667 -25 68.834 -57 90.501s-74 32.5 -126 32.5c-53.333 0 -96.5 -10.833 -129.5 -32.5zM549.998 677.001v-82h-427v82h427z" />
    <glyph glyph-name="Ebreve" unicode="&#x114;" horiz-adv-x="723" 
d="M650 656v-89h-458v-194h438v-89h-438v-195h458v-89h-558v656h558zM158 784v82c77.333 -37.333 149.333 -56 216 -56s137 18.667 211 56v-82c-72 -38 -142.333 -57 -211 -57c-68 0 -140 19 -216 57z" />
    <glyph glyph-name="ebreve" unicode="&#x115;" horiz-adv-x="671" 
d="M624 216l-477.002 0.000976562c3.33301 -43.333 22 -77.5 56 -102.5s79.333 -37.5 136 -37.5c52.667 0 95.5 8.83301 128.5 26.5s50.833 41.167 53.5 70.5h103c-5.33301 -58 -33.166 -103.333 -83.499 -136s-117.5 -49 -201.5 -49c-59.333 0 -111 10.167 -155 30.5
s-77.833 49.166 -101.5 86.499s-35.5 81 -35.5 131v21c0 50.667 11.833 94.834 35.5 132.501s57.5 66.667 101.5 87s95.667 30.5 155 30.5c88.667 0 158.334 -21.833 209.001 -65.5s76 -103.834 76 -180.501v-45zM209.498 386.501
c-33 -21.667 -53.167 -51.834 -60.5 -90.501h373c-6 38.667 -25 68.834 -57 90.501s-74 32.5 -126 32.5c-53.333 0 -96.5 -10.833 -129.5 -32.5zM122.998 623.001v82c77.333 -37.333 149.333 -56 216 -56s137 18.667 211 56v-82c-72 -38 -142.333 -57 -211 -57
c-68 0 -140 19 -216 57z" />
    <glyph glyph-name="Edotaccent" unicode="&#x116;" horiz-adv-x="723" 
d="M650 656v-89h-458v-194h438v-89h-438v-195h458v-89h-558v656h558zM324 752.5c-12 11.667 -18 26.834 -18 45.501c0 18 6 32.667 18 44s27.667 17 47 17s35 -5.66699 47 -17s18 -26 18 -44c0 -18.667 -6 -33.834 -18 -45.501s-27.667 -17.5 -47 -17.5
s-35 5.83301 -47 17.5z" />
    <glyph glyph-name="edotaccent" unicode="&#x117;" horiz-adv-x="671" 
d="M624 216l-477.002 0.000976562c3.33301 -43.333 22 -77.5 56 -102.5s79.333 -37.5 136 -37.5c52.667 0 95.5 8.83301 128.5 26.5s50.833 41.167 53.5 70.5h103c-5.33301 -58 -33.166 -103.333 -83.499 -136s-117.5 -49 -201.5 -49c-59.333 0 -111 10.167 -155 30.5
s-77.833 49.166 -101.5 86.499s-35.5 81 -35.5 131v21c0 50.667 11.833 94.834 35.5 132.501s57.5 66.667 101.5 87s95.667 30.5 155 30.5c88.667 0 158.334 -21.833 209.001 -65.5s76 -103.834 76 -180.501v-45zM209.498 386.501
c-33 -21.667 -53.167 -51.834 -60.5 -90.501h373c-6 38.667 -25 68.834 -57 90.501s-74 32.5 -126 32.5c-53.333 0 -96.5 -10.833 -129.5 -32.5zM288.998 591.501c-12 11.667 -18 26.834 -18 45.501c0 18 6 32.667 18 44s27.667 17 47 17s35 -5.66699 47 -17s18 -26 18 -44
c0 -18.667 -6 -33.834 -18 -45.501s-27.667 -17.5 -47 -17.5s-35 5.83301 -47 17.5z" />
    <glyph glyph-name="Eogonek" unicode="&#x118;" horiz-adv-x="723" 
d="M650 656v-89h-458v-194h438v-89h-438v-195h458v-89h-558v656h558zM459.5 -150c-18.333 13.333 -27.501 31.332 -27.501 53.999c0 19.333 5.83301 36.333 17.5 51s31.834 30.334 60.501 47.001l104 60l36 -62l-98 -49c-14.667 -8 -22 -16.333 -22 -25
c0 -11.333 8.66699 -17 26 -17h94v-79h-115c-32 0 -57.167 6.66699 -75.5 20z" />
    <glyph glyph-name="eogonek" unicode="&#x119;" horiz-adv-x="671" 
d="M624 216l-477.002 0.000976562c3.33301 -43.333 22 -77.5 56 -102.5s79.333 -37.5 136 -37.5c52.667 0 95.5 8.83301 128.5 26.5s50.833 41.167 53.5 70.5h103c-5.33301 -58 -33.166 -103.333 -83.499 -136s-117.5 -49 -201.5 -49c-59.333 0 -111 10.167 -155 30.5
s-77.833 49.166 -101.5 86.499s-35.5 81 -35.5 131v21c0 50.667 11.833 94.834 35.5 132.501s57.5 66.667 101.5 87s95.667 30.5 155 30.5c88.667 0 158.334 -21.833 209.001 -65.5s76 -103.834 76 -180.501v-45zM209.498 386.501
c-33 -21.667 -53.167 -51.834 -60.5 -90.501h373c-6 38.667 -25 68.834 -57 90.501s-74 32.5 -126 32.5c-53.333 0 -96.5 -10.833 -129.5 -32.5zM346.998 -145.499c-20.667 16.333 -30.999 37.499 -30.999 63.499c0 18.667 6.5 36.5 19.5 53.5s34.5 36.5 64.5 58.5l80 58
l68 -43l-93 -68c-12 -9.33301 -20.333 -16.666 -25 -21.999s-7 -11.333 -7 -18c0 -8 3.16699 -14.333 9.5 -19s14.833 -7 25.5 -7h81v-81h-112c-32.667 0 -59.334 8.16699 -80.001 24.5z" />
    <glyph glyph-name="Ecaron" unicode="&#x11a;" horiz-adv-x="723" 
d="M650 656v-89h-458v-194h438v-89h-438v-195h458v-89h-558v656h558zM158 880l213 -73l214 73v-85l-214 -72l-213 72v85z" />
    <glyph glyph-name="ecaron" unicode="&#x11b;" horiz-adv-x="671" 
d="M624 216l-477.002 0.000976562c3.33301 -43.333 22 -77.5 56 -102.5s79.333 -37.5 136 -37.5c52.667 0 95.5 8.83301 128.5 26.5s50.833 41.167 53.5 70.5h103c-5.33301 -58 -33.166 -103.333 -83.499 -136s-117.5 -49 -201.5 -49c-59.333 0 -111 10.167 -155 30.5
s-77.833 49.166 -101.5 86.499s-35.5 81 -35.5 131v21c0 50.667 11.833 94.834 35.5 132.501s57.5 66.667 101.5 87s95.667 30.5 155 30.5c88.667 0 158.334 -21.833 209.001 -65.5s76 -103.834 76 -180.501v-45zM209.498 386.501
c-33 -21.667 -53.167 -51.834 -60.5 -90.501h373c-6 38.667 -25 68.834 -57 90.501s-74 32.5 -126 32.5c-53.333 0 -96.5 -10.833 -129.5 -32.5zM122.998 719.001l213 -73l214 73v-85l-214 -72l-213 72v85z" />
    <glyph glyph-name="Gcircumflex" unicode="&#x11c;" horiz-adv-x="879" 
d="M711 423l0.000976562 6.00195c0 26.667 -11.5 51.167 -34.5 73.5s-54.5 40 -94.5 53s-84 19.5 -132 19.5c-89.333 0 -159.166 -21 -209.499 -63s-75.5 -100.333 -75.5 -175v-19c0 -76.667 24.667 -135.334 74 -176.001s119.666 -61 210.999 -61
c113.333 0 201 32.667 263 98v76h-347v90h446v-345h-90l-5 80c-65.333 -61.333 -155 -92 -269 -92c-78.667 0 -146.834 13.333 -204.501 40s-102 65 -133 115s-46.5 108.667 -46.5 176v17c0 66 15.833 124.167 47.5 174.5s76.5 89.166 134.5 116.499s125.667 41 203 41
c70.667 0 133.5 -10 188.5 -30s97.833 -48.167 128.5 -84.5s46 -77.833 46 -124.5v-6h-101zM447.001 880.002l214 -73v-84l-214 72l-213 -72v84z" />
    <glyph glyph-name="gcircumflex" unicode="&#x11d;" horiz-adv-x="709" 
d="M624 495l0.00390625 -453.001c0 -73.333 -24.167 -129 -72.5 -167s-118.833 -57 -211.5 -57c-60 0 -111.833 7.5 -155.5 22.5s-77.334 36.667 -101.001 65s-35.5 61.5 -35.5 99.5v8h98v-8c0 -29.333 17.667 -53.166 53 -71.499s81 -27.5 137 -27.5
c61.333 0 108.666 11.5 141.999 34.5s50 55.833 50 98.5v49c-26 -20.667 -55.5 -36.834 -88.5 -48.501s-67.167 -17.5 -102.5 -17.5c-92.667 0 -164.334 20.167 -215.001 60.5s-76 97.5 -76 171.5v16c0 74.667 25.667 132.834 77 174.501s122.666 62.5 213.999 62.5
c78.667 0 143.667 -22.667 195 -68l3 56h89zM449.504 130.499c33.667 14.333 59.833 33.501 78.5 57.501v151c-18.667 24 -45 43.5 -79 58.5s-70.667 22.5 -110 22.5c-62.667 0 -110.667 -12.833 -144 -38.5s-50 -62.834 -50 -111.501v-16c0 -96.667 64.667 -145 194 -145
c40 0 76.833 7.16699 110.5 21.5zM346.003 719l214 -73v-84l-214 72l-213 -72v84z" />
    <glyph glyph-name="Gbreve" unicode="&#x11e;" horiz-adv-x="879" 
d="M711 423l0.000976562 6.00195c0 26.667 -11.5 51.167 -34.5 73.5s-54.5 40 -94.5 53s-84 19.5 -132 19.5c-89.333 0 -159.166 -21 -209.499 -63s-75.5 -100.333 -75.5 -175v-19c0 -76.667 24.667 -135.334 74 -176.001s119.666 -61 210.999 -61
c113.333 0 201 32.667 263 98v76h-347v90h446v-345h-90l-5 80c-65.333 -61.333 -155 -92 -269 -92c-78.667 0 -146.834 13.333 -204.501 40s-102 65 -133 115s-46.5 108.667 -46.5 176v17c0 66 15.833 124.167 47.5 174.5s76.5 89.166 134.5 116.499s125.667 41 203 41
c70.667 0 133.5 -10 188.5 -30s97.833 -48.167 128.5 -84.5s46 -77.833 46 -124.5v-6h-101zM234.001 784.002v82c77.333 -37.333 149.333 -56 216 -56s137 18.667 211 56v-82c-72 -38 -142.333 -57 -211 -57c-68 0 -140 19 -216 57z" />
    <glyph glyph-name="gbreve" unicode="&#x11f;" horiz-adv-x="709" 
d="M624 495l0.00390625 -453.001c0 -73.333 -24.167 -129 -72.5 -167s-118.833 -57 -211.5 -57c-60 0 -111.833 7.5 -155.5 22.5s-77.334 36.667 -101.001 65s-35.5 61.5 -35.5 99.5v8h98v-8c0 -29.333 17.667 -53.166 53 -71.499s81 -27.5 137 -27.5
c61.333 0 108.666 11.5 141.999 34.5s50 55.833 50 98.5v49c-26 -20.667 -55.5 -36.834 -88.5 -48.501s-67.167 -17.5 -102.5 -17.5c-92.667 0 -164.334 20.167 -215.001 60.5s-76 97.5 -76 171.5v16c0 74.667 25.667 132.834 77 174.501s122.666 62.5 213.999 62.5
c78.667 0 143.667 -22.667 195 -68l3 56h89zM449.504 130.499c33.667 14.333 59.833 33.501 78.5 57.501v151c-18.667 24 -45 43.5 -79 58.5s-70.667 22.5 -110 22.5c-62.667 0 -110.667 -12.833 -144 -38.5s-50 -62.834 -50 -111.501v-16c0 -96.667 64.667 -145 194 -145
c40 0 76.833 7.16699 110.5 21.5zM133.003 623v82c77.333 -37.333 149.333 -56 216 -56s137 18.667 211 56v-82c-72 -38 -142.333 -57 -211 -57c-68 0 -140 19 -216 57z" />
    <glyph glyph-name="Gdotaccent" unicode="&#x120;" horiz-adv-x="879" 
d="M711 423l0.000976562 6.00195c0 26.667 -11.5 51.167 -34.5 73.5s-54.5 40 -94.5 53s-84 19.5 -132 19.5c-89.333 0 -159.166 -21 -209.499 -63s-75.5 -100.333 -75.5 -175v-19c0 -76.667 24.667 -135.334 74 -176.001s119.666 -61 210.999 -61
c113.333 0 201 32.667 263 98v76h-347v90h446v-345h-90l-5 80c-65.333 -61.333 -155 -92 -269 -92c-78.667 0 -146.834 13.333 -204.501 40s-102 65 -133 115s-46.5 108.667 -46.5 176v17c0 66 15.833 124.167 47.5 174.5s76.5 89.166 134.5 116.499s125.667 41 203 41
c70.667 0 133.5 -10 188.5 -30s97.833 -48.167 128.5 -84.5s46 -77.833 46 -124.5v-6h-101zM400.001 752.502c-12 11.667 -18 26.834 -18 45.501c0 18 6 32.667 18 44s27.667 17 47 17s35 -5.66699 47 -17s18 -26 18 -44c0 -18.667 -6 -33.834 -18 -45.501
s-27.667 -17.5 -47 -17.5s-35 5.83301 -47 17.5z" />
    <glyph glyph-name="gdotaccent" unicode="&#x121;" horiz-adv-x="709" 
d="M624 495l0.00390625 -453.001c0 -73.333 -24.167 -129 -72.5 -167s-118.833 -57 -211.5 -57c-60 0 -111.833 7.5 -155.5 22.5s-77.334 36.667 -101.001 65s-35.5 61.5 -35.5 99.5v8h98v-8c0 -29.333 17.667 -53.166 53 -71.499s81 -27.5 137 -27.5
c61.333 0 108.666 11.5 141.999 34.5s50 55.833 50 98.5v49c-26 -20.667 -55.5 -36.834 -88.5 -48.501s-67.167 -17.5 -102.5 -17.5c-92.667 0 -164.334 20.167 -215.001 60.5s-76 97.5 -76 171.5v16c0 74.667 25.667 132.834 77 174.501s122.666 62.5 213.999 62.5
c78.667 0 143.667 -22.667 195 -68l3 56h89zM449.504 130.499c33.667 14.333 59.833 33.501 78.5 57.501v151c-18.667 24 -45 43.5 -79 58.5s-70.667 22.5 -110 22.5c-62.667 0 -110.667 -12.833 -144 -38.5s-50 -62.834 -50 -111.501v-16c0 -96.667 64.667 -145 194 -145
c40 0 76.833 7.16699 110.5 21.5zM299.003 591.5c-12 11.667 -18 26.834 -18 45.501c0 18 6 32.667 18 44s27.667 17 47 17s35 -5.66699 47 -17s18 -26 18 -44c0 -18.667 -6 -33.834 -18 -45.501s-27.667 -17.5 -47 -17.5s-35 5.83301 -47 17.5z" />
    <glyph glyph-name="uni0122" unicode="&#x122;" horiz-adv-x="879" 
d="M711 423l0.000976562 6.00195c0 26.667 -11.5 51.167 -34.5 73.5s-54.5 40 -94.5 53s-84 19.5 -132 19.5c-89.333 0 -159.166 -21 -209.499 -63s-75.5 -100.333 -75.5 -175v-19c0 -76.667 24.667 -135.334 74 -176.001s119.666 -61 210.999 -61
c113.333 0 201 32.667 263 98v76h-347v90h446v-345h-90l-5 80c-65.333 -61.333 -155 -92 -269 -92c-78.667 0 -146.834 13.333 -204.501 40s-102 65 -133 115s-46.5 108.667 -46.5 176v17c0 66 15.833 124.167 47.5 174.5s76.5 89.166 134.5 116.499s125.667 41 203 41
c70.667 0 133.5 -10 188.5 -30s97.833 -48.167 128.5 -84.5s46 -77.833 46 -124.5v-6h-101zM496.001 -57.998l-59 -167h-102l54 167h107z" />
    <glyph glyph-name="uni0123" unicode="&#x123;" horiz-adv-x="709" 
d="M624 495l0.00390625 -453.001c0 -73.333 -24.167 -129 -72.5 -167s-118.833 -57 -211.5 -57c-60 0 -111.833 7.5 -155.5 22.5s-77.334 36.667 -101.001 65s-35.5 61.5 -35.5 99.5v8h98v-8c0 -29.333 17.667 -53.166 53 -71.499s81 -27.5 137 -27.5
c61.333 0 108.666 11.5 141.999 34.5s50 55.833 50 98.5v49c-26 -20.667 -55.5 -36.834 -88.5 -48.501s-67.167 -17.5 -102.5 -17.5c-92.667 0 -164.334 20.167 -215.001 60.5s-76 97.5 -76 171.5v16c0 74.667 25.667 132.834 77 174.501s122.666 62.5 213.999 62.5
c78.667 0 143.667 -22.667 195 -68l3 56h89zM449.504 130.499c33.667 14.333 59.833 33.501 78.5 57.501v151c-18.667 24 -45 43.5 -79 58.5s-70.667 22.5 -110 22.5c-62.667 0 -110.667 -12.833 -144 -38.5s-50 -62.834 -50 -111.501v-16c0 -96.667 64.667 -145 194 -145
c40 0 76.833 7.16699 110.5 21.5zM434.003 723l-50 -166h-106l54 166h102z" />
    <glyph glyph-name="Hcircumflex" unicode="&#x124;" horiz-adv-x="819" 
d="M192 656v-283h435v283h100v-656h-100v283h-435v-283h-100v656h100zM410 880l214 -73v-84l-214 72l-213 -72v84z" />
    <glyph glyph-name="hcircumflex" unicode="&#x125;" horiz-adv-x="711" 
d="M566 442.5c44.667 -43 66.999 -106.167 66.999 -189.5v-253h-95v253c0 54 -15.167 95.167 -45.5 123.5s-74.166 42.5 -131.499 42.5c-38.667 0 -74.167 -9 -106.5 -27s-56.833 -42.333 -73.5 -73v-319h-96v696h96v-263c24.667 24 53.167 42.333 85.5 55
s66.833 19 103.5 19c86 0 151.333 -21.5 196 -64.5zM132.999 890l214 -73v-84l-214 72l-213 -72v84z" />
    <glyph glyph-name="Hbar" unicode="&#x126;" horiz-adv-x="819" 
d="M812 450h-85v-450h-100v257h-435v-257h-100v450h-85v87h85v119h100v-119h435v119h100v-119h85v-87zM627 450h-435v-107h435v107z" />
    <glyph glyph-name="hbar" unicode="&#x127;" horiz-adv-x="737" 
d="M592 420.5c44.667 -43 66.999 -106.167 66.999 -189.5v-231h-95v231c0 54 -15.167 95.167 -45.5 123.5s-74.166 42.5 -131.499 42.5c-38.667 0 -74.167 -9 -106.5 -27s-56.833 -42 -73.5 -72v-298h-96v560h-120v83h120v53h96v-53h229v-83h-229v-149
c24.667 24 53.167 42.333 85.5 55s66.833 19 103.5 19c86 0 151.333 -21.5 196 -64.5z" />
    <glyph glyph-name="Itilde" unicode="&#x128;" horiz-adv-x="299" 
d="M199 656v-656h-99v656h99zM183 744c-9.33301 2.66699 -21.667 7 -37 13c-14.667 5.33301 -26.334 9.33301 -35.001 12s-17.667 4 -27 4c-25.333 0 -50.666 -8 -75.999 -24v81c26 16.667 52 25 78 25c10 0 19.5 -1.33301 28.5 -4s20.167 -7 33.5 -13
c14 -6 25.833 -10.5 35.5 -13.5s20.167 -4.5 31.5 -4.5c24 0 49.667 7 77 21v-81c-24 -13.333 -50.333 -20 -79 -20c-10.667 0 -20.667 1.33301 -30 4z" />
    <glyph glyph-name="itilde" unicode="&#x129;" horiz-adv-x="286" 
d="M191 495v-495h-96v495h96zM176 583c-9.33301 2.66699 -21.667 7 -37 13c-14.667 5.33301 -26.334 9.33301 -35.001 12s-17.667 4 -27 4c-25.333 0 -50.666 -8 -75.999 -24v81c26 16.667 52 25 78 25c10 0 19.5 -1.33301 28.5 -4s20.167 -7 33.5 -13
c14 -6 25.833 -10.5 35.5 -13.5s20.167 -4.5 31.5 -4.5c24 0 49.667 7 77 21v-81c-24 -13.333 -50.333 -20 -79 -20c-10.667 0 -20.667 1.33301 -30 4z" />
    <glyph glyph-name="Imacron" unicode="&#x12a;" horiz-adv-x="299" 
d="M199 656v-656h-99v656h99zM292 838v-82h-284v82h284z" />
    <glyph glyph-name="imacron" unicode="&#x12b;" horiz-adv-x="286" 
d="M191 495v-495h-96v495h96zM285 677v-82h-284v82h284z" />
    <glyph glyph-name="Ibreve" unicode="&#x12c;" horiz-adv-x="299" 
d="M199 656v-656h-99v656h99zM9 783l-0.000976562 83c42.667 -36.667 90.334 -55 143.001 -55s99.334 18.333 140.001 55v-83c-38.667 -36 -85.334 -54 -140.001 -54c-53.333 0 -101 18 -143 54z" />
    <glyph glyph-name="ibreve" unicode="&#x12d;" horiz-adv-x="286" 
d="M191 495v-495h-96v495h96zM2 622l-0.000976562 83c42.667 -36.667 90.334 -55 143.001 -55s99.334 18.333 140.001 55v-83c-38.667 -36 -85.334 -54 -140.001 -54c-53.333 0 -101 18 -143 54z" />
    <glyph glyph-name="Iogonek" unicode="&#x12e;" horiz-adv-x="299" 
d="M199 656v-656h-99v656h99zM8.5 -150c-18.333 13.333 -27.501 31.332 -27.501 53.999c0 19.333 5.83301 36.333 17.5 51s31.834 30.334 60.501 47.001l104 60l36 -62l-98 -49c-14.667 -8 -22 -16.333 -22 -25c0 -11.333 8.66699 -17 26 -17h94v-79h-115
c-32 0 -57.167 6.66699 -75.5 20z" />
    <glyph glyph-name="iogonek" unicode="&#x12f;" horiz-adv-x="286" 
d="M191 495v-495h-96v495h96zM96 591.5c-12 11.667 -18 26.834 -18 45.501c0 18 6 32.667 18 44s27.667 17 47 17s35 -5.66699 47 -17s18 -26 18 -44c0 -18.667 -6 -33.834 -18 -45.501s-27.667 -17.5 -47 -17.5s-35 5.83301 -47 17.5zM0.5 -150
c-18.333 13.333 -27.501 31.332 -27.501 53.999c0 19.333 5.83301 36.333 17.5 51s31.834 30.334 60.501 47.001l104 60l36 -62l-98 -49c-14.667 -8 -22 -16.333 -22 -25c0 -11.333 8.66699 -17 26 -17h94v-79h-115c-32 0 -57.167 6.66699 -75.5 20z" />
    <glyph glyph-name="Idotaccent" unicode="&#x130;" horiz-adv-x="299" 
d="M199 656v-656h-99v656h99zM103 752.5c-12 11.667 -18 26.834 -18 45.501c0 18 6 32.667 18 44s27.667 17 47 17s35 -5.66699 47 -17s18 -26 18 -44c0 -18.667 -6 -33.834 -18 -45.501s-27.667 -17.5 -47 -17.5s-35 5.83301 -47 17.5z" />
    <glyph glyph-name="dotlessi" unicode="&#x131;" horiz-adv-x="286" 
d="M191 495v-495h-96v495h96z" />
    <glyph glyph-name="IJ" unicode="&#x132;" horiz-adv-x="841" 
d="M192 656v-656h-100v656h100zM452 92c65.333 0 116.167 16.334 152.5 49.001s54.5 78.667 54.5 138v288h-326v89h426v-376c0 -56.667 -12.5 -105.834 -37.5 -147.501s-60.667 -74 -107 -97s-100.5 -34.5 -162.5 -34.5l-119 -1v92h119z" />
    <glyph glyph-name="ij" unicode="&#x133;" horiz-adv-x="572" 
d="M191 495v-495h-96v495h96zM96 591.5c-12 11.667 -18 26.834 -18 45.501c0 18 6 32.667 18 44s27.667 17 47 17s35 -5.66699 47 -17s18 -26 18 -44c0 -18.667 -6 -33.834 -18 -45.501s-27.667 -17.5 -47 -17.5s-35 5.83301 -47 17.5zM298 -85c55.333 0 83 28.333 83 85
v495h96v-498c0 -52 -15.667 -92.833 -47 -122.5s-74.333 -44.5 -129 -44.5h-97v85h94zM382 591.5c-12 11.667 -18 26.834 -18 45.501c0 18 6 32.667 18 44s27.667 17 47 17s35 -5.66699 47 -17s18 -26 18 -44c0 -18.667 -6 -33.834 -18 -45.501s-27.667 -17.5 -47 -17.5
s-35 5.83301 -47 17.5z" />
    <glyph glyph-name="Jcircumflex" unicode="&#x134;" horiz-adv-x="749" 
d="M198 22.5c-46 23 -81.498 55.668 -106.498 98.001s-37.5 91.833 -37.5 148.5v44h99v-44c0 -58 18.667 -103.833 56 -137.5s87.666 -50.5 150.999 -50.5c65.333 0 116.166 16.333 152.499 49s54.5 78.667 54.5 138v299h-329v89h429v-386
c0 -56.667 -12.5 -106.334 -37.5 -149.001s-60.667 -75.5 -107 -98.5s-100.5 -34.5 -162.5 -34.5s-116 11.5 -162 34.5zM440.002 880.001l214 -73v-84l-214 72l-213 -72v84z" />
    <glyph glyph-name="jcircumflex" unicode="&#x135;" horiz-adv-x="286" 
d="M12 -85c55.333 0 83 28.333 83 85v495h96v-498c0 -52 -15.667 -92.833 -47 -122.5s-74.333 -44.5 -129 -44.5h-97v85h94zM143 710l142 -44v-86l-142 45l-142 -45v86z" />
    <glyph glyph-name="uni0136" unicode="&#x136;" horiz-adv-x="813" 
d="M751 641l-336 -276l326 -350v-15h-121l-283 302l-145 -116v-186h-100v656h100v-346l426 346h133v-15zM447 -58l-59 -167h-102l54 167h107z" />
    <glyph glyph-name="uni0137" unicode="&#x137;" horiz-adv-x="681" 
d="M655 14v-14h-119l-221 223l-134 -105v-118h-96v696h96v-461l336 260h125v-14l-253 -200zM380 -58l-59 -167h-102l54 167h107z" />
    <glyph glyph-name="Lacute" unicode="&#x139;" horiz-adv-x="687" 
d="M192 656v-567h483v-89h-583v656h100zM356 880v-82l-427 -75v82z" />
    <glyph glyph-name="lacute" unicode="&#x13a;" horiz-adv-x="319" 
d="M132.5 33.5c-25 22.333 -37.501 55.168 -37.501 98.501v564h96v-548c0 -22.667 5.33301 -38.834 16 -48.501s28.334 -14.5 53.001 -14.5h43v-85h-60c-48.667 0 -85.5 11.167 -110.5 33.5zM284.999 877.002v-82l-284 -49v82z" />
    <glyph glyph-name="uni013B" unicode="&#x13b;" horiz-adv-x="687" 
d="M192 656v-567h483v-89h-583v656h100zM391 -58l-59 -167h-102l54 167h107z" />
    <glyph glyph-name="uni013C" unicode="&#x13c;" horiz-adv-x="319" 
d="M132.5 33.5c-25 22.333 -37.501 55.168 -37.501 98.501v564h96v-548c0 -22.667 5.33301 -38.834 16 -48.501s28.334 -14.5 53.001 -14.5h43v-85h-60c-48.667 0 -85.5 11.167 -110.5 33.5zM291.999 -57.998l-59 -167h-102l54 167h107z" />
    <glyph glyph-name="Lcaron" unicode="&#x13d;" horiz-adv-x="687" 
d="M192 656v-567h483v-89h-583v656h100zM544 656l-53 -183h-94l29 183h118z" />
    <glyph glyph-name="lcaron" unicode="&#x13e;" horiz-adv-x="509" 
d="M132.5 33.5c-25 22.333 -37.501 55.168 -37.501 98.501v564h96v-548c0 -22.667 5.33301 -38.834 16 -48.501s28.334 -14.5 53.001 -14.5h43v-85h-60c-48.667 0 -85.5 11.167 -110.5 33.5zM457.999 696.002l-53 -183h-94l29 183h118z" />
    <glyph glyph-name="Ldot" unicode="&#x13f;" horiz-adv-x="687" 
d="M192 656v-567h483v-89h-583v656h100zM441 317c-11.333 11.333 -17 25.666 -17 42.999s5.66699 31.666 17 42.999s26 17 44 17s32.667 -5.66699 44 -17s17 -25.666 17 -42.999s-5.66699 -31.666 -17 -42.999s-26 -17 -44 -17s-32.667 5.66699 -44 17z" />
    <glyph glyph-name="ldot" unicode="&#x140;" horiz-adv-x="407" 
d="M132.5 33.5c-25 22.333 -37.501 55.168 -37.501 98.501v564h96v-548c0 -22.667 5.33301 -38.834 16 -48.501s28.334 -14.5 53.001 -14.5h43v-85h-60c-48.667 0 -85.5 11.167 -110.5 33.5zM303.499 270.502c-11.667 11 -17.5 25.167 -17.5 42.5c0 18 5.66699 32.5 17 43.5
s26 16.5 44 16.5s32.667 -5.5 44 -16.5s17 -25.5 17 -43.5c0 -17.333 -5.66699 -31.5 -17 -42.5s-26 -16.5 -44 -16.5c-17.333 0 -31.833 5.5 -43.5 16.5z" />
    <glyph glyph-name="Lslash" unicode="&#x141;" horiz-adv-x="720" 
d="M708 89v-89h-583v289l-120 -26v88l120 26v279h100v-262l292 63v-88l-292 -63v-217h483z" />
    <glyph glyph-name="lslash" unicode="&#x142;" horiz-adv-x="398" 
d="M216 341v-192.998c0 -22.667 5.33301 -38.834 16 -48.501s28.667 -14.5 54 -14.5h42v-85h-60c-48.667 0 -85.5 11.167 -110.5 33.5s-37.5 55.166 -37.5 98.499v194l-115 -25v84l115 25v286h96v-270l149 33v-85z" />
    <glyph glyph-name="Nacute" unicode="&#x143;" horiz-adv-x="819" 
d="M727 656v-656h-98l-440 517v-517h-97v656h98l440 -516v516h97zM624 880v-82l-427 -75v82z" />
    <glyph glyph-name="nacute" unicode="&#x144;" horiz-adv-x="711" 
d="M566.5 442.5c44.333 -43 66.498 -106.166 66.498 -189.499v-253h-95v253c0 54 -15.167 95.167 -45.5 123.5s-74.166 42.5 -131.499 42.5c-39.333 0 -75.166 -9 -107.499 -27s-56.5 -42 -72.5 -72v-320h-96v495h89l4 -64c49.333 49.333 113.333 74.666 192 75.999
c86.667 0 152.167 -21.5 196.5 -64.5zM574.998 719.001v-82l-427 -75v82z" />
    <glyph glyph-name="uni0145" unicode="&#x145;" horiz-adv-x="819" 
d="M727 656v-656h-98l-440 517v-517h-97v656h98l440 -516v516h97zM459 -58l-59 -167h-102l54 167h107z" />
    <glyph glyph-name="uni0146" unicode="&#x146;" horiz-adv-x="711" 
d="M566.5 442.5c44.333 -43 66.498 -106.166 66.498 -189.499v-253h-95v253c0 54 -15.167 95.167 -45.5 123.5s-74.166 42.5 -131.499 42.5c-39.333 0 -75.166 -9 -107.499 -27s-56.5 -42 -72.5 -72v-320h-96v495h89l4 -64c49.333 49.333 113.333 74.666 192 75.999
c86.667 0 152.167 -21.5 196.5 -64.5zM409.998 -57.999l-59 -167h-102l54 167h107z" />
    <glyph glyph-name="Ncaron" unicode="&#x147;" horiz-adv-x="819" 
d="M727 656v-656h-98l-440 517v-517h-97v656h98l440 -516v516h97zM197 880l213 -73l214 73v-85l-214 -72l-213 72v85z" />
    <glyph glyph-name="ncaron" unicode="&#x148;" horiz-adv-x="711" 
d="M566.5 442.5c44.333 -43 66.498 -106.166 66.498 -189.499v-253h-95v253c0 54 -15.167 95.167 -45.5 123.5s-74.166 42.5 -131.499 42.5c-39.333 0 -75.166 -9 -107.499 -27s-56.5 -42 -72.5 -72v-320h-96v495h89l4 -64c49.333 49.333 113.333 74.666 192 75.999
c86.667 0 152.167 -21.5 196.5 -64.5zM147.998 719.001l213 -73l214 73v-85l-214 -72l-213 72v85z" />
    <glyph glyph-name="Eng" unicode="&#x14a;" horiz-adv-x="819" 
d="M727 656l0.000976562 -586c0 -160 -78.333 -240 -235 -240h-57v89h53c38.667 0 69.167 7.66699 91.5 23s37.166 39 44.499 71l-435 505v-518h-97v656h98l440 -509v509h97z" />
    <glyph glyph-name="eng" unicode="&#x14b;" horiz-adv-x="711" 
d="M566.5 442.5c44.333 -43 66.498 -106.166 66.498 -189.499v-183c0 -160 -80 -240 -240 -240h-52v85h51c49.333 0 86 12.833 110 38.5s36 65.167 36 118.5v181c0 54 -15.167 95.167 -45.5 123.5s-74.166 42.5 -131.499 42.5c-39.333 0 -75.166 -9 -107.499 -27
s-56.5 -42 -72.5 -72v-320h-96v495h89l4 -64c49.333 49.333 113.333 74.666 192 75.999c86.667 0 152.167 -21.5 196.5 -64.5z" />
    <glyph glyph-name="Omacron" unicode="&#x14c;" horiz-adv-x="877" 
d="M241 29c-56.667 27.333 -100.334 66 -131.001 116s-46 108.667 -46 176v13c0 67.333 15.333 126.166 46 176.499s74.334 89.166 131.001 116.499s122.667 41 198 41s141.166 -13.667 197.499 -41s99.833 -66.166 130.5 -116.499s46 -109.166 46 -176.499v-13
c0 -67.333 -15.333 -126 -46 -176s-74.167 -88.667 -130.5 -116s-122.166 -41 -197.499 -41s-141.333 13.667 -198 41zM640 144c48 42 72 100.333 72 175v16c0 75.333 -24 134.166 -72 176.499s-115 63.5 -201 63.5s-153.167 -21.167 -201.5 -63.5
s-72.5 -101.166 -72.5 -176.499v-16c0 -74.667 24.167 -133 72.5 -175s115.5 -63 201.5 -63s153 21 201 63zM654 838v-82h-427v82h427z" />
    <glyph glyph-name="omacron" unicode="&#x14d;" horiz-adv-x="685" 
d="M186 18.5c-44.667 20.333 -79 49.333 -103 87s-36 81.834 -36 132.501v17c0 51.333 12 96 36 134s58.333 67.167 103 87.5s97.334 30.5 158.001 30.5c60 0 112.167 -10.167 156.5 -30.5s78.333 -49.5 102 -87.5s35.5 -82.667 35.5 -134v-17
c0 -50.667 -11.833 -94.834 -35.5 -132.501s-57.667 -66.667 -102 -87s-96.5 -30.5 -156.5 -30.5c-60.667 0 -113.334 10.167 -158.001 30.5zM487 119c34.667 28.667 52 68.334 52 119.001v17c0 51.333 -17.333 91.5 -52 120.5s-82.667 43.5 -144 43.5
c-62.667 0 -111.167 -14.333 -145.5 -43s-51.5 -69 -51.5 -121v-17c0 -50.667 17.5 -90.334 52.5 -119.001s83.167 -43 144.5 -43s109.333 14.333 144 43zM557 677v-82h-427v82h427z" />
    <glyph glyph-name="Obreve" unicode="&#x14e;" horiz-adv-x="877" 
d="M241 29c-56.667 27.333 -100.334 66 -131.001 116s-46 108.667 -46 176v13c0 67.333 15.333 126.166 46 176.499s74.334 89.166 131.001 116.499s122.667 41 198 41s141.166 -13.667 197.499 -41s99.833 -66.166 130.5 -116.499s46 -109.166 46 -176.499v-13
c0 -67.333 -15.333 -126 -46 -176s-74.167 -88.667 -130.5 -116s-122.166 -41 -197.499 -41s-141.333 13.667 -198 41zM640 144c48 42 72 100.333 72 175v16c0 75.333 -24 134.166 -72 176.499s-115 63.5 -201 63.5s-153.167 -21.167 -201.5 -63.5
s-72.5 -101.166 -72.5 -176.499v-16c0 -74.667 24.167 -133 72.5 -175s115.5 -63 201.5 -63s153 21 201 63zM227 784v82c77.333 -37.333 149.333 -56 216 -56s137 18.667 211 56v-82c-72 -38 -142.333 -57 -211 -57c-68 0 -140 19 -216 57z" />
    <glyph glyph-name="obreve" unicode="&#x14f;" horiz-adv-x="685" 
d="M186 18.5c-44.667 20.333 -79 49.333 -103 87s-36 81.834 -36 132.501v17c0 51.333 12 96 36 134s58.333 67.167 103 87.5s97.334 30.5 158.001 30.5c60 0 112.167 -10.167 156.5 -30.5s78.333 -49.5 102 -87.5s35.5 -82.667 35.5 -134v-17
c0 -50.667 -11.833 -94.834 -35.5 -132.501s-57.667 -66.667 -102 -87s-96.5 -30.5 -156.5 -30.5c-60.667 0 -113.334 10.167 -158.001 30.5zM487 119c34.667 28.667 52 68.334 52 119.001v17c0 51.333 -17.333 91.5 -52 120.5s-82.667 43.5 -144 43.5
c-62.667 0 -111.167 -14.333 -145.5 -43s-51.5 -69 -51.5 -121v-17c0 -50.667 17.5 -90.334 52.5 -119.001s83.167 -43 144.5 -43s109.333 14.333 144 43zM130 623v82c77.333 -37.333 149.333 -56 216 -56s137 18.667 211 56v-82c-72 -38 -142.333 -57 -211 -57
c-68 0 -140 19 -216 57z" />
    <glyph glyph-name="Ohungarumlaut" unicode="&#x150;" horiz-adv-x="877" 
d="M241 29c-56.667 27.333 -100.334 66 -131.001 116s-46 108.667 -46 176v13c0 67.333 15.333 126.166 46 176.499s74.334 89.166 131.001 116.499s122.667 41 198 41s141.166 -13.667 197.499 -41s99.833 -66.166 130.5 -116.499s46 -109.166 46 -176.499v-13
c0 -67.333 -15.333 -126 -46 -176s-74.167 -88.667 -130.5 -116s-122.166 -41 -197.499 -41s-141.333 13.667 -198 41zM640 144c48 42 72 100.333 72 175v16c0 75.333 -24 134.166 -72 176.499s-115 63.5 -201 63.5s-153.167 -21.167 -201.5 -63.5
s-72.5 -101.166 -72.5 -176.499v-16c0 -74.667 24.167 -133 72.5 -175s115.5 -63 201.5 -63s153 21 201 63zM478 880v-85l-268 -72v84zM763 880v-85l-265 -72v84z" />
    <glyph glyph-name="ohungarumlaut" unicode="&#x151;" horiz-adv-x="685" 
d="M186 18.5c-44.667 20.333 -79 49.333 -103 87s-36 81.834 -36 132.501v17c0 51.333 12 96 36 134s58.333 67.167 103 87.5s97.334 30.5 158.001 30.5c60 0 112.167 -10.167 156.5 -30.5s78.333 -49.5 102 -87.5s35.5 -82.667 35.5 -134v-17
c0 -50.667 -11.833 -94.834 -35.5 -132.501s-57.667 -66.667 -102 -87s-96.5 -30.5 -156.5 -30.5c-60.667 0 -113.334 10.167 -158.001 30.5zM487 119c34.667 28.667 52 68.334 52 119.001v17c0 51.333 -17.333 91.5 -52 120.5s-82.667 43.5 -144 43.5
c-62.667 0 -111.167 -14.333 -145.5 -43s-51.5 -69 -51.5 -121v-17c0 -50.667 17.5 -90.334 52.5 -119.001s83.167 -43 144.5 -43s109.333 14.333 144 43zM381 719v-85l-268 -72v84zM666 719v-85l-265 -72v84z" />
    <glyph glyph-name="OE" unicode="&#x152;" horiz-adv-x="1263" 
d="M156.5 81.5c-61.667 54.333 -92.5 133.834 -92.5 238.501v15c0 105.333 30.833 185.166 92.5 239.499s151.834 81.5 270.501 81.5h763v-89h-463v-194h428v-89h-428v-195h463v-89h-763c-118.667 0 -208.834 27.167 -270.501 81.5zM627 567.001l-200 -0.000976562
c-86 0 -151.167 -19.667 -195.5 -59s-66.5 -96.666 -66.5 -171.999v-17c0 -76 22 -133.333 66 -172s109.333 -58 196 -58h200v478z" />
    <glyph glyph-name="oe" unicode="&#x153;" horiz-adv-x="1114" 
d="M1067 216l-454.004 -0.00195312c2 -44 19 -78.5 51 -103.5s75.667 -37.5 131 -37.5c48 0 87.5 9 118.5 27s47.833 41.667 50.5 71h103c-2.66699 -36.667 -15.667 -69 -39 -97s-54.666 -49.667 -93.999 -65s-84 -23 -134 -23c-54 0 -101.333 9.16699 -142 27.5
s-72.334 44.5 -95.001 78.5c-23.333 -34 -55 -60.167 -95 -78.5s-86.333 -27.5 -139 -27.5c-56.667 0 -106.167 10.333 -148.5 31s-75.166 49.834 -98.499 87.501s-35 81.5 -35 131.5v17c0 50.667 11.5 95 34.5 133s55.833 67.333 98.5 88s92.334 31 149.001 31
c52.667 0 99.167 -9.33301 139.5 -28s71.833 -45 94.5 -79c22.667 34 54.334 60.333 95.001 79s87.334 28 140.001 28c54 0 101.333 -10 142 -30s72 -48.667 94 -86s33 -80.666 33 -129.999v-45zM668.996 386.998c-30.667 -22 -48.667 -52.333 -54 -91h350
c-6 38.667 -24.5 69 -55.5 91s-71.167 33 -120.5 33s-89.333 -11 -120 -33zM513.996 257.998c0 49.333 -16.333 88.5 -49 117.5s-76.667 43.5 -132 43.5c-58.667 0 -104.5 -14.667 -137.5 -44s-49.5 -70 -49.5 -122v-14c0 -50.667 16.667 -90.5 50 -119.5
s79 -43.5 137 -43.5c55.333 0 99.333 14.167 132 42.5s49 66.833 49 115.5v24z" />
    <glyph glyph-name="Racute" unicode="&#x154;" horiz-adv-x="806" 
d="M675.5 313c-39 -34 -92.5 -52.667 -160.5 -56l216 -242v-15h-114l-231 257h-194v-257h-100v656h404c74 0 132.167 -17.5 174.5 -52.5s63.5 -83.167 63.5 -144.5v-13c0 -54.667 -19.5 -99 -58.5 -133zM633 462c0 33.333 -12.167 59.168 -36.5 77.501
s-58.5 27.5 -102.5 27.5h-302v-222h302c44 0 78.167 9.16699 102.5 27.5s36.5 44.166 36.5 77.499v12zM612 880.002v-82l-427 -75v82z" />
    <glyph glyph-name="racute" unicode="&#x155;" horiz-adv-x="473" 
d="M461 495v-84.001h-110c-36 0 -67.833 -6 -95.5 -18s-49.167 -29 -64.5 -51v-342h-96v495h90l3 -57c22 18.667 48 32.834 78 42.501s62.667 14.5 98 14.5h97zM491 718.999v-82l-427 -75v82z" />
    <glyph glyph-name="uni0156" unicode="&#x156;" horiz-adv-x="806" 
d="M675.5 313c-39 -34 -92.5 -52.667 -160.5 -56l216 -242v-15h-114l-231 257h-194v-257h-100v656h404c74 0 132.167 -17.5 174.5 -52.5s63.5 -83.167 63.5 -144.5v-13c0 -54.667 -19.5 -99 -58.5 -133zM633 462c0 33.333 -12.167 59.168 -36.5 77.501
s-58.5 27.5 -102.5 27.5h-302v-222h302c44 0 78.167 9.16699 102.5 27.5s36.5 44.166 36.5 77.499v12zM448 -57.998l-59 -167h-102l54 167h107z" />
    <glyph glyph-name="uni0157" unicode="&#x157;" horiz-adv-x="473" 
d="M461 495v-84.001h-110c-36 0 -67.833 -6 -95.5 -18s-49.167 -29 -64.5 -51v-342h-96v495h90l3 -57c22 18.667 48 32.834 78 42.501s62.667 14.5 98 14.5h97zM197 -58.001l-59 -167h-102l54 167h107z" />
    <glyph glyph-name="Rcaron" unicode="&#x158;" horiz-adv-x="806" 
d="M675.5 313c-39 -34 -92.5 -52.667 -160.5 -56l216 -242v-15h-114l-231 257h-194v-257h-100v656h404c74 0 132.167 -17.5 174.5 -52.5s63.5 -83.167 63.5 -144.5v-13c0 -54.667 -19.5 -99 -58.5 -133zM633 462c0 33.333 -12.167 59.168 -36.5 77.501
s-58.5 27.5 -102.5 27.5h-302v-222h302c44 0 78.167 9.16699 102.5 27.5s36.5 44.166 36.5 77.499v12zM185 880.002l213 -73l214 73v-85l-214 -72l-213 72v85z" />
    <glyph glyph-name="rcaron" unicode="&#x159;" horiz-adv-x="473" 
d="M461 495v-84.001h-110c-36 0 -67.833 -6 -95.5 -18s-49.167 -29 -64.5 -51v-342h-96v495h90l3 -57c22 18.667 48 32.834 78 42.501s62.667 14.5 98 14.5h97zM64 718.999l213 -73l214 73v-85l-214 -72l-213 72v85z" />
    <glyph glyph-name="Sacute" unicode="&#x15a;" horiz-adv-x="771" 
d="M149.5 43.5c-54.333 37 -81.499 91.168 -81.499 162.501v10h100v-10c0 -85.333 75.667 -128 227 -128c67.333 0 118.666 8.33301 153.999 25s53 41.334 53 74.001v8c0 28 -11.167 49 -33.5 63s-61.833 24.667 -118.5 32l-149 20
c-72.667 9.33301 -127.167 28.166 -163.5 56.499s-54.5 66.5 -54.5 114.5v10c0 58.667 26 104.5 78 137.5s125.333 49.5 220 49.5c100.667 0 177.167 -18 229.5 -54s78.5 -88.333 78.5 -157v-10h-99v10c0 80.667 -69.667 121 -209 121c-64 0 -112.833 -8.16699 -146.5 -24.5
s-50.5 -39.833 -50.5 -70.5v-8c0 -24.667 10.667 -43.667 32 -57s57 -23.333 107 -30l150 -19c79.333 -10 137.5 -29.333 174.5 -58s55.5 -69.334 55.5 -122.001v-10c0 -60.667 -27 -107.667 -81 -141s-131.333 -50 -232 -50c-106 0 -186.167 18.5 -240.5 55.5z
M596.001 880.001v-82l-427 -75v82z" />
    <glyph glyph-name="sacute" unicode="&#x15b;" horiz-adv-x="688" 
d="M138 31c-51.333 28.667 -77.002 68.001 -77.002 118.001v7h96v-7c0 -49.333 64.667 -74 194 -74c57.333 0 101 5.5 131 16.5s45 26.833 45 47.5v7c0 16.667 -9.33301 29 -28 37s-51.667 14.667 -99 20l-115 12c-71.333 7.33301 -123.333 21.666 -156 42.999
s-49 52 -49 92v10c0 46 23.667 82 71 108s113 39 197 39c86.667 0 154.334 -14.167 203.001 -42.5s73 -67.5 73 -117.5v-7h-95v7c0 24 -15.5 42.333 -46.5 55s-77.167 19 -138.5 19c-52 0 -92.5 -5.16699 -121.5 -15.5s-43.5 -24.833 -43.5 -43.5v-7
c0 -16.667 8.16699 -29.334 24.5 -38.001s43.833 -14.667 82.5 -18l117 -11c78 -7.33301 134.667 -22.166 170 -44.499s53 -54.166 53 -95.499v-10c0 -46.667 -24.667 -83.334 -74 -110.001s-117 -40 -203 -40c-89.333 0 -159.666 14.333 -210.999 43zM559.998 719.001v-82
l-427 -75v82z" />
    <glyph glyph-name="Scircumflex" unicode="&#x15c;" horiz-adv-x="771" 
d="M149.5 43.5c-54.333 37 -81.499 91.168 -81.499 162.501v10h100v-10c0 -85.333 75.667 -128 227 -128c67.333 0 118.666 8.33301 153.999 25s53 41.334 53 74.001v8c0 28 -11.167 49 -33.5 63s-61.833 24.667 -118.5 32l-149 20
c-72.667 9.33301 -127.167 28.166 -163.5 56.499s-54.5 66.5 -54.5 114.5v10c0 58.667 26 104.5 78 137.5s125.333 49.5 220 49.5c100.667 0 177.167 -18 229.5 -54s78.5 -88.333 78.5 -157v-10h-99v10c0 80.667 -69.667 121 -209 121c-64 0 -112.833 -8.16699 -146.5 -24.5
s-50.5 -39.833 -50.5 -70.5v-8c0 -24.667 10.667 -43.667 32 -57s57 -23.333 107 -30l150 -19c79.333 -10 137.5 -29.333 174.5 -58s55.5 -69.334 55.5 -122.001v-10c0 -60.667 -27 -107.667 -81 -141s-131.333 -50 -232 -50c-106 0 -186.167 18.5 -240.5 55.5z
M382.001 880.001l214 -73v-84l-214 72l-213 -72v84z" />
    <glyph glyph-name="scircumflex" unicode="&#x15d;" horiz-adv-x="688" 
d="M138 31c-51.333 28.667 -77.002 68.001 -77.002 118.001v7h96v-7c0 -49.333 64.667 -74 194 -74c57.333 0 101 5.5 131 16.5s45 26.833 45 47.5v7c0 16.667 -9.33301 29 -28 37s-51.667 14.667 -99 20l-115 12c-71.333 7.33301 -123.333 21.666 -156 42.999
s-49 52 -49 92v10c0 46 23.667 82 71 108s113 39 197 39c86.667 0 154.334 -14.167 203.001 -42.5s73 -67.5 73 -117.5v-7h-95v7c0 24 -15.5 42.333 -46.5 55s-77.167 19 -138.5 19c-52 0 -92.5 -5.16699 -121.5 -15.5s-43.5 -24.833 -43.5 -43.5v-7
c0 -16.667 8.16699 -29.334 24.5 -38.001s43.833 -14.667 82.5 -18l117 -11c78 -7.33301 134.667 -22.166 170 -44.499s53 -54.166 53 -95.499v-10c0 -46.667 -24.667 -83.334 -74 -110.001s-117 -40 -203 -40c-89.333 0 -159.666 14.333 -210.999 43zM345.998 719.001
l214 -73v-84l-214 72l-213 -72v84z" />
    <glyph glyph-name="Scedilla" unicode="&#x15e;" horiz-adv-x="771" 
d="M149.5 43.5c-54.333 37 -81.499 91.168 -81.499 162.501v10h100v-10c0 -85.333 75.667 -128 227 -128c67.333 0 118.666 8.33301 153.999 25s53 41.334 53 74.001v8c0 28 -11.167 49 -33.5 63s-61.833 24.667 -118.5 32l-149 20
c-72.667 9.33301 -127.167 28.166 -163.5 56.499s-54.5 66.5 -54.5 114.5v10c0 58.667 26 104.5 78 137.5s125.333 49.5 220 49.5c100.667 0 177.167 -18 229.5 -54s78.5 -88.333 78.5 -157v-10h-99v10c0 80.667 -69.667 121 -209 121c-64 0 -112.833 -8.16699 -146.5 -24.5
s-50.5 -39.833 -50.5 -70.5v-8c0 -24.667 10.667 -43.667 32 -57s57 -23.333 107 -30l150 -19c79.333 -10 137.5 -29.333 174.5 -58s55.5 -69.334 55.5 -122.001v-10c0 -60.667 -27 -107.667 -81 -141s-131.333 -50 -232 -50c-106 0 -186.167 18.5 -240.5 55.5z
M432.001 0.000976562l-49 -170h-107l58 200z" />
    <glyph glyph-name="scedilla" unicode="&#x15f;" horiz-adv-x="688" 
d="M138 31c-51.333 28.667 -77.002 68.001 -77.002 118.001v7h96v-7c0 -49.333 64.667 -74 194 -74c57.333 0 101 5.5 131 16.5s45 26.833 45 47.5v7c0 16.667 -9.33301 29 -28 37s-51.667 14.667 -99 20l-115 12c-71.333 7.33301 -123.333 21.666 -156 42.999
s-49 52 -49 92v10c0 46 23.667 82 71 108s113 39 197 39c86.667 0 154.334 -14.167 203.001 -42.5s73 -67.5 73 -117.5v-7h-95v7c0 24 -15.5 42.333 -46.5 55s-77.167 19 -138.5 19c-52 0 -92.5 -5.16699 -121.5 -15.5s-43.5 -24.833 -43.5 -43.5v-7
c0 -16.667 8.16699 -29.334 24.5 -38.001s43.833 -14.667 82.5 -18l117 -11c78 -7.33301 134.667 -22.166 170 -44.499s53 -54.166 53 -95.499v-10c0 -46.667 -24.667 -83.334 -74 -110.001s-117 -40 -203 -40c-89.333 0 -159.666 14.333 -210.999 43zM394.998 0.000976562
l-49 -170h-107l58 200z" />
    <glyph glyph-name="Scaron" unicode="&#x160;" horiz-adv-x="771" 
d="M149.5 43.5c-54.333 37 -81.499 91.168 -81.499 162.501v10h100v-10c0 -85.333 75.667 -128 227 -128c67.333 0 118.666 8.33301 153.999 25s53 41.334 53 74.001v8c0 28 -11.167 49 -33.5 63s-61.833 24.667 -118.5 32l-149 20
c-72.667 9.33301 -127.167 28.166 -163.5 56.499s-54.5 66.5 -54.5 114.5v10c0 58.667 26 104.5 78 137.5s125.333 49.5 220 49.5c100.667 0 177.167 -18 229.5 -54s78.5 -88.333 78.5 -157v-10h-99v10c0 80.667 -69.667 121 -209 121c-64 0 -112.833 -8.16699 -146.5 -24.5
s-50.5 -39.833 -50.5 -70.5v-8c0 -24.667 10.667 -43.667 32 -57s57 -23.333 107 -30l150 -19c79.333 -10 137.5 -29.333 174.5 -58s55.5 -69.334 55.5 -122.001v-10c0 -60.667 -27 -107.667 -81 -141s-131.333 -50 -232 -50c-106 0 -186.167 18.5 -240.5 55.5z
M169.001 880.001l213 -73l214 73v-85l-214 -72l-213 72v85z" />
    <glyph glyph-name="scaron" unicode="&#x161;" horiz-adv-x="688" 
d="M138 31c-51.333 28.667 -77.002 68.001 -77.002 118.001v7h96v-7c0 -49.333 64.667 -74 194 -74c57.333 0 101 5.5 131 16.5s45 26.833 45 47.5v7c0 16.667 -9.33301 29 -28 37s-51.667 14.667 -99 20l-115 12c-71.333 7.33301 -123.333 21.666 -156 42.999
s-49 52 -49 92v10c0 46 23.667 82 71 108s113 39 197 39c86.667 0 154.334 -14.167 203.001 -42.5s73 -67.5 73 -117.5v-7h-95v7c0 24 -15.5 42.333 -46.5 55s-77.167 19 -138.5 19c-52 0 -92.5 -5.16699 -121.5 -15.5s-43.5 -24.833 -43.5 -43.5v-7
c0 -16.667 8.16699 -29.334 24.5 -38.001s43.833 -14.667 82.5 -18l117 -11c78 -7.33301 134.667 -22.166 170 -44.499s53 -54.166 53 -95.499v-10c0 -46.667 -24.667 -83.334 -74 -110.001s-117 -40 -203 -40c-89.333 0 -159.666 14.333 -210.999 43zM132.998 719.001
l213 -73l214 73v-85l-214 -72l-213 72v85z" />
    <glyph glyph-name="uni0162" unicode="&#x162;" horiz-adv-x="691" 
d="M12 567v89h667v-89h-284v-567h-99v567h-284zM395 0l-49 -170h-107l58 200z" />
    <glyph glyph-name="uni0163" unicode="&#x163;" horiz-adv-x="520" 
d="M280 411v-250c0 -24.667 7 -43.5 21 -56.5s33.667 -19.5 59 -19.5h118v-85h-126c-52 0 -92.833 14 -122.5 42s-44.5 66.667 -44.5 116v253h-185v84h158c11.333 0 19 2.16699 23 6.5s6 11.833 6 22.5v104h93v-133h228v-84h-228zM415 0l-49 -170h-107l58 200z" />
    <glyph glyph-name="Tcaron" unicode="&#x164;" horiz-adv-x="691" 
d="M12 567v89h667v-89h-284v-567h-99v567h-284zM133 880l213 -73l214 73v-85l-214 -72l-213 72v85z" />
    <glyph glyph-name="tcaron" unicode="&#x165;" horiz-adv-x="570" 
d="M280 411v-250c0 -24.667 7 -43.5 21 -56.5s33.667 -19.5 59 -19.5h118v-85h-126c-52 0 -92.833 14 -122.5 42s-44.5 66.667 -44.5 116v253h-185v84h158c11.333 0 19 2.16699 23 6.5s6 11.833 6 22.5v104h93v-133h228v-84h-228zM548 740l-53 -183h-94l29 183h118z" />
    <glyph glyph-name="Tbar" unicode="&#x166;" horiz-adv-x="711" 
d="M405 567v-219h231v-86h-231v-262h-99v262h-211v86h211v219h-284v89h667v-89h-284z" />
    <glyph glyph-name="tbar" unicode="&#x167;" horiz-adv-x="558" 
d="M299 403v-106.001h232v-92h-232v-45c0 -23.333 6.83301 -41.666 20.5 -54.999s32.167 -20 55.5 -20h121v-85h-126c-52 0 -93 14.167 -123 42.5s-45 66.833 -45 115.5v47h-184v92h184v106h-184v92h158c11.333 0 19 2.16699 23 6.5s6 11.833 6 22.5v104h94v-133h232v-92
h-232z" />
    <glyph glyph-name="Utilde" unicode="&#x168;" horiz-adv-x="793" 
d="M231.5 24.5c-47.667 24.333 -84.501 58.5 -110.501 102.5s-39 95 -39 153v376h100v-378c0 -61.333 19 -109.5 57 -144.5s90.333 -52.5 157 -52.5s119.167 17.5 157.5 52.5s57.5 83.167 57.5 144.5v378h100v-376c0 -58 -13.167 -109 -39.5 -153
s-63.166 -78.167 -110.499 -102.5s-102.333 -36.5 -165 -36.5c-62 0 -116.833 12.167 -164.5 36.5zM451.499 744c-14.333 2.66699 -34.5029 7 -60.5029 13c-22 5.33301 -40 9.33301 -54 12s-28.667 4 -44 4c-36 0 -72.333 -9 -109 -27v82c38 18 74.667 27 110 27
c26 0 59 -5.66699 99 -17c22.667 -6 41.834 -10.5 57.501 -13.5s32.5 -4.5 50.5 -4.5c33.333 0 70 8 110 24v-81c-35.333 -15.333 -72.666 -23 -111.999 -23c-17.333 0 -33.166 1.33301 -47.499 4z" />
    <glyph glyph-name="utilde" unicode="&#x169;" horiz-adv-x="711" 
d="M626 495l0.00195312 -495.001h-89l-4 64c-49.333 -49.333 -113.333 -74.666 -192 -75.999c-86.667 0 -152.167 21.5 -196.5 64.5s-66.5 106.167 -66.5 189.5v253h95v-253c0 -53.333 15.167 -94.333 45.5 -123s74.166 -43 131.499 -43c39.333 0 75.166 9 107.499 27
s56.5 42 72.5 72v320h96zM406.502 582.999c-14.333 2.66699 -34.5029 7 -60.5029 13c-22 5.33301 -40 9.33301 -54 12s-28.667 4 -44 4c-36 0 -72.333 -9 -109 -27v82c38 18 74.667 27 110 27c26 0 59 -5.66699 99 -17c22.667 -6 41.834 -10.5 57.501 -13.5
s32.5 -4.5 50.5 -4.5c33.333 0 70 8 110 24v-81c-35.333 -15.333 -72.666 -23 -111.999 -23c-17.333 0 -33.166 1.33301 -47.499 4z" />
    <glyph glyph-name="Umacron" unicode="&#x16a;" horiz-adv-x="793" 
d="M231.5 24.5c-47.667 24.333 -84.501 58.5 -110.501 102.5s-39 95 -39 153v376h100v-378c0 -61.333 19 -109.5 57 -144.5s90.333 -52.5 157 -52.5s119.167 17.5 157.5 52.5s57.5 83.167 57.5 144.5v378h100v-376c0 -58 -13.167 -109 -39.5 -153
s-63.166 -78.167 -110.499 -102.5s-102.333 -36.5 -165 -36.5c-62 0 -116.833 12.167 -164.5 36.5zM610.999 838v-82h-427v82h427z" />
    <glyph glyph-name="umacron" unicode="&#x16b;" horiz-adv-x="711" 
d="M626 495l0.00195312 -495.001h-89l-4 64c-49.333 -49.333 -113.333 -74.666 -192 -75.999c-86.667 0 -152.167 21.5 -196.5 64.5s-66.5 106.167 -66.5 189.5v253h95v-253c0 -53.333 15.167 -94.333 45.5 -123s74.166 -43 131.499 -43c39.333 0 75.166 9 107.499 27
s56.5 42 72.5 72v320h96zM566.002 676.999v-82h-427v82h427z" />
    <glyph glyph-name="Ubreve" unicode="&#x16c;" horiz-adv-x="793" 
d="M231.5 24.5c-47.667 24.333 -84.501 58.5 -110.501 102.5s-39 95 -39 153v376h100v-378c0 -61.333 19 -109.5 57 -144.5s90.333 -52.5 157 -52.5s119.167 17.5 157.5 52.5s57.5 83.167 57.5 144.5v378h100v-376c0 -58 -13.167 -109 -39.5 -153
s-63.166 -78.167 -110.499 -102.5s-102.333 -36.5 -165 -36.5c-62 0 -116.833 12.167 -164.5 36.5zM183.999 784v82c77.333 -37.333 149.333 -56 216 -56s137 18.667 211 56v-82c-72 -38 -142.333 -57 -211 -57c-68 0 -140 19 -216 57z" />
    <glyph glyph-name="ubreve" unicode="&#x16d;" horiz-adv-x="711" 
d="M626 495l0.00195312 -495.001h-89l-4 64c-49.333 -49.333 -113.333 -74.666 -192 -75.999c-86.667 0 -152.167 21.5 -196.5 64.5s-66.5 106.167 -66.5 189.5v253h95v-253c0 -53.333 15.167 -94.333 45.5 -123s74.166 -43 131.499 -43c39.333 0 75.166 9 107.499 27
s56.5 42 72.5 72v320h96zM139.002 622.999v82c77.333 -37.333 149.333 -56 216 -56s137 18.667 211 56v-82c-72 -38 -142.333 -57 -211 -57c-68 0 -140 19 -216 57z" />
    <glyph glyph-name="Uring" unicode="&#x16e;" horiz-adv-x="793" 
d="M231.5 24.5c-47.667 24.333 -84.501 58.5 -110.501 102.5s-39 95 -39 153v376h100v-378c0 -61.333 19 -109.5 57 -144.5s90.333 -52.5 157 -52.5s119.167 17.5 157.5 52.5s57.5 83.167 57.5 144.5v378h100v-376c0 -58 -13.167 -109 -39.5 -153
s-63.166 -78.167 -110.499 -102.5s-102.333 -36.5 -165 -36.5c-62 0 -116.833 12.167 -164.5 36.5zM280.999 736.5c-27.333 21 -41 51.501 -41 91.501c0 38 14.167 68 42.5 90s66.5 33 114.5 33s86 -10.833 114 -32.5s42 -51.834 42 -90.501c0 -40 -13.5 -70.5 -40.5 -91.5
s-65.5 -31.5 -115.5 -31.5s-88.667 10.5 -116 31.5zM450.999 784.501c12.667 10.333 19 24.833 19 43.5s-6.33301 33.167 -19 43.5s-30.667 15.5 -54 15.5s-41.5 -5.16699 -54.5 -15.5s-19.5 -24.833 -19.5 -43.5s6.5 -33.167 19.5 -43.5s31.167 -15.5 54.5 -15.5
s41.333 5.16699 54 15.5z" />
    <glyph glyph-name="uring" unicode="&#x16f;" horiz-adv-x="711" 
d="M626 495l0.00195312 -495.001h-89l-4 64c-49.333 -49.333 -113.333 -74.666 -192 -75.999c-86.667 0 -152.167 21.5 -196.5 64.5s-66.5 106.167 -66.5 189.5v253h95v-253c0 -53.333 15.167 -94.333 45.5 -123s74.166 -43 131.499 -43c39.333 0 75.166 9 107.499 27
s56.5 42 72.5 72v320h96zM236.002 575.499c-27.333 21 -41 51.501 -41 91.501c0 38 14.167 68 42.5 90s66.5 33 114.5 33s86 -10.833 114 -32.5s42 -51.834 42 -90.501c0 -40 -13.5 -70.5 -40.5 -91.5s-65.5 -31.5 -115.5 -31.5s-88.667 10.5 -116 31.5zM406.002 623.5
c12.667 10.333 19 24.833 19 43.5s-6.33301 33.167 -19 43.5s-30.667 15.5 -54 15.5s-41.5 -5.16699 -54.5 -15.5s-19.5 -24.833 -19.5 -43.5s6.5 -33.167 19.5 -43.5s31.167 -15.5 54.5 -15.5s41.333 5.16699 54 15.5z" />
    <glyph glyph-name="Uhungarumlaut" unicode="&#x170;" horiz-adv-x="793" 
d="M231.5 24.5c-47.667 24.333 -84.501 58.5 -110.501 102.5s-39 95 -39 153v376h100v-378c0 -61.333 19 -109.5 57 -144.5s90.333 -52.5 157 -52.5s119.167 17.5 157.5 52.5s57.5 83.167 57.5 144.5v378h100v-376c0 -58 -13.167 -109 -39.5 -153
s-63.166 -78.167 -110.499 -102.5s-102.333 -36.5 -165 -36.5c-62 0 -116.833 12.167 -164.5 36.5zM434.999 880v-85l-268 -72v84zM719.999 880v-85l-265 -72v84z" />
    <glyph glyph-name="uhungarumlaut" unicode="&#x171;" horiz-adv-x="711" 
d="M626 495l0.00195312 -495.001h-89l-4 64c-49.333 -49.333 -113.333 -74.666 -192 -75.999c-86.667 0 -152.167 21.5 -196.5 64.5s-66.5 106.167 -66.5 189.5v253h95v-253c0 -53.333 15.167 -94.333 45.5 -123s74.166 -43 131.499 -43c39.333 0 75.166 9 107.499 27
s56.5 42 72.5 72v320h96zM390.002 718.999v-85l-268 -72v84zM675.002 718.999v-85l-265 -72v84z" />
    <glyph glyph-name="Uogonek" unicode="&#x172;" horiz-adv-x="793" 
d="M231.5 24.5c-47.667 24.333 -84.501 58.5 -110.501 102.5s-39 95 -39 153v376h100v-378c0 -61.333 19 -109.5 57 -144.5s90.333 -52.5 157 -52.5s119.167 17.5 157.5 52.5s57.5 83.167 57.5 144.5v378h100v-376c0 -58 -13.167 -109 -39.5 -153
s-63.166 -78.167 -110.499 -102.5s-102.333 -36.5 -165 -36.5c-62 0 -116.833 12.167 -164.5 36.5zM392.999 -145.5c-20.667 16.333 -30.999 37.499 -30.999 63.499c0 18.667 6.5 36.5 19.5 53.5s34.5 36.5 64.5 58.5l80 58l68 -43l-93 -68
c-12 -9.33301 -20.333 -16.666 -25 -21.999s-7 -11.333 -7 -18c0 -8 3.16699 -14.333 9.5 -19s14.833 -7 25.5 -7h81v-81h-112c-32.667 0 -59.334 8.16699 -80.001 24.5z" />
    <glyph glyph-name="uogonek" unicode="&#x173;" horiz-adv-x="711" 
d="M626 495l0.00195312 -495.001h-89l-4 64c-49.333 -49.333 -113.333 -74.666 -192 -75.999c-86.667 0 -152.167 21.5 -196.5 64.5s-66.5 106.167 -66.5 189.5v253h95v-253c0 -53.333 15.167 -94.333 45.5 -123s74.166 -43 131.499 -43c39.333 0 75.166 9 107.499 27
s56.5 42 72.5 72v320h96zM435.502 -150.001c-18.333 13.333 -27.501 31.332 -27.501 53.999c0 19.333 5.83301 36.333 17.5 51s31.834 30.334 60.501 47.001l104 60l36 -62l-98 -49c-14.667 -8 -22 -16.333 -22 -25c0 -11.333 8.66699 -17 26 -17h94v-79h-115
c-32 0 -57.167 6.66699 -75.5 20z" />
    <glyph glyph-name="Wcircumflex" unicode="&#x174;" horiz-adv-x="1175" 
d="M1155 656v-15l-243 -641h-121l-203 535l-203 -535h-121l-244 641v15h102l203 -548l209 548h108l209 -547l202 547h102zM588 880l214 -73v-84l-214 72l-213 -72v84z" />
    <glyph glyph-name="wcircumflex" unicode="&#x175;" horiz-adv-x="1067" 
d="M1030 495v-14l-209 -481h-126l-162 378l-161 -378h-125l-210 481v14h102l170 -408l175 408h98l177 -411l174 411h97zM534 719l214 -73v-84l-214 72l-213 -72v84z" />
    <glyph glyph-name="Ycircumflex" unicode="&#x176;" horiz-adv-x="726" 
d="M719 641l-306 -375v-266h-99v266l-307 375v15h111l245 -297l245 297h111v-15zM363 880l214 -73v-84l-214 72l-213 -72v84z" />
    <glyph glyph-name="ycircumflex" unicode="&#x177;" horiz-adv-x="697" 
d="M660 495v-14l-282 -536c-22 -41.333 -47.5 -70.833 -76.5 -88.5s-68.5 -26.5 -118.5 -26.5h-100v85h100c28 0 49 4.16699 63 12.5s27.333 24.833 40 49.5l9 16l-258 488v14h102l210 -408l209 408h102zM349 719l214 -73v-84l-214 72l-213 -72v84z" />
    <glyph glyph-name="Ydieresis" unicode="&#x178;" horiz-adv-x="726" 
d="M719 641l-306 -375v-266h-99v266l-307 375v15h111l245 -297l245 297h111v-15zM188.5 754.5c-11.667 11 -17.5 25.167 -17.5 42.5s5.83301 31.333 17.5 42s26.834 16 45.501 16c18 0 32.667 -5.33301 44 -16s17 -24.667 17 -42s-5.83301 -31.5 -17.5 -42.5
s-26.167 -16.5 -43.5 -16.5c-18.667 0 -33.834 5.5 -45.501 16.5zM447.5 754.5c-11.667 11 -17.5 25.167 -17.5 42.5s5.66699 31.333 17 42s26.333 16 45 16c18 0 32.833 -5.33301 44.5 -16s17.5 -24.667 17.5 -42s-5.83301 -31.5 -17.5 -42.5s-26.5 -16.5 -44.5 -16.5
s-32.833 5.5 -44.5 16.5z" />
    <glyph glyph-name="Zacute" unicode="&#x179;" horiz-adv-x="696" 
d="M650 567l-471 -478h471v-89h-604v89l471 478h-471v89h604v-89zM562 880v-82l-427 -75v82z" />
    <glyph glyph-name="zacute" unicode="&#x17a;" horiz-adv-x="642" 
d="M580 414l-388 -332h388v-82h-516v82l386 330h-386v83h516v-81zM539 719v-82l-427 -75v82z" />
    <glyph glyph-name="Zdotaccent" unicode="&#x17b;" horiz-adv-x="696" 
d="M650 567l-471 -478h471v-89h-604v89l471 478h-471v89h604v-89zM301 752.5c-12 11.667 -18 26.834 -18 45.501c0 18 6 32.667 18 44s27.667 17 47 17s35 -5.66699 47 -17s18 -26 18 -44c0 -18.667 -6 -33.834 -18 -45.501s-27.667 -17.5 -47 -17.5s-35 5.83301 -47 17.5z
" />
    <glyph glyph-name="zdotaccent" unicode="&#x17c;" horiz-adv-x="642" 
d="M580 414l-388 -332h388v-82h-516v82l386 330h-386v83h516v-81zM278 591.5c-12 11.667 -18 26.834 -18 45.501c0 18 6 32.667 18 44s27.667 17 47 17s35 -5.66699 47 -17s18 -26 18 -44c0 -18.667 -6 -33.834 -18 -45.501s-27.667 -17.5 -47 -17.5s-35 5.83301 -47 17.5z
" />
    <glyph glyph-name="Zcaron" unicode="&#x17d;" horiz-adv-x="696" 
d="M650 567l-471 -478h471v-89h-604v89l471 478h-471v89h604v-89zM135 880l213 -73l214 73v-85l-214 -72l-213 72v85z" />
    <glyph glyph-name="zcaron" unicode="&#x17e;" horiz-adv-x="642" 
d="M580 414l-388 -332h388v-82h-516v82l386 330h-386v83h516v-81zM112 719l213 -73l214 73v-85l-214 -72l-213 72v85z" />
    <glyph glyph-name="uni018F" unicode="&#x18f;" horiz-adv-x="877" 
d="M635 627c56.667 -27.333 100.502 -66.167 131.502 -116.5s46.5 -109.166 46.5 -176.499v-13c0 -67.333 -15.333 -126.166 -46 -176.499s-74.334 -89 -131.001 -116s-123.334 -40.5 -200.001 -40.5c-77.333 0 -143.833 13.833 -199.5 41.5s-98.334 67.667 -128.001 120
s-44.5 114.5 -44.5 186.5v32h646c-7.33301 65.333 -35.333 116.333 -84 153s-113 55 -193 55c-68 0 -125.167 -13.333 -171.5 -40s-75.833 -63 -88.5 -109h-105c10 49.333 31.5 92.166 64.5 128.499s75.333 64.166 127 83.499s110.167 29 175.5 29
c76.667 0 143.334 -13.667 200.001 -41zM621.502 132.999c49 35.333 78.167 83.667 87.5 145h-542c8 -62 35.5 -110.5 82.5 -145.5s108.5 -52.5 184.5 -52.5s138.5 17.667 187.5 53z" />
    <glyph glyph-name="florin" unicode="&#x192;" horiz-adv-x="816" 
d="M750 283h-314v-257c0 -47.333 -14.167 -85 -42.5 -113s-66.833 -42 -115.5 -42h-177v85h165c49.333 0 74 27 74 81v246h-279v84h279v174c0 47.333 14.167 85 42.5 113s66.833 42 115.5 42h212v-85h-200c-49.333 0 -74 -26.667 -74 -80v-164h314v-84z" />
    <glyph glyph-name="uni01CD" unicode="&#x1cd;" horiz-adv-x="770" 
d="M750 15v-15h-102l-78 166h-370l-78 -166h-102v15l310 641h110zM527 256l-142 301l-142 -301h284zM172 880l213 -73l214 73v-85l-214 -72l-213 72v85z" />
    <glyph glyph-name="uni01CE" unicode="&#x1ce;" horiz-adv-x="716" 
d="M711 85l-0.000976562 -85h-66c-32.667 -0 -60 6.33301 -82 19s-37.333 30.667 -46 54c-26.667 -28.667 -58.667 -50 -96 -64s-81.333 -21 -132 -21c-71.333 0 -126.333 12.5 -165 37.5s-58 60.833 -58 107.5c0 40 15 72 45 96s74 39 132 45l267 28
c-2 37.333 -17.667 65.666 -47 84.999s-71.333 29 -126 29c-52.667 0 -94.667 -9 -126 -27s-47 -42 -47 -72v-4h-95v4c0 37.333 11.167 70.5 33.5 99.5s53.833 51.333 94.5 67s87.667 23.5 141 23.5c84.667 0 150.334 -18.667 197.001 -56s70 -89.666 70 -156.999v-154
c0 -17.333 5.33301 -30.833 16 -40.5s26 -14.5 46 -14.5h44zM425.999 98.5c38.667 17 66.667 41.168 84 72.501v53l-246 -26c-34.667 -3.33301 -60.5 -10.333 -77.5 -21s-25.5 -25.334 -25.5 -44.001c0 -40 42 -60 126 -60c54 0 100.333 8.5 139 25.5zM126.999 719.001
l213 -73l214 73v-85l-214 -72l-213 72v85z" />
    <glyph glyph-name="uni01D2" unicode="&#x1d2;" horiz-adv-x="685" 
d="M186 18.5c-44.667 20.333 -79 49.333 -103 87s-36 81.834 -36 132.501v17c0 51.333 12 96 36 134s58.333 67.167 103 87.5s97.334 30.5 158.001 30.5c60 0 112.167 -10.167 156.5 -30.5s78.333 -49.5 102 -87.5s35.5 -82.667 35.5 -134v-17
c0 -50.667 -11.833 -94.834 -35.5 -132.501s-57.667 -66.667 -102 -87s-96.5 -30.5 -156.5 -30.5c-60.667 0 -113.334 10.167 -158.001 30.5zM487 119c34.667 28.667 52 68.334 52 119.001v17c0 51.333 -17.333 91.5 -52 120.5s-82.667 43.5 -144 43.5
c-62.667 0 -111.167 -14.333 -145.5 -43s-51.5 -69 -51.5 -121v-17c0 -50.667 17.5 -90.334 52.5 -119.001s83.167 -43 144.5 -43s109.333 14.333 144 43zM130 719l213 -73l214 73v-85l-214 -72l-213 72v85z" />
    <glyph glyph-name="Gcaron" unicode="&#x1e6;" horiz-adv-x="879" 
d="M711 423l0.000976562 6.00195c0 26.667 -11.5 51.167 -34.5 73.5s-54.5 40 -94.5 53s-84 19.5 -132 19.5c-89.333 0 -159.166 -21 -209.499 -63s-75.5 -100.333 -75.5 -175v-19c0 -76.667 24.667 -135.334 74 -176.001s119.666 -61 210.999 -61
c113.333 0 201 32.667 263 98v76h-347v90h446v-345h-90l-5 80c-65.333 -61.333 -155 -92 -269 -92c-78.667 0 -146.834 13.333 -204.501 40s-102 65 -133 115s-46.5 108.667 -46.5 176v17c0 66 15.833 124.167 47.5 174.5s76.5 89.166 134.5 116.499s125.667 41 203 41
c70.667 0 133.5 -10 188.5 -30s97.833 -48.167 128.5 -84.5s46 -77.833 46 -124.5v-6h-101zM234.001 880.002l213 -73l214 73v-85l-214 -72l-213 72v85z" />
    <glyph glyph-name="gcaron" unicode="&#x1e7;" horiz-adv-x="709" 
d="M624 495l0.00390625 -453.001c0 -73.333 -24.167 -129 -72.5 -167s-118.833 -57 -211.5 -57c-60 0 -111.833 7.5 -155.5 22.5s-77.334 36.667 -101.001 65s-35.5 61.5 -35.5 99.5v8h98v-8c0 -29.333 17.667 -53.166 53 -71.499s81 -27.5 137 -27.5
c61.333 0 108.666 11.5 141.999 34.5s50 55.833 50 98.5v49c-26 -20.667 -55.5 -36.834 -88.5 -48.501s-67.167 -17.5 -102.5 -17.5c-92.667 0 -164.334 20.167 -215.001 60.5s-76 97.5 -76 171.5v16c0 74.667 25.667 132.834 77 174.501s122.666 62.5 213.999 62.5
c78.667 0 143.667 -22.667 195 -68l3 56h89zM449.504 130.499c33.667 14.333 59.833 33.501 78.5 57.501v151c-18.667 24 -45 43.5 -79 58.5s-70.667 22.5 -110 22.5c-62.667 0 -110.667 -12.833 -144 -38.5s-50 -62.834 -50 -111.501v-16c0 -96.667 64.667 -145 194 -145
c40 0 76.833 7.16699 110.5 21.5zM133.003 719l213 -73l214 73v-85l-214 -72l-213 72v85z" />
    <glyph glyph-name="uni01F4" unicode="&#x1f4;" horiz-adv-x="879" 
d="M711 423l0.000976562 6.00195c0 26.667 -11.5 51.167 -34.5 73.5s-54.5 40 -94.5 53s-84 19.5 -132 19.5c-89.333 0 -159.166 -21 -209.499 -63s-75.5 -100.333 -75.5 -175v-19c0 -76.667 24.667 -135.334 74 -176.001s119.666 -61 210.999 -61
c113.333 0 201 32.667 263 98v76h-347v90h446v-345h-90l-5 80c-65.333 -61.333 -155 -92 -269 -92c-78.667 0 -146.834 13.333 -204.501 40s-102 65 -133 115s-46.5 108.667 -46.5 176v17c0 66 15.833 124.167 47.5 174.5s76.5 89.166 134.5 116.499s125.667 41 203 41
c70.667 0 133.5 -10 188.5 -30s97.833 -48.167 128.5 -84.5s46 -77.833 46 -124.5v-6h-101zM661.001 880.002v-82l-427 -75v82z" />
    <glyph glyph-name="uni01F5" unicode="&#x1f5;" horiz-adv-x="709" 
d="M624 495l0.00390625 -453.001c0 -73.333 -24.167 -129 -72.5 -167s-118.833 -57 -211.5 -57c-60 0 -111.833 7.5 -155.5 22.5s-77.334 36.667 -101.001 65s-35.5 61.5 -35.5 99.5v8h98v-8c0 -29.333 17.667 -53.166 53 -71.499s81 -27.5 137 -27.5
c61.333 0 108.666 11.5 141.999 34.5s50 55.833 50 98.5v49c-26 -20.667 -55.5 -36.834 -88.5 -48.501s-67.167 -17.5 -102.5 -17.5c-92.667 0 -164.334 20.167 -215.001 60.5s-76 97.5 -76 171.5v16c0 74.667 25.667 132.834 77 174.501s122.666 62.5 213.999 62.5
c78.667 0 143.667 -22.667 195 -68l3 56h89zM449.504 130.499c33.667 14.333 59.833 33.501 78.5 57.501v151c-18.667 24 -45 43.5 -79 58.5s-70.667 22.5 -110 22.5c-62.667 0 -110.667 -12.833 -144 -38.5s-50 -62.834 -50 -111.501v-16c0 -96.667 64.667 -145 194 -145
c40 0 76.833 7.16699 110.5 21.5zM560.003 719v-82l-427 -75v82z" />
    <glyph glyph-name="AEacute" unicode="&#x1fc;" horiz-adv-x="1072" 
d="M525 567l45 -194h409v-89h-388l46 -195h362v-89h-442l-39 166h-317l-79 -166h-102v15l310 641h669v-89h-474zM424 567h-31l-148 -311h252zM750 880v-82l-427 -75v82z" />
    <glyph glyph-name="aeacute" unicode="&#x1fd;" horiz-adv-x="1098" 
d="M1051 217l-458.003 -0.000976562c2.66699 -45.333 19.834 -80.5 51.501 -105.5s75.834 -37.5 132.501 -37.5c48.667 0 89.167 9.16699 121.5 27.5s49.166 42.166 50.499 71.499h102c-5.33301 -56.667 -32 -101.667 -80 -135s-110.667 -50 -188 -50
c-54.667 0 -102.5 8.5 -143.5 25.5s-73.5 41.5 -97.5 73.5c-25.333 -32.667 -59.5 -57.334 -102.5 -74.001s-93.5 -25 -151.5 -25c-71.333 0 -126.166 12.333 -164.499 37s-57.5 59.667 -57.5 105c0 40.667 15 73.334 45 98.001s74 39.667 132 45l254 25
c-1.33301 38.667 -16.333 68 -45 88s-69.667 30 -123 30c-49.333 0 -88.833 -9 -118.5 -27s-44.5 -42 -44.5 -72v-4h-97v4c0 38 11 71.333 33 100s53 50.834 93 66.501s86.333 23.5 139 23.5c107.333 0 180.333 -32 219 -96c23.333 30.667 54.333 54.334 93 71.001
s83.334 25 134.001 25c54.667 0 102.5 -10 143.5 -30s72.5 -48.5 94.5 -85.5s33 -80.5 33 -130.5v-44zM653.497 386.999c-32.333 -22 -51.833 -52.333 -58.5 -91h354c-5.33301 39.333 -23 69.833 -53 91.5s-69.333 32.5 -118 32.5c-50.667 0 -92.167 -11 -124.5 -33z
M418.497 97.499c39 15.667 68.167 38.168 87.5 67.501c-4.66699 17.333 -7.66699 35.333 -9 54l-226 -22c-37.333 -3.33301 -65 -10.333 -83 -21s-27 -25.334 -27 -44.001c0 -38.667 40 -58 120 -58c52.667 0 98.5 7.83301 137.5 23.5zM764.997 719v-82l-427 -75v82z" />
    <glyph glyph-name="Oslashacute" unicode="&#x1fe;" horiz-adv-x="877" 
d="M777.5 491.5c23.667 -46.333 35.498 -98.832 35.498 -157.499v-13c0 -67.333 -15.333 -126 -46 -176s-74.167 -88.667 -130.5 -116s-122.166 -41 -197.499 -41c-52.667 0 -102.667 7.33301 -150 22l-48 -75h-105v16l64 101c-43.333 29.333 -76.833 67 -100.5 113
s-35.5 98 -35.5 156v13c0 67.333 15.333 126.166 46 176.499s74.334 89.166 131.001 116.499s122.667 41 198 41c53.333 0 103 -7.33301 149 -22l48 75h105v-16l-65 -100c44 -29.333 77.833 -67.166 101.5 -113.499zM164.998 319.001c0 -84 29.667 -147.001 89 -189.001
l283 434c-31.333 7.33301 -64 11 -98 11c-86 0 -153.167 -21.167 -201.5 -63.5s-72.5 -101.166 -72.5 -176.499v-16zM711.998 335c0 41.333 -7.66895 78.167 -23.002 110.5s-37.333 58.833 -66 79.5l-282 -433c30.667 -7.33301 63.334 -11 98.001 -11
c86.667 0 153.834 20.833 201.501 62.5s71.5 100.167 71.5 175.5v16zM652.996 880.001v-82l-427 -75v82z" />
    <glyph glyph-name="oslashacute" unicode="&#x1ff;" horiz-adv-x="685" 
d="M612.5 371c17 -34 25.499 -72.666 25.499 -115.999v-17c0 -50.667 -11.833 -94.834 -35.5 -132.501s-57.667 -66.667 -102 -87s-96.5 -30.5 -156.5 -30.5c-40.667 0 -78 4.66699 -112 14l-36 -54h-101v12l52 80c-32 21.333 -56.667 49 -74 83s-26 72.333 -26 115v17
c0 51.333 11.833 96 35.5 134s57.834 67.167 102.501 87.5s97.667 30.5 159 30.5c39.333 0 76 -4.66699 110 -14l35 54h102v-12l-52 -80c32 -22 56.5 -50 73.5 -84zM145.999 239.001c0 -52 18 -92 54 -120l200 295c-20 3.33301 -39 5 -57 5c-62 0 -110.333 -14.5 -145 -43.5
s-52 -69.833 -52 -122.5v-14zM538.999 253.001c0 52 -17.667 93 -53 123l-200 -295c18.667 -3.33301 37.667 -5 57 -5c60.667 0 108.5 14.5 143.5 43.5s52.5 68.833 52.5 119.5v14zM556.999 719.001v-82l-427 -75v82z" />
    <glyph glyph-name="uni0218" unicode="&#x218;" horiz-adv-x="771" 
d="M149.5 43.5c-54.333 37 -81.499 91.168 -81.499 162.501v10h100v-10c0 -85.333 75.667 -128 227 -128c67.333 0 118.666 8.33301 153.999 25s53 41.334 53 74.001v8c0 28 -11.167 49 -33.5 63s-61.833 24.667 -118.5 32l-149 20
c-72.667 9.33301 -127.167 28.166 -163.5 56.499s-54.5 66.5 -54.5 114.5v10c0 58.667 26 104.5 78 137.5s125.333 49.5 220 49.5c100.667 0 177.167 -18 229.5 -54s78.5 -88.333 78.5 -157v-10h-99v10c0 80.667 -69.667 121 -209 121c-64 0 -112.833 -8.16699 -146.5 -24.5
s-50.5 -39.833 -50.5 -70.5v-8c0 -24.667 10.667 -43.667 32 -57s57 -23.333 107 -30l150 -19c79.333 -10 137.5 -29.333 174.5 -58s55.5 -69.334 55.5 -122.001v-10c0 -60.667 -27 -107.667 -81 -141s-131.333 -50 -232 -50c-106 0 -186.167 18.5 -240.5 55.5z
M432.001 -57.999l-59 -167h-102l54 167h107z" />
    <glyph glyph-name="uni0219" unicode="&#x219;" horiz-adv-x="688" 
d="M138 31c-51.333 28.667 -77.002 68.001 -77.002 118.001v7h96v-7c0 -49.333 64.667 -74 194 -74c57.333 0 101 5.5 131 16.5s45 26.833 45 47.5v7c0 16.667 -9.33301 29 -28 37s-51.667 14.667 -99 20l-115 12c-71.333 7.33301 -123.333 21.666 -156 42.999
s-49 52 -49 92v10c0 46 23.667 82 71 108s113 39 197 39c86.667 0 154.334 -14.167 203.001 -42.5s73 -67.5 73 -117.5v-7h-95v7c0 24 -15.5 42.333 -46.5 55s-77.167 19 -138.5 19c-52 0 -92.5 -5.16699 -121.5 -15.5s-43.5 -24.833 -43.5 -43.5v-7
c0 -16.667 8.16699 -29.334 24.5 -38.001s43.833 -14.667 82.5 -18l117 -11c78 -7.33301 134.667 -22.166 170 -44.499s53 -54.166 53 -95.499v-10c0 -46.667 -24.667 -83.334 -74 -110.001s-117 -40 -203 -40c-89.333 0 -159.666 14.333 -210.999 43zM394.998 -57.999
l-59 -167h-102l54 167h107z" />
    <glyph glyph-name="uni021A" unicode="&#x21a;" horiz-adv-x="691" 
d="M12 567v89h667v-89h-284v-567h-99v567h-284zM395 -58l-59 -167h-102l54 167h107z" />
    <glyph glyph-name="uni021B" unicode="&#x21b;" horiz-adv-x="520" 
d="M280 411v-250c0 -24.667 7 -43.5 21 -56.5s33.667 -19.5 59 -19.5h118v-85h-126c-52 0 -92.833 14 -122.5 42s-44.5 66.667 -44.5 116v253h-185v84h158c11.333 0 19 2.16699 23 6.5s6 11.833 6 22.5v104h93v-133h228v-84h-228zM415 -58l-59 -167h-102l54 167h107z" />
    <glyph glyph-name="uni0232" unicode="&#x232;" horiz-adv-x="726" 
d="M719 641l-306 -375v-266h-99v266l-307 375v15h111l245 -297l245 297h111v-15zM577 838v-82h-427v82h427z" />
    <glyph glyph-name="uni0233" unicode="&#x233;" horiz-adv-x="697" 
d="M660 495v-14l-282 -536c-22 -41.333 -47.5 -70.833 -76.5 -88.5s-68.5 -26.5 -118.5 -26.5h-100v85h100c28 0 49 4.16699 63 12.5s27.333 24.833 40 49.5l9 16l-258 488v14h102l210 -408l209 408h102zM563 677v-82h-427v82h427z" />
    <glyph glyph-name="uni0237" unicode="&#x237;" horiz-adv-x="286" 
d="M12 -85c55.333 0 83 28.333 83 85v495h96v-498c0 -52 -15.667 -92.833 -47 -122.5s-74.333 -44.5 -129 -44.5h-97v85h94z" />
    <glyph glyph-name="uni0259" unicode="&#x259;" horiz-adv-x="671" 
d="M487 476.5c44 -20.333 77.835 -49.166 101.502 -86.499s35.5 -81 35.5 -131v-21c0 -50.667 -11.833 -94.834 -35.5 -132.501s-57.5 -66.667 -101.5 -87s-95.667 -30.5 -155 -30.5c-58.667 0 -109.334 10 -152.001 30s-75.5 48.5 -98.5 85.5s-34.5 80.5 -34.5 130.5v45
h477c-2.66699 44 -21 78.333 -55 103s-79.667 37 -137 37c-52.667 0 -95.5 -8.83301 -128.5 -26.5s-50.833 -41.167 -53.5 -70.5h-103c5.33301 58 33.166 103.333 83.499 136s117.5 49 201.5 49c59.333 0 111 -10.167 155 -30.5zM461.502 109
c33 22 53.167 52.001 60.5 90.001h-373c6.66699 -38.667 26 -68.834 58 -90.501s73.667 -32.5 125 -32.5c53.333 0 96.5 11 129.5 33z" />
    <glyph glyph-name="uni02BB" unicode="&#x2bb;" horiz-adv-x="600" 
d="M688 723l-50 -166h-106l54 166h102z" />
    <glyph glyph-name="uni02BC" unicode="&#x2bc;" horiz-adv-x="334" 
d="M250 696v-15l-90 -254h-92l73 269h109z" />
    <glyph glyph-name="circumflex" unicode="&#x2c6;" horiz-adv-x="600" 
d="M299 719l214 -73v-84l-214 72l-213 -72v84z" />
    <glyph glyph-name="caron" unicode="&#x2c7;" horiz-adv-x="600" 
d="M86 719l213 -73l214 73v-85l-214 -72l-213 72v85z" />
    <glyph glyph-name="uni02C9" unicode="&#x2c9;" horiz-adv-x="600" 
d="M814 677v-82h-427v82h427z" />
    <glyph glyph-name="breve" unicode="&#x2d8;" horiz-adv-x="600" 
d="M86 623v82c77.333 -37.333 149.333 -56 216 -56s137 18.667 211 56v-82c-72 -38 -142.333 -57 -211 -57c-68 0 -140 19 -216 57z" />
    <glyph glyph-name="dotaccent" unicode="&#x2d9;" horiz-adv-x="600" 
d="M253 591.5c-12 11.667 -18 26.834 -18 45.501c0 18 6 32.667 18 44s27.667 17 47 17s35 -5.66699 47 -17s18 -26 18 -44c0 -18.667 -6 -33.834 -18 -45.501s-27.667 -17.5 -47 -17.5s-35 5.83301 -47 17.5z" />
    <glyph glyph-name="ring" unicode="&#x2da;" horiz-adv-x="600" 
d="M184 575.5c-27.333 21 -41 51.501 -41 91.501c0 38 14.167 68 42.5 90s66.5 33 114.5 33s86 -10.833 114 -32.5s42 -51.834 42 -90.501c0 -40 -13.5 -70.5 -40.5 -91.5s-65.5 -31.5 -115.5 -31.5s-88.667 10.5 -116 31.5zM354 623.501c12.667 10.333 19 24.833 19 43.5
s-6.33301 33.167 -19 43.5s-30.667 15.5 -54 15.5s-41.5 -5.16699 -54.5 -15.5s-19.5 -24.833 -19.5 -43.5s6.5 -33.167 19.5 -43.5s31.167 -15.5 54.5 -15.5s41.333 5.16699 54 15.5z" />
    <glyph glyph-name="ogonek" unicode="&#x2db;" horiz-adv-x="600" 
d="M217.5 -150c-18.333 13.333 -27.501 31.332 -27.501 53.999c0 19.333 5.83301 36.333 17.5 51s31.834 30.334 60.501 47.001l104 60l36 -62l-98 -49c-14.667 -8 -22 -16.333 -22 -25c0 -11.333 8.66699 -17 26 -17h94v-79h-115c-32 0 -57.167 6.66699 -75.5 20z" />
    <glyph glyph-name="tilde" unicode="&#x2dc;" horiz-adv-x="600" 
d="M353.5 583c-14.333 2.66699 -34.5029 7 -60.5029 13c-22 5.33301 -40 9.33301 -54 12s-28.667 4 -44 4c-36 0 -72.333 -9 -109 -27v82c38 18 74.667 27 110 27c26 0 59 -5.66699 99 -17c22.667 -6 41.834 -10.5 57.501 -13.5s32.5 -4.5 50.5 -4.5c33.333 0 70 8 110 24
v-81c-35.333 -15.333 -72.666 -23 -111.999 -23c-17.333 0 -33.166 1.33301 -47.499 4z" />
    <glyph glyph-name="hungarumlaut" unicode="&#x2dd;" horiz-adv-x="600" 
d="M291 719v-85l-268 -72v84zM576 719v-85l-265 -72v84z" />
    <glyph glyph-name="gravecomb" unicode="&#x300;" horiz-adv-x="0" 
d="M-213 720l427 -75v-83l-427 75v83z" />
    <glyph glyph-name="acutecomb" unicode="&#x301;" horiz-adv-x="0" 
d="M214 719v-82l-427 -75v82z" />
    <glyph glyph-name="uni0302" unicode="&#x302;" horiz-adv-x="0" 
d="M0 719l214 -73v-84l-214 72l-213 -72v84z" />
    <glyph glyph-name="tildecomb" unicode="&#x303;" horiz-adv-x="0" 
d="M54.5 583c-14.333 2.66699 -34.5029 7 -60.5029 13c-22 5.33301 -40 9.33301 -54 12s-28.667 4 -44 4c-36 0 -72.333 -9 -109 -27v82c38 18 74.667 27 110 27c26 0 59 -5.66699 99 -17c22.667 -6 41.834 -10.5 57.501 -13.5s32.5 -4.5 50.5 -4.5c33.333 0 70 8 110 24
v-81c-35.333 -15.333 -72.666 -23 -111.999 -23c-17.333 0 -33.166 1.33301 -47.499 4z" />
    <glyph glyph-name="uni0304" unicode="&#x304;" horiz-adv-x="0" 
d="M214 677v-82h-427v82h427z" />
    <glyph glyph-name="uni0306" unicode="&#x306;" horiz-adv-x="0" 
d="M-213 623v82c77.333 -37.333 149.333 -56 216 -56s137 18.667 211 56v-82c-72 -38 -142.333 -57 -211 -57c-68 0 -140 19 -216 57z" />
    <glyph glyph-name="uni0307" unicode="&#x307;" horiz-adv-x="0" 
d="M-47 591.5c-12 11.667 -18 26.834 -18 45.501c0 18 6 32.667 18 44s27.667 17 47 17s35 -5.66699 47 -17s18 -26 18 -44c0 -18.667 -6 -33.834 -18 -45.501s-27.667 -17.5 -47 -17.5s-35 5.83301 -47 17.5z" />
    <glyph glyph-name="uni0308" unicode="&#x308;" horiz-adv-x="0" 
d="M-174.5 593.5c-11.667 11 -17.5 25.167 -17.5 42.5s5.83301 31.333 17.5 42s26.834 16 45.501 16c18 0 32.667 -5.33301 44 -16s17 -24.667 17 -42s-5.83301 -31.5 -17.5 -42.5s-26.167 -16.5 -43.5 -16.5c-18.667 0 -33.834 5.5 -45.501 16.5zM84.5 593.5
c-11.667 11 -17.5 25.167 -17.5 42.5s5.66699 31.333 17 42s26.333 16 45 16c18 0 32.833 -5.33301 44.5 -16s17.5 -24.667 17.5 -42s-5.83301 -31.5 -17.5 -42.5s-26.5 -16.5 -44.5 -16.5s-32.833 5.5 -44.5 16.5z" />
    <glyph glyph-name="uni030A" unicode="&#x30a;" horiz-adv-x="0" 
d="M-116 575.5c-27.333 21 -41 51.501 -41 91.501c0 38 14.167 68 42.5 90s66.5 33 114.5 33s86 -10.833 114 -32.5s42 -51.834 42 -90.501c0 -40 -13.5 -70.5 -40.5 -91.5s-65.5 -31.5 -115.5 -31.5s-88.667 10.5 -116 31.5zM54 623.501c12.667 10.333 19 24.833 19 43.5
s-6.33301 33.167 -19 43.5s-30.667 15.5 -54 15.5s-41.5 -5.16699 -54.5 -15.5s-19.5 -24.833 -19.5 -43.5s6.5 -33.167 19.5 -43.5s31.167 -15.5 54.5 -15.5s41.333 5.16699 54 15.5z" />
    <glyph glyph-name="uni030B" unicode="&#x30b;" horiz-adv-x="0" 
d="M38 719v-85l-268 -72v84zM323 719v-85l-265 -72v84z" />
    <glyph glyph-name="uni030C" unicode="&#x30c;" horiz-adv-x="0" 
d="M-213 719l213 -73l214 73v-85l-214 -72l-213 72v85z" />
    <glyph glyph-name="uni0312" unicode="&#x312;" horiz-adv-x="0" 
d="M88 723l-50 -166h-106l54 166h102z" />
    <glyph glyph-name="dotbelowcomb" unicode="&#x323;" horiz-adv-x="0" 
d="M-47 -185.5c-12 11.667 -18 26.5 -18 44.5s6.16699 32.833 18.5 44.5s27.833 17.5 46.5 17.5c19.333 0 35 -5.83301 47 -17.5s18 -26.5 18 -44.5c0 -18.667 -6 -33.667 -18 -45s-27.667 -17 -47 -17s-35 5.83301 -47 17.5z" />
    <glyph glyph-name="uni0326" unicode="&#x326;" horiz-adv-x="0" 
d="M49 -58l-59 -167h-102l54 167h107z" />
    <glyph glyph-name="uni0327" unicode="&#x327;" horiz-adv-x="0" 
d="M50 0l-49 -170h-107l58 200z" />
    <glyph glyph-name="uni0328" unicode="&#x328;" horiz-adv-x="0" 
d="M-190.5 -150c-18.333 13.333 -27.501 31.332 -27.501 53.999c0 19.333 5.83301 36.333 17.5 51s31.834 30.334 60.501 47.001l104 60l36 -62l-98 -49c-14.667 -8 -22 -16.333 -22 -25c0 -11.333 8.66699 -17 26 -17h94v-79h-115c-32 0 -57.167 6.66699 -75.5 20z" />
    <glyph glyph-name="uni0374" unicode="&#x374;" horiz-adv-x="334" 
d="M250 656v-14l-90 -287h-92l73 301h109z" />
    <glyph glyph-name="tonos" unicode="&#x384;" horiz-adv-x="600" 
d="M353 818l-20 -261h-87l20 261h87z" />
    <glyph glyph-name="dieresistonos" unicode="&#x385;" horiz-adv-x="600" 
d="M356 818l-20 -261h-87l20 261h87zM74.5 593.5c-11.667 11 -17.5 25.167 -17.5 42.5s5.83301 31.333 17.5 42s26.5 16 44.5 16c18.667 0 33.667 -5.33301 45 -16s17 -24.667 17 -42s-5.66699 -31.5 -17 -42.5s-26.333 -16.5 -45 -16.5c-18 0 -32.833 5.5 -44.5 16.5z
M435.5 593.5c-11.667 11 -17.5 25.167 -17.5 42.5s5.66699 31.333 17 42s26.333 16 45 16s33.667 -5.33301 45 -16s17 -24.667 17 -42s-5.66699 -31.5 -17 -42.5s-26.333 -16.5 -45 -16.5c-18 0 -32.833 5.5 -44.5 16.5z" />
    <glyph glyph-name="Alphatonos" unicode="&#x386;" horiz-adv-x="770" 
d="M750 15v-15h-102l-78 166h-370l-78 -166h-102v15l310 641h110zM527 256l-142 301l-142 -301h284zM61 656l-20 -261h-87l20 261h87z" />
    <glyph glyph-name="anoteleia" unicode="&#x387;" horiz-adv-x="334" 
d="M123 391c-11.333 11.333 -17 25.666 -17 42.999s5.66699 31.666 17 42.999s26 17 44 17s32.667 -5.66699 44 -17s17 -25.666 17 -42.999s-5.66699 -31.666 -17 -42.999s-26 -17 -44 -17s-32.667 5.66699 -44 17z" />
    <glyph glyph-name="Epsilontonos" unicode="&#x388;" horiz-adv-x="723" 
d="M650 656v-89h-458v-194h438v-89h-438v-195h458v-89h-558v656h558zM-97 656l-20 -261h-87l20 261h87z" />
    <glyph glyph-name="Etatonos" unicode="&#x389;" horiz-adv-x="819" 
d="M192 656v-283h435v283h100v-656h-100v283h-435v-283h-100v656h100zM-97 656l-20 -261h-87l20 261h87z" />
    <glyph glyph-name="Iotatonos" unicode="&#x38a;" horiz-adv-x="299" 
d="M199 656v-656h-99v656h99zM-104 656l-20 -261h-87l20 261h87z" />
    <glyph glyph-name="Omicrontonos" unicode="&#x38c;" horiz-adv-x="877" 
d="M241 29c-56.667 27.333 -100.334 66 -131.001 116s-46 108.667 -46 176v13c0 67.333 15.333 126.166 46 176.499s74.334 89.166 131.001 116.499s122.667 41 198 41s141.166 -13.667 197.499 -41s99.833 -66.166 130.5 -116.499s46 -109.166 46 -176.499v-13
c0 -67.333 -15.333 -126 -46 -176s-74.167 -88.667 -130.5 -116s-122.166 -41 -197.499 -41s-141.333 13.667 -198 41zM640 144c48 42 72 100.333 72 175v16c0 75.333 -24 134.166 -72 176.499s-115 63.5 -201 63.5s-153.167 -21.167 -201.5 -63.5
s-72.5 -101.166 -72.5 -176.499v-16c0 -74.667 24.167 -133 72.5 -175s115.5 -63 201.5 -63s153 21 201 63zM-34 656l-20 -261h-87l20 261h87z" />
    <glyph glyph-name="Upsilontonos" unicode="&#x38e;" horiz-adv-x="726" 
d="M719 641l-306 -375v-266h-99v266l-307 375v15h111l245 -297l245 297h111v-15zM-115 656l-20 -261h-87l20 261h87z" />
    <glyph glyph-name="Omegatonos" unicode="&#x38f;" horiz-adv-x="880" 
d="M757.5 212c-37.667 -42.667 -88.499 -71.6689 -152.499 -87.002v-36h209v-89h-303v190c62.667 8.66699 112 28.834 148 60.501s54 70.5 54 116.5v16c0 61.333 -23.833 108.666 -71.5 141.999s-114.834 50 -201.501 50c-87.333 0 -154.833 -16.667 -202.5 -50
s-71.5 -80.666 -71.5 -141.999v-16c0 -46 18 -84.667 54 -116s85.667 -51.666 149 -60.999v-190h-303v89h209v36c-64 15.333 -115 44.333 -153 87s-57 93.334 -57 152.001v18c0 57.333 15.333 107.666 46 150.999s74.334 76.666 131.001 99.999s122.667 35 198 35
s141.166 -11.667 197.499 -35s99.833 -56.666 130.5 -99.999s46 -93.666 46 -150.999v-18c0 -58.667 -18.833 -109.334 -56.5 -152.001zM-17.999 655.998l-20 -261h-87l20 261h87z" />
    <glyph glyph-name="iotadieresistonos" unicode="&#x390;" horiz-adv-x="329" 
d="M133 35.5c-25.333 23.667 -38.001 58.167 -38.001 103.5v356h96v-346c0 -23.333 5.33301 -39.833 16 -49.5s28.334 -14.5 53.001 -14.5h53v-85h-70c-48 -0 -84.667 11.833 -110 35.5zM199.999 818l-20 -261h-87l20 261h87zM-81.501 593.5
c-11.667 11 -17.5 25.167 -17.5 42.5s5.83301 31.333 17.5 42s26.5 16 44.5 16c18.667 0 33.667 -5.33301 45 -16s17 -24.667 17 -42s-5.66699 -31.5 -17 -42.5s-26.333 -16.5 -45 -16.5c-18 0 -32.833 5.5 -44.5 16.5zM279.499 593.5c-11.667 11 -17.5 25.167 -17.5 42.5
s5.66699 31.333 17 42s26.333 16 45 16s33.667 -5.33301 45 -16s17 -24.667 17 -42s-5.66699 -31.5 -17 -42.5s-26.333 -16.5 -45 -16.5c-18 0 -32.833 5.5 -44.5 16.5z" />
    <glyph glyph-name="Alpha" unicode="&#x391;" horiz-adv-x="770" 
d="M750 15v-15h-102l-78 166h-370l-78 -166h-102v15l310 641h110zM527 256l-142 301l-142 -301h284z" />
    <glyph glyph-name="Beta" unicode="&#x392;" horiz-adv-x="785" 
d="M693.5 279.5c18.333 -24.333 27.5 -53.501 27.5 -87.501v-11c0 -55.333 -21.167 -99.333 -63.5 -132s-98.833 -49 -169.5 -49h-396v656h375c73.333 0 130.5 -14.5 171.5 -43.5s61.5 -69.833 61.5 -122.5v-12c0 -31.333 -7.33301 -59 -22 -83s-36 -43.667 -64 -59
c34.667 -13.333 61.167 -32.166 79.5 -56.499zM192 566.999l0.000976562 -191h274c88.667 0 133 30 133 90v12c0 28.667 -11.333 50.667 -34 66s-55.334 23 -98.001 23h-275zM620.001 194.999c0 60.667 -44.667 91 -134 91h-294v-197h294c42 0 74.833 8.5 98.5 25.5
s35.5 40.167 35.5 69.5v11z" />
    <glyph glyph-name="Gamma" unicode="&#x393;" horiz-adv-x="687" 
d="M675 656v-89h-483v-567h-100v656h583z" />
    <glyph glyph-name="uni0394" unicode="&#x394;" horiz-adv-x="773" 
d="M729 89v-89h-685v89l282 567h121zM146 89h481l-240 486z" />
    <glyph glyph-name="Epsilon" unicode="&#x395;" horiz-adv-x="723" 
d="M650 656v-89h-458v-194h438v-89h-438v-195h458v-89h-558v656h558z" />
    <glyph glyph-name="Zeta" unicode="&#x396;" horiz-adv-x="696" 
d="M650 567l-471 -478h471v-89h-604v89l471 478h-471v89h604v-89z" />
    <glyph glyph-name="Eta" unicode="&#x397;" horiz-adv-x="819" 
d="M192 656v-283h435v283h100v-656h-100v283h-435v-283h-100v656h100z" />
    <glyph glyph-name="Theta" unicode="&#x398;" horiz-adv-x="877" 
d="M636.5 627c56.333 -27.333 99.833 -66.165 130.5 -116.498s46 -109.166 46 -176.499v-13c0 -67.333 -15.333 -126 -46 -176s-74.167 -88.667 -130.5 -116s-122.166 -41 -197.499 -41s-141.333 13.667 -198 41s-100.334 66.166 -131.001 116.499s-46 108.833 -46 175.5v13
c0 67.333 15.333 126.166 46 176.499s74.334 89.166 131.001 116.499s122.667 41 198 41s141.166 -13.667 197.499 -41zM250 522.001c-47.333 -35.333 -75 -85 -83 -149h543c-8 64 -35.667 113.667 -83 149s-110 53 -188 53c-78.667 0 -141.667 -17.667 -189 -53z
M624.5 135.501c48.333 36.333 76.834 85.5 85.501 147.5h-543c7.33301 -64 34.5 -113.667 81.5 -149s110.5 -53 190.5 -53c75.333 0 137.166 18.167 185.499 54.5z" />
    <glyph glyph-name="Iota" unicode="&#x399;" horiz-adv-x="299" 
d="M199 656v-656h-99v656h99z" />
    <glyph glyph-name="Kappa" unicode="&#x39a;" horiz-adv-x="813" 
d="M751 641l-336 -276l326 -350v-15h-121l-283 302l-145 -116v-186h-100v656h100v-346l426 346h133v-15z" />
    <glyph glyph-name="Lambda" unicode="&#x39b;" horiz-adv-x="770" 
d="M750 15v-15h-102l-263 561l-263 -561h-102v15l308 641h114z" />
    <glyph glyph-name="Mu" unicode="&#x39c;" horiz-adv-x="1029" 
d="M937 0h-99v528l-272 -528h-103l-272 529v-529h-99v656h140l283 -544l283 544h139v-656z" />
    <glyph glyph-name="Nu" unicode="&#x39d;" horiz-adv-x="819" 
d="M727 656v-656h-98l-440 517v-517h-97v656h98l440 -516v516h97z" />
    <glyph glyph-name="Xi" unicode="&#x39e;" horiz-adv-x="790" 
d="M443 567v-194h253v-89h-253v-195h274v-89h-644v89h275v195h-254v89h254v194h-275v89h644v-89h-274z" />
    <glyph glyph-name="Omicron" unicode="&#x39f;" horiz-adv-x="877" 
d="M241 29c-56.667 27.333 -100.334 66 -131.001 116s-46 108.667 -46 176v13c0 67.333 15.333 126.166 46 176.499s74.334 89.166 131.001 116.499s122.667 41 198 41s141.166 -13.667 197.499 -41s99.833 -66.166 130.5 -116.499s46 -109.166 46 -176.499v-13
c0 -67.333 -15.333 -126 -46 -176s-74.167 -88.667 -130.5 -116s-122.166 -41 -197.499 -41s-141.333 13.667 -198 41zM640 144c48 42 72 100.333 72 175v16c0 75.333 -24 134.166 -72 176.499s-115 63.5 -201 63.5s-153.167 -21.167 -201.5 -63.5
s-72.5 -101.166 -72.5 -176.499v-16c0 -74.667 24.167 -133 72.5 -175s115.5 -63 201.5 -63s153 21 201 63z" />
    <glyph glyph-name="Pi" unicode="&#x3a0;" horiz-adv-x="799" 
d="M707 656v-656h-100v567h-415v-567h-100v656h615z" />
    <glyph glyph-name="Rho" unicode="&#x3a1;" horiz-adv-x="787" 
d="M496 656c73.333 0 131.333 -17.5 174 -52.5s64 -82.167 64 -141.5v-12c0 -59.333 -21.333 -106.5 -64 -141.5s-100.667 -52.5 -174 -52.5h-304v-256h-100v656h404zM596.5 372.5c24.333 18.333 36.5 44.168 36.5 77.501v12c0 33.333 -12.167 59.166 -36.5 77.499
s-58.5 27.5 -102.5 27.5h-302v-222h302c44 0 78.167 9.16699 102.5 27.5z" />
    <glyph glyph-name="Sigma" unicode="&#x3a3;" horiz-adv-x="703" 
d="M649 567h-431l284 -208v-62l-284 -208h431v-89h-583v89l331 239l-331 239v89h583v-89z" />
    <glyph glyph-name="Tau" unicode="&#x3a4;" horiz-adv-x="691" 
d="M12 567v89h667v-89h-284v-567h-99v567h-284z" />
    <glyph glyph-name="Upsilon" unicode="&#x3a5;" horiz-adv-x="726" 
d="M719 641l-306 -375v-266h-99v266l-307 375v15h111l245 -297l245 297h111v-15z" />
    <glyph glyph-name="Phi" unicode="&#x3a6;" horiz-adv-x="1077" 
d="M926 527c58 -45.333 87 -109.666 87 -192.999v-8c0 -83.333 -29.167 -148.333 -87.5 -195s-140.5 -70 -246.5 -70h-91v-101h-99v101h-90c-107.333 0 -190 23 -248 69s-87 111.333 -87 196v8c0 83.333 28.833 147.666 86.5 192.999s140.5 68 248.5 68h90v101h99v-101h91
c106.667 0 189 -22.667 247 -68zM222 193c38 -28.667 97 -43 177 -43h90v356h-90c-80 0 -139 -14 -177 -42s-57 -71 -57 -129v-10c0 -59.333 19 -103.333 57 -132zM912 335c0 57.333 -19.167 100.167 -57.5 128.5s-96.833 42.5 -175.5 42.5h-91v-356h91
c78.667 0 137.167 14.333 175.5 43s57.5 72.667 57.5 132v10z" />
    <glyph glyph-name="Chi" unicode="&#x3a7;" horiz-adv-x="819" 
d="M757 641l-275 -313l275 -313v-15h-118l-229 263l-230 -263h-118v15l275 313l-275 313v15h118l230 -263l230 263h117v-15z" />
    <glyph glyph-name="Psi" unicode="&#x3a8;" horiz-adv-x="1057" 
d="M993 656l0.00195312 -234c0 -82 -27.833 -145.5 -83.5 -190.5s-134.834 -67.5 -237.501 -67.5h-94v-164h-99v164h-93c-102.667 0 -181.834 22.5 -237.501 67.5s-83.5 108.5 -83.5 190.5v234h99v-231c0 -114 72 -171 216 -171h99v402h99v-402h100c144 0 216 57 216 171
v231h99z" />
    <glyph glyph-name="uni03A9" unicode="&#x3a9;" horiz-adv-x="880" 
d="M757.5 212c-37.667 -42.667 -88.499 -71.6689 -152.499 -87.002v-36h209v-89h-303v190c62.667 8.66699 112 28.834 148 60.501s54 70.5 54 116.5v16c0 61.333 -23.833 108.666 -71.5 141.999s-114.834 50 -201.501 50c-87.333 0 -154.833 -16.667 -202.5 -50
s-71.5 -80.666 -71.5 -141.999v-16c0 -46 18 -84.667 54 -116s85.667 -51.666 149 -60.999v-190h-303v89h209v36c-64 15.333 -115 44.333 -153 87s-57 93.334 -57 152.001v18c0 57.333 15.333 107.666 46 150.999s74.334 76.666 131.001 99.999s122.667 35 198 35
s141.166 -11.667 197.499 -35s99.833 -56.666 130.5 -99.999s46 -93.666 46 -150.999v-18c0 -58.667 -18.833 -109.334 -56.5 -152.001z" />
    <glyph glyph-name="Iotadieresis" unicode="&#x3aa;" horiz-adv-x="299" 
d="M199 656v-656h-99v656h99zM-24.5 754.5c-11.667 11 -17.5 25.167 -17.5 42.5s5.83301 31.333 17.5 42s26.834 16 45.501 16c18 0 32.667 -5.33301 44 -16s17 -24.667 17 -42s-5.83301 -31.5 -17.5 -42.5s-26.167 -16.5 -43.5 -16.5c-18.667 0 -33.834 5.5 -45.501 16.5z
M234.5 754.5c-11.667 11 -17.5 25.167 -17.5 42.5s5.66699 31.333 17 42s26.333 16 45 16c18 0 32.833 -5.33301 44.5 -16s17.5 -24.667 17.5 -42s-5.83301 -31.5 -17.5 -42.5s-26.5 -16.5 -44.5 -16.5s-32.833 5.5 -44.5 16.5z" />
    <glyph glyph-name="Upsilondieresis" unicode="&#x3ab;" horiz-adv-x="726" 
d="M719 641l-306 -375v-266h-99v266l-307 375v15h111l245 -297l245 297h111v-15zM188.5 754.5c-11.667 11 -17.5 25.167 -17.5 42.5s5.83301 31.333 17.5 42s26.834 16 45.501 16c18 0 32.667 -5.33301 44 -16s17 -24.667 17 -42s-5.83301 -31.5 -17.5 -42.5
s-26.167 -16.5 -43.5 -16.5c-18.667 0 -33.834 5.5 -45.501 16.5zM447.5 754.5c-11.667 11 -17.5 25.167 -17.5 42.5s5.66699 31.333 17 42s26.333 16 45 16c18 0 32.833 -5.33301 44.5 -16s17.5 -24.667 17.5 -42s-5.83301 -31.5 -17.5 -42.5s-26.5 -16.5 -44.5 -16.5
s-32.833 5.5 -44.5 16.5z" />
    <glyph glyph-name="alphatonos" unicode="&#x3ac;" horiz-adv-x="737" 
d="M732 85l-0.00292969 -85h-66c-30.667 0 -56.667 5.5 -78 16.5s-36.666 27.167 -45.999 48.5c-50 -51.333 -118.333 -77 -205 -77c-58 0 -108.833 10.5 -152.5 31.5s-77.5 50.5 -101.5 88.5s-36 82 -36 132v16c0 50 11.833 94 35.5 132s57.334 67.333 101.001 88
s94.5 31 152.5 31c80.667 0 146.667 -23 198 -69l3 57h89v-355c0 -18 5.33301 -31.667 16 -41s26.334 -14 47.001 -14h43zM453.497 97.5c33 14.333 58.835 34.167 77.502 59.5v183c-18.667 25.333 -44.334 44.833 -77.001 58.5s-69.334 20.5 -110.001 20.5
c-62 0 -110.5 -14.333 -145.5 -43s-52.5 -68.667 -52.5 -120v-16c0 -50.667 17.5 -90.667 52.5 -120s83.167 -44 144.5 -44c40.667 0 77.5 7.16699 110.5 21.5zM426.999 818.001l-20 -261h-87l20 261h87z" />
    <glyph glyph-name="epsilontonos" unicode="&#x3ad;" horiz-adv-x="684" 
d="M536 305v7.00098c0 39.333 -14.833 67.5 -44.5 84.5s-78.834 25.5 -147.501 25.5c-117.333 0 -176 -21.667 -176 -65v-7c0 -19.333 8.83301 -33.833 26.5 -43.5s43.834 -14.5 78.501 -14.5h158v-85h-169c-71.333 0 -107 -19 -107 -57v-7c0 -46.667 59.333 -70 178 -70
c71.333 0 123 8.66699 155 26s48 45 48 83v7h95v-7c0 -129.333 -98.667 -194 -296 -194c-91.333 0 -160.666 12.833 -207.999 38.5s-71 63.167 -71 112.5v7c0 22.667 7.5 43.167 22.5 61.5s36.167 33.166 63.5 44.499c-22.667 12 -40.334 26.5 -53.001 43.5
s-19 35.833 -19 56.5v7c0 47.333 23.167 83.833 69.5 109.5s112.833 38.5 199.5 38.5c96 0 168.667 -16.5 218 -49.5s74 -81.5 74 -145.5v-7h-95zM405 818.001l-20 -261h-87l20 261h87z" />
    <glyph glyph-name="etatonos" unicode="&#x3ae;" horiz-adv-x="733" 
d="M590.5 441.5c43 -43.667 64.502 -106.5 64.502 -188.5v-423h-95v423c0 53.333 -14 94.333 -42 123s-67.667 43 -119 43c-41.333 0 -78.333 -8.83301 -111 -26.5s-57.334 -42.167 -74.001 -73.5l-1 -319h-94v349c0 40 -22.667 60 -68 60h-46v86h69
c67.333 0 110.666 -23 129.999 -69c47.333 54 114.333 81 201 81c80.667 0 142.5 -21.833 185.5 -65.5zM454.002 818l-20 -261h-87l20 261h87z" />
    <glyph glyph-name="iotatonos" unicode="&#x3af;" horiz-adv-x="329" 
d="M133 35.5c-25.333 23.667 -38.001 58.167 -38.001 103.5v356h96v-346c0 -23.333 5.33301 -39.833 16 -49.5s28.334 -14.5 53.001 -14.5h53v-85h-70c-48 -0 -84.667 11.833 -110 35.5zM204.999 818l-20 -261h-87l20 261h87z" />
    <glyph glyph-name="upsilondieresistonos" unicode="&#x3b0;" horiz-adv-x="704" 
d="M151.5 54c-49 44 -73.5 105.001 -73.5 183.001v258h95v-259c0 -51.333 15.833 -91.166 47.5 -119.499s76.5 -42.5 134.5 -42.5c56 0 99.333 14.167 130 42.5s46 68.166 46 119.499v259h95v-258c0 -78.667 -23.833 -139.834 -71.5 -183.501s-114.167 -65.5 -199.5 -65.5
c-86.667 0 -154.5 22 -203.5 66zM410 818.001l-20 -261h-87l20 261h87zM128.5 593.501c-11.667 11 -17.5 25.167 -17.5 42.5s5.83301 31.333 17.5 42s26.5 16 44.5 16c18.667 0 33.667 -5.33301 45 -16s17 -24.667 17 -42s-5.66699 -31.5 -17 -42.5s-26.333 -16.5 -45 -16.5
c-18 0 -32.833 5.5 -44.5 16.5zM489.5 593.501c-11.667 11 -17.5 25.167 -17.5 42.5s5.66699 31.333 17 42s26.333 16 45 16s33.667 -5.33301 45 -16s17 -24.667 17 -42s-5.66699 -31.5 -17 -42.5s-26.333 -16.5 -45 -16.5c-18 0 -32.833 5.5 -44.5 16.5z" />
    <glyph glyph-name="alpha" unicode="&#x3b1;" horiz-adv-x="737" 
d="M732 85l-0.00292969 -85h-66c-30.667 0 -56.667 5.5 -78 16.5s-36.666 27.167 -45.999 48.5c-50 -51.333 -118.333 -77 -205 -77c-58 0 -108.833 10.5 -152.5 31.5s-77.5 50.5 -101.5 88.5s-36 82 -36 132v16c0 50 11.833 94 35.5 132s57.334 67.333 101.001 88
s94.5 31 152.5 31c80.667 0 146.667 -23 198 -69l3 57h89v-355c0 -18 5.33301 -31.667 16 -41s26.334 -14 47.001 -14h43zM453.497 97.5c33 14.333 58.835 34.167 77.502 59.5v183c-18.667 25.333 -44.334 44.833 -77.001 58.5s-69.334 20.5 -110.001 20.5
c-62 0 -110.5 -14.333 -145.5 -43s-52.5 -68.667 -52.5 -120v-16c0 -50.667 17.5 -90.667 52.5 -120s83.167 -44 144.5 -44c40.667 0 77.5 7.16699 110.5 21.5z" />
    <glyph glyph-name="beta" unicode="&#x3b2;" horiz-adv-x="723" 
d="M647 290.5c18.667 -25 27.999 -54.834 27.999 -89.501v-11c0 -63.333 -24.333 -112.833 -73 -148.5s-116.667 -53.5 -204 -53.5c-88.667 0 -161 20.667 -217 62v-220h-96v634c0 78.667 25.167 139 75.5 181s122.833 63 217.5 63c57.333 0 107.5 -8.33301 150.5 -25
s76 -40.667 99 -72s34.5 -67.666 34.5 -108.999v-11c0 -34 -8.16699 -63 -24.5 -87s-40.166 -42.667 -71.499 -56c35.333 -13.333 62.333 -32.5 81 -57.5zM575.999 199.999c0 34.667 -11.002 60.333 -33.002 77s-55.667 25 -101 25h-116v85h101c90.667 0 136 34.667 136 104
v7c0 39.333 -15.667 69.5 -47 90.5s-76 31.5 -134 31.5c-134 0 -201 -52.667 -201 -158v-304c18.667 -26.667 46.334 -47 83.001 -61s79.667 -21 129 -21c60.667 0 106.334 9.83301 137.001 29.5s46 48.5 46 86.5v8z" />
    <glyph glyph-name="gamma" unicode="&#x3b3;" horiz-adv-x="695" 
d="M659 481l-263 -494v-157h-96v157l-264 494v14h100l212 -398l211 398h100v-14z" />
    <glyph glyph-name="delta" unicode="&#x3b4;" horiz-adv-x="685" 
d="M602.5 361c23.667 -34 35.5 -74.002 35.5 -120.002v-13c0 -48.667 -12 -91 -36 -127s-58.333 -63.833 -103 -83.5s-96.667 -29.5 -156 -29.5c-60 0 -112.333 9.83301 -157 29.5s-79 47.834 -103 84.501s-36 79.334 -36 128.001v14c0 66.667 20.833 120 62.5 160
s101.167 64.667 178.5 74l-215 132v86h516v-85h-351l246 -149c55.333 -33.333 94.833 -67 118.5 -101zM539 241.998c0 32 -8.16797 58.832 -24.501 80.499s-47.166 46.167 -92.499 73.5l-12 7c-17.333 1.33301 -31.333 2 -42 2c-72 0 -127 -13.667 -165 -41
s-57 -66.666 -57 -117.999v-12c0 -49.333 17.5 -88 52.5 -116s83.167 -42 144.5 -42c60.667 0 108.5 13.833 143.5 41.5s52.5 65.5 52.5 113.5v11z" />
    <glyph glyph-name="epsilon" unicode="&#x3b5;" horiz-adv-x="684" 
d="M536 305v7.00098c0 39.333 -14.833 67.5 -44.5 84.5s-78.834 25.5 -147.501 25.5c-117.333 0 -176 -21.667 -176 -65v-7c0 -19.333 8.83301 -33.833 26.5 -43.5s43.834 -14.5 78.501 -14.5h158v-85h-169c-71.333 0 -107 -19 -107 -57v-7c0 -46.667 59.333 -70 178 -70
c71.333 0 123 8.66699 155 26s48 45 48 83v7h95v-7c0 -129.333 -98.667 -194 -296 -194c-91.333 0 -160.666 12.833 -207.999 38.5s-71 63.167 -71 112.5v7c0 22.667 7.5 43.167 22.5 61.5s36.167 33.166 63.5 44.499c-22.667 12 -40.334 26.5 -53.001 43.5
s-19 35.833 -19 56.5v7c0 47.333 23.167 83.833 69.5 109.5s112.833 38.5 199.5 38.5c96 0 168.667 -16.5 218 -49.5s74 -81.5 74 -145.5v-7h-95z" />
    <glyph glyph-name="zeta" unicode="&#x3b6;" horiz-adv-x="599" 
d="M597 -37l0.000976562 -13.999c0 -41.333 -13.333 -71.5 -40 -90.5s-67.667 -28.5 -123 -28.5h-123v85h129c21.333 0 36.833 3.16699 46.5 9.5s14.5 16.166 14.5 29.499v6c0 13.333 -5 23.333 -15 30s-25.333 10 -46 10h-120c-85.333 0 -152.5 18 -201.5 54
s-73.5 85.667 -73.5 149v11c0 30 5.66699 57.5 17 82.5s30.5 50.667 57.5 77s64.833 56.833 113.5 91.5l205 146h-383v85h534v-82l-295 -212c-42 -30.667 -73.5 -55.667 -94.5 -75s-35.5 -37.333 -43.5 -54s-12 -36 -12 -58v-8c0 -38.667 15.667 -68.667 47 -90
s74.666 -32 129.999 -32h113c108.667 0 163 -40.667 163 -122z" />
    <glyph glyph-name="eta" unicode="&#x3b7;" horiz-adv-x="733" 
d="M590.5 441.5c43 -43.667 64.502 -106.5 64.502 -188.5v-423h-95v423c0 53.333 -14 94.333 -42 123s-67.667 43 -119 43c-41.333 0 -78.333 -8.83301 -111 -26.5s-57.334 -42.167 -74.001 -73.5l-1 -319h-94v349c0 40 -22.667 60 -68 60h-46v86h69
c67.333 0 110.666 -23 129.999 -69c47.333 54 114.333 81 201 81c80.667 0 142.5 -21.833 185.5 -65.5z" />
    <glyph glyph-name="theta" unicode="&#x3b8;" horiz-adv-x="675" 
d="M492.5 637.5c43.667 -20.333 77.167 -49.333 100.5 -87s35 -82.5 35 -134.5v-178c0 -50.667 -11.833 -94.834 -35.5 -132.501s-57.334 -66.667 -101.001 -87s-94.5 -30.5 -152.5 -30.5c-58.667 0 -110 10.167 -154 30.5s-78 49.333 -102 87s-36 81.834 -36 132.501v178
c0 51.333 11.833 96 35.5 134s57.5 67.167 101.5 87.5s95.667 30.5 155 30.5c58.667 0 109.834 -10.167 153.501 -30.5zM196 537.5c-34.667 -29 -52 -68.5 -52 -118.5v-48h387v48c0 50 -17.5 89.5 -52.5 118.5s-81.833 43.5 -140.5 43.5c-60 0 -107.333 -14.5 -142 -43.5z
M478.5 119.5c35 29 52.5 68.5 52.5 118.5v48h-387v-48c0 -50 17.333 -89.5 52 -118.5s82 -43.5 142 -43.5c58.667 0 105.5 14.5 140.5 43.5z" />
    <glyph glyph-name="iota" unicode="&#x3b9;" horiz-adv-x="329" 
d="M133 35.5c-25.333 23.667 -38.001 58.167 -38.001 103.5v356h96v-346c0 -23.333 5.33301 -39.833 16 -49.5s28.334 -14.5 53.001 -14.5h53v-85h-70c-48 -0 -84.667 11.833 -110 35.5z" />
    <glyph glyph-name="kappa" unicode="&#x3ba;" horiz-adv-x="681" 
d="M655 14v-14h-111l-225 226l-138 -109v-117h-96v495h96v-260l335 260h126v-14l-253 -200z" />
    <glyph glyph-name="lambda" unicode="&#x3bb;" horiz-adv-x="705" 
d="M668 14v-14h-103l-210 391l-206 -391h-103v14l255 479l-30 55c-13.333 24 -26.833 40.5 -40.5 49.5s-33.5 13.5 -59.5 13.5h-111v85h114c48.667 0 86 -7.33301 112 -22s49.667 -41.667 71 -81z" />
    <glyph glyph-name="uni03BC" unicode="&#x3bc;" horiz-adv-x="740" 
d="M742 85l-0.00195312 -85.001h-69c-33.333 0 -61.166 5.83301 -83.499 17.5s-38.166 28.834 -47.499 51.501c-20 -26 -46 -46 -78 -60s-68 -21 -108 -21c-37.333 0 -71 5.5 -101 16.5s-54.667 26.833 -74 47.5v-222h-96v665h96v-253c0 -53.333 15 -94.333 45 -123
s72.333 -43 127 -43c40 0 75.5 8.5 106.5 25.5s55.167 41.167 72.5 72.5v321h96v-350c0 -40 22.333 -60 67 -60h47z" />
    <glyph glyph-name="nu" unicode="&#x3bd;" horiz-adv-x="697" 
d="M660 495v-14l-249 -481h-124l-250 481v14h100l212 -411l211 411h100z" />
    <glyph glyph-name="xi" unicode="&#x3be;" horiz-adv-x="663" 
d="M548 491v5c0 38.667 -17 69 -51 91s-81.667 33 -143 33c-56.667 0 -101.5 -10.333 -134.5 -31s-49.5 -49 -49.5 -85v-10c0 -32.667 11.667 -58 35 -76s55.666 -27 96.999 -27h148v-84h-167c-40.667 0 -72.167 -9 -94.5 -27s-33.5 -43.667 -33.5 -77v-10
c0 -37.333 15.5 -64.666 46.5 -81.999s79.5 -26 145.5 -26h131c108.667 0 163 -40.667 163 -122v-14c0 -41.333 -13 -71.5 -39 -90.5s-67.333 -28.5 -124 -28.5h-122v85h128c21.333 0 37 3.16699 47 9.5s15 16.166 15 29.499v6c0 26.667 -20.667 40 -62 40h-137
c-93.333 0 -165.166 16.167 -215.499 48.5s-75.5 78.5 -75.5 138.5v10c0 38 9.33301 70.333 28 97s46 46.667 82 60c-30 14 -53.167 33.5 -69.5 58.5s-24.5 54.5 -24.5 88.5v10c0 38 11.833 72 35.5 102s57 53.333 100 70s92.167 25 147.5 25c58.667 0 110 -8.66699 154 -26
s78 -42 102 -74s36 -69.333 36 -112v-5h-99z" />
    <glyph glyph-name="omicron" unicode="&#x3bf;" horiz-adv-x="685" 
d="M186 18.5c-44.667 20.333 -79 49.333 -103 87s-36 81.834 -36 132.501v17c0 51.333 12 96 36 134s58.333 67.167 103 87.5s97.334 30.5 158.001 30.5c60 0 112.167 -10.167 156.5 -30.5s78.333 -49.5 102 -87.5s35.5 -82.667 35.5 -134v-17
c0 -50.667 -11.833 -94.834 -35.5 -132.501s-57.667 -66.667 -102 -87s-96.5 -30.5 -156.5 -30.5c-60.667 0 -113.334 10.167 -158.001 30.5zM487 119c34.667 28.667 52 68.334 52 119.001v17c0 51.333 -17.333 91.5 -52 120.5s-82.667 43.5 -144 43.5
c-62.667 0 -111.167 -14.333 -145.5 -43s-51.5 -69 -51.5 -121v-17c0 -50.667 17.5 -90.334 52.5 -119.001s83.167 -43 144.5 -43s109.333 14.333 144 43z" />
    <glyph glyph-name="pi" unicode="&#x3c0;" horiz-adv-x="814" 
d="M13 409l-0.000976562 86h789v-86h-188v-251c0 -24.667 5.83301 -43 17.5 -55s29.834 -18 54.501 -18h104v-85h-111c-52 0 -91.833 13.5 -119.5 40.5s-41.5 65.833 -41.5 116.5v252h-250v-409h-95v409h-160z" />
    <glyph glyph-name="rho" unicode="&#x3c1;" horiz-adv-x="704" 
d="M520.5 476c43.667 -20.667 77.332 -50.001 100.999 -88.001s35.5 -82.333 35.5 -133v-15c0 -49.333 -12 -93.166 -36 -131.499s-57.667 -68 -101 -89s-93.333 -31.5 -150 -31.5c-79.333 0 -144.666 22 -195.999 66v-224h-96v426c0 78.667 25.5 140.167 76.5 184.5
s121.5 66.5 211.5 66.5c59.333 0 110.833 -10.333 154.5 -31zM557.998 253.999c0 51.333 -17.1689 91.6689 -51.502 121.002s-81.166 44 -140.499 44c-61.333 0 -108.666 -14.333 -141.999 -43s-50 -69.334 -50 -122.001v-97c18.667 -24.667 45.167 -44.334 79.5 -59.001
s71.5 -22 111.5 -22c60 0 107.167 14.5 141.5 43.5s51.5 69.167 51.5 120.5v14z" />
    <glyph glyph-name="uni03C2" unicode="&#x3c2;" horiz-adv-x="665" 
d="M467 -85c21.333 0 36.834 3.16895 46.501 9.50195s14.5 16.166 14.5 29.499v6c0 13.333 -5 23.333 -15 30s-25.333 10 -46 10h-125c-94 0 -166.667 20.667 -218 62s-77 99.666 -77 174.999v21c0 50 12 93.833 36 131.5s58.167 66.667 102.5 87s96.166 30.5 155.499 30.5
c55.333 0 104.833 -9.33301 148.5 -28s77.667 -44.667 102 -78s36.5 -71 36.5 -113v-11h-98v11c0 25.333 -8 47.833 -24 67.5s-38.333 35.167 -67 46.5s-61 17 -97 17c-61.333 0 -109.333 -14.167 -144 -42.5s-52 -67.833 -52 -118.5v-21c0 -48.667 17 -86.167 51 -112.5
s82.667 -39.5 146 -39.5h118c108.667 0 163 -40.667 163 -122v-14c0 -40.667 -13.167 -70.667 -39.5 -90s-67.5 -29 -123.5 -29h-123v85h129z" />
    <glyph glyph-name="sigma" unicode="&#x3c3;" horiz-adv-x="735" 
d="M732 409l-172 -0.000976562c52 -34 78 -88.667 78 -164v-17c0 -48 -12 -90.167 -36 -126.5s-58.167 -64.333 -102.5 -84s-96.166 -29.5 -155.499 -29.5c-60.667 0 -113.334 10.167 -158.001 30.5s-79 49.333 -103 87s-36 81.834 -36 132.501v17c0 49.333 12 92 36 128
s58.167 63.667 102.5 83s96.833 29 157.5 29h389v-86zM515.5 340.499c-15.667 25.667 -40.167 48.501 -73.5 68.501h-99c-62.667 0 -111.167 -13.833 -145.5 -41.5s-51.5 -66.5 -51.5 -116.5v-15c0 -50.667 17.5 -90.334 52.5 -119.001s83.167 -43 144.5 -43
c60.667 0 108.5 14.5 143.5 43.5s52.5 68.5 52.5 118.5v15c0 34 -7.83301 63.833 -23.5 89.5z" />
    <glyph glyph-name="tau" unicode="&#x3c4;" horiz-adv-x="572" 
d="M242 41.5c-29.333 27.667 -43.999 66.5 -43.999 116.5v251h-185v86h532v-86h-251v-248c0 -24.667 6.66699 -43.5 20 -56.5s32.666 -19.5 57.999 -19.5h143v-85h-150c-52.667 -0 -93.667 13.833 -123 41.5z" />
    <glyph glyph-name="upsilon" unicode="&#x3c5;" horiz-adv-x="704" 
d="M151.5 54c-49 44 -73.5 105.001 -73.5 183.001v258h95v-259c0 -51.333 15.833 -91.166 47.5 -119.499s76.5 -42.5 134.5 -42.5c56 0 99.333 14.167 130 42.5s46 68.166 46 119.499v259h95v-258c0 -78.667 -23.833 -139.834 -71.5 -183.501s-114.167 -65.5 -199.5 -65.5
c-86.667 0 -154.5 22 -203.5 66z" />
    <glyph glyph-name="phi" unicode="&#x3c6;" horiz-adv-x="968" 
d="M838 432c53.333 -42 80.0039 -101.333 80.0039 -178v-14c0 -75.333 -26.833 -134.166 -80.5 -176.499s-128.834 -63.5 -225.501 -63.5h-80v-170h-96v170h-80c-96.667 0 -171.834 21.167 -225.501 63.5s-80.5 101.166 -80.5 176.499v14c0 76.667 26.667 136 80 178
s128.666 63 225.999 63h80v201h96v-201h80c97.333 0 172.666 -21 225.999 -63zM436.004 85v326h-85c-64.667 0 -114.667 -13.667 -150 -41s-53 -66.333 -53 -117v-12c0 -50 17.5 -88.5 52.5 -115.5s85.167 -40.5 150.5 -40.5h85zM820.004 253
c0 50.667 -17.667 89.667 -53 117s-85.333 41 -150 41h-85v-326h85c65.333 0 115.5 13.5 150.5 40.5s52.5 65.5 52.5 115.5v12z" />
    <glyph glyph-name="chi" unicode="&#x3c7;" horiz-adv-x="656" 
d="M622 -156v-14h-105l-189 269l-190 -269h-105v14l228 321l-224 316v14h104l186 -264l185 264h105v-14l-224 -316z" />
    <glyph glyph-name="psi" unicode="&#x3c8;" horiz-adv-x="898" 
d="M820 495l0.00195312 -248c0 -78.667 -26 -139.5 -78 -182.5s-125.667 -64.5 -221 -64.5h-24v-170h-96v170h-24c-95.333 0 -169 21.5 -221 64.5s-78 103.833 -78 182.5v248h95v-244c0 -54.667 16.667 -95.834 50 -123.501s82.666 -41.5 147.999 -41.5h30v610h96v-610h30
c65.333 0 114.666 13.833 147.999 41.5s50 68.834 50 123.501v244h95z" />
    <glyph glyph-name="omega" unicode="&#x3c9;" horiz-adv-x="968" 
d="M848 432c48.667 -42 73 -102.333 73 -181v-17c0 -49.333 -10.5 -92.5 -31.5 -129.5s-50.667 -65.667 -89 -86s-82.833 -30.5 -133.5 -30.5c-40.667 0 -76.5 7 -107.5 21s-56.167 34 -75.5 60c-19.333 -26 -44.5 -46 -75.5 -60s-66.833 -21 -107.5 -21
c-50.667 0 -95.167 10.167 -133.5 30.5s-68 49 -89 86s-31.5 80.167 -31.5 129.5v17c0 78.667 24.333 139 73 181s118.334 63 209.001 63h22v-84h-27c-58 0 -102.167 -13.333 -132.5 -40s-45.5 -66 -45.5 -118v-17c0 -50.667 14.333 -90.167 43 -118.5s68 -42.5 118 -42.5
c29.333 0 55.166 5.66699 77.499 17s39.5 27.666 51.5 48.999v226h96v-226c12 -21.333 29.167 -37.666 51.5 -48.999s48.166 -17 77.499 -17c50 0 89.333 14.167 118 42.5s43 67.833 43 118.5v17c0 52 -15.167 91.333 -45.5 118s-74.5 40 -132.5 40h-27v84h22
c90.667 0 160.334 -21 209.001 -63z" />
    <glyph glyph-name="iotadieresis" unicode="&#x3ca;" horiz-adv-x="329" 
d="M133 35.5c-25.333 23.667 -38.001 58.167 -38.001 103.5v356h96v-346c0 -23.333 5.33301 -39.833 16 -49.5s28.334 -14.5 53.001 -14.5h53v-85h-70c-48 -0 -84.667 11.833 -110 35.5zM-30.501 593.5c-11.667 11 -17.5 25.167 -17.5 42.5s5.83301 31.333 17.5 42
s26.834 16 45.501 16c18 0 32.667 -5.33301 44 -16s17 -24.667 17 -42s-5.83301 -31.5 -17.5 -42.5s-26.167 -16.5 -43.5 -16.5c-18.667 0 -33.834 5.5 -45.501 16.5zM228.499 593.5c-11.667 11 -17.5 25.167 -17.5 42.5s5.66699 31.333 17 42s26.333 16 45 16
c18 0 32.833 -5.33301 44.5 -16s17.5 -24.667 17.5 -42s-5.83301 -31.5 -17.5 -42.5s-26.5 -16.5 -44.5 -16.5s-32.833 5.5 -44.5 16.5z" />
    <glyph glyph-name="upsilondieresis" unicode="&#x3cb;" horiz-adv-x="704" 
d="M151.5 54c-49 44 -73.5 105.001 -73.5 183.001v258h95v-259c0 -51.333 15.833 -91.166 47.5 -119.499s76.5 -42.5 134.5 -42.5c56 0 99.333 14.167 130 42.5s46 68.166 46 119.499v259h95v-258c0 -78.667 -23.833 -139.834 -71.5 -183.501s-114.167 -65.5 -199.5 -65.5
c-86.667 0 -154.5 22 -203.5 66zM179.5 593.501c-11.667 11 -17.5 25.167 -17.5 42.5s5.83301 31.333 17.5 42s26.834 16 45.501 16c18 0 32.667 -5.33301 44 -16s17 -24.667 17 -42s-5.83301 -31.5 -17.5 -42.5s-26.167 -16.5 -43.5 -16.5
c-18.667 0 -33.834 5.5 -45.501 16.5zM438.5 593.501c-11.667 11 -17.5 25.167 -17.5 42.5s5.66699 31.333 17 42s26.333 16 45 16c18 0 32.833 -5.33301 44.5 -16s17.5 -24.667 17.5 -42s-5.83301 -31.5 -17.5 -42.5s-26.5 -16.5 -44.5 -16.5s-32.833 5.5 -44.5 16.5z" />
    <glyph glyph-name="omicrontonos" unicode="&#x3cc;" horiz-adv-x="685" 
d="M186 18.5c-44.667 20.333 -79 49.333 -103 87s-36 81.834 -36 132.501v17c0 51.333 12 96 36 134s58.333 67.167 103 87.5s97.334 30.5 158.001 30.5c60 0 112.167 -10.167 156.5 -30.5s78.333 -49.5 102 -87.5s35.5 -82.667 35.5 -134v-17
c0 -50.667 -11.833 -94.834 -35.5 -132.501s-57.667 -66.667 -102 -87s-96.5 -30.5 -156.5 -30.5c-60.667 0 -113.334 10.167 -158.001 30.5zM487 119c34.667 28.667 52 68.334 52 119.001v17c0 51.333 -17.333 91.5 -52 120.5s-82.667 43.5 -144 43.5
c-62.667 0 -111.167 -14.333 -145.5 -43s-51.5 -69 -51.5 -121v-17c0 -50.667 17.5 -90.334 52.5 -119.001s83.167 -43 144.5 -43s109.333 14.333 144 43zM404 818l-20 -261h-87l20 261h87z" />
    <glyph glyph-name="upsilontonos" unicode="&#x3cd;" horiz-adv-x="704" 
d="M151.5 54c-49 44 -73.5 105.001 -73.5 183.001v258h95v-259c0 -51.333 15.833 -91.166 47.5 -119.499s76.5 -42.5 134.5 -42.5c56 0 99.333 14.167 130 42.5s46 68.166 46 119.499v259h95v-258c0 -78.667 -23.833 -139.834 -71.5 -183.501s-114.167 -65.5 -199.5 -65.5
c-86.667 0 -154.5 22 -203.5 66zM415 818.001l-20 -261h-87l20 261h87z" />
    <glyph glyph-name="omegatonos" unicode="&#x3ce;" horiz-adv-x="968" 
d="M848 432c48.667 -42 73 -102.333 73 -181v-17c0 -49.333 -10.5 -92.5 -31.5 -129.5s-50.667 -65.667 -89 -86s-82.833 -30.5 -133.5 -30.5c-40.667 0 -76.5 7 -107.5 21s-56.167 34 -75.5 60c-19.333 -26 -44.5 -46 -75.5 -60s-66.833 -21 -107.5 -21
c-50.667 0 -95.167 10.167 -133.5 30.5s-68 49 -89 86s-31.5 80.167 -31.5 129.5v17c0 78.667 24.333 139 73 181s118.334 63 209.001 63h22v-84h-27c-58 0 -102.167 -13.333 -132.5 -40s-45.5 -66 -45.5 -118v-17c0 -50.667 14.333 -90.167 43 -118.5s68 -42.5 118 -42.5
c29.333 0 55.166 5.66699 77.499 17s39.5 27.666 51.5 48.999v226h96v-226c12 -21.333 29.167 -37.666 51.5 -48.999s48.166 -17 77.499 -17c50 0 89.333 14.167 118 42.5s43 67.833 43 118.5v17c0 52 -15.167 91.333 -45.5 118s-74.5 40 -132.5 40h-27v84h22
c90.667 0 160.334 -21 209.001 -63zM545 818l-20 -261h-87l20 261h87z" />
    <glyph glyph-name="uni0400" unicode="&#x400;" horiz-adv-x="723" 
d="M650 656v-89h-458v-194h438v-89h-438v-195h458v-89h-558v656h558zM158 881l427 -75v-83l-427 75v83z" />
    <glyph glyph-name="uni0401" unicode="&#x401;" horiz-adv-x="723" 
d="M650 656v-89h-458v-194h438v-89h-438v-195h458v-89h-558v656h558zM196.5 754.5c-11.667 11 -17.5 25.167 -17.5 42.5s5.83301 31.333 17.5 42s26.834 16 45.501 16c18 0 32.667 -5.33301 44 -16s17 -24.667 17 -42s-5.83301 -31.5 -17.5 -42.5s-26.167 -16.5 -43.5 -16.5
c-18.667 0 -33.834 5.5 -45.501 16.5zM455.5 754.5c-11.667 11 -17.5 25.167 -17.5 42.5s5.66699 31.333 17 42s26.333 16 45 16c18 0 32.833 -5.33301 44.5 -16s17.5 -24.667 17.5 -42s-5.83301 -31.5 -17.5 -42.5s-26.5 -16.5 -44.5 -16.5s-32.833 5.5 -44.5 16.5z" />
    <glyph glyph-name="uni0402" unicode="&#x402;" horiz-adv-x="944" 
d="M809.5 366c51 -34 76.5 -84 76.5 -150v-13c0 -66 -23.833 -116.333 -71.5 -151s-117.167 -52 -208.5 -52h-93v89h85c66.667 0 114.5 9 143.5 27s43.5 47 43.5 87v13c0 36 -18.167 63.667 -54.5 83s-88.833 29 -157.5 29c-70.667 0 -144 -6 -220 -18v-310h-100v567h-241
v89h643v-89h-302v-168c87.333 12 164.333 18 231 18c99.333 0 174.5 -17 225.5 -51z" />
    <glyph glyph-name="uni0403" unicode="&#x403;" horiz-adv-x="627" 
d="M615 656v-89h-423v-567h-100v656h523zM570 880v-82l-427 -75v82z" />
    </font>
</defs>
</svg>
