<svg width="252" height="59" viewBox="0 0 252 59" fill="none" xmlns="http://www.w3.org/2000/svg">
<g filter="url(#filter0_d)">
<path d="M77.8185 36.3451C77.6024 36.3451 77.3863 36.2655 77.2488 36.1064L76.8166 35.6688C76.6594 35.5096 76.5808 35.3107 76.5808 35.0919V11.3606C76.5808 11.1418 76.6594 10.9429 76.8166 10.7838L77.2488 10.3461C77.4059 10.187 77.6024 10.1074 77.8185 10.1074H86.0109C90.4902 10.1074 93.9676 11.3407 96.384 13.7875C98.8005 16.2342 100.038 19.4169 100.038 23.2362C100.038 26.9958 98.8201 30.1587 96.443 32.6253C94.0462 35.1118 90.6474 36.365 86.3449 36.365H77.8185V36.3451ZM86.227 32.2672C88.9185 32.2672 91.1778 31.4318 92.946 29.7807C94.6748 28.1496 95.5589 25.9415 95.5589 23.2163C95.5589 20.5508 94.6945 18.3428 92.9656 16.6718C91.2171 14.981 88.9185 14.1455 86.1092 14.1455H80.8833V32.2672H86.227Z" fill="black"/>
<path d="M110.077 36.3451C109.861 36.3451 109.645 36.2655 109.507 36.1064L109.075 35.6688C108.918 35.5096 108.839 35.3107 108.839 35.0919V11.3606C108.839 11.1418 108.918 10.9429 109.075 10.7838L109.507 10.3461C109.664 10.187 109.861 10.1074 110.077 10.1074H111.884C112.101 10.1074 112.297 10.187 112.454 10.3461L112.886 10.7838C113.044 10.9429 113.122 11.1418 113.122 11.3606V35.072C113.122 35.2908 113.044 35.4898 112.886 35.6489L112.454 36.0865C112.297 36.2457 112.101 36.3252 111.884 36.3252H110.077V36.3451Z" fill="black"/>
<path d="M188.269 36.6423C184.496 36.6423 181.255 35.3294 178.622 32.7435C175.99 30.1575 174.654 26.935 174.654 23.2151C174.654 19.4754 175.99 16.2728 178.622 13.6669C181.255 11.0809 184.496 9.76807 188.269 9.76807C192.041 9.76807 195.302 11.0809 197.954 13.6669C200.606 16.2728 201.942 19.4754 201.942 23.2151C201.942 26.935 200.606 30.1575 197.954 32.7435C195.302 35.3294 192.06 36.6423 188.269 36.6423ZM188.347 14.0051C185.773 14.0051 183.573 14.9002 181.805 16.6706C180.037 18.441 179.133 20.6292 179.133 23.2151C179.133 25.7812 180.037 27.9694 181.805 29.7397C183.573 31.5101 185.793 32.4053 188.347 32.4053C190.901 32.4053 193.082 31.5101 194.83 29.7397C196.579 27.9694 197.463 25.7812 197.463 23.2151C197.463 20.6292 196.579 18.441 194.83 16.6706C193.082 14.9002 190.901 14.0051 188.347 14.0051Z" fill="#A01E30"/>
<path d="M211.981 36.3451C211.765 36.3451 211.569 36.2655 211.411 36.1064L210.96 35.6688C210.802 35.5096 210.724 35.3107 210.724 35.0919V11.3606C210.724 11.1418 210.802 10.923 210.96 10.7838L211.411 10.3461C211.569 10.187 211.765 10.1074 211.981 10.1074H224.044C224.26 10.1074 224.476 10.187 224.614 10.3461L225.065 10.7838C225.223 10.9429 225.301 11.1418 225.301 11.3606V12.8923C225.301 13.1111 225.223 13.3299 225.065 13.4692L224.614 13.9068C224.456 14.066 224.26 14.1455 224.044 14.1455H215.046V20.6105H223.022C223.238 20.6105 223.455 20.69 223.592 20.8492L224.024 21.2868C224.181 21.4459 224.26 21.6448 224.26 21.8637V23.3954C224.26 23.6142 224.181 23.8131 224.024 23.9722L223.592 24.4099C223.435 24.569 223.238 24.6486 223.022 24.6486H215.046V35.0322C215.046 35.251 214.967 35.45 214.81 35.6091L214.378 36.0467C214.221 36.2059 214.024 36.2854 213.808 36.2854H211.981V36.3451Z" fill="#A01E30"/>
<path d="M240.134 36.3451C239.918 36.3451 239.722 36.2655 239.565 36.1064L239.132 35.6688C238.975 35.5096 238.897 35.3107 238.897 35.0919V14.1455H231.372C231.156 14.1455 230.94 14.0461 230.802 13.9068L230.37 13.4692C230.213 13.3101 230.135 13.1111 230.135 12.8923V11.3606C230.135 11.1418 230.213 10.9429 230.37 10.7838L230.802 10.3461C230.96 10.187 231.156 10.1074 231.372 10.1074H250.783C250.999 10.1074 251.215 10.187 251.352 10.3461L251.784 10.7838C251.942 10.9429 252.02 11.1418 252.02 11.3606V12.8923C252.02 13.1111 251.942 13.3299 251.784 13.4692L251.352 13.9068C251.195 14.066 250.999 14.1455 250.783 14.1455H243.258V35.072C243.258 35.2908 243.16 35.4898 243.022 35.6489L242.59 36.0865C242.433 36.2457 242.236 36.3252 242.02 36.3252H240.134V36.3451Z" fill="#A01E30"/>
<path d="M142.297 36.3453C142.14 36.3453 141.982 36.3055 141.865 36.2061L141.452 35.9475C141.315 35.8679 141.216 35.7485 141.157 35.5894L132.867 17.2091L124.596 35.5695C124.537 35.7087 124.419 35.8281 124.301 35.9276L123.908 36.1862C123.771 36.2657 123.613 36.3254 123.476 36.3254H121.57C121.295 36.3254 121.04 36.1862 120.883 35.9475L120.49 35.3109C120.333 35.0722 120.313 34.7738 120.431 34.5152L131.256 10.6248C131.315 10.4856 131.433 10.3662 131.55 10.2667L131.963 10.0082C132.061 9.94848 132.218 9.90869 132.376 9.90869H133.378C133.535 9.90869 133.692 9.94848 133.81 10.0479L134.222 10.3065C134.36 10.3861 134.458 10.5055 134.517 10.6646L145.342 34.555C145.46 34.8136 145.44 35.112 145.283 35.3507L144.89 35.9872C144.733 36.2259 144.478 36.3652 144.202 36.3652H142.297V36.3453Z" fill="black"/>
<path d="M129.291 36.3439C129.016 36.3439 128.761 36.2046 128.604 35.9658L128.191 35.3292C128.034 35.0904 128.014 34.792 128.132 34.5533L128.82 33.0213C128.879 32.882 128.997 32.7627 129.114 32.6632L129.527 32.4045C129.665 32.325 129.802 32.2852 129.959 32.2852H135.716C135.873 32.2852 136.03 32.325 136.148 32.4045L136.541 32.6632C136.678 32.7428 136.776 32.8621 136.835 33.0213L137.523 34.5533C137.641 34.8119 137.621 35.1103 137.464 35.3491L137.051 35.9857C136.894 36.2245 136.639 36.3638 136.364 36.3638H129.291V36.3439Z" fill="black"/>
<path d="M159.075 36.6455C156.894 36.6455 154.635 35.8896 152.375 34.3579C152.258 34.2783 152.159 34.1789 152.1 34.0595L151.904 33.6816C151.845 33.5622 151.806 33.423 151.806 33.3036V31.1553C151.806 30.837 151.982 30.5585 152.258 30.4193L152.965 30.0612C153.083 30.0015 153.201 29.9816 153.338 29.9816C153.515 29.9816 153.672 30.0413 153.81 30.1408C155.853 31.6526 157.582 32.4284 158.976 32.4284C160.057 32.4284 160.902 32.1101 161.629 31.4139C162.336 30.7375 162.67 29.9617 162.67 28.987C162.67 28.2311 162.474 27.6145 162.041 27.0177C161.727 26.6 160.961 25.9435 158.996 25.1677C157.149 24.4516 155.794 23.8549 154.969 23.3973C154.026 22.8801 153.201 22.1242 152.552 21.1694C151.865 20.1549 151.511 18.8818 151.511 17.37C151.511 15.2615 152.316 13.4513 153.888 11.9793C155.381 10.5868 157.208 9.85082 159.291 9.81104H159.31C159.527 9.81104 159.723 9.8906 159.88 10.0497L160.332 10.4874C160.489 10.6465 160.568 10.8653 160.568 11.0642V12.775C160.568 12.9938 160.489 13.1927 160.352 13.3319L159.939 13.7696C159.782 13.9287 159.586 14.0282 159.389 14.0282C158.387 14.0878 157.621 14.3862 156.973 14.983C156.285 15.5996 155.971 16.3356 155.971 17.2507C155.971 17.8872 156.147 18.4442 156.54 18.9614C156.776 19.2598 157.464 19.8963 159.487 20.6721C161.334 21.3882 162.67 21.9651 163.534 22.4425C164.517 22.9995 165.361 23.7952 166.049 24.8097C166.756 25.8839 167.11 27.2365 167.11 28.8677C167.11 31.0558 166.304 32.9058 164.733 34.4176C163.22 35.8896 161.295 36.6455 159.075 36.6455Z" fill="#A01E30"/>
<path d="M77.4644 44.2213C77.9162 44.1417 78.7217 44.082 79.429 44.082C80.4702 44.082 82.1794 44.2611 82.1794 45.6537C82.1794 46.4295 81.59 46.907 80.8828 47.0661V47.086C81.7865 47.2054 82.4545 47.7226 82.4545 48.6178C82.4545 50.2491 80.4113 50.468 79.2129 50.468C78.5252 50.468 77.7983 50.4083 77.4644 50.3884V44.2213ZM78.5252 49.6722C78.8396 49.6921 79.0753 49.712 79.4093 49.712C80.1755 49.712 81.2953 49.533 81.2953 48.6178C81.2953 47.7226 80.3916 47.5237 79.3307 47.5237H78.5056V49.6722H78.5252ZM78.5449 46.7876H79.3897C80.2148 46.7876 81.0792 46.529 81.0792 45.7929C81.0792 45.1563 80.5488 44.8579 79.429 44.8579C79.0557 44.8579 78.8199 44.8778 78.5645 44.9176V46.7876H78.5449Z" fill="black"/>
<path d="M92.081 50.1692C91.7863 50.3084 91.138 50.5273 90.3128 50.5273C88.4465 50.5273 87.248 49.2541 87.248 47.3443C87.248 45.4145 88.5447 44.022 90.5682 44.022C91.2362 44.022 91.8256 44.1811 92.1203 44.3602L91.8649 45.2156C91.5898 45.0763 91.1773 44.9172 90.5682 44.9172C89.1537 44.9172 88.3875 45.9915 88.3875 47.2846C88.3875 48.7368 89.3109 49.6122 90.5289 49.6122C91.1576 49.6122 91.5898 49.453 91.9042 49.3138L92.081 50.1692Z" fill="black"/>
<path d="M97.7778 47.4832C97.7974 49.0151 98.7601 49.6318 99.8799 49.6318C100.685 49.6318 101.177 49.4925 101.589 49.3135L101.786 50.1291C101.393 50.3082 100.705 50.527 99.7228 50.527C97.8367 50.527 96.6973 49.2538 96.6973 47.3838C96.6973 45.4938 97.7974 44.0217 99.6049 44.0217C101.609 44.0217 102.139 45.8121 102.139 46.966C102.139 47.2047 102.12 47.3639 102.1 47.5031H97.7778V47.4832ZM101.059 46.6875C101.078 45.9713 100.764 44.8373 99.5263 44.8373C98.3868 44.8373 97.8957 45.8917 97.7974 46.6875H101.059ZM98.4458 43.0469C98.0921 43.0469 97.8171 42.7286 97.8171 42.3904C97.8171 42.0323 98.0921 41.7339 98.4654 41.7339C98.7994 41.7339 99.0744 42.0124 99.0744 42.3904C99.0744 42.7485 98.819 43.0469 98.4458 43.0469ZM100.803 43.0469C100.43 43.0469 100.175 42.7286 100.175 42.3904C100.175 42.0323 100.45 41.7339 100.803 41.7339C101.157 41.7339 101.432 42.0124 101.432 42.3904C101.452 42.7485 101.196 43.0469 100.803 43.0469Z" fill="black"/>
<path d="M118.937 44.1621V50.4088H117.818V45.0573H114.949V50.4088H113.829V44.1621H118.937Z" fill="black"/>
<path d="M127.11 50.5472C125.46 50.5472 124.163 49.3137 124.163 47.3443C124.163 45.2554 125.519 44.022 127.228 44.022C128.996 44.022 130.194 45.335 130.194 47.2249C130.175 49.5525 128.583 50.5472 127.11 50.5472ZM127.149 49.6917C128.23 49.6917 129.016 48.6771 129.016 47.2448C129.016 46.1904 128.485 44.8575 127.169 44.8575C125.853 44.8575 125.283 46.0909 125.283 47.2846C125.283 48.6771 126.049 49.6917 127.149 49.6917Z" fill="black"/>
<path d="M138.014 46.5083V47.3274H134.871V46.5083H138.014Z" fill="black"/>
<path d="M144.222 44.1621V46.6687H147.149V44.1621H148.269V50.4088H147.149V47.5839H144.222V50.4088H143.102V44.1621H144.222Z" fill="black"/>
<path d="M158.268 48.9159C158.268 49.453 158.288 49.9901 158.347 50.4079H157.345L157.247 49.6122H157.208C156.874 50.1095 156.206 50.5472 155.322 50.5472C154.064 50.5472 153.436 49.6519 153.436 48.7567C153.436 47.2448 154.771 46.4291 157.149 46.4291V46.3098C157.149 45.7925 157.011 44.8575 155.754 44.8575C155.164 44.8575 154.575 45.0167 154.143 45.3151L153.887 44.5591C154.398 44.2408 155.145 44.022 155.931 44.022C157.836 44.022 158.288 45.335 158.288 46.5684V48.9159H158.268ZM157.168 47.2249C155.95 47.205 154.555 47.4238 154.555 48.6374C154.555 49.3933 155.047 49.7315 155.597 49.7315C156.402 49.7315 156.933 49.2143 157.109 48.6771C157.168 48.5578 157.168 48.4185 157.168 48.2992V47.2249Z" fill="black"/>
<path d="M168.288 50.1692C167.993 50.3084 167.345 50.5273 166.52 50.5273C164.654 50.5273 163.455 49.2541 163.455 47.3443C163.455 45.4145 164.752 44.022 166.775 44.022C167.443 44.022 168.013 44.1811 168.327 44.3602L168.072 45.2156C167.817 45.0763 167.384 44.9172 166.775 44.9172C165.361 44.9172 164.595 45.9915 164.595 47.2846C164.595 48.7368 165.518 49.6122 166.736 49.6122C167.365 49.6122 167.797 49.453 168.111 49.3138L168.288 50.1692Z" fill="black"/>
<path d="M177.797 44.1621V45.0573H175.871V50.4088H174.751V45.0573H172.826V44.1621H177.797Z" fill="black"/>
<path d="M184.928 50.5472C183.278 50.5472 181.981 49.3137 181.981 47.3443C181.981 45.2554 183.337 44.022 185.046 44.022C186.814 44.022 188.013 45.335 188.013 47.2249C188.013 49.5525 186.421 50.5472 184.928 50.5472ZM184.987 49.6917C186.068 49.6917 186.854 48.6771 186.854 47.2448C186.854 46.1904 186.323 44.8575 185.007 44.8575C183.691 44.8575 183.121 46.0909 183.121 47.2846C183.121 48.6771 183.887 49.6917 184.987 49.6917Z" fill="black"/>
<path d="M197.737 50.4082H196.637V47.7822H195.812C195.34 47.7822 195.026 47.9015 194.79 48.1204C194.319 48.4983 194.162 49.2742 193.906 49.871C193.828 50.07 193.749 50.2291 193.651 50.3883H192.452C192.59 50.1893 192.727 49.9506 192.845 49.6721C193.101 49.0753 193.258 48.2596 193.808 47.7822C194.004 47.623 194.221 47.4838 194.515 47.4241V47.4042C193.71 47.3047 192.885 46.8074 192.885 45.8326C192.885 45.196 193.238 44.7583 193.71 44.4798C194.221 44.1814 194.967 44.062 195.792 44.062C196.519 44.062 197.226 44.1217 197.776 44.1814V50.4082H197.737ZM196.637 44.9174C196.362 44.8777 196.107 44.8578 195.714 44.8578C194.967 44.8578 194.044 45.0766 194.044 45.932C194.044 46.7278 195.026 47.0262 195.694 47.0262C196.165 47.0262 196.401 47.0063 196.657 47.0063V44.9174H196.637Z" fill="black"/>
<path d="M204.456 44.1621V49.5136H206.617V44.1621H207.717V49.5136H209.859V44.1621H210.959V49.5534L211.588 49.5732L211.529 52.3783H210.664L210.605 50.4088H203.336V44.1621H204.456Z" fill="black"/>
<path d="M217.344 47.4835C217.364 49.0153 218.326 49.6321 219.446 49.6321C220.252 49.6321 220.743 49.4928 221.156 49.3138L221.352 50.1294C220.959 50.3084 220.271 50.5273 219.289 50.5273C217.403 50.5273 216.264 49.2541 216.264 47.384C216.264 45.4941 217.364 44.022 219.171 44.022C221.195 44.022 221.706 45.8124 221.706 46.9663C221.706 47.205 221.686 47.3641 221.666 47.5034H217.344V47.4835ZM220.625 46.6878C220.645 45.9716 220.33 44.8376 219.073 44.8376C217.934 44.8376 217.442 45.892 217.344 46.6878H220.625Z" fill="black"/>
<path d="M226.991 44.1615H228.366L229.466 47.3047C229.623 47.7623 229.879 48.5381 230.036 49.0156H230.056C230.193 48.558 230.547 47.5633 230.802 46.8671L231.784 44.1416H233.179L233.612 50.3883H232.551L232.413 47.4042C232.393 46.7278 232.335 45.932 232.315 45.1761H232.276C232.118 45.753 231.942 46.2305 231.588 47.2053L230.409 50.3485H229.604L228.504 47.245C228.307 46.6681 228.032 45.753 227.875 45.1761H227.816C227.796 45.9122 227.757 46.7278 227.718 47.4241L227.561 50.3883H226.519L226.991 44.1615Z" fill="black"/>
<path d="M239.23 44.1621L240.566 47.8425C240.723 48.2603 240.88 48.7576 240.978 49.1157H240.998C241.116 48.7377 241.234 48.2603 241.391 47.8226L242.609 44.1621H243.788L242.098 48.6183C241.293 50.7669 240.743 51.8412 239.976 52.5176C239.407 52.995 238.876 53.1939 238.601 53.2337L238.326 52.2987C238.601 52.1993 238.974 52.0202 239.308 51.7417C239.623 51.503 239.976 51.0653 240.251 50.4884C240.31 50.369 240.33 50.2894 240.33 50.2099C240.33 50.1502 240.31 50.0507 240.251 49.9114L237.992 44.1621H239.23Z" fill="black"/>
<path d="M53.3587 0H4.91151C2.20036 0 0 2.22792 0 4.97303V54.027C0 56.7721 2.20036 59 4.91151 59H53.3587C56.0699 59 58.2702 56.7721 58.2702 54.027V4.97303C58.2702 2.22792 56.0699 0 53.3587 0Z" fill="#B11934"/>
<path d="M28.5064 29.6394C10.3731 31.0318 6.32603 47.0052 6.32603 47.0052C6.32603 47.0052 6.20815 45.7719 6.79753 43.5838C9.01754 35.2291 13.6344 22.1401 27.4848 19.7132C23.811 16.1923 21.5517 16.2719 21.5517 16.2719C21.5517 16.2719 27.7009 14.8993 32.8679 18.8976C33.3001 18.8976 33.7323 18.9175 34.1841 18.9573C35.1861 19.0568 36.1095 19.196 36.9935 19.3552C38.8795 19.5939 40.4709 20.0514 41.8461 20.6283C49.5277 23.4927 49.8813 28.7641 49.567 31.2308C51.3548 33.1205 52.2389 34.5925 52.2389 34.5925C52.2389 34.5925 42.0819 28.605 28.5064 29.6394Z" fill="white"/>
</g>
<defs>
<filter id="filter0_d" x="-4" y="0" width="260.02" height="67" filterUnits="userSpaceOnUse" color-interpolation-filters="sRGB">
<feFlood flood-opacity="0" result="BackgroundImageFix"/>
<feColorMatrix in="SourceAlpha" type="matrix" values="0 0 0 0 0 0 0 0 0 0 0 0 0 0 0 0 0 0 127 0"/>
<feOffset dy="4"/>
<feGaussianBlur stdDeviation="2"/>
<feColorMatrix type="matrix" values="0 0 0 0 0 0 0 0 0 0 0 0 0 0 0 0 0 0 0.25 0"/>
<feBlend mode="normal" in2="BackgroundImageFix" result="effect1_dropShadow"/>
<feBlend mode="normal" in="SourceGraphic" in2="effect1_dropShadow" result="shape"/>
</filter>
</defs>
</svg>
